999
DXF gemstone file C:\My Documents\Gems\MyGemCadWin\compsRose.dxf created by GemCad for Windows
0
SECTION
2
HEADER
0
ENDSEC
0
SECTION
2
TABLES
0
TABLE
2
LAYER
70
153
0
LAYER
2
GEM
70
0
62
15
6
CONTINUOUS
0
ENDTAB
0
ENDSEC
0
SECTION
2
ENTITIES
0
3DFACE
8
GEM
10
-0.563197
20
0.563197
30
-0.090314
11
-0.563197
21
0.563197
31
-0.064820
12
-0.000000
22
0.637343
32
-0.064820
13
-0.000000
23
0.637343
33
-0.064820
62
0
0
3DFACE
8
GEM
10
-0.563197
20
0.563197
30
-0.090314
11
-0.000000
21
0.637343
31
-0.064820
12
-0.000000
22
0.637343
32
-0.090314
13
-0.000000
23
0.637343
33
-0.090314
62
0
0
3DFACE
8
GEM
10
-0.563197
20
0.563197
30
-0.064820
11
-0.563197
21
0.563197
31
-0.090314
12
-0.637343
22
0.000000
32
-0.090314
13
-0.637343
23
0.000000
33
-0.090314
62
0
0
3DFACE
8
GEM
10
-0.563197
20
0.563197
30
-0.064820
11
-0.637343
21
0.000000
31
-0.090314
12
-0.637343
22
0.000000
32
-0.064820
13
-0.637343
23
0.000000
33
-0.064820
62
0
0
3DFACE
8
GEM
10
-0.637343
20
0.000000
30
-0.064820
11
-0.637343
21
0.000000
31
-0.090314
12
-0.563197
22
-0.563197
32
-0.090314
13
-0.563197
23
-0.563197
33
-0.090314
62
0
0
3DFACE
8
GEM
10
-0.637343
20
0.000000
30
-0.064820
11
-0.563197
21
-0.563197
31
-0.090314
12
-0.563197
22
-0.563197
32
-0.064820
13
-0.563197
23
-0.563197
33
-0.064820
62
0
0
3DFACE
8
GEM
10
-0.563197
20
-0.563197
30
-0.064820
11
-0.563197
21
-0.563197
31
-0.090314
12
0.000000
22
-0.637343
32
-0.090314
13
0.000000
23
-0.637343
33
-0.090314
62
0
0
3DFACE
8
GEM
10
-0.563197
20
-0.563197
30
-0.064820
11
0.000000
21
-0.637343
31
-0.090314
12
0.000000
22
-0.637343
32
-0.064820
13
0.000000
23
-0.637343
33
-0.064820
62
0
0
3DFACE
8
GEM
10
0.000000
20
-0.637343
30
-0.064820
11
0.000000
21
-0.637343
31
-0.090314
12
0.563197
22
-0.563197
32
-0.090314
13
0.563197
23
-0.563197
33
-0.090314
62
0
0
3DFACE
8
GEM
10
0.000000
20
-0.637343
30
-0.064820
11
0.563197
21
-0.563197
31
-0.090314
12
0.563197
22
-0.563197
32
-0.064820
13
0.563197
23
-0.563197
33
-0.064820
62
0
0
3DFACE
8
GEM
10
0.563197
20
-0.563197
30
-0.064820
11
0.563197
21
-0.563197
31
-0.090314
12
0.637343
22
-0.000000
32
-0.090314
13
0.637343
23
-0.000000
33
-0.090314
62
0
0
3DFACE
8
GEM
10
0.563197
20
-0.563197
30
-0.064820
11
0.637343
21
-0.000000
31
-0.090314
12
0.637343
22
-0.000000
32
-0.064820
13
0.637343
23
-0.000000
33
-0.064820
62
0
0
3DFACE
8
GEM
10
0.637343
20
-0.000000
30
-0.064820
11
0.637343
21
-0.000000
31
-0.090314
12
0.563197
22
0.563197
32
-0.090314
13
0.563197
23
0.563197
33
-0.090314
62
0
0
3DFACE
8
GEM
10
0.637343
20
-0.000000
30
-0.064820
11
0.563197
21
0.563197
31
-0.090314
12
0.563197
22
0.563197
32
-0.064820
13
0.563197
23
0.563197
33
-0.064820
62
0
0
3DFACE
8
GEM
10
-0.000000
20
0.637343
30
-0.090314
11
-0.000000
21
0.637343
31
-0.064820
12
0.563197
22
0.563197
32
-0.064820
13
0.563197
23
0.563197
33
-0.064820
62
0
0
3DFACE
8
GEM
10
-0.000000
20
0.637343
30
-0.090314
11
0.563197
21
0.563197
31
-0.064820
12
0.563197
22
0.563197
32
-0.090314
13
0.563197
23
0.563197
33
-0.090314
62
0
0
3DFACE
8
GEM
10
-0.563197
20
0.563197
30
-0.090314
11
-0.000000
21
0.637343
31
-0.090314
12
-0.000000
22
0.593852
32
-0.208783
13
-0.000000
23
0.593852
33
-0.208783
62
0
0
3DFACE
8
GEM
10
-0.563197
20
0.563197
30
-0.090314
11
-0.000000
21
0.593852
31
-0.208783
12
-0.398999
22
0.541323
32
-0.208783
13
-0.398999
23
0.541323
33
-0.208783
62
0
0
3DFACE
8
GEM
10
-0.637343
20
0.000000
30
-0.090314
11
-0.563197
21
0.563197
31
-0.090314
12
-0.541323
22
0.398999
32
-0.208783
13
-0.541323
23
0.398999
33
-0.208783
62
0
0
3DFACE
8
GEM
10
-0.637343
20
0.000000
30
-0.090314
11
-0.541323
21
0.398999
31
-0.208783
12
-0.593852
22
0.000000
32
-0.208783
13
-0.593852
23
0.000000
33
-0.208783
62
0
0
3DFACE
8
GEM
10
-0.563197
20
-0.563197
30
-0.090314
11
-0.637343
21
0.000000
31
-0.090314
12
-0.593852
22
0.000000
32
-0.208783
13
-0.593852
23
0.000000
33
-0.208783
62
0
0
3DFACE
8
GEM
10
-0.563197
20
-0.563197
30
-0.090314
11
-0.593852
21
0.000000
31
-0.208783
12
-0.541323
22
-0.398999
32
-0.208783
13
-0.541323
23
-0.398999
33
-0.208783
62
0
0
3DFACE
8
GEM
10
0.000000
20
-0.637343
30
-0.090314
11
-0.563197
21
-0.563197
31
-0.090314
12
-0.398999
22
-0.541323
32
-0.208783
13
-0.398999
23
-0.541323
33
-0.208783
62
0
0
3DFACE
8
GEM
10
0.000000
20
-0.637343
30
-0.090314
11
-0.398999
21
-0.541323
31
-0.208783
12
0.000000
22
-0.593852
32
-0.208783
13
0.000000
23
-0.593852
33
-0.208783
62
0
0
3DFACE
8
GEM
10
0.563197
20
-0.563197
30
-0.090314
11
0.000000
21
-0.637343
31
-0.090314
12
0.000000
22
-0.593852
32
-0.208783
13
0.000000
23
-0.593852
33
-0.208783
62
0
0
3DFACE
8
GEM
10
0.563197
20
-0.563197
30
-0.090314
11
0.000000
21
-0.593852
31
-0.208783
12
0.398999
22
-0.541323
32
-0.208783
13
0.398999
23
-0.541323
33
-0.208783
62
0
0
3DFACE
8
GEM
10
0.637343
20
-0.000000
30
-0.090314
11
0.563197
21
-0.563197
31
-0.090314
12
0.541323
22
-0.398999
32
-0.208783
13
0.541323
23
-0.398999
33
-0.208783
62
0
0
3DFACE
8
GEM
10
0.637343
20
-0.000000
30
-0.090314
11
0.541323
21
-0.398999
31
-0.208783
12
0.593852
22
-0.000000
32
-0.208783
13
0.593852
23
-0.000000
33
-0.208783
62
0
0
3DFACE
8
GEM
10
0.563197
20
0.563197
30
-0.090314
11
0.637343
21
-0.000000
31
-0.090314
12
0.593852
22
-0.000000
32
-0.208783
13
0.593852
23
-0.000000
33
-0.208783
62
0
0
3DFACE
8
GEM
10
0.563197
20
0.563197
30
-0.090314
11
0.593852
21
-0.000000
31
-0.208783
12
0.541323
22
0.398999
32
-0.208783
13
0.541323
23
0.398999
33
-0.208783
62
0
0
3DFACE
8
GEM
10
-0.000000
20
0.637343
30
-0.090314
11
0.563197
21
0.563197
31
-0.090314
12
0.398999
22
0.541323
32
-0.208783
13
0.398999
23
0.541323
33
-0.208783
62
0
0
3DFACE
8
GEM
10
-0.000000
20
0.637343
30
-0.090314
11
0.398999
21
0.541323
31
-0.208783
12
-0.000000
22
0.593852
32
-0.208783
13
-0.000000
23
0.593852
33
-0.208783
62
0
0
3DFACE
8
GEM
10
-0.398999
20
0.541323
30
-0.208783
11
-0.000000
21
0.593852
31
-0.208783
12
-0.000000
22
0.540143
32
-0.322977
13
-0.000000
23
0.540143
33
-0.322977
62
0
0
3DFACE
8
GEM
10
-0.398999
20
0.541323
30
-0.208783
11
-0.000000
21
0.540143
31
-0.322977
12
-0.254300
22
0.506664
32
-0.322977
13
-0.254300
23
0.506664
33
-0.322977
62
0
0
3DFACE
8
GEM
10
-0.593852
20
0.000000
30
-0.208783
11
-0.541323
21
0.398999
31
-0.208783
12
-0.506664
22
0.254300
32
-0.322977
13
-0.506664
23
0.254300
33
-0.322977
62
0
0
3DFACE
8
GEM
10
-0.593852
20
0.000000
30
-0.208783
11
-0.506664
21
0.254300
31
-0.322977
12
-0.540143
22
0.000000
32
-0.322977
13
-0.540143
23
0.000000
33
-0.322977
62
0
0
3DFACE
8
GEM
10
-0.541323
20
-0.398999
30
-0.208783
11
-0.593852
21
0.000000
31
-0.208783
12
-0.540143
22
0.000000
32
-0.322977
13
-0.540143
23
0.000000
33
-0.322977
62
0
0
3DFACE
8
GEM
10
-0.541323
20
-0.398999
30
-0.208783
11
-0.540143
21
0.000000
31
-0.322977
12
-0.506664
22
-0.254300
32
-0.322977
13
-0.506664
23
-0.254300
33
-0.322977
62
0
0
3DFACE
8
GEM
10
0.000000
20
-0.593852
30
-0.208783
11
-0.398999
21
-0.541323
31
-0.208783
12
-0.254300
22
-0.506664
32
-0.322977
13
-0.254300
23
-0.506664
33
-0.322977
62
0
0
3DFACE
8
GEM
10
0.000000
20
-0.593852
30
-0.208783
11
-0.254300
21
-0.506664
31
-0.322977
12
0.000000
22
-0.540143
32
-0.322977
13
0.000000
23
-0.540143
33
-0.322977
62
0
0
3DFACE
8
GEM
10
0.398999
20
-0.541323
30
-0.208783
11
0.000000
21
-0.593852
31
-0.208783
12
0.000000
22
-0.540143
32
-0.322977
13
0.000000
23
-0.540143
33
-0.322977
62
0
0
3DFACE
8
GEM
10
0.398999
20
-0.541323
30
-0.208783
11
0.000000
21
-0.540143
31
-0.322977
12
0.254300
22
-0.506664
32
-0.322977
13
0.254300
23
-0.506664
33
-0.322977
62
0
0
3DFACE
8
GEM
10
0.593852
20
-0.000000
30
-0.208783
11
0.541323
21
-0.398999
31
-0.208783
12
0.506664
22
-0.254300
32
-0.322977
13
0.506664
23
-0.254300
33
-0.322977
62
0
0
3DFACE
8
GEM
10
0.593852
20
-0.000000
30
-0.208783
11
0.506664
21
-0.254300
31
-0.322977
12
0.540143
22
-0.000000
32
-0.322977
13
0.540143
23
-0.000000
33
-0.322977
62
0
0
3DFACE
8
GEM
10
0.541323
20
0.398999
30
-0.208783
11
0.593852
21
-0.000000
31
-0.208783
12
0.540143
22
-0.000000
32
-0.322977
13
0.540143
23
-0.000000
33
-0.322977
62
0
0
3DFACE
8
GEM
10
0.541323
20
0.398999
30
-0.208783
11
0.540143
21
-0.000000
31
-0.322977
12
0.506664
22
0.254300
32
-0.322977
13
0.506664
23
0.254300
33
-0.322977
62
0
0
3DFACE
8
GEM
10
-0.000000
20
0.593852
30
-0.208783
11
0.398999
21
0.541323
31
-0.208783
12
0.254300
22
0.506664
32
-0.322977
13
0.254300
23
0.506664
33
-0.322977
62
0
0
3DFACE
8
GEM
10
-0.000000
20
0.593852
30
-0.208783
11
0.254300
21
0.506664
31
-0.322977
12
-0.000000
22
0.540143
32
-0.322977
13
-0.000000
23
0.540143
33
-0.322977
62
0
0
3DFACE
8
GEM
10
-0.254300
20
0.506664
30
-0.322977
11
-0.000000
21
0.540143
31
-0.322977
12
-0.000000
22
0.476639
32
-0.432028
13
-0.000000
23
0.476639
33
-0.432028
62
0
0
3DFACE
8
GEM
10
-0.254300
20
0.506664
30
-0.322977
11
-0.000000
21
0.476639
31
-0.432028
12
-0.130183
22
0.459500
32
-0.432028
13
-0.130183
23
0.459500
33
-0.432028
62
0
0
3DFACE
8
GEM
10
-0.540143
20
0.000000
30
-0.322977
11
-0.506664
21
0.254300
31
-0.322977
12
-0.459500
22
0.130183
32
-0.432028
13
-0.459500
23
0.130183
33
-0.432028
62
0
0
3DFACE
8
GEM
10
-0.540143
20
0.000000
30
-0.322977
11
-0.459500
21
0.130183
31
-0.432028
12
-0.476639
22
0.000000
32
-0.432028
13
-0.476639
23
0.000000
33
-0.432028
62
0
0
3DFACE
8
GEM
10
-0.506664
20
-0.254300
30
-0.322977
11
-0.540143
21
0.000000
31
-0.322977
12
-0.476639
22
0.000000
32
-0.432028
13
-0.476639
23
0.000000
33
-0.432028
62
0
0
3DFACE
8
GEM
10
-0.506664
20
-0.254300
30
-0.322977
11
-0.476639
21
0.000000
31
-0.432028
12
-0.459500
22
-0.130183
32
-0.432028
13
-0.459500
23
-0.130183
33
-0.432028
62
0
0
3DFACE
8
GEM
10
0.000000
20
-0.540143
30
-0.322977
11
-0.254300
21
-0.506664
31
-0.322977
12
-0.130183
22
-0.459500
32
-0.432028
13
-0.130183
23
-0.459500
33
-0.432028
62
0
0
3DFACE
8
GEM
10
0.000000
20
-0.540143
30
-0.322977
11
-0.130183
21
-0.459500
31
-0.432028
12
0.000000
22
-0.476639
32
-0.432028
13
0.000000
23
-0.476639
33
-0.432028
62
0
0
3DFACE
8
GEM
10
0.254300
20
-0.506664
30
-0.322977
11
0.000000
21
-0.540143
31
-0.322977
12
0.000000
22
-0.476639
32
-0.432028
13
0.000000
23
-0.476639
33
-0.432028
62
0
0
3DFACE
8
GEM
10
0.254300
20
-0.506664
30
-0.322977
11
0.000000
21
-0.476639
31
-0.432028
12
0.130183
22
-0.459500
32
-0.432028
13
0.130183
23
-0.459500
33
-0.432028
62
0
0
3DFACE
8
GEM
10
0.540143
20
-0.000000
30
-0.322977
11
0.506664
21
-0.254300
31
-0.322977
12
0.459500
22
-0.130183
32
-0.432028
13
0.459500
23
-0.130183
33
-0.432028
62
0
0
3DFACE
8
GEM
10
0.540143
20
-0.000000
30
-0.322977
11
0.459500
21
-0.130183
31
-0.432028
12
0.476639
22
-0.000000
32
-0.432028
13
0.476639
23
-0.000000
33
-0.432028
62
0
0
3DFACE
8
GEM
10
0.506664
20
0.254300
30
-0.322977
11
0.540143
21
-0.000000
31
-0.322977
12
0.476639
22
-0.000000
32
-0.432028
13
0.476639
23
-0.000000
33
-0.432028
62
0
0
3DFACE
8
GEM
10
0.506664
20
0.254300
30
-0.322977
11
0.476639
21
-0.000000
31
-0.432028
12
0.459500
22
0.130183
32
-0.432028
13
0.459500
23
0.130183
33
-0.432028
62
0
0
3DFACE
8
GEM
10
-0.000000
20
0.540143
30
-0.322977
11
0.254300
21
0.506664
31
-0.322977
12
0.130183
22
0.459500
32
-0.432028
13
0.130183
23
0.459500
33
-0.432028
62
0
0
3DFACE
8
GEM
10
-0.000000
20
0.540143
30
-0.322977
11
0.130183
21
0.459500
31
-0.432028
12
-0.000000
22
0.476639
32
-0.432028
13
-0.000000
23
0.476639
33
-0.432028
62
0
0
3DFACE
8
GEM
10
-0.130183
20
0.459500
30
-0.432028
11
-0.000000
21
0.476639
31
-0.432028
12
-0.000000
22
0.384276
32
-0.562806
13
-0.000000
23
0.384276
33
-0.562806
62
0
0
3DFACE
8
GEM
10
-0.476639
20
0.000000
30
-0.432028
11
-0.459500
21
0.130183
31
-0.432028
12
-0.384276
22
0.000000
32
-0.562806
13
-0.384276
23
0.000000
33
-0.562806
62
0
0
3DFACE
8
GEM
10
-0.459500
20
-0.130183
30
-0.432028
11
-0.476639
21
0.000000
31
-0.432028
12
-0.384276
22
0.000000
32
-0.562806
13
-0.384276
23
0.000000
33
-0.562806
62
0
0
3DFACE
8
GEM
10
0.000000
20
-0.476639
30
-0.432028
11
-0.130183
21
-0.459500
31
-0.432028
12
0.000000
22
-0.384276
32
-0.562806
13
0.000000
23
-0.384276
33
-0.562806
62
0
0
3DFACE
8
GEM
10
0.130183
20
-0.459500
30
-0.432028
11
0.000000
21
-0.476639
31
-0.432028
12
0.000000
22
-0.384276
32
-0.562806
13
0.000000
23
-0.384276
33
-0.562806
62
0
0
3DFACE
8
GEM
10
0.476639
20
-0.000000
30
-0.432028
11
0.459500
21
-0.130183
31
-0.432028
12
0.384276
22
-0.000000
32
-0.562806
13
0.384276
23
-0.000000
33
-0.562806
62
0
0
3DFACE
8
GEM
10
0.459500
20
0.130183
30
-0.432028
11
0.476639
21
-0.000000
31
-0.432028
12
0.384276
22
-0.000000
32
-0.562806
13
0.384276
23
-0.000000
33
-0.562806
62
0
0
3DFACE
8
GEM
10
-0.000000
20
0.476639
30
-0.432028
11
0.130183
21
0.459500
31
-0.432028
12
-0.000000
22
0.384276
32
-0.562806
13
-0.000000
23
0.384276
33
-0.562806
62
0
0
3DFACE
8
GEM
10
-0.563197
20
0.563197
30
-0.090314
11
-0.398999
21
0.541323
31
-0.208783
12
-0.254300
22
0.506664
32
-0.322977
13
-0.254300
23
0.506664
33
-0.322977
62
0
0
3DFACE
8
GEM
10
-0.563197
20
0.563197
30
-0.090314
11
-0.254300
21
0.506664
31
-0.322977
12
-0.130183
22
0.459500
32
-0.432028
13
-0.130183
23
0.459500
33
-0.432028
62
0
0
3DFACE
8
GEM
10
-0.563197
20
0.563197
30
-0.090314
11
-0.130183
21
0.459500
31
-0.432028
12
-0.000000
22
0.384276
32
-0.562806
13
-0.000000
23
0.384276
33
-0.562806
62
0
0
3DFACE
8
GEM
10
-0.563197
20
0.563197
30
-0.090314
11
-0.000000
21
0.384276
31
-0.562806
12
-0.065117
22
0.065117
32
-0.724551
13
-0.065117
23
0.065117
33
-0.724551
62
0
0
3DFACE
8
GEM
10
-0.563197
20
0.563197
30
-0.090314
11
-0.065117
21
0.065117
31
-0.724551
12
-0.384276
22
0.000000
32
-0.562806
13
-0.384276
23
0.000000
33
-0.562806
62
0
0
3DFACE
8
GEM
10
-0.563197
20
0.563197
30
-0.090314
11
-0.384276
21
0.000000
31
-0.562806
12
-0.459500
22
0.130183
32
-0.432028
13
-0.459500
23
0.130183
33
-0.432028
62
0
0
3DFACE
8
GEM
10
-0.563197
20
0.563197
30
-0.090314
11
-0.459500
21
0.130183
31
-0.432028
12
-0.506664
22
0.254300
32
-0.322977
13
-0.506664
23
0.254300
33
-0.322977
62
0
0
3DFACE
8
GEM
10
-0.563197
20
0.563197
30
-0.090314
11
-0.506664
21
0.254300
31
-0.322977
12
-0.541323
22
0.398999
32
-0.208783
13
-0.541323
23
0.398999
33
-0.208783
62
0
0
3DFACE
8
GEM
10
-0.563197
20
-0.563197
30
-0.090314
11
-0.541323
21
-0.398999
31
-0.208783
12
-0.506664
22
-0.254300
32
-0.322977
13
-0.506664
23
-0.254300
33
-0.322977
62
0
0
3DFACE
8
GEM
10
-0.563197
20
-0.563197
30
-0.090314
11
-0.506664
21
-0.254300
31
-0.322977
12
-0.459500
22
-0.130183
32
-0.432028
13
-0.459500
23
-0.130183
33
-0.432028
62
0
0
3DFACE
8
GEM
10
-0.563197
20
-0.563197
30
-0.090314
11
-0.459500
21
-0.130183
31
-0.432028
12
-0.384276
22
0.000000
32
-0.562806
13
-0.384276
23
0.000000
33
-0.562806
62
0
0
3DFACE
8
GEM
10
-0.563197
20
-0.563197
30
-0.090314
11
-0.384276
21
0.000000
31
-0.562806
12
-0.065117
22
-0.065117
32
-0.724551
13
-0.065117
23
-0.065117
33
-0.724551
62
0
0
3DFACE
8
GEM
10
-0.563197
20
-0.563197
30
-0.090314
11
-0.065117
21
-0.065117
31
-0.724551
12
0.000000
22
-0.384276
32
-0.562806
13
0.000000
23
-0.384276
33
-0.562806
62
0
0
3DFACE
8
GEM
10
-0.563197
20
-0.563197
30
-0.090314
11
0.000000
21
-0.384276
31
-0.562806
12
-0.130183
22
-0.459500
32
-0.432028
13
-0.130183
23
-0.459500
33
-0.432028
62
0
0
3DFACE
8
GEM
10
-0.563197
20
-0.563197
30
-0.090314
11
-0.130183
21
-0.459500
31
-0.432028
12
-0.254300
22
-0.506664
32
-0.322977
13
-0.254300
23
-0.506664
33
-0.322977
62
0
0
3DFACE
8
GEM
10
-0.563197
20
-0.563197
30
-0.090314
11
-0.254300
21
-0.506664
31
-0.322977
12
-0.398999
22
-0.541323
32
-0.208783
13
-0.398999
23
-0.541323
33
-0.208783
62
0
0
3DFACE
8
GEM
10
0.563197
20
-0.563197
30
-0.090314
11
0.398999
21
-0.541323
31
-0.208783
12
0.254300
22
-0.506664
32
-0.322977
13
0.254300
23
-0.506664
33
-0.322977
62
0
0
3DFACE
8
GEM
10
0.563197
20
-0.563197
30
-0.090314
11
0.254300
21
-0.506664
31
-0.322977
12
0.130183
22
-0.459500
32
-0.432028
13
0.130183
23
-0.459500
33
-0.432028
62
0
0
3DFACE
8
GEM
10
0.563197
20
-0.563197
30
-0.090314
11
0.130183
21
-0.459500
31
-0.432028
12
0.000000
22
-0.384276
32
-0.562806
13
0.000000
23
-0.384276
33
-0.562806
62
0
0
3DFACE
8
GEM
10
0.563197
20
-0.563197
30
-0.090314
11
0.000000
21
-0.384276
31
-0.562806
12
0.065117
22
-0.065117
32
-0.724551
13
0.065117
23
-0.065117
33
-0.724551
62
0
0
3DFACE
8
GEM
10
0.563197
20
-0.563197
30
-0.090314
11
0.065117
21
-0.065117
31
-0.724551
12
0.384276
22
-0.000000
32
-0.562806
13
0.384276
23
-0.000000
33
-0.562806
62
0
0
3DFACE
8
GEM
10
0.563197
20
-0.563197
30
-0.090314
11
0.384276
21
-0.000000
31
-0.562806
12
0.459500
22
-0.130183
32
-0.432028
13
0.459500
23
-0.130183
33
-0.432028
62
0
0
3DFACE
8
GEM
10
0.563197
20
-0.563197
30
-0.090314
11
0.459500
21
-0.130183
31
-0.432028
12
0.506664
22
-0.254300
32
-0.322977
13
0.506664
23
-0.254300
33
-0.322977
62
0
0
3DFACE
8
GEM
10
0.563197
20
-0.563197
30
-0.090314
11
0.506664
21
-0.254300
31
-0.322977
12
0.541323
22
-0.398999
32
-0.208783
13
0.541323
23
-0.398999
33
-0.208783
62
0
0
3DFACE
8
GEM
10
0.563197
20
0.563197
30
-0.090314
11
0.541323
21
0.398999
31
-0.208783
12
0.506664
22
0.254300
32
-0.322977
13
0.506664
23
0.254300
33
-0.322977
62
0
0
3DFACE
8
GEM
10
0.563197
20
0.563197
30
-0.090314
11
0.506664
21
0.254300
31
-0.322977
12
0.459500
22
0.130183
32
-0.432028
13
0.459500
23
0.130183
33
-0.432028
62
0
0
3DFACE
8
GEM
10
0.563197
20
0.563197
30
-0.090314
11
0.459500
21
0.130183
31
-0.432028
12
0.384276
22
-0.000000
32
-0.562806
13
0.384276
23
-0.000000
33
-0.562806
62
0
0
3DFACE
8
GEM
10
0.563197
20
0.563197
30
-0.090314
11
0.384276
21
-0.000000
31
-0.562806
12
0.065117
22
0.065117
32
-0.724551
13
0.065117
23
0.065117
33
-0.724551
62
0
0
3DFACE
8
GEM
10
0.563197
20
0.563197
30
-0.090314
11
0.065117
21
0.065117
31
-0.724551
12
-0.000000
22
0.384276
32
-0.562806
13
-0.000000
23
0.384276
33
-0.562806
62
0
0
3DFACE
8
GEM
10
0.563197
20
0.563197
30
-0.090314
11
-0.000000
21
0.384276
31
-0.562806
12
0.130183
22
0.459500
32
-0.432028
13
0.130183
23
0.459500
33
-0.432028
62
0
0
3DFACE
8
GEM
10
0.563197
20
0.563197
30
-0.090314
11
0.130183
21
0.459500
31
-0.432028
12
0.254300
22
0.506664
32
-0.322977
13
0.254300
23
0.506664
33
-0.322977
62
0
0
3DFACE
8
GEM
10
0.563197
20
0.563197
30
-0.090314
11
0.254300
21
0.506664
31
-0.322977
12
0.398999
22
0.541323
32
-0.208783
13
0.398999
23
0.541323
33
-0.208783
62
0
0
3DFACE
8
GEM
10
-0.065117
20
0.065117
30
-0.724551
11
-0.000000
21
0.384276
31
-0.562806
12
-0.000000
22
0.000000
32
-0.760190
13
-0.000000
23
0.000000
33
-0.760190
62
0
0
3DFACE
8
GEM
10
-0.384276
20
0.000000
30
-0.562806
11
-0.065117
21
0.065117
31
-0.724551
12
-0.000000
22
0.000000
32
-0.760190
13
-0.000000
23
0.000000
33
-0.760190
62
0
0
3DFACE
8
GEM
10
-0.065117
20
-0.065117
30
-0.724551
11
-0.384276
21
0.000000
31
-0.562806
12
-0.000000
22
0.000000
32
-0.760190
13
-0.000000
23
0.000000
33
-0.760190
62
0
0
3DFACE
8
GEM
10
0.000000
20
-0.384276
30
-0.562806
11
-0.065117
21
-0.065117
31
-0.724551
12
-0.000000
22
0.000000
32
-0.760190
13
-0.000000
23
0.000000
33
-0.760190
62
0
0
3DFACE
8
GEM
10
0.065117
20
-0.065117
30
-0.724551
11
0.000000
21
-0.384276
31
-0.562806
12
-0.000000
22
0.000000
32
-0.760190
13
-0.000000
23
0.000000
33
-0.760190
62
0
0
3DFACE
8
GEM
10
0.384276
20
-0.000000
30
-0.562806
11
0.065117
21
-0.065117
31
-0.724551
12
-0.000000
22
0.000000
32
-0.760190
13
-0.000000
23
0.000000
33
-0.760190
62
0
0
3DFACE
8
GEM
10
0.065117
20
0.065117
30
-0.724551
11
0.384276
21
-0.000000
31
-0.562806
12
-0.000000
22
0.000000
32
-0.760190
13
-0.000000
23
0.000000
33
-0.760190
62
0
0
3DFACE
8
GEM
10
-0.000000
20
0.384276
30
-0.562806
11
0.065117
21
0.065117
31
-0.724551
12
-0.000000
22
0.000000
32
-0.760190
13
-0.000000
23
0.000000
33
-0.760190
62
0
0
3DFACE
8
GEM
10
0.563197
20
0.563197
30
-0.064820
11
-0.000000
21
0.637343
31
-0.064820
12
0.084415
22
0.464541
32
0.212836
13
0.084415
23
0.464541
33
0.212836
62
0
0
3DFACE
8
GEM
10
0.563197
20
0.563197
30
-0.064820
11
0.084415
21
0.464541
31
0.212836
12
0.286811
22
0.437895
32
0.212836
13
0.286811
23
0.437895
33
0.212836
62
0
0
3DFACE
8
GEM
10
0.563197
20
0.563197
30
-0.064820
11
0.286811
21
0.437895
31
0.212836
12
0.339294
22
0.449449
32
0.181130
13
0.339294
23
0.449449
33
0.181130
62
0
0
3DFACE
8
GEM
10
0.563197
20
0.563197
30
-0.064820
11
0.339294
21
0.449449
31
0.181130
12
0.416441
22
0.474658
32
0.120399
13
0.416441
23
0.474658
33
0.120399
62
0
0
3DFACE
8
GEM
10
0.563197
20
0.563197
30
-0.064820
11
0.416441
21
0.474658
31
0.120399
12
0.481700
22
0.505735
32
0.052280
13
0.481700
23
0.505735
33
0.052280
62
0
0
3DFACE
8
GEM
10
0.637343
20
-0.000000
30
-0.064820
11
0.563197
21
0.563197
31
-0.064820
12
0.505735
22
0.481700
32
0.052280
13
0.505735
23
0.481700
33
0.052280
62
0
0
3DFACE
8
GEM
10
0.637343
20
-0.000000
30
-0.064820
11
0.505735
21
0.481700
31
0.052280
12
0.474658
22
0.416441
32
0.120399
13
0.474658
23
0.416441
33
0.120399
62
0
0
3DFACE
8
GEM
10
0.637343
20
-0.000000
30
-0.064820
11
0.474658
21
0.416441
31
0.120399
12
0.449449
22
0.339294
32
0.181130
13
0.449449
23
0.339294
33
0.181130
62
0
0
3DFACE
8
GEM
10
0.637343
20
-0.000000
30
-0.064820
11
0.449449
21
0.339294
31
0.181130
12
0.437895
22
0.286811
32
0.212836
13
0.437895
23
0.286811
33
0.212836
62
0
0
3DFACE
8
GEM
10
0.637343
20
-0.000000
30
-0.064820
11
0.437895
21
0.286811
31
0.212836
12
0.464541
22
0.084415
32
0.212836
13
0.464541
23
0.084415
33
0.212836
62
0
0
3DFACE
8
GEM
10
0.563197
20
-0.563197
30
-0.064820
11
0.637343
21
-0.000000
31
-0.064820
12
0.464541
22
-0.084415
32
0.212836
13
0.464541
23
-0.084415
33
0.212836
62
0
0
3DFACE
8
GEM
10
0.563197
20
-0.563197
30
-0.064820
11
0.464541
21
-0.084415
31
0.212836
12
0.437895
22
-0.286811
32
0.212836
13
0.437895
23
-0.286811
33
0.212836
62
0
0
3DFACE
8
GEM
10
0.563197
20
-0.563197
30
-0.064820
11
0.437895
21
-0.286811
31
0.212836
12
0.449449
22
-0.339294
32
0.181130
13
0.449449
23
-0.339294
33
0.181130
62
0
0
3DFACE
8
GEM
10
0.563197
20
-0.563197
30
-0.064820
11
0.449449
21
-0.339294
31
0.181130
12
0.474658
22
-0.416441
32
0.120399
13
0.474658
23
-0.416441
33
0.120399
62
0
0
3DFACE
8
GEM
10
0.563197
20
-0.563197
30
-0.064820
11
0.474658
21
-0.416441
31
0.120399
12
0.505735
22
-0.481700
32
0.052280
13
0.505735
23
-0.481700
33
0.052280
62
0
0
3DFACE
8
GEM
10
0.000000
20
-0.637343
30
-0.064820
11
0.563197
21
-0.563197
31
-0.064820
12
0.481700
22
-0.505735
32
0.052280
13
0.481700
23
-0.505735
33
0.052280
62
0
0
3DFACE
8
GEM
10
0.000000
20
-0.637343
30
-0.064820
11
0.481700
21
-0.505735
31
0.052280
12
0.416441
22
-0.474658
32
0.120399
13
0.416441
23
-0.474658
33
0.120399
62
0
0
3DFACE
8
GEM
10
0.000000
20
-0.637343
30
-0.064820
11
0.416441
21
-0.474658
31
0.120399
12
0.339294
22
-0.449449
32
0.181130
13
0.339294
23
-0.449449
33
0.181130
62
0
0
3DFACE
8
GEM
10
0.000000
20
-0.637343
30
-0.064820
11
0.339294
21
-0.449449
31
0.181130
12
0.286811
22
-0.437895
32
0.212836
13
0.286811
23
-0.437895
33
0.212836
62
0
0
3DFACE
8
GEM
10
0.000000
20
-0.637343
30
-0.064820
11
0.286811
21
-0.437895
31
0.212836
12
0.084415
22
-0.464541
32
0.212836
13
0.084415
23
-0.464541
33
0.212836
62
0
0
3DFACE
8
GEM
10
-0.563197
20
-0.563197
30
-0.064820
11
0.000000
21
-0.637343
31
-0.064820
12
-0.084415
22
-0.464541
32
0.212836
13
-0.084415
23
-0.464541
33
0.212836
62
0
0
3DFACE
8
GEM
10
-0.563197
20
-0.563197
30
-0.064820
11
-0.084415
21
-0.464541
31
0.212836
12
-0.286811
22
-0.437895
32
0.212836
13
-0.286811
23
-0.437895
33
0.212836
62
0
0
3DFACE
8
GEM
10
-0.563197
20
-0.563197
30
-0.064820
11
-0.286811
21
-0.437895
31
0.212836
12
-0.339294
22
-0.449449
32
0.181130
13
-0.339294
23
-0.449449
33
0.181130
62
0
0
3DFACE
8
GEM
10
-0.563197
20
-0.563197
30
-0.064820
11
-0.339294
21
-0.449449
31
0.181130
12
-0.416441
22
-0.474658
32
0.120399
13
-0.416441
23
-0.474658
33
0.120399
62
0
0
3DFACE
8
GEM
10
-0.563197
20
-0.563197
30
-0.064820
11
-0.416441
21
-0.474658
31
0.120399
12
-0.481700
22
-0.505735
32
0.052280
13
-0.481700
23
-0.505735
33
0.052280
62
0
0
3DFACE
8
GEM
10
-0.637343
20
0.000000
30
-0.064820
11
-0.563197
21
-0.563197
31
-0.064820
12
-0.505735
22
-0.481700
32
0.052280
13
-0.505735
23
-0.481700
33
0.052280
62
0
0
3DFACE
8
GEM
10
-0.637343
20
0.000000
30
-0.064820
11
-0.505735
21
-0.481700
31
0.052280
12
-0.474658
22
-0.416441
32
0.120399
13
-0.474658
23
-0.416441
33
0.120399
62
0
0
3DFACE
8
GEM
10
-0.637343
20
0.000000
30
-0.064820
11
-0.474658
21
-0.416441
31
0.120399
12
-0.449449
22
-0.339294
32
0.181130
13
-0.449449
23
-0.339294
33
0.181130
62
0
0
3DFACE
8
GEM
10
-0.637343
20
0.000000
30
-0.064820
11
-0.449449
21
-0.339294
31
0.181130
12
-0.437895
22
-0.286811
32
0.212836
13
-0.437895
23
-0.286811
33
0.212836
62
0
0
3DFACE
8
GEM
10
-0.637343
20
0.000000
30
-0.064820
11
-0.437895
21
-0.286811
31
0.212836
12
-0.464541
22
-0.084415
32
0.212836
13
-0.464541
23
-0.084415
33
0.212836
62
0
0
3DFACE
8
GEM
10
-0.563197
20
0.563197
30
-0.064820
11
-0.637343
21
0.000000
31
-0.064820
12
-0.464541
22
0.084415
32
0.212836
13
-0.464541
23
0.084415
33
0.212836
62
0
0
3DFACE
8
GEM
10
-0.563197
20
0.563197
30
-0.064820
11
-0.464541
21
0.084415
31
0.212836
12
-0.437895
22
0.286811
32
0.212836
13
-0.437895
23
0.286811
33
0.212836
62
0
0
3DFACE
8
GEM
10
-0.563197
20
0.563197
30
-0.064820
11
-0.437895
21
0.286811
31
0.212836
12
-0.449449
22
0.339294
32
0.181130
13
-0.449449
23
0.339294
33
0.181130
62
0
0
3DFACE
8
GEM
10
-0.563197
20
0.563197
30
-0.064820
11
-0.449449
21
0.339294
31
0.181130
12
-0.474658
22
0.416441
32
0.120399
13
-0.474658
23
0.416441
33
0.120399
62
0
0
3DFACE
8
GEM
10
-0.563197
20
0.563197
30
-0.064820
11
-0.474658
21
0.416441
31
0.120399
12
-0.505735
22
0.481700
32
0.052280
13
-0.505735
23
0.481700
33
0.052280
62
0
0
3DFACE
8
GEM
10
-0.000000
20
0.637343
30
-0.064820
11
-0.563197
21
0.563197
31
-0.064820
12
-0.481700
22
0.505735
32
0.052280
13
-0.481700
23
0.505735
33
0.052280
62
0
0
3DFACE
8
GEM
10
-0.000000
20
0.637343
30
-0.064820
11
-0.481700
21
0.505735
31
0.052280
12
-0.416441
22
0.474658
32
0.120399
13
-0.416441
23
0.474658
33
0.120399
62
0
0
3DFACE
8
GEM
10
-0.000000
20
0.637343
30
-0.064820
11
-0.416441
21
0.474658
31
0.120399
12
-0.339294
22
0.449449
32
0.181130
13
-0.339294
23
0.449449
33
0.181130
62
0
0
3DFACE
8
GEM
10
-0.000000
20
0.637343
30
-0.064820
11
-0.339294
21
0.449449
31
0.181130
12
-0.286811
22
0.437895
32
0.212836
13
-0.286811
23
0.437895
33
0.212836
62
0
0
3DFACE
8
GEM
10
-0.000000
20
0.637343
30
-0.064820
11
-0.286811
21
0.437895
31
0.212836
12
-0.084415
22
0.464541
32
0.212836
13
-0.084415
23
0.464541
33
0.212836
62
0
0
3DFACE
8
GEM
10
0.563197
20
0.563197
30
-0.064820
11
0.481700
21
0.505735
31
0.052280
12
0.505735
22
0.481700
32
0.052280
13
0.505735
23
0.481700
33
0.052280
62
0
0
3DFACE
8
GEM
10
0.563197
20
-0.563197
30
-0.064820
11
0.505735
21
-0.481700
31
0.052280
12
0.481700
22
-0.505735
32
0.052280
13
0.481700
23
-0.505735
33
0.052280
62
0
0
3DFACE
8
GEM
10
-0.563197
20
-0.563197
30
-0.064820
11
-0.481700
21
-0.505735
31
0.052280
12
-0.505735
22
-0.481700
32
0.052280
13
-0.505735
23
-0.481700
33
0.052280
62
0
0
3DFACE
8
GEM
10
-0.563197
20
0.563197
30
-0.064820
11
-0.505735
21
0.481700
31
0.052280
12
-0.481700
22
0.505735
32
0.052280
13
-0.481700
23
0.505735
33
0.052280
62
0
0
3DFACE
8
GEM
10
0.481700
20
0.505735
30
0.052280
11
0.416441
21
0.474658
31
0.120399
12
0.474658
22
0.416441
32
0.120399
13
0.474658
23
0.416441
33
0.120399
62
0
0
3DFACE
8
GEM
10
0.481700
20
0.505735
30
0.052280
11
0.474658
21
0.416441
31
0.120399
12
0.505735
22
0.481700
32
0.052280
13
0.505735
23
0.481700
33
0.052280
62
0
0
3DFACE
8
GEM
10
0.505735
20
-0.481700
30
0.052280
11
0.474658
21
-0.416441
31
0.120399
12
0.416441
22
-0.474658
32
0.120399
13
0.416441
23
-0.474658
33
0.120399
62
0
0
3DFACE
8
GEM
10
0.505735
20
-0.481700
30
0.052280
11
0.416441
21
-0.474658
31
0.120399
12
0.481700
22
-0.505735
32
0.052280
13
0.481700
23
-0.505735
33
0.052280
62
0
0
3DFACE
8
GEM
10
-0.481700
20
-0.505735
30
0.052280
11
-0.416441
21
-0.474658
31
0.120399
12
-0.474658
22
-0.416441
32
0.120399
13
-0.474658
23
-0.416441
33
0.120399
62
0
0
3DFACE
8
GEM
10
-0.481700
20
-0.505735
30
0.052280
11
-0.474658
21
-0.416441
31
0.120399
12
-0.505735
22
-0.481700
32
0.052280
13
-0.505735
23
-0.481700
33
0.052280
62
0
0
3DFACE
8
GEM
10
-0.505735
20
0.481700
30
0.052280
11
-0.474658
21
0.416441
31
0.120399
12
-0.416441
22
0.474658
32
0.120399
13
-0.416441
23
0.474658
33
0.120399
62
0
0
3DFACE
8
GEM
10
-0.505735
20
0.481700
30
0.052280
11
-0.416441
21
0.474658
31
0.120399
12
-0.481700
22
0.505735
32
0.052280
13
-0.481700
23
0.505735
33
0.052280
62
0
0
3DFACE
8
GEM
10
0.416441
20
0.474658
30
0.120399
11
0.339294
21
0.449449
31
0.181130
12
0.449449
22
0.339294
32
0.181130
13
0.449449
23
0.339294
33
0.181130
62
0
0
3DFACE
8
GEM
10
0.416441
20
0.474658
30
0.120399
11
0.449449
21
0.339294
31
0.181130
12
0.474658
22
0.416441
32
0.120399
13
0.474658
23
0.416441
33
0.120399
62
0
0
3DFACE
8
GEM
10
0.474658
20
-0.416441
30
0.120399
11
0.449449
21
-0.339294
31
0.181130
12
0.339294
22
-0.449449
32
0.181130
13
0.339294
23
-0.449449
33
0.181130
62
0
0
3DFACE
8
GEM
10
0.474658
20
-0.416441
30
0.120399
11
0.339294
21
-0.449449
31
0.181130
12
0.416441
22
-0.474658
32
0.120399
13
0.416441
23
-0.474658
33
0.120399
62
0
0
3DFACE
8
GEM
10
-0.416441
20
-0.474658
30
0.120399
11
-0.339294
21
-0.449449
31
0.181130
12
-0.449449
22
-0.339294
32
0.181130
13
-0.449449
23
-0.339294
33
0.181130
62
0
0
3DFACE
8
GEM
10
-0.416441
20
-0.474658
30
0.120399
11
-0.449449
21
-0.339294
31
0.181130
12
-0.474658
22
-0.416441
32
0.120399
13
-0.474658
23
-0.416441
33
0.120399
62
0
0
3DFACE
8
GEM
10
-0.474658
20
0.416441
30
0.120399
11
-0.449449
21
0.339294
31
0.181130
12
-0.339294
22
0.449449
32
0.181130
13
-0.339294
23
0.449449
33
0.181130
62
0
0
3DFACE
8
GEM
10
-0.474658
20
0.416441
30
0.120399
11
-0.339294
21
0.449449
31
0.181130
12
-0.416441
22
0.474658
32
0.120399
13
-0.416441
23
0.474658
33
0.120399
62
0
0
3DFACE
8
GEM
10
0.339294
20
0.449449
30
0.181130
11
0.286811
21
0.437895
31
0.212836
12
0.303230
22
0.383157
32
0.231809
13
0.303230
23
0.383157
33
0.231809
62
0
0
3DFACE
8
GEM
10
0.339294
20
0.449449
30
0.181130
11
0.303230
21
0.383157
31
0.231809
12
0.383157
22
0.303230
32
0.231809
13
0.383157
23
0.303230
33
0.231809
62
0
0
3DFACE
8
GEM
10
0.339294
20
0.449449
30
0.181130
11
0.383157
21
0.303230
31
0.231809
12
0.437895
22
0.286811
32
0.212836
13
0.437895
23
0.286811
33
0.212836
62
0
0
3DFACE
8
GEM
10
0.339294
20
0.449449
30
0.181130
11
0.437895
21
0.286811
31
0.212836
12
0.449449
22
0.339294
32
0.181130
13
0.449449
23
0.339294
33
0.181130
62
0
0
3DFACE
8
GEM
10
0.449449
20
-0.339294
30
0.181130
11
0.437895
21
-0.286811
31
0.212836
12
0.383157
22
-0.303230
32
0.231809
13
0.383157
23
-0.303230
33
0.231809
62
0
0
3DFACE
8
GEM
10
0.449449
20
-0.339294
30
0.181130
11
0.383157
21
-0.303230
31
0.231809
12
0.303230
22
-0.383157
32
0.231809
13
0.303230
23
-0.383157
33
0.231809
62
0
0
3DFACE
8
GEM
10
0.449449
20
-0.339294
30
0.181130
11
0.303230
21
-0.383157
31
0.231809
12
0.286811
22
-0.437895
32
0.212836
13
0.286811
23
-0.437895
33
0.212836
62
0
0
3DFACE
8
GEM
10
0.449449
20
-0.339294
30
0.181130
11
0.286811
21
-0.437895
31
0.212836
12
0.339294
22
-0.449449
32
0.181130
13
0.339294
23
-0.449449
33
0.181130
62
0
0
3DFACE
8
GEM
10
-0.339294
20
-0.449449
30
0.181130
11
-0.286811
21
-0.437895
31
0.212836
12
-0.303230
22
-0.383157
32
0.231809
13
-0.303230
23
-0.383157
33
0.231809
62
0
0
3DFACE
8
GEM
10
-0.339294
20
-0.449449
30
0.181130
11
-0.303230
21
-0.383157
31
0.231809
12
-0.383157
22
-0.303230
32
0.231809
13
-0.383157
23
-0.303230
33
0.231809
62
0
0
3DFACE
8
GEM
10
-0.339294
20
-0.449449
30
0.181130
11
-0.383157
21
-0.303230
31
0.231809
12
-0.437895
22
-0.286811
32
0.212836
13
-0.437895
23
-0.286811
33
0.212836
62
0
0
3DFACE
8
GEM
10
-0.339294
20
-0.449449
30
0.181130
11
-0.437895
21
-0.286811
31
0.212836
12
-0.449449
22
-0.339294
32
0.181130
13
-0.449449
23
-0.339294
33
0.181130
62
0
0
3DFACE
8
GEM
10
-0.449449
20
0.339294
30
0.181130
11
-0.437895
21
0.286811
31
0.212836
12
-0.383157
22
0.303230
32
0.231809
13
-0.383157
23
0.303230
33
0.231809
62
0
0
3DFACE
8
GEM
10
-0.449449
20
0.339294
30
0.181130
11
-0.383157
21
0.303230
31
0.231809
12
-0.303230
22
0.383157
32
0.231809
13
-0.303230
23
0.383157
33
0.231809
62
0
0
3DFACE
8
GEM
10
-0.449449
20
0.339294
30
0.181130
11
-0.303230
21
0.383157
31
0.231809
12
-0.286811
22
0.437895
32
0.212836
13
-0.286811
23
0.437895
33
0.212836
62
0
0
3DFACE
8
GEM
10
-0.449449
20
0.339294
30
0.181130
11
-0.286811
21
0.437895
31
0.212836
12
-0.339294
22
0.449449
32
0.181130
13
-0.339294
23
0.449449
33
0.181130
62
0
0
3DFACE
8
GEM
10
0.383157
20
0.303230
30
0.231809
11
0.303230
21
0.383157
31
0.231809
12
0.312511
22
0.312511
32
0.256861
13
0.312511
23
0.312511
33
0.256861
62
0
0
3DFACE
8
GEM
10
0.303230
20
-0.383157
30
0.231809
11
0.383157
21
-0.303230
31
0.231809
12
0.312511
22
-0.312511
32
0.256861
13
0.312511
23
-0.312511
33
0.256861
62
0
0
3DFACE
8
GEM
10
-0.383157
20
-0.303230
30
0.231809
11
-0.303230
21
-0.383157
31
0.231809
12
-0.312511
22
-0.312511
32
0.256861
13
-0.312511
23
-0.312511
33
0.256861
62
0
0
3DFACE
8
GEM
10
-0.303230
20
0.383157
30
0.231809
11
-0.383157
21
0.303230
31
0.231809
12
-0.312511
22
0.312511
32
0.256861
13
-0.312511
23
0.312511
33
0.256861
62
0
0
3DFACE
8
GEM
10
0.286811
20
0.437895
30
0.212836
11
0.084415
21
0.464541
31
0.212836
12
0.002304
22
0.461410
32
0.217867
13
0.002304
23
0.461410
33
0.217867
62
0
0
3DFACE
8
GEM
10
0.286811
20
0.437895
30
0.212836
11
0.002304
21
0.461410
31
0.217867
12
0.043198
22
0.208615
32
0.307147
13
0.043198
23
0.208615
33
0.307147
62
0
0
3DFACE
8
GEM
10
0.286811
20
0.437895
30
0.212836
11
0.043198
21
0.208615
31
0.307147
12
0.189371
22
0.189371
32
0.307147
13
0.189371
23
0.189371
33
0.307147
62
0
0
3DFACE
8
GEM
10
0.286811
20
0.437895
30
0.212836
11
0.189371
21
0.189371
31
0.307147
12
0.312511
22
0.312511
32
0.256861
13
0.312511
23
0.312511
33
0.256861
62
0
0
3DFACE
8
GEM
10
0.286811
20
0.437895
30
0.212836
11
0.312511
21
0.312511
31
0.256861
12
0.303230
22
0.383157
32
0.231809
13
0.303230
23
0.383157
33
0.231809
62
0
0
3DFACE
8
GEM
10
0.464541
20
0.084415
30
0.212836
11
0.437895
21
0.286811
31
0.212836
12
0.383157
22
0.303230
32
0.231809
13
0.383157
23
0.303230
33
0.231809
62
0
0
3DFACE
8
GEM
10
0.464541
20
0.084415
30
0.212836
11
0.383157
21
0.303230
31
0.231809
12
0.312511
22
0.312511
32
0.256861
13
0.312511
23
0.312511
33
0.256861
62
0
0
3DFACE
8
GEM
10
0.464541
20
0.084415
30
0.212836
11
0.312511
21
0.312511
31
0.256861
12
0.189371
22
0.189371
32
0.307147
13
0.189371
23
0.189371
33
0.307147
62
0
0
3DFACE
8
GEM
10
0.464541
20
0.084415
30
0.212836
11
0.189371
21
0.189371
31
0.307147
12
0.208615
22
0.043198
32
0.307147
13
0.208615
23
0.043198
33
0.307147
62
0
0
3DFACE
8
GEM
10
0.464541
20
0.084415
30
0.212836
11
0.208615
21
0.043198
31
0.307147
12
0.461410
22
0.002304
32
0.217867
13
0.461410
23
0.002304
33
0.217867
62
0
0
3DFACE
8
GEM
10
0.437895
20
-0.286811
30
0.212836
11
0.464541
21
-0.084415
31
0.212836
12
0.461410
22
-0.002304
32
0.217867
13
0.461410
23
-0.002304
33
0.217867
62
0
0
3DFACE
8
GEM
10
0.437895
20
-0.286811
30
0.212836
11
0.461410
21
-0.002304
31
0.217867
12
0.208615
22
-0.043198
32
0.307147
13
0.208615
23
-0.043198
33
0.307147
62
0
0
3DFACE
8
GEM
10
0.437895
20
-0.286811
30
0.212836
11
0.208615
21
-0.043198
31
0.307147
12
0.189371
22
-0.189371
32
0.307147
13
0.189371
23
-0.189371
33
0.307147
62
0
0
3DFACE
8
GEM
10
0.437895
20
-0.286811
30
0.212836
11
0.189371
21
-0.189371
31
0.307147
12
0.312511
22
-0.312511
32
0.256861
13
0.312511
23
-0.312511
33
0.256861
62
0
0
3DFACE
8
GEM
10
0.437895
20
-0.286811
30
0.212836
11
0.312511
21
-0.312511
31
0.256861
12
0.383157
22
-0.303230
32
0.231809
13
0.383157
23
-0.303230
33
0.231809
62
0
0
3DFACE
8
GEM
10
0.084415
20
-0.464541
30
0.212836
11
0.286811
21
-0.437895
31
0.212836
12
0.303230
22
-0.383157
32
0.231809
13
0.303230
23
-0.383157
33
0.231809
62
0
0
3DFACE
8
GEM
10
0.084415
20
-0.464541
30
0.212836
11
0.303230
21
-0.383157
31
0.231809
12
0.312511
22
-0.312511
32
0.256861
13
0.312511
23
-0.312511
33
0.256861
62
0
0
3DFACE
8
GEM
10
0.084415
20
-0.464541
30
0.212836
11
0.312511
21
-0.312511
31
0.256861
12
0.189371
22
-0.189371
32
0.307147
13
0.189371
23
-0.189371
33
0.307147
62
0
0
3DFACE
8
GEM
10
0.084415
20
-0.464541
30
0.212836
11
0.189371
21
-0.189371
31
0.307147
12
0.043198
22
-0.208615
32
0.307147
13
0.043198
23
-0.208615
33
0.307147
62
0
0
3DFACE
8
GEM
10
0.084415
20
-0.464541
30
0.212836
11
0.043198
21
-0.208615
31
0.307147
12
0.002304
22
-0.461410
32
0.217867
13
0.002304
23
-0.461410
33
0.217867
62
0
0
3DFACE
8
GEM
10
-0.286811
20
-0.437895
30
0.212836
11
-0.084415
21
-0.464541
31
0.212836
12
-0.002304
22
-0.461410
32
0.217867
13
-0.002304
23
-0.461410
33
0.217867
62
0
0
3DFACE
8
GEM
10
-0.286811
20
-0.437895
30
0.212836
11
-0.002304
21
-0.461410
31
0.217867
12
-0.043198
22
-0.208615
32
0.307147
13
-0.043198
23
-0.208615
33
0.307147
62
0
0
3DFACE
8
GEM
10
-0.286811
20
-0.437895
30
0.212836
11
-0.043198
21
-0.208615
31
0.307147
12
-0.189371
22
-0.189371
32
0.307147
13
-0.189371
23
-0.189371
33
0.307147
62
0
0
3DFACE
8
GEM
10
-0.286811
20
-0.437895
30
0.212836
11
-0.189371
21
-0.189371
31
0.307147
12
-0.312511
22
-0.312511
32
0.256861
13
-0.312511
23
-0.312511
33
0.256861
62
0
0
3DFACE
8
GEM
10
-0.286811
20
-0.437895
30
0.212836
11
-0.312511
21
-0.312511
31
0.256861
12
-0.303230
22
-0.383157
32
0.231809
13
-0.303230
23
-0.383157
33
0.231809
62
0
0
3DFACE
8
GEM
10
-0.464541
20
-0.084415
30
0.212836
11
-0.437895
21
-0.286811
31
0.212836
12
-0.383157
22
-0.303230
32
0.231809
13
-0.383157
23
-0.303230
33
0.231809
62
0
0
3DFACE
8
GEM
10
-0.464541
20
-0.084415
30
0.212836
11
-0.383157
21
-0.303230
31
0.231809
12
-0.312511
22
-0.312511
32
0.256861
13
-0.312511
23
-0.312511
33
0.256861
62
0
0
3DFACE
8
GEM
10
-0.464541
20
-0.084415
30
0.212836
11
-0.312511
21
-0.312511
31
0.256861
12
-0.189371
22
-0.189371
32
0.307147
13
-0.189371
23
-0.189371
33
0.307147
62
0
0
3DFACE
8
GEM
10
-0.464541
20
-0.084415
30
0.212836
11
-0.189371
21
-0.189371
31
0.307147
12
-0.208615
22
-0.043198
32
0.307147
13
-0.208615
23
-0.043198
33
0.307147
62
0
0
3DFACE
8
GEM
10
-0.464541
20
-0.084415
30
0.212836
11
-0.208615
21
-0.043198
31
0.307147
12
-0.461410
22
-0.002304
32
0.217867
13
-0.461410
23
-0.002304
33
0.217867
62
0
0
3DFACE
8
GEM
10
-0.437895
20
0.286811
30
0.212836
11
-0.464541
21
0.084415
31
0.212836
12
-0.461410
22
0.002304
32
0.217867
13
-0.461410
23
0.002304
33
0.217867
62
0
0
3DFACE
8
GEM
10
-0.437895
20
0.286811
30
0.212836
11
-0.461410
21
0.002304
31
0.217867
12
-0.208615
22
0.043198
32
0.307147
13
-0.208615
23
0.043198
33
0.307147
62
0
0
3DFACE
8
GEM
10
-0.437895
20
0.286811
30
0.212836
11
-0.208615
21
0.043198
31
0.307147
12
-0.189371
22
0.189371
32
0.307147
13
-0.189371
23
0.189371
33
0.307147
62
0
0
3DFACE
8
GEM
10
-0.437895
20
0.286811
30
0.212836
11
-0.189371
21
0.189371
31
0.307147
12
-0.312511
22
0.312511
32
0.256861
13
-0.312511
23
0.312511
33
0.256861
62
0
0
3DFACE
8
GEM
10
-0.437895
20
0.286811
30
0.212836
11
-0.312511
21
0.312511
31
0.256861
12
-0.383157
22
0.303230
32
0.231809
13
-0.383157
23
0.303230
33
0.231809
62
0
0
3DFACE
8
GEM
10
-0.084415
20
0.464541
30
0.212836
11
-0.286811
21
0.437895
31
0.212836
12
-0.303230
22
0.383157
32
0.231809
13
-0.303230
23
0.383157
33
0.231809
62
0
0
3DFACE
8
GEM
10
-0.084415
20
0.464541
30
0.212836
11
-0.303230
21
0.383157
31
0.231809
12
-0.312511
22
0.312511
32
0.256861
13
-0.312511
23
0.312511
33
0.256861
62
0
0
3DFACE
8
GEM
10
-0.084415
20
0.464541
30
0.212836
11
-0.312511
21
0.312511
31
0.256861
12
-0.189371
22
0.189371
32
0.307147
13
-0.189371
23
0.189371
33
0.307147
62
0
0
3DFACE
8
GEM
10
-0.084415
20
0.464541
30
0.212836
11
-0.189371
21
0.189371
31
0.307147
12
-0.043198
22
0.208615
32
0.307147
13
-0.043198
23
0.208615
33
0.307147
62
0
0
3DFACE
8
GEM
10
-0.084415
20
0.464541
30
0.212836
11
-0.043198
21
0.208615
31
0.307147
12
-0.002304
22
0.461410
32
0.217867
13
-0.002304
23
0.461410
33
0.217867
62
0
0
3DFACE
8
GEM
10
0.043198
20
0.208615
30
0.307147
11
0.002304
21
0.461410
31
0.217867
12
-0.002304
22
0.461410
32
0.217867
13
-0.002304
23
0.461410
33
0.217867
62
0
0
3DFACE
8
GEM
10
0.043198
20
0.208615
30
0.307147
11
-0.002304
21
0.461410
31
0.217867
12
-0.043198
22
0.208615
32
0.307147
13
-0.043198
23
0.208615
33
0.307147
62
0
0
3DFACE
8
GEM
10
0.461410
20
0.002304
30
0.217867
11
0.208615
21
0.043198
31
0.307147
12
0.208615
22
-0.043198
32
0.307147
13
0.208615
23
-0.043198
33
0.307147
62
0
0
3DFACE
8
GEM
10
0.461410
20
0.002304
30
0.217867
11
0.208615
21
-0.043198
31
0.307147
12
0.461410
22
-0.002304
32
0.217867
13
0.461410
23
-0.002304
33
0.217867
62
0
0
3DFACE
8
GEM
10
0.002304
20
-0.461410
30
0.217867
11
0.043198
21
-0.208615
31
0.307147
12
-0.043198
22
-0.208615
32
0.307147
13
-0.043198
23
-0.208615
33
0.307147
62
0
0
3DFACE
8
GEM
10
0.002304
20
-0.461410
30
0.217867
11
-0.043198
21
-0.208615
31
0.307147
12
-0.002304
22
-0.461410
32
0.217867
13
-0.002304
23
-0.461410
33
0.217867
62
0
0
3DFACE
8
GEM
10
-0.461410
20
-0.002304
30
0.217867
11
-0.208615
21
-0.043198
31
0.307147
12
-0.208615
22
0.043198
32
0.307147
13
-0.208615
23
0.043198
33
0.307147
62
0
0
3DFACE
8
GEM
10
-0.461410
20
-0.002304
30
0.217867
11
-0.208615
21
0.043198
31
0.307147
12
-0.461410
22
0.002304
32
0.217867
13
-0.461410
23
0.002304
33
0.217867
62
0
0
3DFACE
8
GEM
10
0.084415
20
0.464541
30
0.212836
11
-0.000000
21
0.637343
31
-0.064820
12
-0.084415
22
0.464541
32
0.212836
13
-0.084415
23
0.464541
33
0.212836
62
0
0
3DFACE
8
GEM
10
0.084415
20
0.464541
30
0.212836
11
-0.084415
21
0.464541
31
0.212836
12
-0.002304
22
0.461410
32
0.217867
13
-0.002304
23
0.461410
33
0.217867
62
0
0
3DFACE
8
GEM
10
0.084415
20
0.464541
30
0.212836
11
-0.002304
21
0.461410
31
0.217867
12
0.002304
22
0.461410
32
0.217867
13
0.002304
23
0.461410
33
0.217867
62
0
0
3DFACE
8
GEM
10
0.637343
20
-0.000000
30
-0.064820
11
0.464541
21
0.084415
31
0.212836
12
0.461410
22
0.002304
32
0.217867
13
0.461410
23
0.002304
33
0.217867
62
0
0
3DFACE
8
GEM
10
0.637343
20
-0.000000
30
-0.064820
11
0.461410
21
0.002304
31
0.217867
12
0.461410
22
-0.002304
32
0.217867
13
0.461410
23
-0.002304
33
0.217867
62
0
0
3DFACE
8
GEM
10
0.637343
20
-0.000000
30
-0.064820
11
0.461410
21
-0.002304
31
0.217867
12
0.464541
22
-0.084415
32
0.212836
13
0.464541
23
-0.084415
33
0.212836
62
0
0
3DFACE
8
GEM
10
0.000000
20
-0.637343
30
-0.064820
11
0.084415
21
-0.464541
31
0.212836
12
0.002304
22
-0.461410
32
0.217867
13
0.002304
23
-0.461410
33
0.217867
62
0
0
3DFACE
8
GEM
10
0.000000
20
-0.637343
30
-0.064820
11
0.002304
21
-0.461410
31
0.217867
12
-0.002304
22
-0.461410
32
0.217867
13
-0.002304
23
-0.461410
33
0.217867
62
0
0
3DFACE
8
GEM
10
0.000000
20
-0.637343
30
-0.064820
11
-0.002304
21
-0.461410
31
0.217867
12
-0.084415
22
-0.464541
32
0.212836
13
-0.084415
23
-0.464541
33
0.212836
62
0
0
3DFACE
8
GEM
10
-0.637343
20
0.000000
30
-0.064820
11
-0.464541
21
-0.084415
31
0.212836
12
-0.461410
22
-0.002304
32
0.217867
13
-0.461410
23
-0.002304
33
0.217867
62
0
0
3DFACE
8
GEM
10
-0.637343
20
0.000000
30
-0.064820
11
-0.461410
21
-0.002304
31
0.217867
12
-0.461410
22
0.002304
32
0.217867
13
-0.461410
23
0.002304
33
0.217867
62
0
0
3DFACE
8
GEM
10
-0.637343
20
0.000000
30
-0.064820
11
-0.461410
21
0.002304
31
0.217867
12
-0.464541
22
0.084415
32
0.212836
13
-0.464541
23
0.084415
33
0.212836
62
0
0
3DFACE
8
GEM
10
0.189371
20
0.189371
30
0.307147
11
0.043198
21
0.208615
31
0.307147
12
-0.043198
22
0.208615
32
0.307147
13
-0.043198
23
0.208615
33
0.307147
62
0
0
3DFACE
8
GEM
10
0.189371
20
0.189371
30
0.307147
11
-0.043198
21
0.208615
31
0.307147
12
-0.189371
22
0.189371
32
0.307147
13
-0.189371
23
0.189371
33
0.307147
62
0
0
3DFACE
8
GEM
10
0.189371
20
0.189371
30
0.307147
11
-0.189371
21
0.189371
31
0.307147
12
-0.208615
22
0.043198
32
0.307147
13
-0.208615
23
0.043198
33
0.307147
62
0
0
3DFACE
8
GEM
10
0.189371
20
0.189371
30
0.307147
11
-0.208615
21
0.043198
31
0.307147
12
-0.208615
22
-0.043198
32
0.307147
13
-0.208615
23
-0.043198
33
0.307147
62
0
0
3DFACE
8
GEM
10
0.189371
20
0.189371
30
0.307147
11
-0.208615
21
-0.043198
31
0.307147
12
-0.189371
22
-0.189371
32
0.307147
13
-0.189371
23
-0.189371
33
0.307147
62
0
0
3DFACE
8
GEM
10
0.189371
20
0.189371
30
0.307147
11
-0.189371
21
-0.189371
31
0.307147
12
-0.043198
22
-0.208615
32
0.307147
13
-0.043198
23
-0.208615
33
0.307147
62
0
0
3DFACE
8
GEM
10
0.189371
20
0.189371
30
0.307147
11
-0.043198
21
-0.208615
31
0.307147
12
0.043198
22
-0.208615
32
0.307147
13
0.043198
23
-0.208615
33
0.307147
62
0
0
3DFACE
8
GEM
10
0.189371
20
0.189371
30
0.307147
11
0.043198
21
-0.208615
31
0.307147
12
0.189371
22
-0.189371
32
0.307147
13
0.189371
23
-0.189371
33
0.307147
62
0
0
3DFACE
8
GEM
10
0.189371
20
0.189371
30
0.307147
11
0.189371
21
-0.189371
31
0.307147
12
0.208615
22
-0.043198
32
0.307147
13
0.208615
23
-0.043198
33
0.307147
62
0
0
3DFACE
8
GEM
10
0.189371
20
0.189371
30
0.307147
11
0.208615
21
-0.043198
31
0.307147
12
0.208615
22
0.043198
32
0.307147
13
0.208615
23
0.043198
33
0.307147
62
0
0
ENDSEC
0
EOF
