  0
SECTION
  2
HEADER
  0
ENDSEC
  0
SECTION
  2
TABLES
  0
TABLE
  2
LAYER
  70
    153
  0
LAYER
  2
NoName1
 70
0
 62
15
  6
CONTINUOUS
  0
ENDTAB
  0
ENDSEC
  0
SECTION
  2
ENTITIES
  0
3DFACE
  8
NoName1
 10
1.732249
 20
-1.121640
 30
0.171494
 11
0.909401
 21
-1.121640
 31
0.171494
 12
0.909401
 22
-0.965172
 32
0.171494
 13
1.732249
 23
-0.965172
 33
0.171494
 62
0
  0
3DFACE
  8
NoName1
 10
0.837386
 20
-0.903810
 30
0.140395
 11
0.909401
 21
-0.965172
 31
0.171494
 12
0.909401
 22
-1.121640
 32
0.171494
 13
0.837386
 23
-1.184930
 33
0.140395
 62
0
  0
3DFACE
  8
NoName1
 10
0.909401
 20
-1.121640
 30
0.171494
 11
1.732249
 21
-1.121640
 31
0.171494
 12
1.804263
 22
-1.184930
 32
0.140395
 13
0.837386
 23
-1.184930
 33
0.140395
 62
0
  0
3DFACE
  8
NoName1
 10
1.804263
 20
-1.184930
 30
0.140395
 11
1.732249
 21
-1.121640
 31
0.171494
 12
1.732249
 22
-0.965172
 32
0.171494
 13
1.804263
 23
-0.903810
 33
0.140395
 62
0
  0
3DFACE
  8
NoName1
 10
1.732249
 20
-0.965172
 30
0.171494
 11
0.909401
 21
-0.965172
 31
0.171494
 12
0.837386
 22
-0.903810
 32
0.140395
 13
1.804263
 23
-0.903810
 33
0.140395
 62
0
  0
3DFACE
  8
NoName1
 10
1.230680
 20
-1.052535
 30
-0.276955
 11
1.410969
 21
-1.052535
 31
-0.276955
 12
1.410969
 22
-1.035624
 32
-0.276955
 13
1.230680
 23
-1.035624
 33
-0.276955
 62
0
  0
3DFACE
  8
NoName1
 10
0.959188
 20
-1.136972
 30
-0.235822
 11
1.230680
 21
-1.052535
 31
-0.276955
 12
1.230680
 22
-1.035624
 32
-0.276955
 13
0.959188
 23
-0.953124
 33
-0.235822
 62
0
  0
3DFACE
  8
NoName1
 10
1.679957
 20
-1.136972
 30
-0.235822
 11
1.410969
 21
-1.052535
 31
-0.276955
 12
1.230680
 22
-1.052535
 32
-0.276955
 13
0.959188
 23
-1.136972
 33
-0.235822
 62
0
  0
3DFACE
  8
NoName1
 10
1.679957
 20
-0.953124
 30
-0.235822
 11
1.410969
 21
-1.035624
 31
-0.276955
 12
1.410969
 22
-1.052535
 32
-0.276955
 13
1.679957
 23
-1.136972
 33
-0.235822
 62
0
  0
3DFACE
  8
NoName1
 10
0.959188
 20
-0.953124
 30
-0.235822
 11
1.230680
 21
-1.035624
 31
-0.276955
 12
1.410969
 22
-1.035624
 32
-0.276955
 13
1.679957
 23
-0.953124
 33
-0.235822
 62
0
  0
3DFACE
  8
NoName1
 10
0.837386
 20
-1.184930
 30
0.140395
 11
0.752766
 21
-1.268549
 31
0.084699
 12
0.752766
 22
-0.822121
 32
0.084699
 13
0.837386
 23
-0.903810
 33
0.140395
 62
0
  0
3DFACE
  8
NoName1
 10
1.888884
 20
-1.268550
 30
0.084699
 11
0.752766
 21
-1.268549
 31
0.084699
 12
0.837386
 22
-1.184930
 32
0.140395
 13
1.804263
 23
-1.184930
 33
0.140395
 62
0
  0
3DFACE
  8
NoName1
 10
1.888884
 20
-1.268550
 30
0.084699
 11
1.804263
 21
-1.184930
 31
0.140395
 12
1.804263
 22
-0.903810
 32
0.140395
 13
1.888884
 23
-0.822121
 33
0.084699
 62
0
  0
3DFACE
  8
NoName1
 10
0.752766
 20
-0.822121
 30
0.084699
 11
1.888884
 21
-0.822121
 31
0.084699
 12
1.804263
 22
-0.903810
 32
0.140395
 13
0.837386
 23
-0.903810
 33
0.140395
 62
0
  0
3DFACE
  8
NoName1
 10
1.974716
 20
-0.745631
 30
0.000000
 11
1.888884
 21
-0.822121
 31
0.084699
 12
0.752766
 22
-0.822121
 32
0.084699
 13
0.666933
 23
-0.745631
 33
0.000000
 62
0
  0
3DFACE
  8
NoName1
 10
1.974716
 20
-1.346968
 30
0.000000
 11
1.888884
 21
-1.268550
 31
0.084699
 12
1.888884
 22
-0.822121
 32
0.084699
 13
1.974716
 23
-0.745631
 33
0.000000
 62
0
  0
3DFACE
  8
NoName1
 10
0.666933
 20
-1.346968
 30
0.000000
 11
0.752766
 21
-1.268549
 31
0.084699
 12
1.888884
 22
-1.268550
 32
0.084699
 13
1.974716
 23
-1.346968
 33
0.000000
 62
0
  0
3DFACE
  8
NoName1
 10
0.752766
 20
-1.268549
 30
0.084699
 11
0.666933
 21
-1.346968
 31
0.000000
 12
0.666933
 22
-0.745631
 32
0.000000
 13
0.752766
 23
-0.822121
 33
0.084699
 62
0
  0
3DFACE
  8
NoName1
 10
1.974716
 20
-0.745631
 30
-0.008922
 11
1.974716
 21
-0.745631
 31
0.000000
 12
0.666933
 22
-0.745631
 32
0.000000
 13
0.666933
 23
-0.745631
 33
-0.008922
 62
0
  0
3DFACE
  8
NoName1
 10
1.974716
 20
-1.346968
 30
-0.008922
 11
1.974716
 21
-1.346968
 31
0.000000
 12
1.974716
 22
-0.745631
 32
0.000000
 13
1.974716
 23
-0.745631
 33
-0.008922
 62
0
  0
3DFACE
  8
NoName1
 10
0.666933
 20
-1.346968
 30
-0.008922
 11
0.666933
 21
-1.346968
 31
0.000000
 12
1.974716
 22
-1.346968
 32
0.000000
 13
1.974716
 23
-1.346968
 33
-0.008922
 62
0
  0
3DFACE
  8
NoName1
 10
0.666933
 20
-1.346968
 30
0.000000
 11
0.666933
 21
-1.346968
 31
-0.008922
 12
0.666933
 22
-0.745631
 32
-0.008922
 13
0.666933
 23
-0.745631
 33
0.000000
 62
0
  0
3DFACE
  8
NoName1
 10
1.853747
 20
-0.853045
 30
-0.145924
 11
1.974716
 21
-0.745631
 31
-0.008922
 12
0.666933
 22
-0.745631
 32
-0.008922
 13
0.787902
 23
-0.853045
 33
-0.145924
 62
0
  0
3DFACE
  8
NoName1
 10
1.853747
 20
-1.239553
 30
-0.145924
 11
1.974716
 21
-1.346968
 31
-0.008922
 12
1.974716
 22
-0.745631
 32
-0.008922
 13
1.853747
 23
-0.853045
 33
-0.145924
 62
0
  0
3DFACE
  8
NoName1
 10
0.787902
 20
-1.239553
 30
-0.145924
 11
0.666933
 21
-1.346968
 31
-0.008922
 12
1.974716
 22
-1.346968
 32
-0.008922
 13
1.853747
 23
-1.239553
 33
-0.145924
 62
0
  0
3DFACE
  8
NoName1
 10
0.666933
 20
-1.346968
 30
-0.008922
 11
0.787902
 21
-1.239553
 31
-0.145924
 12
0.787902
 22
-0.853045
 32
-0.145924
 13
0.666933
 23
-0.745631
 33
-0.008922
 62
0
  0
3DFACE
  8
NoName1
 10
1.679957
 20
-0.953124
 30
-0.235822
 11
1.853747
 21
-0.853045
 31
-0.145924
 12
0.787902
 22
-0.853045
 32
-0.145924
 13
0.959188
 23
-0.953124
 33
-0.235822
 62
0
  0
3DFACE
  8
NoName1
 10
1.853747
 20
-0.853045
 30
-0.145924
 11
1.679957
 21
-0.953124
 31
-0.235822
 12
1.679957
 22
-1.136972
 32
-0.235822
 13
1.853747
 23
-1.239553
 33
-0.145924
 62
0
  0
3DFACE
  8
NoName1
 10
0.959188
 20
-1.136972
 30
-0.235822
 11
0.787902
 21
-1.239553
 31
-0.145924
 12
1.853747
 22
-1.239553
 32
-0.145924
 13
1.679957
 23
-1.136972
 33
-0.235822
 62
0
  0
3DFACE
  8
NoName1
 10
0.787902
 20
-1.239553
 30
-0.145924
 11
0.959188
 21
-1.136972
 31
-0.235822
 12
0.959188
 22
-0.953124
 32
-0.235822
 13
0.787902
 23
-0.853045
 33
-0.145924
 62
0
 0
ENDSEC
 0
EOF
