  0
SECTION
  2
HEADER
  0
ENDSEC
  0
SECTION
  2
TABLES
  0
TABLE
  2
LAYER
  70
    153
  0
LAYER
  2
Cylinder
 70
0
 62
15
  6
CONTINUOUS
  0
ENDTAB
  0
ENDSEC
  0
SECTION
  2
ENTITIES
  0
3DFACE
  8
Cylinder
 10
-1.985866
 20
0.765366
 30
-0.089578
 11
-1.985866
 21
0.765366
 31
-0.011068
 12
-2.138108
 22
-0.000001
 32
-0.011067
 13
-2.138108
 23
-0.000001
 33
-0.089578
 62
0
  0
3DFACE
  8
Cylinder
 10
-1.552321
 20
1.414212
 30
-0.089578
 11
-1.552321
 21
1.414212
 31
-0.011068
 12
-1.985866
 22
0.765366
 32
-0.011068
 13
-1.985866
 23
0.765366
 33
-0.089578
 62
0
  0
3DFACE
  8
Cylinder
 10
-0.903474
 20
1.847758
 30
-0.089578
 11
-0.903474
 21
1.847758
 31
-0.011068
 12
-1.552321
 22
1.414212
 32
-0.011068
 13
-1.552321
 23
1.414212
 33
-0.089578
 62
0
  0
3DFACE
  8
Cylinder
 10
-0.138107
 20
1.999999
 30
-0.089578
 11
-0.138107
 21
1.999999
 31
-0.011068
 12
-0.903474
 22
1.847758
 32
-0.011068
 13
-0.903474
 23
1.847758
 33
-0.089578
 62
0
  0
3DFACE
  8
Cylinder
 10
0.627259
 20
1.847759
 30
-0.089578
 11
0.627259
 21
1.847759
 31
-0.011067
 12
-0.138107
 22
1.999999
 32
-0.011068
 13
-0.138107
 23
1.999999
 33
-0.089578
 62
0
  0
3DFACE
  8
Cylinder
 10
1.276106
 20
1.414214
 30
-0.089579
 11
1.276106
 21
1.414214
 31
-0.011066
 12
0.627259
 22
1.847759
 32
-0.011067
 13
0.627259
 23
1.847759
 33
-0.089578
 62
0
  0
3DFACE
  8
Cylinder
 10
1.709651
 20
0.765367
 30
-0.089579
 11
1.709651
 21
0.765367
 31
-0.011066
 12
1.276106
 22
1.414214
 32
-0.011066
 13
1.276106
 23
1.414214
 33
-0.089579
 62
0
  0
3DFACE
  8
Cylinder
 10
1.861892
 20
0.000001
 30
-0.089578
 11
1.861892
 21
0.000001
 31
-0.011066
 12
1.709651
 22
0.765367
 32
-0.011066
 13
1.709651
 23
0.765367
 33
-0.089579
 62
0
  0
3DFACE
  8
Cylinder
 10
1.861892
 20
0.000001
 30
-0.089578
 11
0.296475
 21
-0.180010
 31
-1.370886
 12
1.709651
 22
-0.765366
 32
-0.089578
 13
1.709651
 23
-0.765366
 33
-0.089578
 62
1
  0
3DFACE
  8
Cylinder
 10
1.276106
 20
-1.414213
 30
-0.089579
 11
0.041902
 21
-0.434583
 31
-1.370886
 12
0.627259
 22
-1.847759
 32
-0.089578
 13
0.627259
 23
-1.847759
 33
-0.089578
 62
1
  0
3DFACE
  8
Cylinder
 10
0.041902
 20
-0.434583
 30
-1.370886
 11
-0.138108
 21
-2.000000
 31
-0.089578
 12
0.627259
 22
-1.847759
 32
-0.089578
 13
0.627259
 23
-1.847759
 33
-0.089578
 62
1
  0
3DFACE
  8
Cylinder
 10
-0.138108
 20
-2.000000
 30
-0.089578
 11
-0.318120
 21
-0.434587
 31
-1.370883
 12
-0.903475
 22
-1.847759
 32
-0.089579
 13
-0.903475
 23
-1.847759
 33
-0.089579
 62
1
  0
3DFACE
  8
Cylinder
 10
-2.138108
 20
-0.000001
 30
-0.089578
 11
-0.572702
 21
0.180015
 31
-1.370876
 12
-1.985866
 22
0.765366
 32
-0.089578
 13
-1.985866
 23
0.765366
 33
-0.089578
 62
1
  0
3DFACE
  8
Cylinder
 10
-0.572702
 20
-0.180015
 30
-1.370877
 11
-2.138108
 21
-0.000001
 31
-0.089578
 12
-1.985867
 22
-0.765368
 32
-0.089578
 13
-1.985867
 23
-0.765368
 33
-0.089578
 62
1
  0
3DFACE
  8
Cylinder
 10
-0.572702
 20
0.180015
 30
-1.370876
 11
-1.552321
 21
1.414212
 31
-0.089578
 12
-1.985866
 22
0.765366
 32
-0.089578
 13
-1.985866
 23
0.765366
 33
-0.089578
 62
1
  0
3DFACE
  8
Cylinder
 10
1.276106
 20
1.414214
 30
-0.089579
 11
0.296482
 21
0.180013
 31
-1.370880
 12
1.709651
 22
0.765367
 32
-0.089579
 13
1.709651
 23
0.765367
 33
-0.089579
 62
1
  0
3DFACE
  8
Cylinder
 10
-1.552321
 20
1.414212
 30
-0.089578
 11
-0.318123
 21
0.434594
 31
-1.370876
 12
-0.903474
 22
1.847758
 32
-0.089578
 13
-0.903474
 23
1.847758
 33
-0.089578
 62
1
  0
3DFACE
  8
Cylinder
 10
-0.572702
 20
0.180015
 30
-1.370876
 11
-0.138108
 21
0.000000
 31
-1.726588
 12
-0.318123
 22
0.434594
 32
-1.370876
 13
-1.552321
 23
1.414212
 33
-0.089578
 62
1
  0
3DFACE
  8
Cylinder
 10
-0.318123
 20
0.434594
 30
-1.370876
 11
-0.138107
 21
1.999999
 31
-0.089578
 12
-0.903474
 22
1.847758
 32
-0.089578
 13
-0.903474
 23
1.847758
 33
-0.089578
 62
1
  0
3DFACE
  8
Cylinder
 10
-0.138107
 20
1.999999
 30
-0.089578
 11
0.041906
 21
0.434594
 31
-1.370877
 12
0.627259
 22
1.847759
 32
-0.089578
 13
0.627259
 23
1.847759
 33
-0.089578
 62
1
  0
3DFACE
  8
Cylinder
 10
-0.318123
 20
0.434594
 30
-1.370876
 11
-0.138108
 21
0.000000
 31
-1.726588
 12
0.041906
 22
0.434594
 32
-1.370877
 13
-0.138107
 23
1.999999
 33
-0.089578
 62
1
  0
3DFACE
  8
Cylinder
 10
0.041906
 20
0.434594
 30
-1.370877
 11
1.276106
 21
1.414214
 31
-0.089579
 12
0.627259
 22
1.847759
 32
-0.089578
 13
0.627259
 23
1.847759
 33
-0.089578
 62
1
  0
3DFACE
  8
Cylinder
 10
0.296482
 20
0.180013
 30
-1.370880
 11
1.861892
 21
0.000001
 31
-0.089578
 12
1.709651
 22
0.765367
 32
-0.089579
 13
1.709651
 23
0.765367
 33
-0.089579
 62
1
  0
3DFACE
  8
Cylinder
 10
0.041906
 20
0.434594
 30
-1.370877
 11
-0.138108
 21
0.000000
 31
-1.726588
 12
0.296482
 22
0.180013
 32
-1.370880
 13
1.276106
 23
1.414214
 33
-0.089579
 62
1
  0
3DFACE
  8
Cylinder
 10
0.296475
 20
-0.180010
 30
-1.370886
 11
1.276106
 21
-1.414213
 31
-0.089579
 12
1.709651
 22
-0.765366
 32
-0.089578
 13
1.709651
 23
-0.765366
 33
-0.089578
 62
1
  0
3DFACE
  8
Cylinder
 10
0.296482
 20
0.180013
 30
-1.370880
 11
-0.138108
 21
0.000000
 31
-1.726588
 12
0.296475
 22
-0.180010
 32
-1.370886
 13
1.861892
 23
0.000001
 33
-0.089578
 62
1
  0
3DFACE
  8
Cylinder
 10
-0.318120
 20
-0.434587
 30
-1.370883
 11
-1.552321
 21
-1.414214
 31
-0.089579
 12
-0.903475
 22
-1.847759
 32
-0.089579
 13
-0.903475
 23
-1.847759
 33
-0.089579
 62
1
  0
3DFACE
  8
Cylinder
 10
0.296475
 20
-0.180010
 30
-1.370886
 11
-0.138108
 21
0.000000
 31
-1.726588
 12
0.041902
 22
-0.434583
 32
-1.370886
 13
1.276106
 23
-1.414213
 33
-0.089579
 62
1
  0
3DFACE
  8
Cylinder
 10
-1.552321
 20
-1.414214
 30
-0.089579
 11
-0.572702
 21
-0.180015
 31
-1.370877
 12
-1.985867
 22
-0.765368
 32
-0.089578
 13
-1.985867
 23
-0.765368
 33
-0.089578
 62
1
  0
3DFACE
  8
Cylinder
 10
0.041902
 20
-0.434583
 30
-1.370886
 11
-0.138108
 21
0.000000
 31
-1.726588
 12
-0.318120
 22
-0.434587
 32
-1.370883
 13
-0.138108
 23
-2.000000
 33
-0.089578
 62
1
  0
3DFACE
  8
Cylinder
 10
-2.138108
 20
-0.000001
 30
-0.089578
 11
-0.572702
 21
-0.180015
 31
-1.370877
 12
-0.138108
 22
0.000000
 32
-1.726588
 13
-0.572702
 23
0.180015
 33
-1.370876
 62
1
  0
3DFACE
  8
Cylinder
 10
-0.318120
 20
-0.434587
 30
-1.370883
 11
-0.138108
 21
0.000000
 31
-1.726588
 12
-0.572702
 22
-0.180015
 32
-1.370877
 13
-1.552321
 23
-1.414214
 33
-0.089579
 62
1
  0
3DFACE
  8
Cylinder
 10
-1.374814
 20
1.236706
 30
0.415379
 11
-1.985866
 21
0.765366
 31
-0.011068
 12
-1.552321
 22
1.414212
 32
-0.011068
 13
-1.552321
 23
1.414212
 33
-0.011068
 62
1
  0
3DFACE
  8
Cylinder
 10
-0.903474
 20
1.847758
 30
-0.011068
 11
-1.374814
 21
1.236706
 31
0.415379
 12
-1.552321
 22
1.414212
 32
-0.011068
 13
-1.552321
 23
1.414212
 33
-0.011068
 62
1
  0
3DFACE
  8
Cylinder
 10
-0.138107
 20
1.748967
 30
0.415379
 11
-0.903474
 21
1.847758
 31
-0.011068
 12
-0.138107
 22
1.999999
 32
-0.011068
 13
-0.138107
 23
1.999999
 33
-0.011068
 62
1
  0
3DFACE
  8
Cylinder
 10
0.627259
 20
1.847759
 30
-0.011067
 11
-0.138107
 21
1.748967
 31
0.415379
 12
-0.138107
 22
1.999999
 32
-0.011068
 13
-0.138107
 23
1.999999
 33
-0.011068
 62
1
  0
3DFACE
  8
Cylinder
 10
1.098600
 20
1.236708
 30
0.415377
 11
0.627259
 21
1.847759
 31
-0.011067
 12
1.276106
 22
1.414214
 32
-0.011066
 13
1.276106
 23
1.414214
 33
-0.011066
 62
1
  0
3DFACE
  8
Cylinder
 10
1.709651
 20
-0.765366
 30
-0.089578
 11
1.709651
 21
-0.765366
 31
-0.011067
 12
1.861892
 22
0.000001
 32
-0.011066
 13
1.861892
 23
0.000001
 33
-0.089578
 62
0
  0
3DFACE
  8
Cylinder
 10
1.276106
 20
-1.414213
 30
-0.089579
 11
1.276106
 21
-1.414213
 31
-0.011067
 12
1.709651
 22
-0.765366
 32
-0.011067
 13
1.709651
 23
-0.765366
 33
-0.089578
 62
0
  0
3DFACE
  8
Cylinder
 10
0.627259
 20
-1.847759
 30
-0.089578
 11
0.627259
 21
-1.847759
 31
-0.011067
 12
1.276106
 22
-1.414213
 32
-0.011067
 13
1.276106
 23
-1.414213
 33
-0.089579
 62
0
  0
3DFACE
  8
Cylinder
 10
-0.138108
 20
-2.000000
 30
-0.089578
 11
-0.138108
 21
-2.000000
 31
-0.011068
 12
0.627259
 22
-1.847759
 32
-0.011067
 13
0.627259
 23
-1.847759
 33
-0.089578
 62
0
  0
3DFACE
  8
Cylinder
 10
-0.903475
 20
-1.847759
 30
-0.089579
 11
-0.903475
 21
-1.847759
 31
-0.011068
 12
-0.138108
 22
-2.000000
 32
-0.011068
 13
-0.138108
 23
-2.000000
 33
-0.089578
 62
0
  0
3DFACE
  8
Cylinder
 10
-1.552321
 20
-1.414214
 30
-0.089579
 11
-1.552321
 21
-1.414214
 31
-0.011066
 12
-0.903475
 22
-1.847759
 32
-0.011068
 13
-0.903475
 23
-1.847759
 33
-0.089579
 62
0
  0
3DFACE
  8
Cylinder
 10
-1.985867
 20
-0.765368
 30
-0.089578
 11
-1.985867
 21
-0.765368
 31
-0.011067
 12
-1.552321
 22
-1.414214
 32
-0.011066
 13
-1.552321
 23
-1.414214
 33
-0.089579
 62
0
  0
3DFACE
  8
Cylinder
 10
-2.138108
 20
-0.000001
 30
-0.089578
 11
-2.138108
 21
-0.000001
 31
-0.011067
 12
-1.985867
 22
-0.765368
 32
-0.011067
 13
-1.985867
 23
-0.765368
 33
-0.089578
 62
0
  0
3DFACE
  8
Cylinder
 10
-1.985866
 20
0.765366
 30
-0.011068
 11
-1.887075
 21
-0.000001
 31
0.415379
 12
-2.138108
 22
-0.000001
 32
-0.011067
 13
-2.138108
 23
-0.000001
 33
-0.011067
 62
1
  0
3DFACE
  8
Cylinder
 10
-1.887075
 20
-0.000001
 30
0.415379
 11
-1.985867
 21
-0.765368
 31
-0.011067
 12
-2.138108
 22
-0.000001
 32
-0.011067
 13
-2.138108
 23
-0.000001
 33
-0.011067
 62
1
  0
3DFACE
  8
Cylinder
 10
-0.903474
 20
1.847758
 30
-0.011068
 11
-0.138107
 21
1.748967
 31
0.415379
 12
-0.642294
 22
1.216103
 32
0.747850
 13
-1.374814
 23
1.236706
 33
0.415379
 62
1
  0
3DFACE
  8
Cylinder
 10
1.709651
 20
0.765367
 30
-0.011066
 11
1.098600
 21
1.236708
 31
0.415377
 12
1.276106
 22
1.414214
 32
-0.011066
 13
1.276106
 23
1.414214
 33
-0.011066
 62
1
  0
3DFACE
  8
Cylinder
 10
0.627259
 20
1.847759
 30
-0.011067
 11
1.098600
 21
1.236708
 31
0.415377
 12
0.365293
 22
1.216429
 32
0.747850
 13
-0.138107
 23
1.748967
 33
0.415379
 62
1
  0
3DFACE
  8
Cylinder
 10
1.610862
 20
0.000001
 30
0.415376
 11
1.709651
 21
0.765367
 31
-0.011066
 12
1.861892
 22
0.000001
 32
-0.011066
 13
1.861892
 23
0.000001
 33
-0.011066
 62
1
  0
3DFACE
  8
Cylinder
 10
1.709651
 20
-0.765366
 30
-0.011067
 11
1.610862
 21
0.000001
 31
0.415376
 12
1.861892
 22
0.000001
 32
-0.011066
 13
1.861892
 23
0.000001
 33
-0.011066
 62
1
  0
3DFACE
  8
Cylinder
 10
1.098600
 20
-1.236707
 30
0.415377
 11
1.709651
 21
-0.765366
 31
-0.011067
 12
1.276106
 22
-1.414213
 32
-0.011067
 13
1.276106
 23
-1.414213
 33
-0.011067
 62
1
  0
3DFACE
  8
Cylinder
 10
0.627259
 20
-1.847759
 30
-0.011067
 11
1.098600
 21
-1.236707
 31
0.415377
 12
1.276106
 22
-1.414213
 32
-0.011067
 13
1.276106
 23
-1.414213
 33
-0.011067
 62
1
  0
3DFACE
  8
Cylinder
 10
-0.138108
 20
-1.748967
 30
0.415379
 11
0.627259
 21
-1.847759
 31
-0.011067
 12
-0.138108
 22
-2.000000
 32
-0.011068
 13
-0.138108
 23
-2.000000
 33
-0.011068
 62
1
  0
3DFACE
  8
Cylinder
 10
-0.903475
 20
-1.847759
 30
-0.011068
 11
-0.138108
 21
-1.748967
 31
0.415379
 12
-0.138108
 22
-2.000000
 32
-0.011068
 13
-0.138108
 23
-2.000000
 33
-0.011068
 62
1
  0
3DFACE
  8
Cylinder
 10
-1.374816
 20
-1.236709
 30
0.415377
 11
-0.903475
 21
-1.847759
 31
-0.011068
 12
-1.552321
 22
-1.414214
 32
-0.011066
 13
-1.552321
 23
-1.414214
 33
-0.011066
 62
1
  0
3DFACE
  8
Cylinder
 10
-1.985867
 20
-0.765368
 30
-0.011067
 11
-1.374816
 21
-1.236709
 31
0.415377
 12
-1.552321
 22
-1.414214
 32
-0.011066
 13
-1.552321
 23
-1.414214
 33
-0.011066
 62
1
  0
3DFACE
  8
Cylinder
 10
-1.887075
 20
-0.000001
 30
0.415379
 11
-1.354536
 21
-0.503401
 31
0.747850
 12
-1.374816
 22
-1.236709
 32
0.415377
 13
-1.985867
 23
-0.765368
 33
-0.011067
 62
1
  0
3DFACE
  8
Cylinder
 10
-1.985866
 20
0.765366
 30
-0.011068
 11
-1.374814
 21
1.236706
 31
0.415379
 12
-1.354537
 22
0.503399
 32
0.747849
 13
-1.887075
 23
-0.000001
 33
0.415379
 62
1
  0
3DFACE
  8
Cylinder
 10
-1.354537
 20
0.503399
 30
0.747849
 11
-1.374814
 21
1.236706
 31
0.415379
 12
-0.642294
 22
1.216103
 32
0.747850
 13
-0.714842
 23
0.576305
 33
0.998353
 62
1
  0
3DFACE
  8
Cylinder
 10
-0.642294
 20
1.216103
 30
0.747850
 11
-0.138107
 21
1.748967
 31
0.415379
 12
0.365293
 22
1.216429
 32
0.747850
 13
-0.138411
 23
0.815323
 33
0.998353
 62
1
  0
3DFACE
  8
Cylinder
 10
1.709651
 20
0.765367
 30
-0.011066
 11
1.610862
 21
0.000001
 31
0.415376
 12
1.077996
 22
0.504186
 32
0.747850
 13
1.098600
 23
1.236708
 33
0.415377
 62
1
  0
3DFACE
  8
Cylinder
 10
0.365293
 20
1.216429
 30
0.747850
 11
1.098600
 21
1.236708
 31
0.415377
 12
1.077996
 22
0.504186
 32
0.747850
 13
0.438209
 23
0.576746
 33
0.998347
 62
1
  0
3DFACE
  8
Cylinder
 10
1.709651
 20
-0.765366
 30
-0.011067
 11
1.098600
 21
-1.236707
 31
0.415377
 12
1.078321
 22
-0.503401
 32
0.747850
 13
1.610862
 23
0.000001
 33
0.415376
 62
1
  0
3DFACE
  8
Cylinder
 10
0.627259
 20
-1.847759
 30
-0.011067
 11
-0.138108
 21
-1.748967
 31
0.415379
 12
0.366078
 22
-1.216104
 32
0.747849
 13
1.098600
 23
-1.236707
 33
0.415377
 62
1
  0
3DFACE
  8
Cylinder
 10
-0.903475
 20
-1.847759
 30
-0.011068
 11
-1.374816
 21
-1.236709
 31
0.415377
 12
-0.641508
 22
-1.216429
 32
0.747850
 13
-0.138108
 23
-1.748967
 33
0.415379
 62
1
  0
3DFACE
  8
Cylinder
 10
-1.887075
 20
-0.000001
 30
0.415379
 11
-1.354537
 21
0.503399
 31
0.747849
 12
-0.953767
 22
0.000303
 32
0.998215
 13
-1.354536
 23
-0.503401
 33
0.747850
 62
1
  0
3DFACE
  8
Cylinder
 10
-0.714842
 20
0.576305
 30
0.998353
 11
-0.642294
 21
1.216103
 31
0.747850
 12
-0.138411
 22
0.815323
 32
0.998353
 13
-0.138411
 23
0.815323
 33
0.998353
 62
1
  0
3DFACE
  8
Cylinder
 10
-0.953767
 20
0.000303
 30
0.998215
 11
-1.354537
 21
0.503399
 31
0.747849
 12
-0.714842
 22
0.576305
 32
0.998353
 13
-0.714842
 23
0.576305
 33
0.998353
 62
1
  0
3DFACE
  8
Cylinder
 10
-0.138411
 20
0.815323
 30
0.998353
 11
0.365293
 21
1.216429
 31
0.747850
 12
0.438209
 22
0.576746
 32
0.998347
 13
0.438209
 23
0.576746
 33
0.998347
 62
1
  0
3DFACE
  8
Cylinder
 10
1.077996
 20
0.504186
 30
0.747850
 11
1.610862
 21
0.000001
 31
0.415376
 12
1.078321
 22
-0.503401
 32
0.747850
 13
0.677254
 23
0.000303
 33
0.998337
 62
1
  0
3DFACE
  8
Cylinder
 10
0.438209
 20
0.576746
 30
0.998347
 11
1.077996
 21
0.504186
 31
0.747850
 12
0.677254
 22
0.000303
 32
0.998337
 13
0.677254
 23
0.000303
 33
0.998337
 62
1
  0
3DFACE
  8
Cylinder
 10
1.078321
 20
-0.503401
 30
0.747850
 11
1.098600
 21
-1.236707
 31
0.415377
 12
0.366078
 22
-1.216104
 32
0.747849
 13
0.438666
 23
-0.576345
 33
0.998331
 62
1
  0
3DFACE
  8
Cylinder
 10
0.366078
 20
-1.216104
 30
0.747849
 11
-0.138108
 21
-1.748967
 31
0.415379
 12
-0.641508
 22
-1.216429
 32
0.747850
 13
-0.137805
 23
-0.815379
 33
0.998330
 62
1
  0
3DFACE
  8
Cylinder
 10
-0.641508
 20
-1.216429
 30
0.747850
 11
-1.374816
 21
-1.236709
 31
0.415377
 12
-1.354536
 22
-0.503401
 32
0.747850
 13
-0.714526
 23
-0.576503
 33
0.998347
 62
1
  0
3DFACE
  8
Cylinder
 10
-0.714526
 20
-0.576503
 30
0.998347
 11
-1.354536
 21
-0.503401
 31
0.747850
 12
-0.953767
 22
0.000303
 32
0.998215
 13
-0.953767
 23
0.000303
 33
0.998215
 62
1
  0
3DFACE
  8
Cylinder
 10
-0.137805
 20
-0.815379
 30
0.998330
 11
-0.641508
 21
-1.216429
 31
0.747850
 12
-0.714526
 22
-0.576503
 32
0.998347
 13
-0.714526
 23
-0.576503
 33
0.998347
 62
1
  0
3DFACE
  8
Cylinder
 10
0.677254
 20
0.000303
 30
0.998337
 11
1.078321
 21
-0.503401
 31
0.747850
 12
0.438666
 22
-0.576345
 32
0.998331
 13
0.438666
 23
-0.576345
 33
0.998331
 62
1
  0
3DFACE
  8
Cylinder
 10
0.438666
 20
-0.576345
 30
0.998331
 11
0.366078
 21
-1.216104
 31
0.747849
 12
-0.137805
 22
-0.815379
 32
0.998330
 13
-0.137805
 23
-0.815379
 33
0.998330
 62
1
  0
3DFACE
  8
Cylinder
 10
0.438666
 20
-0.576345
 30
0.998331
 11
-0.137805
 21
-0.815379
 31
0.998330
 12
-0.714526
 22
-0.576503
 32
0.998347
 13
-0.714526
 23
-0.576503
 33
0.998347
 62
1
  0
3DFACE
  8
Cylinder
 10
0.677254
 20
0.000303
 30
0.998337
 11
0.438666
 21
-0.576345
 31
0.998331
 12
-0.714526
 22
-0.576503
 32
0.998347
 13
-0.714526
 23
-0.576503
 33
0.998347
 62
1
  0
3DFACE
  8
Cylinder
 10
-0.953767
 20
0.000303
 30
0.998215
 11
0.677254
 21
0.000303
 31
0.998337
 12
-0.714526
 22
-0.576503
 32
0.998347
 13
-0.714526
 23
-0.576503
 33
0.998347
 62
1
  0
3DFACE
  8
Cylinder
 10
-0.714842
 20
0.576305
 30
0.998353
 11
0.677254
 21
0.000303
 31
0.998337
 12
-0.953767
 22
0.000303
 32
0.998215
 13
-0.953767
 23
0.000303
 33
0.998215
 62
1
  0
3DFACE
  8
Cylinder
 10
0.438209
 20
0.576746
 30
0.998347
 11
0.677254
 21
0.000303
 31
0.998337
 12
-0.714842
 22
0.576305
 32
0.998353
 13
-0.714842
 23
0.576305
 33
0.998353
 62
1
  0
3DFACE
  8
Cylinder
 10
-0.138411
 20
0.815323
 30
0.998353
 11
0.438209
 21
0.576746
 31
0.998347
 12
-0.714842
 22
0.576305
 32
0.998353
 13
-0.714842
 23
0.576305
 33
0.998353
 62
1
 0
ENDSEC
 0
EOF
