  0
SECTION
  2
HEADER
  0
ENDSEC
  0
SECTION
  2
TABLES
  0
TABLE
  2
LAYER
  70
    153
  0
LAYER
  2
Cylinder5
 70
0
 62
15
  6
CONTINUOUS
  0
ENDTAB
  0
ENDSEC
  0
SECTION
  2
ENTITIES
  0
3DFACE
  8
Cylinder5
 10
-1.059055
 20
0.159485
 30
0.524333
 11
-0.743013
 21
-0.603509
 31
0.524332
 12
-0.743013
 22
-0.603509
 32
0.501988
 13
-1.059055
 23
0.159485
 33
0.501988
 62
0
  0
3DFACE
  8
Cylinder5
 10
1.121088
 20
1.099221
 30
0.524332
 11
0.302295
 21
1.207018
 31
0.524332
 12
0.302295
 22
1.207018
 32
0.501988
 13
1.121088
 23
1.099221
 33
0.501988
 62
0
  0
3DFACE
  8
Cylinder5
 10
0.708707
 20
-0.467958
 30
-0.109194
 11
0.844852
 21
-1.258706
 31
0.501988
 12
1.347603
 22
-0.603509
 32
0.501988
 13
1.347603
 23
-0.603509
 33
0.501988
 62
0
  0
3DFACE
  8
Cylinder5
 10
0.302295
 20
1.207018
 30
0.524332
 11
-0.516498
 21
1.099221
 31
0.524332
 12
-0.516498
 22
1.099221
 32
0.501988
 13
0.302295
 23
1.207018
 33
0.501988
 62
0
  0
3DFACE
  8
Cylinder5
 10
0.456199
 20
-1.556930
 30
0.501987
 11
0.844852
 21
-1.258706
 31
0.501988
 12
0.302295
 22
-0.653197
 32
-0.255033
 13
0.302295
 23
-0.653197
 33
-0.255033
 62
0
  0
3DFACE
  8
Cylinder5
 10
-0.306179
 20
-0.117985
 30
-0.109189
 11
-1.059055
 21
0.159485
 31
0.501988
 12
-0.743013
 22
-0.603509
 32
0.501988
 13
-0.743013
 23
-0.603509
 33
0.501988
 62
0
  0
3DFACE
  8
Cylinder5
 10
1.663645
 20
0.159485
 30
0.501988
 11
0.910764
 21
-0.117983
 31
-0.109195
 12
1.347603
 22
-0.603509
 32
0.501988
 13
1.347603
 23
-0.603509
 33
0.501988
 62
0
  0
3DFACE
  8
Cylinder5
 10
-1.122997
 20
0.645181
 30
0.501987
 11
-1.059055
 21
0.159485
 31
0.501988
 12
-0.263396
 22
0.326602
 32
-0.255028
 13
-0.263396
 23
0.326602
 33
-0.255028
 62
0
  0
3DFACE
  8
Cylinder5
 10
-1.059055
 20
0.159485
 30
0.501988
 11
-0.306179
 21
-0.117985
 31
-0.109189
 12
0.302295
 22
0.000000
 32
-0.685802
 13
-0.263396
 23
0.326602
 33
-0.255028
 62
0
  0
3DFACE
  8
Cylinder5
 10
-0.516498
 20
1.099221
 30
0.501988
 11
0.100236
 21
0.585945
 31
-0.109191
 12
0.302295
 22
1.207018
 32
0.501988
 13
0.302295
 23
1.207018
 33
0.501988
 62
0
  0
3DFACE
  8
Cylinder5
 10
-0.263396
 20
0.326602
 30
-0.255028
 11
0.302295
 21
0.000000
 31
-0.685802
 12
0.100236
 22
0.585945
 32
-0.109191
 13
-0.516498
 23
1.099221
 33
0.501988
 62
0
  0
3DFACE
  8
Cylinder5
 10
0.302295
 20
1.207018
 30
0.501988
 11
0.100236
 21
0.585945
 31
-0.109191
 12
0.302295
 22
0.000000
 32
-0.685802
 13
0.504355
 23
0.585947
 33
-0.109189
 62
0
  0
3DFACE
  8
Cylinder5
 10
0.504355
 20
0.585947
 30
-0.109189
 11
1.121088
 21
1.099221
 31
0.501988
 12
0.302295
 22
1.207018
 32
0.501988
 13
0.302295
 23
1.207018
 33
0.501988
 62
0
  0
3DFACE
  8
Cylinder5
 10
0.867983
 20
0.326601
 30
-0.255030
 11
1.663645
 21
0.159485
 31
0.501988
 12
1.727589
 22
0.645188
 32
0.501988
 13
1.727589
 23
0.645188
 33
0.501988
 62
0
  0
3DFACE
  8
Cylinder5
 10
1.121088
 20
1.099221
 30
0.501988
 11
0.504355
 21
0.585947
 31
-0.109189
 12
0.302295
 22
0.000000
 32
-0.685802
 13
0.867983
 23
0.326601
 33
-0.255030
 62
0
  0
3DFACE
  8
Cylinder5
 10
0.302295
 20
0.000000
 30
-0.685802
 11
0.910764
 21
-0.117983
 31
-0.109195
 12
1.663645
 22
0.159485
 32
0.501988
 13
0.867983
 23
0.326601
 33
-0.255030
 62
0
  0
3DFACE
  8
Cylinder5
 10
1.347603
 20
-0.603509
 30
0.501988
 11
0.910764
 21
-0.117983
 31
-0.109195
 12
0.302295
 22
0.000000
 32
-0.685802
 13
0.708707
 23
-0.467958
 33
-0.109194
 62
0
  0
3DFACE
  8
Cylinder5
 10
-0.240261
 20
-1.258706
 30
0.501988
 11
-0.104120
 21
-0.467961
 31
-0.109190
 12
-0.743013
 22
-0.603509
 32
0.501988
 13
-0.743013
 23
-0.603509
 33
0.501988
 62
0
  0
3DFACE
  8
Cylinder5
 10
0.844852
 20
-1.258706
 30
0.501988
 11
0.708707
 21
-0.467958
 31
-0.109194
 12
0.302295
 22
0.000000
 32
-0.685802
 13
0.302295
 23
-0.653197
 33
-0.255033
 62
0
  0
3DFACE
  8
Cylinder5
 10
-0.306179
 20
-0.117985
 30
-0.109189
 11
-0.743013
 21
-0.603509
 31
0.501988
 12
-0.104120
 22
-0.467961
 32
-0.109190
 13
0.302295
 23
0.000000
 33
-0.685802
 62
0
  0
3DFACE
  8
Cylinder5
 10
-0.240261
 20
-1.258706
 30
0.501988
 11
0.302295
 21
-0.653197
 31
-0.255033
 12
0.302295
 22
0.000000
 32
-0.685802
 13
-0.104120
 23
-0.467961
 33
-0.109190
 62
0
  0
3DFACE
  8
Cylinder5
 10
-1.122997
 20
0.645181
 30
0.501987
 11
-0.263396
 21
0.326602
 31
-0.255028
 12
-0.837906
 22
0.658295
 32
0.243893
 13
-0.837906
 23
0.658295
 33
0.243893
 62
0
  0
3DFACE
  8
Cylinder5
 10
-0.263396
 20
0.326602
 30
-0.255028
 11
-0.516498
 21
1.099221
 31
0.501988
 12
-0.969097
 22
0.911748
 32
0.501988
 13
-0.969097
 23
0.911748
 33
0.501988
 62
0
  0
3DFACE
  8
Cylinder5
 10
1.573683
 20
0.911750
 30
0.501987
 11
1.121088
 21
1.099221
 31
0.501988
 12
0.867983
 22
0.326601
 32
-0.255030
 13
0.867983
 23
0.326601
 33
-0.255030
 62
0
  0
3DFACE
  8
Cylinder5
 10
-0.837906
 20
0.658295
 30
0.243893
 11
-0.263396
 21
0.326602
 31
-0.255028
 12
-0.969097
 22
0.911748
 32
0.501988
 13
-0.969097
 23
0.911748
 33
0.501988
 62
0
  0
3DFACE
  8
Cylinder5
 10
1.442498
 20
0.658297
 30
0.243894
 11
0.867983
 21
0.326601
 31
-0.255030
 12
1.727589
 22
0.645188
 32
0.501988
 13
1.727589
 23
0.645188
 33
0.501988
 62
0
  0
3DFACE
  8
Cylinder5
 10
0.302295
 20
-0.653197
 30
-0.255033
 11
-0.240261
 21
-1.258706
 31
0.501988
 12
0.148394
 22
-1.556931
 32
0.501987
 13
0.148394
 23
-1.556931
 33
0.501987
 62
0
  0
3DFACE
  8
Cylinder5
 10
1.573683
 20
0.911750
 30
0.501987
 11
0.867983
 21
0.326601
 31
-0.255030
 12
1.442498
 22
0.658297
 32
0.243894
 13
1.442498
 23
0.658297
 33
0.243894
 62
0
  0
3DFACE
  8
Cylinder5
 10
-1.122997
 20
0.645181
 30
0.501987
 11
-0.837906
 21
0.658295
 31
0.243893
 12
-0.969097
 22
0.911748
 32
0.501988
 13
-0.969097
 23
0.911748
 33
0.501988
 62
0
  0
3DFACE
  8
Cylinder5
 10
1.573683
 20
0.911750
 30
0.501987
 11
1.442498
 21
0.658297
 31
0.243894
 12
1.727589
 22
0.645188
 32
0.501988
 13
1.727589
 23
0.645188
 33
0.501988
 62
0
  0
3DFACE
  8
Cylinder5
 10
0.456199
 20
-1.556930
 30
0.501987
 11
0.302295
 21
-0.653197
 31
-0.255033
 12
0.302296
 22
-1.316591
 32
0.243893
 13
0.302296
 23
-1.316591
 33
0.243893
 62
0
  0
3DFACE
  8
Cylinder5
 10
0.302296
 20
-1.316591
 30
0.243893
 11
0.302295
 21
-0.653197
 31
-0.255033
 12
0.148394
 22
-1.556931
 32
0.501987
 13
0.148394
 23
-1.556931
 33
0.501987
 62
0
  0
3DFACE
  8
Cylinder5
 10
0.456199
 20
-1.556930
 30
0.501987
 11
0.302296
 21
-1.316591
 31
0.243893
 12
0.148394
 22
-1.556931
 32
0.501987
 13
0.148394
 23
-1.556931
 33
0.501987
 62
0
  0
3DFACE
  8
Cylinder5
 10
1.573683
 20
0.911750
 30
0.524333
 11
1.121088
 21
1.099221
 31
0.524332
 12
1.121088
 22
1.099221
 32
0.501988
 13
1.573683
 23
0.911750
 33
0.501987
 62
0
  0
3DFACE
  8
Cylinder5
 10
-1.122997
 20
0.645181
 30
0.524333
 11
-1.059055
 21
0.159485
 31
0.524333
 12
-1.059055
 22
0.159485
 32
0.501988
 13
-1.122997
 23
0.645181
 33
0.501987
 62
0
  0
3DFACE
  8
Cylinder5
 10
1.573683
 20
0.911750
 30
0.524333
 11
1.573683
 21
0.911750
 31
0.501987
 12
1.727589
 22
0.645188
 32
0.501988
 13
1.727589
 23
0.645188
 33
0.501988
 62
0
  0
3DFACE
  8
Cylinder5
 10
1.727589
 20
0.645188
 30
0.524333
 11
1.573683
 21
0.911750
 31
0.524333
 12
1.727589
 22
0.645188
 32
0.501988
 13
1.727589
 23
0.645188
 33
0.501988
 62
0
  0
3DFACE
  8
Cylinder5
 10
1.726789
 20
0.646572
 30
0.525093
 11
1.573683
 21
0.911750
 31
0.524333
 12
1.727589
 22
0.645188
 32
0.524333
 13
1.727589
 23
0.645188
 33
0.524333
 62
0
  0
3DFACE
  8
Cylinder5
 10
1.574489
 20
0.910354
 30
0.525100
 11
1.573683
 21
0.911750
 31
0.524333
 12
1.726789
 22
0.646572
 32
0.525093
 13
1.726789
 23
0.646572
 33
0.525093
 62
0
  0
3DFACE
  8
Cylinder5
 10
-0.516498
 20
1.099221
 30
0.524332
 11
-0.969097
 21
0.911748
 31
0.524333
 12
-0.969097
 22
0.911748
 32
0.501988
 13
-0.516498
 23
1.099221
 33
0.501988
 62
0
  0
3DFACE
  8
Cylinder5
 10
-0.969900
 20
0.910358
 30
0.525097
 11
-0.969097
 21
0.911748
 31
0.501988
 12
-0.969097
 22
0.911748
 32
0.524333
 13
-0.969097
 23
0.911748
 33
0.524333
 62
0
  0
3DFACE
  8
Cylinder5
 10
-1.122192
 20
0.646576
 30
0.525099
 11
-0.969097
 21
0.911748
 31
0.501988
 12
-0.969900
 22
0.910358
 32
0.525097
 13
-0.969900
 23
0.910358
 33
0.525097
 62
0
  0
3DFACE
  8
Cylinder5
 10
-1.122997
 20
0.645181
 30
0.501987
 11
-0.969097
 21
0.911748
 31
0.501988
 12
-1.122192
 22
0.646576
 32
0.525099
 13
-1.122192
 23
0.646576
 33
0.525099
 62
0
  0
3DFACE
  8
Cylinder5
 10
-1.122997
 20
0.645181
 30
0.524333
 11
-1.122997
 21
0.645181
 31
0.501987
 12
-1.122192
 22
0.646576
 32
0.525099
 13
-1.122192
 23
0.646576
 33
0.525099
 62
0
  0
3DFACE
  8
Cylinder5
 10
0.142240
 20
0.715071
 30
0.998570
 11
-0.516498
 21
1.099221
 31
0.524332
 12
0.302295
 22
1.207018
 32
0.524332
 13
0.302295
 23
1.207018
 33
0.524332
 62
0
  0
3DFACE
  8
Cylinder5
 10
1.347603
 20
-0.603509
 30
0.524332
 11
1.663645
 21
0.159485
 31
0.524333
 12
1.663645
 22
0.159485
 32
0.501988
 13
1.347603
 23
-0.603509
 33
0.501988
 62
0
  0
3DFACE
  8
Cylinder5
 10
0.844852
 20
-1.258706
 30
0.524333
 11
1.347603
 21
-0.603509
 31
0.524332
 12
1.347603
 22
-0.603509
 32
0.501988
 13
0.844852
 23
-1.258706
 33
0.501988
 62
0
  0
3DFACE
  8
Cylinder5
 10
-0.743013
 20
-0.603509
 30
0.524332
 11
-0.240261
 21
-1.258706
 31
0.524333
 12
-0.240261
 22
-1.258706
 32
0.501988
 13
-0.743013
 23
-0.603509
 33
0.501988
 62
0
  0
3DFACE
  8
Cylinder5
 10
-0.743013
 20
-0.603509
 30
0.524332
 11
-1.059055
 21
0.159485
 31
0.524333
 12
-0.396999
 22
-0.218924
 32
0.998573
 13
-0.396999
 23
-0.218924
 33
0.998573
 62
0
  0
3DFACE
  8
Cylinder5
 10
1.001591
 20
-0.218924
 30
0.998572
 11
1.663645
 21
0.159485
 31
0.524333
 12
1.347603
 22
-0.603509
 32
0.524332
 13
1.347603
 23
-0.603509
 33
0.524332
 62
0
  0
3DFACE
  8
Cylinder5
 10
1.663645
 20
0.159485
 30
0.524333
 11
1.727589
 21
0.645188
 31
0.524333
 12
1.727589
 22
0.645188
 32
0.501988
 13
1.663645
 23
0.159485
 33
0.501988
 62
0
  0
3DFACE
  8
Cylinder5
 10
0.456199
 20
-1.556930
 30
0.524333
 11
0.844852
 21
-1.258706
 31
0.524333
 12
0.844852
 22
-1.258706
 32
0.501988
 13
0.456199
 23
-1.556930
 33
0.501987
 62
0
  0
3DFACE
  8
Cylinder5
 10
-0.240261
 20
-1.258706
 30
0.524333
 11
0.148394
 21
-1.556931
 31
0.524333
 12
0.148394
 22
-1.556931
 32
0.501987
 13
-0.240261
 23
-1.258706
 33
0.501988
 62
0
  0
3DFACE
  8
Cylinder5
 10
-0.236945
 20
-0.496144
 30
0.998573
 11
-0.240261
 21
-1.258706
 31
0.524333
 12
-0.743013
 22
-0.603509
 32
0.524332
 13
-0.743013
 23
-0.603509
 33
0.524332
 62
0
  0
3DFACE
  8
Cylinder5
 10
0.302295
 20
1.207018
 30
0.524332
 11
1.121088
 21
1.099221
 31
0.524332
 12
0.462351
 22
0.715071
 32
0.998570
 13
0.462351
 23
0.715071
 33
0.998570
 62
0
  0
3DFACE
  8
Cylinder5
 10
0.142240
 20
0.715071
 30
0.998570
 11
0.302295
 21
1.207018
 31
0.524332
 12
0.462351
 22
0.715071
 32
0.998570
 13
0.462351
 23
0.715071
 33
0.998570
 62
0
  0
3DFACE
  8
Cylinder5
 10
1.347603
 20
-0.603509
 30
0.524332
 11
0.844852
 21
-1.258706
 31
0.524333
 12
0.841537
 22
-0.496146
 32
0.998571
 13
0.841537
 23
-0.496146
 33
0.998571
 62
0
  0
3DFACE
  8
Cylinder5
 10
0.302047
 20
-1.441436
 30
0.669001
 11
0.150001
 21
-1.556931
 31
0.525098
 12
0.148394
 22
-1.556931
 32
0.524333
 13
0.148394
 23
-1.556931
 33
0.524333
 62
0
  0
3DFACE
  8
Cylinder5
 10
-0.240261
 20
-1.258706
 30
0.524333
 11
0.302047
 21
-1.441436
 31
0.669001
 12
0.148394
 22
-1.556931
 32
0.524333
 13
0.148394
 23
-1.556931
 33
0.524333
 62
0
  0
3DFACE
  8
Cylinder5
 10
-0.236945
 20
-0.496144
 30
0.998573
 11
0.302047
 21
-1.441436
 31
0.669001
 12
-0.240261
 22
-1.258706
 32
0.524333
 13
-0.240261
 23
-1.258706
 33
0.524333
 62
0
  0
3DFACE
  8
Cylinder5
 10
1.573683
 20
0.911750
 30
0.524333
 11
1.574489
 21
0.910354
 31
0.525100
 12
1.550491
 22
0.720933
 32
0.669001
 13
1.550491
 23
0.720933
 33
0.669001
 62
0
  0
3DFACE
  8
Cylinder5
 10
0.462351
 20
0.715071
 30
0.998570
 11
1.573683
 21
0.911750
 31
0.524333
 12
1.550491
 22
0.720933
 32
0.669001
 13
1.550491
 23
0.720933
 33
0.669001
 62
0
  0
3DFACE
  8
Cylinder5
 10
1.121088
 20
1.099221
 30
0.524332
 11
1.573683
 21
0.911750
 31
0.524333
 12
0.462351
 22
0.715071
 32
0.998570
 13
0.462351
 23
0.715071
 33
0.998570
 62
0
  0
3DFACE
  8
Cylinder5
 10
0.462351
 20
0.715071
 30
0.998570
 11
1.550491
 21
0.720933
 31
0.669001
 12
1.550527
 22
0.720667
 32
0.669129
 13
1.001593
 23
0.403740
 33
0.998570
 62
0
  0
3DFACE
  8
Cylinder5
 10
0.844852
 20
-1.258706
 30
0.524333
 11
0.456199
 21
-1.556930
 31
0.524333
 12
0.454588
 22
-1.556930
 32
0.525099
 13
0.454588
 23
-1.556930
 33
0.525099
 62
0
  0
3DFACE
  8
Cylinder5
 10
0.302543
 20
-1.441436
 30
0.669001
 11
0.844852
 21
-1.258706
 31
0.524333
 12
0.454588
 22
-1.556930
 32
0.525099
 13
0.454588
 23
-1.556930
 33
0.525099
 62
0
  0
3DFACE
  8
Cylinder5
 10
0.841537
 20
-0.496146
 30
0.998571
 11
0.844852
 21
-1.258706
 31
0.524333
 12
0.302543
 22
-1.441436
 32
0.669001
 13
0.302543
 23
-1.441436
 33
0.669001
 62
0
  0
3DFACE
  8
Cylinder5
 10
-0.946149
 20
0.720503
 30
0.669001
 11
-0.396999
 21
-0.218924
 31
0.998573
 12
-1.059055
 22
0.159485
 32
0.524333
 13
-1.059055
 23
0.159485
 33
0.524333
 62
0
  0
3DFACE
  8
Cylinder5
 10
-1.122997
 20
0.645181
 30
0.524333
 11
-0.946149
 21
0.720503
 31
0.669001
 12
-1.059055
 22
0.159485
 32
0.524333
 13
-1.059055
 23
0.159485
 33
0.524333
 62
0
  0
3DFACE
  8
Cylinder5
 10
-1.122192
 20
0.646576
 30
0.525099
 11
-0.946149
 21
0.720503
 31
0.669001
 12
-1.122997
 22
0.645181
 32
0.524333
 13
-1.122997
 23
0.645181
 33
0.524333
 62
0
  0
3DFACE
  8
Cylinder5
 10
-0.397003
 20
0.403740
 30
0.998570
 11
-0.945937
 21
0.720667
 31
0.669129
 12
-0.945901
 22
0.720933
 32
0.669001
 13
0.142240
 23
0.715071
 33
0.998570
 62
0
  0
3DFACE
  8
Cylinder5
 10
-0.396999
 20
-0.218924
 30
0.998573
 11
-0.946149
 21
0.720503
 31
0.669001
 12
-0.945937
 22
0.720667
 32
0.669129
 13
-0.397003
 23
0.403740
 33
0.998570
 62
0
  0
3DFACE
  8
Cylinder5
 10
-0.516498
 20
1.099221
 30
0.524332
 11
0.142240
 21
0.715071
 31
0.998570
 12
-0.945901
 22
0.720933
 32
0.669001
 13
-0.945901
 23
0.720933
 33
0.669001
 62
0
  0
3DFACE
  8
Cylinder5
 10
-0.969900
 20
0.910358
 30
0.525097
 11
-0.516498
 21
1.099221
 31
0.524332
 12
-0.945901
 22
0.720933
 32
0.669001
 13
-0.945901
 23
0.720933
 33
0.669001
 62
0
  0
3DFACE
  8
Cylinder5
 10
-0.969097
 20
0.911748
 30
0.524333
 11
-0.516498
 21
1.099221
 31
0.524332
 12
-0.969900
 22
0.910358
 32
0.525097
 13
-0.969900
 23
0.910358
 33
0.525097
 62
0
  0
3DFACE
  8
Cylinder5
 10
-0.945937
 20
0.720667
 30
0.669129
 11
-0.969900
 21
0.910358
 31
0.525097
 12
-0.945901
 22
0.720933
 32
0.669001
 13
-0.945901
 23
0.720933
 33
0.669001
 62
0
  0
3DFACE
  8
Cylinder5
 10
-0.946149
 20
0.720503
 30
0.669001
 11
-0.969900
 21
0.910358
 31
0.525097
 12
-0.945937
 22
0.720667
 32
0.669129
 13
-0.945937
 23
0.720667
 33
0.669129
 62
0
  0
3DFACE
  8
Cylinder5
 10
-1.122192
 20
0.646576
 30
0.525099
 11
-0.969900
 21
0.910358
 31
0.525097
 12
-0.946149
 22
0.720503
 32
0.669001
 13
-0.946149
 23
0.720503
 33
0.669001
 62
0
  0
3DFACE
  8
Cylinder5
 10
1.727589
 20
0.645188
 30
0.524333
 11
1.663645
 21
0.159485
 31
0.524333
 12
1.001591
 22
-0.218924
 32
0.998572
 13
1.001591
 23
-0.218924
 33
0.998572
 62
0
  0
3DFACE
  8
Cylinder5
 10
1.726789
 20
0.646572
 30
0.525093
 11
1.727589
 21
0.645188
 31
0.524333
 12
1.001591
 22
-0.218924
 32
0.998572
 13
1.001591
 23
-0.218924
 33
0.998572
 62
0
  0
3DFACE
  8
Cylinder5
 10
1.550740
 20
0.720503
 30
0.669001
 11
1.726789
 21
0.646572
 31
0.525093
 12
1.001591
 22
-0.218924
 32
0.998572
 13
1.001591
 23
-0.218924
 33
0.998572
 62
0
  0
3DFACE
  8
Cylinder5
 10
1.550491
 20
0.720933
 30
0.669001
 11
1.574489
 21
0.910354
 31
0.525100
 12
1.726789
 22
0.646572
 32
0.525093
 13
1.726789
 23
0.646572
 33
0.525093
 62
0
  0
3DFACE
  8
Cylinder5
 10
1.550740
 20
0.720503
 30
0.669001
 11
1.550491
 21
0.720933
 31
0.669001
 12
1.726789
 22
0.646572
 32
0.525093
 13
1.726789
 23
0.646572
 33
0.525093
 62
0
  0
3DFACE
  8
Cylinder5
 10
1.550527
 20
0.720667
 30
0.669129
 11
1.550491
 21
0.720933
 31
0.669001
 12
1.550740
 22
0.720503
 32
0.669001
 13
1.550740
 23
0.720503
 33
0.669001
 62
0
  0
3DFACE
  8
Cylinder5
 10
0.454588
 20
-1.556930
 30
0.525099
 11
0.456199
 21
-1.556930
 31
0.524333
 12
0.456199
 22
-1.556930
 32
0.501987
 13
0.456199
 23
-1.556930
 33
0.501987
 62
0
  0
3DFACE
  8
Cylinder5
 10
0.150001
 20
-1.556931
 30
0.525098
 11
0.454588
 21
-1.556930
 31
0.525099
 12
0.456199
 22
-1.556930
 32
0.501987
 13
0.456199
 23
-1.556930
 33
0.501987
 62
0
  0
3DFACE
  8
Cylinder5
 10
0.148394
 20
-1.556931
 30
0.524333
 11
0.150001
 21
-1.556931
 31
0.525098
 12
0.456199
 22
-1.556930
 32
0.501987
 13
0.456199
 23
-1.556930
 33
0.501987
 62
0
  0
3DFACE
  8
Cylinder5
 10
0.148394
 20
-1.556931
 30
0.501987
 11
0.148394
 21
-1.556931
 31
0.524333
 12
0.456199
 22
-1.556930
 32
0.501987
 13
0.456199
 23
-1.556930
 33
0.501987
 62
0
  0
3DFACE
  8
Cylinder5
 10
-0.236945
 20
-0.496144
 30
0.998573
 11
-0.743013
 21
-0.603509
 31
0.524332
 12
-0.396999
 22
-0.218924
 32
0.998573
 13
-0.396999
 23
-0.218924
 33
0.998573
 62
0
  0
3DFACE
  8
Cylinder5
 10
0.302295
 20
-1.441334
 30
0.669129
 11
0.302543
 21
-1.441436
 31
0.669001
 12
0.454588
 22
-1.556930
 32
0.525099
 13
0.454588
 23
-1.556930
 33
0.525099
 62
0
  0
3DFACE
  8
Cylinder5
 10
0.302047
 20
-1.441436
 30
0.669001
 11
0.302295
 21
-1.441334
 31
0.669129
 12
0.454588
 22
-1.556930
 32
0.525099
 13
0.454588
 23
-1.556930
 33
0.525099
 62
0
  0
3DFACE
  8
Cylinder5
 10
0.150001
 20
-1.556931
 30
0.525098
 11
0.302047
 21
-1.441436
 31
0.669001
 12
0.454588
 22
-1.556930
 32
0.525099
 13
0.454588
 23
-1.556930
 33
0.525099
 62
0
  0
3DFACE
  8
Cylinder5
 10
0.302295
 20
-0.807480
 30
0.998570
 11
0.302295
 21
-1.441334
 31
0.669129
 12
0.302047
 22
-1.441436
 32
0.669001
 13
-0.236945
 23
-0.496144
 33
0.998573
 62
0
  0
3DFACE
  8
Cylinder5
 10
1.001591
 20
-0.218924
 30
0.998572
 11
1.347603
 21
-0.603509
 31
0.524332
 12
0.841537
 22
-0.496146
 32
0.998571
 13
0.841537
 23
-0.496146
 33
0.998571
 62
0
  0
3DFACE
  8
Cylinder5
 10
0.841537
 20
-0.496146
 30
0.998571
 11
0.302543
 21
-1.441436
 31
0.669001
 12
0.302295
 22
-1.441334
 32
0.669129
 13
0.302295
 23
-0.807480
 33
0.998570
 62
0
  0
3DFACE
  8
Cylinder5
 10
1.001593
 20
0.403740
 30
0.998570
 11
1.550527
 21
0.720667
 31
0.669129
 12
1.550740
 22
0.720503
 32
0.669001
 13
1.001591
 23
-0.218924
 33
0.998572
 62
0
  0
3DFACE
  8
Cylinder5
 10
1.001591
 20
-0.218924
 30
0.998572
 11
0.841537
 21
-0.496146
 31
0.998571
 12
0.302295
 22
-0.807480
 32
0.998570
 13
0.302295
 23
-0.807480
 33
0.998570
 62
0
  0
3DFACE
  8
Cylinder5
 10
-0.236945
 20
-0.496144
 30
0.998573
 11
1.001591
 21
-0.218924
 31
0.998572
 12
0.302295
 22
-0.807480
 32
0.998570
 13
0.302295
 23
-0.807480
 33
0.998570
 62
0
  0
3DFACE
  8
Cylinder5
 10
1.001593
 20
0.403740
 30
0.998570
 11
1.001591
 21
-0.218924
 31
0.998572
 12
-0.236945
 22
-0.496144
 32
0.998573
 13
-0.236945
 23
-0.496144
 33
0.998573
 62
0
  0
3DFACE
  8
Cylinder5
 10
-0.396999
 20
-0.218924
 30
0.998573
 11
1.001593
 21
0.403740
 31
0.998570
 12
-0.236945
 22
-0.496144
 32
0.998573
 13
-0.236945
 23
-0.496144
 33
0.998573
 62
0
  0
3DFACE
  8
Cylinder5
 10
0.462351
 20
0.715071
 30
0.998570
 11
1.001593
 21
0.403740
 31
0.998570
 12
-0.396999
 22
-0.218924
 32
0.998573
 13
-0.396999
 23
-0.218924
 33
0.998573
 62
0
  0
3DFACE
  8
Cylinder5
 10
0.142240
 20
0.715071
 30
0.998570
 11
0.462351
 21
0.715071
 31
0.998570
 12
-0.396999
 22
-0.218924
 32
0.998573
 13
-0.396999
 23
-0.218924
 33
0.998573
 62
0
  0
3DFACE
  8
Cylinder5
 10
-0.397003
 20
0.403740
 30
0.998570
 11
0.142240
 21
0.715071
 31
0.998570
 12
-0.396999
 22
-0.218924
 32
0.998573
 13
-0.396999
 23
-0.218924
 33
0.998573
 62
0
 0
ENDSEC
 0
EOF
