  0
SECTION
  2
HEADER
  0
ENDSEC
  0
SECTION
  2
TABLES
  0
TABLE
  2
LAYER
  70
    153
  0
LAYER
  2
NoName1
 70
0
 62
15
  6
CONTINUOUS
  0
ENDTAB
  0
ENDSEC
  0
SECTION
  2
ENTITIES
  0
3DFACE
  8
NoName1
 10
-0.302733
 20
-0.676033
 30
-0.793032
 11
-0.302733
 21
-0.676034
 31
-0.827879
 12
-0.392056
 22
-0.372795
 32
-0.827474
 13
-0.392056
 23
-0.372795
 33
-0.792627
 62
0
  0
3DFACE
  8
NoName1
 10
0.140026
 20
-0.813137
 30
-0.615592
 11
0.154105
 21
-0.447522
 31
-0.519565
 12
0.294027
 22
-0.285380
 32
-0.618337
 13
0.300188
 23
-0.675753
 33
-0.792484
 62
0
  0
3DFACE
  8
NoName1
 10
0.389417
 20
-0.372712
 30
-0.792337
 11
0.389417
 21
-0.372712
 31
-0.827184
 12
0.300188
 22
-0.675755
 32
-0.827330
 13
0.300188
 23
-0.675753
 33
-0.792484
 62
0
  0
3DFACE
  8
NoName1
 10
0.389644
 20
0.369309
 30
-0.792377
 11
0.389644
 21
0.369309
 31
-0.827223
 12
0.424369
 22
-0.007200
 32
-0.827069
 13
0.424368
 23
-0.007200
 33
-0.792223
 62
0
  0
3DFACE
  8
NoName1
 10
0.294027
 20
-0.285380
 30
-0.618337
 11
0.192007
 21
-0.189438
 31
-0.519565
 12
0.217937
 22
-0.007200
 32
-0.519565
 13
0.217937
 23
-0.007200
 33
-0.519565
 62
0
  0
3DFACE
  8
NoName1
 10
0.293962
 20
0.279055
 30
-0.618229
 11
0.191465
 21
0.182160
 31
-0.519721
 12
0.154105
 22
0.433120
 32
-0.519565
 13
0.154105
 23
0.433120
 33
-0.519565
 62
0
  0
3DFACE
  8
NoName1
 10
0.140085
 20
0.811435
 30
-0.615637
 11
0.088879
 21
0.516023
 31
-0.519563
 12
-0.000000
 22
0.615508
 32
-0.519565
 13
-0.000000
 23
0.615508
 33
-0.519565
 62
0
  0
3DFACE
  8
NoName1
 10
-0.144119
 20
0.811180
 30
-0.615162
 11
-0.090491
 21
0.515876
 31
-0.519563
 12
-0.154105
 22
0.433120
 32
-0.519565
 13
-0.154105
 23
0.433120
 33
-0.519565
 62
0
  0
3DFACE
  8
NoName1
 10
0.000002
 20
-0.007196
 30
-1.418863
 11
-0.223680
 21
0.213782
 31
-1.133301
 12
-0.424368
 22
-0.007200
 32
-0.827069
 13
-0.223982
 23
-0.217977
 33
-1.132731
 62
0
  0
3DFACE
  8
NoName1
 10
-0.090491
 20
0.515876
 30
-0.519563
 11
-0.000000
 21
0.615508
 31
-0.519565
 12
0.088879
 22
0.516023
 32
-0.519563
 13
0.088879
 23
0.516023
 33
-0.519563
 62
0
  0
3DFACE
  8
NoName1
 10
-0.154105
 20
0.433120
 30
-0.519565
 11
-0.090491
 21
0.515876
 31
-0.519563
 12
0.088879
 22
0.516023
 32
-0.519563
 13
0.088879
 23
0.516023
 33
-0.519563
 62
0
  0
3DFACE
  8
NoName1
 10
0.154105
 20
0.433120
 30
-0.519565
 11
-0.154105
 21
0.433120
 31
-0.519565
 12
0.088879
 22
0.516023
 32
-0.519563
 13
0.088879
 23
0.516023
 33
-0.519563
 62
0
  0
3DFACE
  8
NoName1
 10
0.191465
 20
0.182160
 30
-0.519721
 11
-0.154105
 21
0.433120
 31
-0.519565
 12
0.154105
 22
0.433120
 32
-0.519565
 13
0.154105
 23
0.433120
 33
-0.519565
 62
0
  0
3DFACE
  8
NoName1
 10
-0.189825
 20
0.181750
 30
-0.519567
 11
-0.154105
 21
0.433120
 31
-0.519565
 12
0.191465
 22
0.182160
 32
-0.519721
 13
0.191465
 23
0.182160
 33
-0.519721
 62
0
  0
3DFACE
  8
NoName1
 10
-0.217938
 20
-0.007200
 30
-0.519565
 11
-0.189825
 21
0.181750
 31
-0.519567
 12
0.191465
 22
0.182160
 32
-0.519721
 13
0.191465
 23
0.182160
 33
-0.519721
 62
0
  0
3DFACE
  8
NoName1
 10
0.217937
 20
-0.007200
 30
-0.519565
 11
-0.217938
 21
-0.007200
 31
-0.519565
 12
0.191465
 22
0.182160
 32
-0.519721
 13
0.191465
 23
0.182160
 33
-0.519721
 62
0
  0
3DFACE
  8
NoName1
 10
0.192007
 20
-0.189438
 30
-0.519565
 11
-0.217938
 21
-0.007200
 31
-0.519565
 12
0.217937
 22
-0.007200
 32
-0.519565
 13
0.217937
 23
-0.007200
 33
-0.519565
 62
0
  0
3DFACE
  8
NoName1
 10
-0.189603
 20
-0.190125
 30
-0.519512
 11
-0.217938
 21
-0.007200
 31
-0.519565
 12
0.192007
 22
-0.189438
 32
-0.519565
 13
0.192007
 23
-0.189438
 33
-0.519565
 62
0
  0
3DFACE
  8
NoName1
 10
-0.154105
 20
-0.447522
 30
-0.519565
 11
-0.189603
 21
-0.190125
 31
-0.519512
 12
0.192007
 22
-0.189438
 32
-0.519565
 13
0.192007
 23
-0.189438
 33
-0.519565
 62
0
  0
3DFACE
  8
NoName1
 10
0.154105
 20
-0.447522
 30
-0.519565
 11
-0.154105
 21
-0.447522
 31
-0.519565
 12
0.192007
 22
-0.189438
 32
-0.519565
 13
0.192007
 23
-0.189438
 33
-0.519565
 62
0
  0
3DFACE
  8
NoName1
 10
-0.090469
 20
-0.520109
 30
-0.519566
 11
-0.154105
 21
-0.447522
 31
-0.519565
 12
0.154105
 22
-0.447522
 32
-0.519565
 13
0.154105
 23
-0.447522
 33
-0.519565
 62
0
  0
3DFACE
  8
NoName1
 10
0.088455
 20
-0.520684
 30
-0.519480
 11
-0.090469
 21
-0.520109
 31
-0.519566
 12
0.154105
 22
-0.447522
 32
-0.519565
 13
0.154105
 23
-0.447522
 33
-0.519565
 62
0
  0
3DFACE
  8
NoName1
 10
-0.000000
 20
-0.629908
 30
-0.519565
 11
-0.090469
 21
-0.520109
 31
-0.519566
 12
0.088455
 22
-0.520684
 32
-0.519480
 13
0.088455
 23
-0.520684
 33
-0.519480
 62
0
  0
3DFACE
  8
NoName1
 10
-0.217938
 20
-0.007200
 30
-0.519565
 11
-0.189603
 21
-0.190125
 31
-0.519512
 12
-0.296507
 22
-0.285661
 32
-0.618410
 13
-0.296507
 23
-0.285661
 33
-0.618410
 62
0
  0
3DFACE
  8
NoName1
 10
-0.296507
 20
-0.285661
 30
-0.618410
 11
-0.424369
 21
-0.007200
 31
-0.792223
 12
-0.296002
 22
0.279433
 32
-0.618254
 13
-0.217938
 23
-0.007200
 33
-0.519565
 62
0
  0
3DFACE
  8
NoName1
 10
-0.391929
 20
0.368821
 30
-0.792696
 11
-0.391929
 21
0.368821
 31
-0.827542
 12
-0.302787
 22
0.699937
 32
-0.827884
 13
-0.302787
 23
0.699937
 33
-0.793038
 62
0
  0
3DFACE
  8
NoName1
 10
-0.302787
 20
0.699937
 30
-0.793038
 11
-0.144119
 21
0.811180
 31
-0.615162
 12
-0.154105
 22
0.433120
 32
-0.519565
 13
-0.296002
 23
0.279433
 33
-0.618254
 62
0
  0
3DFACE
  8
NoName1
 10
-0.154105
 20
0.433120
 30
-0.519565
 11
-0.189825
 21
0.181750
 31
-0.519567
 12
-0.296002
 22
0.279433
 32
-0.618254
 13
-0.296002
 23
0.279433
 33
-0.618254
 62
0
  0
3DFACE
  8
NoName1
 10
-0.000000
 20
-0.629908
 30
-0.519565
 11
0.088455
 21
-0.520684
 31
-0.519480
 12
0.140026
 22
-0.813137
 32
-0.615592
 13
0.140026
 23
-0.813137
 33
-0.615592
 62
0
  0
3DFACE
  8
NoName1
 10
-0.296507
 20
-0.285661
 30
-0.618410
 11
-0.154105
 21
-0.447522
 31
-0.519565
 12
-0.144131
 22
-0.812667
 32
-0.614979
 13
-0.302733
 23
-0.676033
 33
-0.793032
 62
0
  0
3DFACE
  8
NoName1
 10
-0.392056
 20
-0.372795
 30
-0.792627
 11
-0.392056
 21
-0.372795
 31
-0.827474
 12
-0.424368
 22
-0.007200
 32
-0.827069
 13
-0.424369
 23
-0.007200
 33
-0.792223
 62
0
  0
3DFACE
  8
NoName1
 10
0.154105
 20
-0.447522
 30
-0.519565
 11
0.192007
 21
-0.189438
 31
-0.519565
 12
0.294027
 22
-0.285380
 32
-0.618337
 13
0.294027
 23
-0.285380
 33
-0.618337
 62
0
  0
3DFACE
  8
NoName1
 10
-0.000000
 20
-1.197113
 30
-0.792223
 11
-0.000000
 21
-1.197113
 31
-0.827069
 12
-0.171959
 22
-0.959889
 32
-0.827401
 13
-0.171959
 23
-0.959889
 33
-0.792554
 62
0
  0
3DFACE
  8
NoName1
 10
-0.171959
 20
-0.959889
 30
-0.792554
 11
-0.171959
 21
-0.959889
 31
-0.827401
 12
-0.302733
 22
-0.676034
 32
-0.827879
 13
-0.302733
 23
-0.676033
 33
-0.793032
 62
0
  0
3DFACE
  8
NoName1
 10
0.217937
 20
-0.007200
 30
-0.519565
 11
0.191465
 21
0.182160
 31
-0.519721
 12
0.293962
 22
0.279055
 32
-0.618229
 13
0.293962
 23
0.279055
 33
-0.618229
 62
0
  0
3DFACE
  8
NoName1
 10
0.300188
 20
-0.675753
 30
-0.792484
 11
0.300188
 21
-0.675755
 31
-0.827330
 12
0.166088
 22
-0.959750
 32
-0.827890
 13
0.166088
 23
-0.959748
 33
-0.793043
 62
0
  0
3DFACE
  8
NoName1
 10
0.166088
 20
-0.959748
 30
-0.793043
 11
0.166088
 21
-0.959750
 31
-0.827890
 12
-0.000000
 22
-1.197113
 32
-0.827069
 13
-0.000000
 23
-1.197113
 33
-0.792223
 62
0
  0
3DFACE
  8
NoName1
 10
0.293962
 20
0.279055
 30
-0.618229
 11
0.154105
 21
0.433120
 31
-0.519565
 12
0.140085
 22
0.811435
 32
-0.615637
 13
0.300074
 23
0.699786
 33
-0.792475
 62
0
  0
3DFACE
  8
NoName1
 10
0.424368
 20
-0.007200
 30
-0.792223
 11
0.424369
 21
-0.007200
 31
-0.827069
 12
0.389417
 22
-0.372712
 32
-0.827184
 13
0.389417
 23
-0.372712
 33
-0.792337
 62
0
  0
3DFACE
  8
NoName1
 10
0.294027
 20
-0.285380
 30
-0.618337
 11
0.217937
 21
-0.007200
 31
-0.519565
 12
0.293962
 22
0.279055
 32
-0.618229
 13
0.424368
 23
-0.007200
 33
-0.792223
 62
0
  0
3DFACE
  8
NoName1
 10
0.154105
 20
0.433120
 30
-0.519565
 11
0.088879
 21
0.516023
 31
-0.519563
 12
0.140085
 22
0.811435
 32
-0.615637
 13
0.140085
 23
0.811435
 33
-0.615637
 62
0
  0
3DFACE
  8
NoName1
 10
0.389644
 20
0.369309
 30
-0.827223
 11
0.389644
 21
0.369309
 31
-0.792377
 12
0.300074
 22
0.699786
 32
-0.792475
 13
0.300074
 23
0.699786
 33
-0.827322
 62
0
  0
3DFACE
  8
NoName1
 10
-0.000000
 20
1.182711
 30
-0.792223
 11
-0.000000
 21
1.182710
 31
-0.827069
 12
0.166164
 22
0.973795
 32
-0.827466
 13
0.166164
 23
0.973795
 33
-0.792620
 62
0
  0
3DFACE
  8
NoName1
 10
-0.000000
 20
0.615508
 30
-0.519565
 11
-0.090491
 21
0.515876
 31
-0.519563
 12
-0.144119
 22
0.811180
 32
-0.615162
 13
-0.144119
 23
0.811180
 33
-0.615162
 62
0
  0
3DFACE
  8
NoName1
 10
0.140085
 20
0.811435
 30
-0.615637
 11
-0.000000
 21
0.615508
 31
-0.519565
 12
-0.144119
 22
0.811180
 32
-0.615162
 13
-0.000000
 23
1.182711
 33
-0.792223
 62
0
  0
3DFACE
  8
NoName1
 10
0.000002
 20
-0.007196
 30
-1.418863
 11
-0.100567
 21
0.573654
 31
-1.132668
 12
-0.302787
 22
0.699937
 32
-0.827884
 13
-0.223680
 23
0.213782
 33
-1.133301
 62
0
  0
3DFACE
  8
NoName1
 10
-0.424369
 20
-0.007200
 30
-0.792223
 11
-0.424368
 21
-0.007200
 31
-0.827069
 12
-0.391929
 22
0.368821
 32
-0.827542
 13
-0.391929
 23
0.368821
 33
-0.792696
 62
0
  0
3DFACE
  8
NoName1
 10
-0.296002
 20
0.279433
 30
-0.618254
 11
-0.189825
 21
0.181750
 31
-0.519567
 12
-0.217938
 22
-0.007200
 32
-0.519565
 13
-0.217938
 23
-0.007200
 33
-0.519565
 62
0
  0
3DFACE
  8
NoName1
 10
-0.144131
 20
-0.812667
 30
-0.614979
 11
-0.000000
 21
-0.629908
 31
-0.519565
 12
0.140026
 22
-0.813137
 32
-0.615592
 13
-0.000000
 23
-1.197113
 33
-0.792223
 62
0
  0
3DFACE
  8
NoName1
 10
-0.154105
 20
-0.447522
 30
-0.519565
 11
-0.090469
 21
-0.520109
 31
-0.519566
 12
-0.144131
 22
-0.812667
 32
-0.614979
 13
-0.144131
 23
-0.812667
 33
-0.614979
 62
0
  0
3DFACE
  8
NoName1
 10
-0.296507
 20
-0.285661
 30
-0.618410
 11
-0.189603
 21
-0.190125
 31
-0.519512
 12
-0.154105
 22
-0.447522
 32
-0.519565
 13
-0.154105
 23
-0.447522
 33
-0.519565
 62
0
  0
3DFACE
  8
NoName1
 10
-0.000000
 20
-0.629908
 30
-0.519565
 11
-0.144131
 21
-0.812667
 31
-0.614979
 12
-0.090469
 22
-0.520109
 32
-0.519566
 13
-0.090469
 23
-0.520109
 33
-0.519566
 62
0
  0
3DFACE
  8
NoName1
 10
0.140026
 20
-0.813137
 30
-0.615592
 11
0.088455
 21
-0.520684
 31
-0.519480
 12
0.154105
 22
-0.447522
 32
-0.519565
 13
0.154105
 23
-0.447522
 33
-0.519565
 62
0
  0
3DFACE
  8
NoName1
 10
0.166164
 20
0.973795
 30
-0.792620
 11
0.166164
 21
0.973795
 31
-0.827466
 12
0.300074
 22
0.699786
 32
-0.827322
 13
0.300074
 23
0.699786
 33
-0.792475
 62
0
  0
3DFACE
  8
NoName1
 10
-0.171977
 20
0.973579
 30
-0.792567
 11
-0.171977
 21
0.973579
 31
-0.827414
 12
-0.000000
 22
1.182710
 32
-0.827069
 13
-0.000000
 23
1.182711
 33
-0.792223
 62
0
  0
3DFACE
  8
NoName1
 10
-0.302787
 20
0.699937
 30
-0.793038
 11
-0.302787
 21
0.699937
 31
-0.827884
 12
-0.171977
 22
0.973579
 32
-0.827414
 13
-0.171977
 23
0.973579
 33
-0.792567
 62
0
  0
3DFACE
  8
NoName1
 10
-0.144119
 20
0.811180
 30
-0.615162
 11
-0.302787
 21
0.699937
 31
-0.793038
 12
-0.171977
 22
0.973579
 32
-0.792567
 13
-0.171977
 23
0.973579
 33
-0.792567
 62
0
  0
3DFACE
  8
NoName1
 10
-0.144119
 20
0.811180
 30
-0.615162
 11
-0.171977
 21
0.973579
 31
-0.792567
 12
-0.000000
 22
1.182711
 32
-0.792223
 13
-0.000000
 23
1.182711
 33
-0.792223
 62
0
  0
3DFACE
  8
NoName1
 10
0.140085
 20
0.811435
 30
-0.615637
 11
-0.000000
 21
1.182711
 31
-0.792223
 12
0.166164
 22
0.973795
 32
-0.792620
 13
0.166164
 23
0.973795
 33
-0.792620
 62
0
  0
3DFACE
  8
NoName1
 10
0.140085
 20
0.811435
 30
-0.615637
 11
0.166164
 21
0.973795
 31
-0.792620
 12
0.300074
 22
0.699786
 32
-0.792475
 13
0.300074
 23
0.699786
 33
-0.792475
 62
0
  0
3DFACE
  8
NoName1
 10
0.293962
 20
0.279055
 30
-0.618229
 11
0.300074
 21
0.699786
 31
-0.792475
 12
0.389644
 22
0.369309
 32
-0.792377
 13
0.389644
 23
0.369309
 33
-0.792377
 62
0
  0
3DFACE
  8
NoName1
 10
0.293962
 20
0.279055
 30
-0.618229
 11
0.389644
 21
0.369309
 31
-0.792377
 12
0.424368
 22
-0.007200
 32
-0.792223
 13
0.424368
 23
-0.007200
 33
-0.792223
 62
0
  0
3DFACE
  8
NoName1
 10
0.294027
 20
-0.285380
 30
-0.618337
 11
0.424368
 21
-0.007200
 31
-0.792223
 12
0.389417
 22
-0.372712
 32
-0.792337
 13
0.389417
 23
-0.372712
 33
-0.792337
 62
0
  0
3DFACE
  8
NoName1
 10
0.294027
 20
-0.285380
 30
-0.618337
 11
0.389417
 21
-0.372712
 31
-0.792337
 12
0.300188
 22
-0.675753
 32
-0.792484
 13
0.300188
 23
-0.675753
 33
-0.792484
 62
0
  0
3DFACE
  8
NoName1
 10
0.140026
 20
-0.813137
 30
-0.615592
 11
0.300188
 21
-0.675753
 31
-0.792484
 12
0.166088
 22
-0.959748
 32
-0.793043
 13
0.166088
 23
-0.959748
 33
-0.793043
 62
0
  0
3DFACE
  8
NoName1
 10
0.140026
 20
-0.813137
 30
-0.615592
 11
0.166088
 21
-0.959748
 31
-0.793043
 12
-0.000000
 22
-1.197113
 32
-0.792223
 13
-0.000000
 23
-1.197113
 33
-0.792223
 62
0
  0
3DFACE
  8
NoName1
 10
-0.144131
 20
-0.812667
 30
-0.614979
 11
-0.000000
 21
-1.197113
 31
-0.792223
 12
-0.171959
 22
-0.959889
 32
-0.792554
 13
-0.171959
 23
-0.959889
 33
-0.792554
 62
0
  0
3DFACE
  8
NoName1
 10
-0.144131
 20
-0.812667
 30
-0.614979
 11
-0.171959
 21
-0.959889
 31
-0.792554
 12
-0.302733
 22
-0.676033
 32
-0.793032
 13
-0.302733
 23
-0.676033
 33
-0.793032
 62
0
  0
3DFACE
  8
NoName1
 10
-0.296507
 20
-0.285661
 30
-0.618410
 11
-0.302733
 21
-0.676033
 31
-0.793032
 12
-0.392056
 22
-0.372795
 32
-0.792627
 13
-0.392056
 23
-0.372795
 33
-0.792627
 62
0
  0
3DFACE
  8
NoName1
 10
-0.296507
 20
-0.285661
 30
-0.618410
 11
-0.392056
 21
-0.372795
 31
-0.792627
 12
-0.424369
 22
-0.007200
 32
-0.792223
 13
-0.424369
 23
-0.007200
 33
-0.792223
 62
0
  0
3DFACE
  8
NoName1
 10
-0.296002
 20
0.279433
 30
-0.618254
 11
-0.424369
 21
-0.007200
 31
-0.792223
 12
-0.391929
 22
0.368821
 32
-0.792696
 13
-0.391929
 23
0.368821
 33
-0.792696
 62
0
  0
3DFACE
  8
NoName1
 10
-0.296002
 20
0.279433
 30
-0.618254
 11
-0.391929
 21
0.368821
 31
-0.792696
 12
-0.302787
 22
0.699937
 32
-0.793038
 13
-0.302787
 23
0.699937
 33
-0.793038
 62
0
  0
3DFACE
  8
NoName1
 10
0.166164
 20
0.973795
 30
-0.827466
 11
-0.000000
 21
1.182710
 31
-0.827069
 12
0.097808
 22
0.573544
 32
-1.132340
 13
0.097808
 23
0.573544
 33
-1.132340
 62
0
  0
3DFACE
  8
NoName1
 10
0.300074
 20
0.699786
 30
-0.827322
 11
0.097808
 21
0.573544
 31
-1.132340
 12
0.000002
 22
-0.007196
 32
-1.418863
 13
0.224662
 23
0.214487
 33
-1.131815
 62
0
  0
3DFACE
  8
NoName1
 10
0.424369
 20
-0.007200
 30
-0.827069
 11
0.224662
 21
0.214487
 31
-1.131815
 12
0.000002
 22
-0.007196
 32
-1.418863
 13
0.222454
 23
-0.218168
 33
-1.132625
 62
0
  0
3DFACE
  8
NoName1
 10
0.097672
 20
-0.576549
 30
-1.132586
 11
0.300188
 21
-0.675755
 31
-0.827330
 12
0.222454
 22
-0.218168
 32
-1.132625
 13
0.000002
 23
-0.007196
 33
-1.418863
 62
0
  0
3DFACE
  8
NoName1
 10
-0.000000
 20
-1.197113
 30
-0.827069
 11
0.166088
 21
-0.959750
 31
-0.827890
 12
0.097672
 22
-0.576549
 32
-1.132586
 13
0.097672
 23
-0.576549
 33
-1.132586
 62
0
  0
3DFACE
  8
NoName1
 10
-0.223982
 20
-0.217977
 30
-1.132731
 11
-0.302733
 21
-0.676034
 31
-0.827879
 12
-0.100676
 22
-0.576242
 32
-1.132561
 13
0.000002
 23
-0.007196
 33
-1.418863
 62
0
  0
3DFACE
  8
NoName1
 10
-0.391929
 20
0.368821
 30
-0.827542
 11
-0.424368
 21
-0.007200
 31
-0.827069
 12
-0.223680
 22
0.213782
 32
-1.133301
 13
-0.223680
 23
0.213782
 33
-1.133301
 62
0
  0
3DFACE
  8
NoName1
 10
-0.171977
 20
0.973579
 30
-0.827414
 11
-0.302787
 21
0.699937
 31
-0.827884
 12
-0.100567
 22
0.573654
 32
-1.132668
 13
-0.100567
 23
0.573654
 33
-1.132668
 62
0
  0
3DFACE
  8
NoName1
 10
-0.392056
 20
-0.372795
 30
-0.827474
 11
-0.302733
 21
-0.676034
 31
-0.827879
 12
-0.223982
 22
-0.217977
 32
-1.132731
 13
-0.223982
 23
-0.217977
 33
-1.132731
 62
0
  0
3DFACE
  8
NoName1
 10
-0.424368
 20
-0.007200
 30
-0.827069
 11
-0.392056
 21
-0.372795
 31
-0.827474
 12
-0.223982
 22
-0.217977
 32
-1.132731
 13
-0.223982
 23
-0.217977
 33
-1.132731
 62
0
  0
3DFACE
  8
NoName1
 10
-0.100676
 20
-0.576242
 30
-1.132561
 11
-0.000000
 21
-1.197113
 31
-0.827069
 12
0.097672
 22
-0.576549
 32
-1.132586
 13
0.000002
 23
-0.007196
 33
-1.418863
 62
0
  0
3DFACE
  8
NoName1
 10
-0.302733
 20
-0.676034
 30
-0.827879
 11
-0.171959
 21
-0.959889
 31
-0.827401
 12
-0.100676
 22
-0.576242
 32
-1.132561
 13
-0.100676
 23
-0.576242
 33
-1.132561
 62
0
  0
3DFACE
  8
NoName1
 10
0.300188
 20
-0.675755
 30
-0.827330
 11
0.389417
 21
-0.372712
 31
-0.827184
 12
0.222454
 22
-0.218168
 32
-1.132625
 13
0.222454
 23
-0.218168
 33
-1.132625
 62
0
  0
3DFACE
  8
NoName1
 10
-0.171959
 20
-0.959889
 30
-0.827401
 11
-0.000000
 21
-1.197113
 31
-0.827069
 12
-0.100676
 22
-0.576242
 32
-1.132561
 13
-0.100676
 23
-0.576242
 33
-1.132561
 62
0
  0
3DFACE
  8
NoName1
 10
0.424369
 20
-0.007200
 30
-0.827069
 11
0.389644
 21
0.369309
 31
-0.827223
 12
0.224662
 22
0.214487
 32
-1.131815
 13
0.224662
 23
0.214487
 33
-1.131815
 62
0
  0
3DFACE
  8
NoName1
 10
0.166088
 20
-0.959750
 30
-0.827890
 11
0.300188
 21
-0.675755
 31
-0.827330
 12
0.097672
 22
-0.576549
 32
-1.132586
 13
0.097672
 23
-0.576549
 33
-1.132586
 62
0
  0
3DFACE
  8
NoName1
 10
0.300074
 20
0.699786
 30
-0.827322
 11
0.166164
 21
0.973795
 31
-0.827466
 12
0.097808
 22
0.573544
 32
-1.132340
 13
0.097808
 23
0.573544
 33
-1.132340
 62
0
  0
3DFACE
  8
NoName1
 10
0.389417
 20
-0.372712
 30
-0.827184
 11
0.424369
 21
-0.007200
 31
-0.827069
 12
0.222454
 22
-0.218168
 32
-1.132625
 13
0.222454
 23
-0.218168
 33
-1.132625
 62
0
  0
3DFACE
  8
NoName1
 10
-0.000000
 20
1.182710
 30
-0.827069
 11
-0.171977
 21
0.973579
 31
-0.827414
 12
-0.100567
 22
0.573654
 32
-1.132668
 13
-0.100567
 23
0.573654
 33
-1.132668
 62
0
  0
3DFACE
  8
NoName1
 10
0.389644
 20
0.369309
 30
-0.827223
 11
0.300074
 21
0.699786
 31
-0.827322
 12
0.224662
 22
0.214487
 32
-1.131815
 13
0.224662
 23
0.214487
 33
-1.131815
 62
0
  0
3DFACE
  8
NoName1
 10
-0.302787
 20
0.699937
 30
-0.827884
 11
-0.391929
 21
0.368821
 31
-0.827542
 12
-0.223680
 22
0.213782
 32
-1.133301
 13
-0.223680
 23
0.213782
 33
-1.133301
 62
0
  0
3DFACE
  8
NoName1
 10
-0.000000
 20
1.182710
 30
-0.827069
 11
-0.100567
 21
0.573654
 31
-1.132668
 12
0.000002
 22
-0.007196
 32
-1.418863
 13
0.097808
 23
0.573544
 33
-1.132340
 62
0
 0
ENDSEC
 0
EOF
