  0
SECTION
  2
HEADER
  0
ENDSEC
  0
SECTION
  2
TABLES
  0
TABLE
  2
LAYER
  70
    153
  0
LAYER
  2
NoName1
 70
0
 62
15
  6
CONTINUOUS
  0
ENDTAB
  0
ENDSEC
  0
SECTION
  2
ENTITIES
  0
3DFACE
  8
NoName1
 10
-1.452277
 20
-0.356189
 30
-0.719788
 11
-1.121728
 21
-0.624534
 31
-0.719787
 12
-1.121728
 22
-0.624535
 32
-0.768895
 13
-1.452276
 23
-0.356189
 33
-0.768896
 62
0
  0
3DFACE
  8
NoName1
 10
1.111878
 20
-0.624534
 30
-0.719787
 11
0.463376
 21
-0.611434
 31
-0.472190
 12
0.571012
 22
-0.330266
 32
-0.335541
 13
1.082139
 23
-0.267793
 33
-0.471506
 62
0
  0
3DFACE
  8
NoName1
 10
1.111878
 20
-0.624534
 30
-0.719787
 11
1.443768
 21
-0.356077
 31
-0.719787
 12
1.443768
 22
-0.356077
 32
-0.768895
 13
1.111878
 23
-0.624535
 33
-0.768894
 62
0
  0
3DFACE
  8
NoName1
 10
1.572432
 20
-0.007200
 30
-0.719787
 11
1.443768
 21
0.332606
 31
-0.719788
 12
1.443769
 22
0.332606
 32
-0.768895
 13
1.572434
 23
-0.007200
 33
-0.768894
 62
0
  0
3DFACE
  8
NoName1
 10
0.807533
 20
-0.007200
 30
-0.335541
 11
1.082139
 21
-0.267793
 31
-0.471506
 12
0.686786
 22
-0.170140
 32
-0.335541
 13
0.686786
 23
-0.170140
 33
-0.335541
 62
0
  0
3DFACE
  8
NoName1
 10
0.571012
 20
0.315864
 30
-0.335541
 11
1.089081
 21
0.247753
 31
-0.471639
 12
0.689272
 22
0.154332
 32
-0.335541
 13
0.689272
 23
0.154332
 33
-0.335541
 62
0
  0
3DFACE
  8
NoName1
 10
-0.000001
 20
0.449683
 30
-0.335541
 11
0.458264
 21
0.600458
 31
-0.471657
 12
0.289649
 22
0.382774
 32
-0.335541
 13
0.289649
 23
0.382774
 33
-0.335541
 62
0
  0
3DFACE
  8
NoName1
 10
-0.571014
 20
0.315864
 30
-0.335541
 11
-0.463554
 21
0.600869
 31
-0.471591
 12
-0.285506
 22
0.382774
 32
-0.335541
 13
-0.285506
 23
0.382774
 33
-0.335541
 62
0
  0
3DFACE
  8
NoName1
 10
-0.745978
 20
-0.183100
 30
-1.199738
 11
0.000006
 21
-0.007197
 31
-1.602887
 12
-0.746264
 22
0.167740
 32
-1.199769
 13
-1.572432
 23
-0.007200
 33
-0.768894
 62
0
  0
3DFACE
  8
NoName1
 10
0.289649
 20
0.382774
 30
-0.335541
 11
-0.285506
 21
0.382774
 31
-0.335541
 12
-0.000001
 22
0.449683
 32
-0.335541
 13
-0.000001
 23
0.449683
 33
-0.335541
 62
0
  0
3DFACE
  8
NoName1
 10
-0.571014
 20
0.315864
 30
-0.335541
 11
-0.285506
 21
0.382774
 31
-0.335541
 12
0.289649
 22
0.382774
 32
-0.335541
 13
0.289649
 23
0.382774
 33
-0.335541
 62
0
  0
3DFACE
  8
NoName1
 10
0.571012
 20
0.315864
 30
-0.335541
 11
-0.571014
 21
0.315864
 31
-0.335541
 12
0.289649
 22
0.382774
 32
-0.335541
 13
0.289649
 23
0.382774
 33
-0.335541
 62
0
  0
3DFACE
  8
NoName1
 10
-0.689274
 20
0.154332
 30
-0.335541
 11
-0.571014
 21
0.315864
 31
-0.335541
 12
0.571012
 22
0.315864
 32
-0.335541
 13
0.571012
 23
0.315864
 33
-0.335541
 62
0
  0
3DFACE
  8
NoName1
 10
0.689272
 20
0.154332
 30
-0.335541
 11
-0.689274
 21
0.154332
 31
-0.335541
 12
0.571012
 22
0.315864
 32
-0.335541
 13
0.571012
 23
0.315864
 33
-0.335541
 62
0
  0
3DFACE
  8
NoName1
 10
-0.807535
 20
-0.007200
 30
-0.335541
 11
-0.689274
 21
0.154332
 31
-0.335541
 12
0.689272
 22
0.154332
 32
-0.335541
 13
0.689272
 23
0.154332
 33
-0.335541
 62
0
  0
3DFACE
  8
NoName1
 10
0.807533
 20
-0.007200
 30
-0.335541
 11
-0.807535
 21
-0.007200
 31
-0.335541
 12
0.689272
 22
0.154332
 32
-0.335541
 13
0.689272
 23
0.154332
 33
-0.335541
 62
0
  0
3DFACE
  8
NoName1
 10
-0.689274
 20
-0.168734
 30
-0.335541
 11
-0.807535
 21
-0.007200
 31
-0.335541
 12
0.807533
 22
-0.007200
 32
-0.335541
 13
0.807533
 23
-0.007200
 33
-0.335541
 62
0
  0
3DFACE
  8
NoName1
 10
0.686786
 20
-0.170140
 30
-0.335541
 11
-0.689274
 21
-0.168734
 31
-0.335541
 12
0.807533
 22
-0.007200
 32
-0.335541
 13
0.807533
 23
-0.007200
 33
-0.335541
 62
0
  0
3DFACE
  8
NoName1
 10
-0.571014
 20
-0.330266
 30
-0.335541
 11
-0.689274
 21
-0.168734
 31
-0.335541
 12
0.686786
 22
-0.170140
 32
-0.335541
 13
0.686786
 23
-0.170140
 33
-0.335541
 62
0
  0
3DFACE
  8
NoName1
 10
0.571012
 20
-0.330266
 30
-0.335541
 11
-0.571014
 21
-0.330266
 31
-0.335541
 12
0.686786
 22
-0.170140
 32
-0.335541
 13
0.686786
 23
-0.170140
 33
-0.335541
 62
0
  0
3DFACE
  8
NoName1
 10
-0.306222
 20
-0.392955
 30
-0.335542
 11
-0.571014
 21
-0.330266
 31
-0.335541
 12
0.571012
 22
-0.330266
 32
-0.335541
 13
0.571012
 23
-0.330266
 33
-0.335541
 62
0
  0
3DFACE
  8
NoName1
 10
0.291306
 20
-0.396706
 30
-0.335541
 11
-0.306222
 21
-0.392955
 31
-0.335542
 12
0.571012
 22
-0.330266
 32
-0.335541
 13
0.571012
 23
-0.330266
 33
-0.335541
 62
0
  0
3DFACE
  8
NoName1
 10
-0.000001
 20
-0.464083
 30
-0.335541
 11
-0.306222
 21
-0.392955
 31
-0.335542
 12
0.291306
 22
-0.396706
 32
-0.335541
 13
0.291306
 23
-0.396706
 33
-0.335541
 62
0
  0
3DFACE
  8
NoName1
 10
-1.086540
 20
-0.266618
 30
-0.471373
 11
-0.807535
 21
-0.007200
 31
-0.335541
 12
-0.689274
 22
-0.168734
 32
-0.335541
 13
-0.689274
 23
-0.168734
 33
-0.335541
 62
0
  0
3DFACE
  8
NoName1
 10
-0.807535
 20
-0.007200
 30
-0.335541
 11
-1.086540
 21
-0.266618
 31
-0.471373
 12
-1.572434
 22
-0.007200
 32
-0.719787
 13
-1.090465
 23
0.247506
 33
-0.471124
 62
0
  0
3DFACE
  8
NoName1
 10
-1.121939
 20
0.617033
 30
-0.719787
 11
-1.452236
 21
0.332094
 31
-0.719787
 12
-1.452236
 22
0.332094
 32
-0.768895
 13
-1.121939
 23
0.617033
 33
-0.768895
 62
0
  0
3DFACE
  8
NoName1
 10
-1.090465
 20
0.247506
 30
-0.471124
 11
-1.121939
 21
0.617033
 31
-0.719787
 12
-0.463554
 22
0.600869
 32
-0.471591
 13
-0.571014
 23
0.315864
 33
-0.335541
 62
0
  0
3DFACE
  8
NoName1
 10
-1.090465
 20
0.247506
 30
-0.471124
 11
-0.571014
 21
0.315864
 31
-0.335541
 12
-0.689274
 22
0.154332
 32
-0.335541
 13
-0.689274
 23
0.154332
 33
-0.335541
 62
0
  0
3DFACE
  8
NoName1
 10
0.463376
 20
-0.611434
 30
-0.472190
 11
-0.000001
 21
-0.464083
 31
-0.335541
 12
0.291306
 22
-0.396706
 32
-0.335541
 13
0.291306
 23
-0.396706
 33
-0.335541
 62
0
  0
3DFACE
  8
NoName1
 10
-1.121728
 20
-0.624534
 30
-0.719787
 11
-1.086540
 21
-0.266618
 31
-0.471373
 12
-0.571014
 22
-0.330266
 32
-0.335541
 13
-0.478613
 23
-0.611251
 33
-0.471857
 62
0
  0
3DFACE
  8
NoName1
 10
-1.572434
 20
-0.007200
 30
-0.719787
 11
-1.452277
 21
-0.356189
 31
-0.719788
 12
-1.452276
 22
-0.356189
 32
-0.768896
 13
-1.572432
 23
-0.007200
 33
-0.768894
 62
0
  0
3DFACE
  8
NoName1
 10
1.082139
 20
-0.267793
 30
-0.471506
 11
0.571012
 21
-0.330266
 31
-0.335541
 12
0.686786
 22
-0.170140
 32
-0.335541
 13
0.686786
 23
-0.170140
 33
-0.335541
 62
0
  0
3DFACE
  8
NoName1
 10
-0.636792
 20
-0.811147
 30
-0.719787
 11
-0.000001
 21
-0.880243
 31
-0.719787
 12
-0.000001
 22
-0.880243
 32
-0.768894
 13
-0.636790
 23
-0.811147
 33
-0.768895
 62
0
  0
3DFACE
  8
NoName1
 10
-1.121728
 20
-0.624534
 30
-0.719787
 11
-0.636792
 21
-0.811147
 31
-0.719787
 12
-0.636790
 22
-0.811147
 32
-0.768895
 13
-1.121728
 23
-0.624535
 33
-0.768895
 62
0
  0
3DFACE
  8
NoName1
 10
1.089081
 20
0.247753
 30
-0.471639
 11
0.807533
 21
-0.007200
 31
-0.335541
 12
0.689272
 22
0.154332
 32
-0.335541
 13
0.689272
 23
0.154332
 33
-0.335541
 62
0
  0
3DFACE
  8
NoName1
 10
0.615417
 20
-0.811490
 30
-0.719787
 11
1.111878
 21
-0.624534
 31
-0.719787
 12
1.111878
 22
-0.624535
 32
-0.768894
 13
0.615417
 23
-0.811492
 33
-0.768894
 62
0
  0
3DFACE
  8
NoName1
 10
-0.000001
 20
-0.880243
 30
-0.719787
 11
0.615417
 21
-0.811490
 31
-0.719787
 12
0.615417
 22
-0.811492
 32
-0.768894
 13
-0.000001
 23
-0.880243
 33
-0.768894
 62
0
  0
3DFACE
  8
NoName1
 10
1.111878
 20
0.616919
 30
-0.719789
 11
1.089081
 21
0.247753
 31
-0.471639
 12
0.571012
 22
0.315864
 32
-0.335541
 13
0.458264
 23
0.600458
 33
-0.471657
 62
0
  0
3DFACE
  8
NoName1
 10
1.443768
 20
-0.356077
 30
-0.719787
 11
1.572432
 21
-0.007200
 31
-0.719787
 12
1.572434
 22
-0.007200
 32
-0.768894
 13
1.443768
 23
-0.356077
 33
-0.768895
 62
0
  0
3DFACE
  8
NoName1
 10
1.572432
 20
-0.007200
 30
-0.719787
 11
1.082139
 21
-0.267793
 31
-0.471506
 12
0.807533
 22
-0.007200
 32
-0.335541
 13
1.089081
 23
0.247753
 33
-0.471639
 62
0
  0
3DFACE
  8
NoName1
 10
0.458264
 20
0.600458
 30
-0.471657
 11
0.571012
 21
0.315864
 31
-0.335541
 12
0.289649
 22
0.382774
 32
-0.335541
 13
0.289649
 23
0.382774
 33
-0.335541
 62
0
  0
3DFACE
  8
NoName1
 10
1.111878
 20
0.616919
 30
-0.768896
 11
1.443769
 21
0.332606
 31
-0.768895
 12
1.443768
 22
0.332606
 32
-0.719788
 13
1.111878
 23
0.616919
 33
-0.719789
 62
0
  0
3DFACE
  8
NoName1
 10
0.615702
 20
0.807455
 30
-0.719788
 11
-0.000001
 21
0.865842
 31
-0.719787
 12
-0.000001
 22
0.865841
 32
-0.768894
 13
0.615702
 23
0.807455
 33
-0.768896
 62
0
  0
3DFACE
  8
NoName1
 10
-0.463554
 20
0.600869
 30
-0.471591
 11
-0.000001
 21
0.449683
 31
-0.335541
 12
-0.285506
 22
0.382774
 32
-0.335541
 13
-0.285506
 23
0.382774
 33
-0.335541
 62
0
  0
3DFACE
  8
NoName1
 10
-0.000001
 20
0.865842
 30
-0.719787
 11
0.458264
 21
0.600458
 31
-0.471657
 12
-0.000001
 22
0.449683
 32
-0.335541
 13
-0.463554
 23
0.600869
 33
-0.471591
 62
0
  0
3DFACE
  8
NoName1
 10
-0.746264
 20
0.167740
 30
-1.199769
 11
0.000006
 21
-0.007197
 31
-1.602887
 12
-0.309263
 22
0.411913
 32
-1.199994
 13
-1.121939
 23
0.617033
 33
-0.768895
 62
0
  0
3DFACE
  8
NoName1
 10
-1.452236
 20
0.332094
 30
-0.719787
 11
-1.572434
 21
-0.007200
 31
-0.719787
 12
-1.572432
 22
-0.007200
 32
-0.768894
 13
-1.452236
 23
0.332094
 33
-0.768895
 62
0
  0
3DFACE
  8
NoName1
 10
-0.807535
 20
-0.007200
 30
-0.335541
 11
-1.090465
 21
0.247506
 31
-0.471124
 12
-0.689274
 22
0.154332
 32
-0.335541
 13
-0.689274
 23
0.154332
 33
-0.335541
 62
0
  0
3DFACE
  8
NoName1
 10
-0.000001
 20
-0.880243
 30
-0.719787
 11
-0.478613
 21
-0.611251
 31
-0.471857
 12
-0.000001
 22
-0.464083
 32
-0.335541
 13
0.463376
 23
-0.611434
 33
-0.472190
 62
0
  0
3DFACE
  8
NoName1
 10
-0.478613
 20
-0.611251
 30
-0.471857
 11
-0.571014
 21
-0.330266
 31
-0.335541
 12
-0.306222
 22
-0.392955
 32
-0.335542
 13
-0.306222
 23
-0.392955
 33
-0.335542
 62
0
  0
3DFACE
  8
NoName1
 10
-0.571014
 20
-0.330266
 30
-0.335541
 11
-1.086540
 21
-0.266618
 31
-0.471373
 12
-0.689274
 22
-0.168734
 32
-0.335541
 13
-0.689274
 23
-0.168734
 33
-0.335541
 62
0
  0
3DFACE
  8
NoName1
 10
-0.306222
 20
-0.392955
 30
-0.335542
 11
-0.000001
 21
-0.464083
 31
-0.335541
 12
-0.478613
 22
-0.611251
 32
-0.471857
 13
-0.478613
 23
-0.611251
 33
-0.471857
 62
0
  0
3DFACE
  8
NoName1
 10
0.571012
 20
-0.330266
 30
-0.335541
 11
0.463376
 21
-0.611434
 31
-0.472190
 12
0.291306
 22
-0.396706
 32
-0.335541
 13
0.291306
 23
-0.396706
 33
-0.335541
 62
0
  0
3DFACE
  8
NoName1
 10
1.111878
 20
0.616919
 30
-0.719789
 11
0.615702
 21
0.807455
 31
-0.719788
 12
0.615702
 22
0.807455
 32
-0.768896
 13
1.111878
 23
0.616919
 33
-0.768896
 62
0
  0
3DFACE
  8
NoName1
 10
-0.000001
 20
0.865842
 30
-0.719787
 11
-0.637236
 21
0.807099
 31
-0.720272
 12
-0.637236
 22
0.807099
 32
-0.769380
 13
-0.000001
 23
0.865841
 33
-0.768894
 62
0
  0
3DFACE
  8
NoName1
 10
-0.637236
 20
0.807099
 30
-0.720272
 11
-1.121939
 21
0.617033
 31
-0.719787
 12
-1.121939
 22
0.617033
 32
-0.768895
 13
-0.637236
 23
0.807099
 33
-0.769380
 62
0
  0
3DFACE
  8
NoName1
 10
-0.637236
 20
0.807099
 30
-0.720272
 11
-0.463554
 21
0.600869
 31
-0.471591
 12
-1.121939
 22
0.617033
 32
-0.719787
 13
-1.121939
 23
0.617033
 33
-0.719787
 62
0
  0
3DFACE
  8
NoName1
 10
-0.000001
 20
0.865842
 30
-0.719787
 11
-0.463554
 21
0.600869
 31
-0.471591
 12
-0.637236
 22
0.807099
 32
-0.720272
 13
-0.637236
 23
0.807099
 33
-0.720272
 62
0
  0
3DFACE
  8
NoName1
 10
0.615702
 20
0.807455
 30
-0.719788
 11
0.458264
 21
0.600458
 31
-0.471657
 12
-0.000001
 22
0.865842
 32
-0.719787
 13
-0.000001
 23
0.865842
 33
-0.719787
 62
0
  0
3DFACE
  8
NoName1
 10
1.111878
 20
0.616919
 30
-0.719789
 11
0.458264
 21
0.600458
 31
-0.471657
 12
0.615702
 22
0.807455
 32
-0.719788
 13
0.615702
 23
0.807455
 33
-0.719788
 62
0
  0
3DFACE
  8
NoName1
 10
1.443768
 20
0.332606
 30
-0.719788
 11
1.089081
 21
0.247753
 31
-0.471639
 12
1.111878
 22
0.616919
 32
-0.719789
 13
1.111878
 23
0.616919
 33
-0.719789
 62
0
  0
3DFACE
  8
NoName1
 10
1.572432
 20
-0.007200
 30
-0.719787
 11
1.089081
 21
0.247753
 31
-0.471639
 12
1.443768
 22
0.332606
 32
-0.719788
 13
1.443768
 23
0.332606
 33
-0.719788
 62
0
  0
3DFACE
  8
NoName1
 10
1.443768
 20
-0.356077
 30
-0.719787
 11
1.082139
 21
-0.267793
 31
-0.471506
 12
1.572432
 22
-0.007200
 32
-0.719787
 13
1.572432
 23
-0.007200
 33
-0.719787
 62
0
  0
3DFACE
  8
NoName1
 10
1.111878
 20
-0.624534
 30
-0.719787
 11
1.082139
 21
-0.267793
 31
-0.471506
 12
1.443768
 22
-0.356077
 32
-0.719787
 13
1.443768
 23
-0.356077
 33
-0.719787
 62
0
  0
3DFACE
  8
NoName1
 10
0.615417
 20
-0.811490
 30
-0.719787
 11
0.463376
 21
-0.611434
 31
-0.472190
 12
1.111878
 22
-0.624534
 32
-0.719787
 13
1.111878
 23
-0.624534
 33
-0.719787
 62
0
  0
3DFACE
  8
NoName1
 10
-0.000001
 20
-0.880243
 30
-0.719787
 11
0.463376
 21
-0.611434
 31
-0.472190
 12
0.615417
 22
-0.811490
 32
-0.719787
 13
0.615417
 23
-0.811490
 33
-0.719787
 62
0
  0
3DFACE
  8
NoName1
 10
-0.636792
 20
-0.811147
 30
-0.719787
 11
-0.478613
 21
-0.611251
 31
-0.471857
 12
-0.000001
 22
-0.880243
 32
-0.719787
 13
-0.000001
 23
-0.880243
 33
-0.719787
 62
0
  0
3DFACE
  8
NoName1
 10
-1.121728
 20
-0.624534
 30
-0.719787
 11
-0.478613
 21
-0.611251
 31
-0.471857
 12
-0.636792
 22
-0.811147
 32
-0.719787
 13
-0.636792
 23
-0.811147
 33
-0.719787
 62
0
  0
3DFACE
  8
NoName1
 10
-1.452277
 20
-0.356189
 30
-0.719788
 11
-1.086540
 21
-0.266618
 31
-0.471373
 12
-1.121728
 22
-0.624534
 32
-0.719787
 13
-1.121728
 23
-0.624534
 33
-0.719787
 62
0
  0
3DFACE
  8
NoName1
 10
-1.572434
 20
-0.007200
 30
-0.719787
 11
-1.086540
 21
-0.266618
 31
-0.471373
 12
-1.452277
 22
-0.356189
 32
-0.719788
 13
-1.452277
 23
-0.356189
 33
-0.719788
 62
0
  0
3DFACE
  8
NoName1
 10
-1.452236
 20
0.332094
 30
-0.719787
 11
-1.090465
 21
0.247506
 31
-0.471124
 12
-1.572434
 22
-0.007200
 32
-0.719787
 13
-1.572434
 23
-0.007200
 33
-0.719787
 62
0
  0
3DFACE
  8
NoName1
 10
-1.121939
 20
0.617033
 30
-0.719787
 11
-1.090465
 21
0.247506
 31
-0.471124
 12
-1.452236
 22
0.332094
 32
-0.719787
 13
-1.452236
 23
0.332094
 33
-0.719787
 62
0
  0
3DFACE
  8
NoName1
 10
0.311673
 20
0.411557
 30
-1.199457
 11
0.615702
 21
0.807455
 31
-0.768896
 12
-0.000001
 22
0.865841
 32
-0.768894
 13
-0.000001
 23
0.865841
 33
-0.768894
 62
0
  0
3DFACE
  8
NoName1
 10
0.741962
 20
0.167484
 30
-1.199488
 11
1.111878
 21
0.616919
 31
-0.768896
 12
0.311673
 22
0.411557
 32
-1.199457
 13
0.000006
 23
-0.007197
 33
-1.602887
 62
0
  0
3DFACE
  8
NoName1
 10
0.741876
 20
-0.183324
 30
-1.199509
 11
1.572434
 21
-0.007200
 31
-0.768894
 12
0.741962
 22
0.167484
 32
-1.199488
 13
0.000006
 23
-0.007197
 33
-1.602887
 62
0
  0
3DFACE
  8
NoName1
 10
0.000006
 20
-0.007197
 30
-1.602887
 11
0.312559
 21
-0.423584
 31
-1.199455
 12
1.111878
 22
-0.624535
 32
-0.768894
 13
0.741876
 23
-0.183324
 33
-1.199509
 62
0
  0
3DFACE
  8
NoName1
 10
0.312559
 20
-0.423584
 30
-1.199455
 11
-0.000001
 21
-0.880243
 31
-0.768894
 12
0.615417
 22
-0.811492
 32
-0.768894
 13
0.615417
 23
-0.811492
 33
-0.768894
 62
0
  0
3DFACE
  8
NoName1
 10
0.000006
 20
-0.007197
 30
-1.602887
 11
-0.745978
 21
-0.183100
 31
-1.199738
 12
-1.121728
 22
-0.624535
 32
-0.768895
 13
-0.330977
 23
-0.424094
 33
-1.199422
 62
0
  0
3DFACE
  8
NoName1
 10
-0.746264
 20
0.167740
 30
-1.199769
 11
-1.452236
 21
0.332094
 31
-0.768895
 12
-1.572432
 22
-0.007200
 32
-0.768894
 13
-1.572432
 23
-0.007200
 33
-0.768894
 62
0
  0
3DFACE
  8
NoName1
 10
-0.309263
 20
0.411913
 30
-1.199994
 11
-0.637236
 21
0.807099
 31
-0.769380
 12
-1.121939
 22
0.617033
 32
-0.768895
 13
-1.121939
 23
0.617033
 33
-0.768895
 62
0
  0
3DFACE
  8
NoName1
 10
-0.745978
 20
-0.183100
 30
-1.199738
 11
-1.452276
 21
-0.356189
 31
-0.768896
 12
-1.121728
 22
-0.624535
 32
-0.768895
 13
-1.121728
 23
-0.624535
 33
-0.768895
 62
0
  0
3DFACE
  8
NoName1
 10
-0.745978
 20
-0.183100
 30
-1.199738
 11
-1.572432
 21
-0.007200
 31
-0.768894
 12
-1.452276
 22
-0.356189
 32
-0.768896
 13
-1.452276
 23
-0.356189
 33
-0.768896
 62
0
  0
3DFACE
  8
NoName1
 10
0.000006
 20
-0.007197
 30
-1.602887
 11
-0.330977
 21
-0.424094
 31
-1.199422
 12
-0.000001
 22
-0.880243
 32
-0.768894
 13
0.312559
 23
-0.423584
 33
-1.199455
 62
0
  0
3DFACE
  8
NoName1
 10
-0.330977
 20
-0.424094
 30
-1.199422
 11
-1.121728
 21
-0.624535
 31
-0.768895
 12
-0.636790
 22
-0.811147
 32
-0.768895
 13
-0.636790
 23
-0.811147
 33
-0.768895
 62
0
  0
3DFACE
  8
NoName1
 10
0.741876
 20
-0.183324
 30
-1.199509
 11
1.111878
 21
-0.624535
 31
-0.768894
 12
1.443768
 22
-0.356077
 32
-0.768895
 13
1.443768
 23
-0.356077
 33
-0.768895
 62
0
  0
3DFACE
  8
NoName1
 10
-0.330977
 20
-0.424094
 30
-1.199422
 11
-0.636790
 21
-0.811147
 31
-0.768895
 12
-0.000001
 22
-0.880243
 32
-0.768894
 13
-0.000001
 23
-0.880243
 33
-0.768894
 62
0
  0
3DFACE
  8
NoName1
 10
0.741962
 20
0.167484
 30
-1.199488
 11
1.572434
 21
-0.007200
 31
-0.768894
 12
1.443769
 22
0.332606
 32
-0.768895
 13
1.443769
 23
0.332606
 33
-0.768895
 62
0
  0
3DFACE
  8
NoName1
 10
0.312559
 20
-0.423584
 30
-1.199455
 11
0.615417
 21
-0.811492
 31
-0.768894
 12
1.111878
 22
-0.624535
 32
-0.768894
 13
1.111878
 23
-0.624535
 33
-0.768894
 62
0
  0
3DFACE
  8
NoName1
 10
0.311673
 20
0.411557
 30
-1.199457
 11
1.111878
 21
0.616919
 31
-0.768896
 12
0.615702
 22
0.807455
 32
-0.768896
 13
0.615702
 23
0.807455
 33
-0.768896
 62
0
  0
3DFACE
  8
NoName1
 10
0.741876
 20
-0.183324
 30
-1.199509
 11
1.443768
 21
-0.356077
 31
-0.768895
 12
1.572434
 22
-0.007200
 32
-0.768894
 13
1.572434
 23
-0.007200
 33
-0.768894
 62
0
  0
3DFACE
  8
NoName1
 10
-0.309263
 20
0.411913
 30
-1.199994
 11
-0.000001
 21
0.865841
 31
-0.768894
 12
-0.637236
 22
0.807099
 32
-0.769380
 13
-0.637236
 23
0.807099
 33
-0.769380
 62
0
  0
3DFACE
  8
NoName1
 10
0.741962
 20
0.167484
 30
-1.199488
 11
1.443769
 21
0.332606
 31
-0.768895
 12
1.111878
 22
0.616919
 32
-0.768896
 13
1.111878
 23
0.616919
 33
-0.768896
 62
0
  0
3DFACE
  8
NoName1
 10
-0.746264
 20
0.167740
 30
-1.199769
 11
-1.121939
 21
0.617033
 31
-0.768895
 12
-1.452236
 22
0.332094
 32
-0.768895
 13
-1.452236
 23
0.332094
 33
-0.768895
 62
0
  0
3DFACE
  8
NoName1
 10
0.311673
 20
0.411557
 30
-1.199457
 11
-0.000001
 21
0.865841
 31
-0.768894
 12
-0.309263
 22
0.411913
 32
-1.199994
 13
0.000006
 23
-0.007197
 33
-1.602887
 62
0
 0
ENDSEC
 0
EOF
