  0
SECTION
  2
HEADER
  0
ENDSEC
  0
SECTION
  2
TABLES
  0
TABLE
  2
LAYER
  70
    153
  0
LAYER
  2
Cube116
 70
0
 62
15
  6
CONTINUOUS
  0
ENDTAB
  0
ENDSEC
  0
SECTION
  2
ENTITIES
  0
3DFACE
  8
Cube116
 10
0.651521
 20
-0.517996
 30
-0.169993
 11
0.832566
 21
-0.456539
 31
-0.204995
 12
0.799435
 22
-0.363786
 32
-0.295349
 13
0.799435
 23
-0.363786
 33
-0.295349
 62
0
  0
3DFACE
  8
Cube116
 10
0.192576
 20
-0.087042
 30
-0.204994
 11
0.192576
 21
0.087039
 31
-0.204994
 12
0.192576
 22
0.087039
 32
-0.184810
 13
0.192576
 23
-0.087042
 33
-0.184810
 62
0
  0
3DFACE
  8
Cube116
 10
0.832566
 20
-0.456539
 30
-0.204995
 11
0.651521
 21
-0.517996
 31
-0.169993
 12
0.651521
 22
-0.517996
 32
-0.151224
 13
0.832566
 23
-0.456539
 33
-0.184809
 62
0
  0
3DFACE
  8
Cube116
 10
0.229877
 20
-0.274561
 30
-0.169993
 11
0.192576
 21
-0.087042
 31
-0.204994
 12
0.192576
 22
-0.087042
 32
-0.184810
 13
0.229877
 23
-0.274561
 33
-0.151224
 62
0
  0
3DFACE
  8
Cube116
 10
0.192576
 20
0.087039
 30
-0.204994
 11
0.229876
 21
0.274557
 31
-0.169993
 12
0.229876
 22
0.274557
 32
-0.151224
 13
0.192576
 23
0.087039
 33
-0.184810
 62
0
  0
3DFACE
  8
Cube116
 10
0.799437
 20
0.363792
 30
-0.295341
 11
0.832565
 21
0.456537
 31
-0.204995
 12
0.651519
 22
0.517994
 32
-0.169993
 13
0.651519
 23
0.517994
 33
-0.169993
 62
0
  0
3DFACE
  8
Cube116
 10
1.127071
 20
0.243435
 30
-0.169993
 11
0.983324
 21
0.369497
 31
-0.204995
 12
0.919566
 22
0.294430
 32
-0.295345
 13
0.919566
 23
0.294430
 33
-0.295345
 62
0
  0
3DFACE
  8
Cube116
 10
0.651521
 20
-0.517996
 30
-0.151224
 11
0.651521
 21
-0.517996
 31
-0.169993
 12
0.489294
 22
-0.539353
 32
-0.140434
 13
0.489294
 23
-0.539353
 33
-0.128032
 62
0
  0
3DFACE
  8
Cube116
 10
0.292494
 20
-0.425732
 30
-0.128032
 11
0.292494
 21
-0.425732
 31
-0.140433
 12
0.229877
 22
-0.274561
 32
-0.169993
 13
0.229877
 23
-0.274561
 33
-0.151224
 62
0
  0
3DFACE
  8
Cube116
 10
0.229876
 20
0.274557
 30
-0.151224
 11
0.229876
 21
0.274557
 31
-0.169993
 12
0.292494
 22
0.425730
 32
-0.140433
 13
0.292494
 23
0.425730
 33
-0.128032
 62
0
  0
3DFACE
  8
Cube116
 10
1.007381
 20
0.068558
 30
-0.340959
 11
1.226681
 21
0.113620
 31
-0.140433
 12
1.127071
 22
0.243435
 32
-0.169993
 13
1.127071
 23
0.243435
 33
-0.169993
 62
0
  0
3DFACE
  8
Cube116
 10
0.362878
 20
-0.531067
 30
-0.107543
 11
0.489294
 21
-0.539353
 31
-0.128032
 12
0.489294
 22
-0.539353
 32
-0.140434
 13
0.362878
 23
-0.531067
 33
-0.118258
 62
0
  0
3DFACE
  8
Cube116
 10
0.292494
 20
-0.425732
 30
-0.128032
 11
0.362878
 21
-0.531067
 31
-0.107543
 12
0.362878
 22
-0.531067
 32
-0.118258
 13
0.292494
 23
-0.425732
 33
-0.140433
 62
0
  0
3DFACE
  8
Cube116
 10
0.362878
 20
0.531064
 30
-0.107543
 11
0.292494
 21
0.425730
 31
-0.128032
 12
0.292494
 22
0.425730
 32
-0.140433
 13
0.362878
 23
0.531064
 33
-0.118258
 62
0
  0
3DFACE
  8
Cube116
 10
0.559919
 20
-0.326901
 30
-0.340962
 11
0.489294
 21
-0.539353
 31
-0.140434
 12
0.651521
 22
-0.517996
 32
-0.169993
 13
0.651521
 23
-0.517996
 33
-0.169993
 62
0
  0
3DFACE
  8
Cube116
 10
0.559919
 20
-0.326901
 30
-0.340962
 11
0.362878
 21
-0.531067
 31
-0.118258
 12
0.489294
 22
-0.539353
 32
-0.140434
 13
0.489294
 23
-0.539353
 33
-0.140434
 62
0
  0
3DFACE
  8
Cube116
 10
0.441169
 20
0.258342
 30
-0.340960
 11
0.292494
 21
0.425730
 31
-0.140433
 12
0.229876
 22
0.274557
 32
-0.169993
 13
0.229876
 23
0.274557
 33
-0.169993
 62
0
  0
3DFACE
  8
Cube116
 10
0.229877
 20
-0.274561
 30
-0.169993
 11
0.292494
 21
-0.425732
 31
-0.140433
 12
0.441172
 22
-0.258341
 32
-0.340963
 13
0.441172
 23
-0.258341
 33
-0.340963
 62
0
  0
3DFACE
  8
Cube116
 10
0.289473
 20
-0.069358
 30
-0.295352
 11
0.192576
 21
-0.087042
 31
-0.204994
 12
0.229877
 22
-0.274561
 32
-0.169993
 13
0.229877
 23
-0.274561
 33
-0.169993
 62
0
  0
3DFACE
  8
Cube116
 10
0.229876
 20
0.274557
 30
-0.169993
 11
0.192576
 21
0.087039
 31
-0.204994
 12
0.289467
 22
0.069356
 32
-0.295347
 13
0.289467
 23
0.069356
 33
-0.295347
 62
0
  0
3DFACE
  8
Cube116
 10
0.651519
 20
0.517994
 30
-0.169993
 11
0.489291
 21
0.539351
 31
-0.140433
 12
0.559915
 22
0.326904
 32
-0.340957
 13
0.559915
 23
0.326904
 33
-0.340957
 62
0
  0
3DFACE
  8
Cube116
 10
0.559915
 20
0.326904
 30
-0.340957
 11
0.489291
 21
0.539351
 31
-0.140433
 12
0.362878
 22
0.531064
 32
-0.118258
 13
0.362878
 23
0.531064
 33
-0.118258
 62
0
  0
3DFACE
  8
Cube116
 10
1.007381
 20
0.068558
 30
-0.340959
 11
1.282710
 21
-0.000001
 31
-0.118259
 12
1.226681
 22
0.113620
 32
-0.140433
 13
1.226681
 23
0.113620
 33
-0.140433
 62
0
  0
3DFACE
  8
Cube116
 10
1.127072
 20
-0.243436
 30
-0.169992
 11
1.226681
 21
-0.113621
 31
-0.140433
 12
1.007379
 22
-0.068559
 32
-0.340961
 13
1.007379
 23
-0.068559
 33
-0.340961
 62
0
  0
3DFACE
  8
Cube116
 10
0.983324
 20
0.369497
 30
-0.204995
 11
0.832565
 21
0.456537
 31
-0.204995
 12
0.799437
 22
0.363792
 32
-0.295341
 13
0.919566
 23
0.294430
 33
-0.295345
 62
0
  0
3DFACE
  8
Cube116
 10
0.919567
 20
-0.294431
 30
-0.295346
 11
0.983325
 21
-0.369498
 31
-0.204995
 12
1.127072
 22
-0.243436
 32
-0.169992
 13
1.127072
 23
-0.243436
 33
-0.169992
 62
0
  0
3DFACE
  8
Cube116
 10
1.007381
 20
0.068558
 30
-0.340959
 11
1.127071
 21
0.243435
 31
-0.169993
 12
0.919566
 22
0.294430
 32
-0.295345
 13
0.772460
 23
0.087025
 33
-0.499190
 62
0
  0
3DFACE
  8
Cube116
 10
0.441172
 20
-0.258341
 30
-0.340963
 11
0.292494
 21
-0.425732
 31
-0.140433
 12
0.362878
 22
-0.531067
 32
-0.118258
 13
0.362878
 23
-0.531067
 33
-0.118258
 62
0
  0
3DFACE
  8
Cube116
 10
0.441169
 20
0.258342
 30
-0.340960
 11
0.362878
 21
0.531064
 31
-0.118258
 12
0.292494
 22
0.425730
 32
-0.140433
 13
0.292494
 23
0.425730
 33
-0.140433
 62
0
  0
3DFACE
  8
Cube116
 10
1.007379
 20
-0.068559
 30
-0.340961
 11
1.226681
 21
-0.113621
 31
-0.140433
 12
1.282710
 22
-0.000001
 32
-0.118259
 13
1.282710
 23
-0.000001
 33
-0.118259
 62
0
  0
3DFACE
  8
Cube116
 10
0.559919
 20
-0.326901
 30
-0.340962
 11
0.618297
 21
-0.088671
 31
-0.529672
 12
0.441172
 22
-0.258341
 32
-0.340963
 13
0.362878
 23
-0.531067
 33
-0.118258
 62
0
  0
3DFACE
  8
Cube116
 10
0.441169
 20
0.258342
 30
-0.340960
 11
0.229876
 21
0.274557
 31
-0.169993
 12
0.289467
 22
0.069356
 32
-0.295347
 13
0.542632
 23
0.045662
 33
-0.499186
 62
0
  0
3DFACE
  8
Cube116
 10
0.441169
 20
0.258342
 30
-0.340960
 11
0.618296
 21
0.088666
 31
-0.529673
 12
0.559915
 22
0.326904
 32
-0.340957
 13
0.362878
 23
0.531064
 33
-0.118258
 62
0
  0
3DFACE
  8
Cube116
 10
0.618296
 20
0.088666
 30
-0.529673
 11
0.441169
 21
0.258342
 31
-0.340960
 12
0.542632
 22
0.045662
 32
-0.499186
 13
0.669489
 23
-0.000002
 33
-0.601415
 62
0
  0
3DFACE
  8
Cube116
 10
1.007381
 20
0.068558
 30
-0.340959
 11
0.771873
 21
-0.000001
 31
-0.529673
 12
1.007379
 22
-0.068559
 32
-0.340961
 13
1.282710
 23
-0.000001
 33
-0.118259
 62
0
  0
3DFACE
  8
Cube116
 10
1.127072
 20
-0.243436
 30
-0.169992
 11
1.007379
 21
-0.068559
 31
-0.340961
 12
0.772459
 22
-0.087027
 32
-0.499191
 13
0.919567
 23
-0.294431
 33
-0.295346
 62
0
  0
3DFACE
  8
Cube116
 10
0.771873
 20
-0.000001
 30
-0.529673
 11
1.007381
 21
0.068558
 31
-0.340959
 12
0.772460
 22
0.087025
 32
-0.499190
 13
0.669489
 23
-0.000002
 33
-0.601415
 62
0
  0
3DFACE
  8
Cube116
 10
1.007379
 20
-0.068559
 30
-0.340961
 11
0.771873
 21
-0.000001
 31
-0.529673
 12
0.669489
 22
-0.000002
 32
-0.601415
 13
0.772459
 23
-0.087027
 33
-0.499191
 62
0
  0
3DFACE
  8
Cube116
 10
0.832566
 20
-0.456539
 30
-0.204995
 11
0.983325
 21
-0.369498
 31
-0.204995
 12
0.919567
 22
-0.294431
 32
-0.295346
 13
0.799435
 23
-0.363786
 33
-0.295349
 62
0
  0
3DFACE
  8
Cube116
 10
0.559919
 20
-0.326901
 30
-0.340962
 11
0.651521
 21
-0.517996
 31
-0.169993
 12
0.799435
 22
-0.363786
 32
-0.295349
 13
0.693370
 23
-0.132689
 33
-0.499191
 62
0
  0
3DFACE
  8
Cube116
 10
0.618297
 20
-0.088671
 30
-0.529672
 11
0.559919
 21
-0.326901
 31
-0.340962
 12
0.693370
 22
-0.132689
 32
-0.499191
 13
0.669489
 23
-0.000002
 33
-0.601415
 62
0
  0
3DFACE
  8
Cube116
 10
0.441172
 20
-0.258341
 30
-0.340963
 11
0.618297
 21
-0.088671
 31
-0.529672
 12
0.669489
 22
-0.000002
 32
-0.601415
 13
0.542632
 23
-0.045666
 33
-0.499186
 62
0
  0
3DFACE
  8
Cube116
 10
0.192576
 20
0.087039
 30
-0.204994
 11
0.192576
 21
-0.087042
 31
-0.204994
 12
0.289473
 22
-0.069358
 32
-0.295352
 13
0.289467
 23
0.069356
 33
-0.295347
 62
0
  0
3DFACE
  8
Cube116
 10
0.669489
 20
-0.000002
 30
-0.601415
 11
0.919567
 21
-0.294431
 31
-0.295346
 12
0.772459
 22
-0.087027
 32
-0.499191
 13
0.772459
 23
-0.087027
 33
-0.499191
 62
0
  0
3DFACE
  8
Cube116
 10
0.693370
 20
-0.132689
 30
-0.499191
 11
0.919567
 21
-0.294431
 31
-0.295346
 12
0.669489
 22
-0.000002
 32
-0.601415
 13
0.669489
 23
-0.000002
 33
-0.601415
 62
0
  0
3DFACE
  8
Cube116
 10
0.799435
 20
-0.363786
 30
-0.295349
 11
0.919567
 21
-0.294431
 31
-0.295346
 12
0.693370
 22
-0.132689
 32
-0.499191
 13
0.693370
 23
-0.132689
 33
-0.499191
 62
0
  0
3DFACE
  8
Cube116
 10
0.229877
 20
-0.274561
 30
-0.169993
 11
0.441172
 21
-0.258341
 31
-0.340963
 12
0.542632
 22
-0.045666
 32
-0.499186
 13
0.289473
 23
-0.069358
 33
-0.295352
 62
0
  0
3DFACE
  8
Cube116
 10
0.542632
 20
-0.045666
 30
-0.499186
 11
0.669489
 21
-0.000002
 31
-0.601415
 12
0.542632
 22
0.045662
 32
-0.499186
 13
0.542632
 23
0.045662
 33
-0.499186
 62
0
  0
3DFACE
  8
Cube116
 10
0.289467
 20
0.069356
 30
-0.295347
 11
0.542632
 21
-0.045666
 31
-0.499186
 12
0.542632
 22
0.045662
 32
-0.499186
 13
0.542632
 23
0.045662
 33
-0.499186
 62
0
  0
3DFACE
  8
Cube116
 10
0.289473
 20
-0.069358
 30
-0.295352
 11
0.542632
 21
-0.045666
 31
-0.499186
 12
0.289467
 22
0.069356
 32
-0.295347
 13
0.289467
 23
0.069356
 33
-0.295347
 62
0
  0
3DFACE
  8
Cube116
 10
0.559915
 20
0.326904
 30
-0.340957
 11
0.618296
 21
0.088666
 31
-0.529673
 12
0.669489
 22
-0.000002
 32
-0.601415
 13
0.693371
 23
0.132687
 33
-0.499190
 62
0
  0
3DFACE
  8
Cube116
 10
0.651519
 20
0.517994
 30
-0.169993
 11
0.559915
 21
0.326904
 31
-0.340957
 12
0.693371
 22
0.132687
 32
-0.499190
 13
0.799437
 23
0.363792
 33
-0.295341
 62
0
  0
3DFACE
  8
Cube116
 10
0.772460
 20
0.087025
 30
-0.499190
 11
0.919566
 21
0.294430
 31
-0.295345
 12
0.799437
 22
0.363792
 32
-0.295341
 13
0.799437
 23
0.363792
 33
-0.295341
 62
0
  0
3DFACE
  8
Cube116
 10
0.693371
 20
0.132687
 30
-0.499190
 11
0.772460
 21
0.087025
 31
-0.499190
 12
0.799437
 22
0.363792
 32
-0.295341
 13
0.799437
 23
0.363792
 33
-0.295341
 62
0
  0
3DFACE
  8
Cube116
 10
0.669489
 20
-0.000002
 30
-0.601415
 11
0.772460
 21
0.087025
 31
-0.499190
 12
0.693371
 22
0.132687
 32
-0.499190
 13
0.693371
 23
0.132687
 33
-0.499190
 62
0
  0
3DFACE
  8
Cube116
 10
0.832565
 20
0.456537
 30
-0.204995
 11
0.983324
 21
0.369497
 31
-0.204995
 12
0.983324
 22
0.369497
 32
-0.184810
 13
0.832565
 23
0.456537
 33
-0.184809
 62
0
  0
3DFACE
  8
Cube116
 10
0.983324
 20
0.369497
 30
-0.204995
 11
1.127071
 21
0.243435
 31
-0.169993
 12
1.127071
 22
0.243435
 32
-0.151224
 13
0.983324
 23
0.369497
 33
-0.184810
 62
0
  0
3DFACE
  8
Cube116
 10
0.651519
 20
0.517994
 30
-0.169993
 11
0.832565
 21
0.456537
 31
-0.204995
 12
0.832565
 22
0.456537
 32
-0.184809
 13
0.651519
 23
0.517994
 33
-0.151224
 62
0
  0
3DFACE
  8
Cube116
 10
0.983325
 20
-0.369498
 30
-0.204995
 11
0.832566
 21
-0.456539
 31
-0.204995
 12
0.832566
 22
-0.456539
 32
-0.184809
 13
0.983325
 23
-0.369498
 33
-0.184809
 62
0
  0
3DFACE
  8
Cube116
 10
1.127072
 20
-0.243436
 30
-0.169992
 11
0.983325
 21
-0.369498
 31
-0.204995
 12
0.983325
 22
-0.369498
 32
-0.184809
 13
1.127072
 23
-0.243436
 33
-0.151224
 62
0
  0
3DFACE
  8
Cube116
 10
0.192576
 20
0.087039
 30
-0.184810
 11
0.229876
 21
0.274557
 31
-0.151224
 12
0.281214
 22
0.124959
 32
-0.104999
 13
0.281214
 23
0.124959
 33
-0.104999
 62
0
  0
3DFACE
  8
Cube116
 10
0.281213
 20
-0.124967
 30
-0.105000
 11
0.192576
 21
0.087039
 31
-0.184810
 12
0.281214
 22
0.124959
 32
-0.104999
 13
0.281214
 23
0.124959
 33
-0.104999
 62
0
  0
3DFACE
  8
Cube116
 10
0.192576
 20
-0.087042
 30
-0.184810
 11
0.192576
 21
0.087039
 31
-0.184810
 12
0.281213
 22
-0.124967
 32
-0.105000
 13
0.281213
 23
-0.124967
 33
-0.105000
 62
0
  0
3DFACE
  8
Cube116
 10
0.229877
 20
-0.274561
 30
-0.151224
 11
0.192576
 21
-0.087042
 31
-0.184810
 12
0.281213
 22
-0.124967
 32
-0.105000
 13
0.281213
 23
-0.124967
 33
-0.105000
 62
0
  0
3DFACE
  8
Cube116
 10
0.229877
 20
-0.274561
 30
-0.151224
 11
0.314224
 21
-0.372467
 31
-0.104998
 12
0.292494
 22
-0.425732
 32
-0.128032
 13
0.292494
 23
-0.425732
 33
-0.128032
 62
0
  0
3DFACE
  8
Cube116
 10
0.489291
 20
0.539351
 30
-0.128032
 11
0.489291
 21
0.539351
 31
-0.140433
 12
0.651519
 22
0.517994
 32
-0.169993
 13
0.651519
 23
0.517994
 33
-0.151224
 62
0
  0
3DFACE
  8
Cube116
 10
1.127071
 20
0.243435
 30
-0.151224
 11
1.127071
 21
0.243435
 31
-0.169993
 12
1.226681
 22
0.113620
 32
-0.140433
 13
1.226681
 23
0.113620
 33
-0.128032
 62
0
  0
3DFACE
  8
Cube116
 10
1.226681
 20
-0.113621
 30
-0.128031
 11
1.226681
 21
-0.113621
 31
-0.140433
 12
1.127072
 22
-0.243436
 32
-0.169992
 13
1.127072
 23
-0.243436
 33
-0.151224
 62
0
  0
3DFACE
  8
Cube116
 10
0.489294
 20
-0.539353
 30
-0.128032
 11
0.524558
 21
-0.493900
 31
-0.104996
 12
0.651521
 22
-0.517996
 32
-0.151224
 13
0.651521
 23
-0.517996
 33
-0.151224
 62
0
  0
3DFACE
  8
Cube116
 10
0.362878
 20
-0.531067
 30
-0.107543
 11
0.475597
 21
-0.335828
 31
-0.000064
 12
0.524558
 22
-0.493900
 32
-0.104996
 13
0.489294
 23
-0.539353
 33
-0.128032
 62
0
  0
3DFACE
  8
Cube116
 10
0.292494
 20
-0.425732
 30
-0.128032
 11
0.314224
 21
-0.372467
 31
-0.104998
 12
0.475597
 22
-0.335828
 32
-0.000064
 13
0.362878
 23
-0.531067
 33
-0.107543
 62
0
  0
3DFACE
  8
Cube116
 10
0.489291
 20
0.539351
 30
-0.128032
 11
0.362878
 21
0.531064
 31
-0.107543
 12
0.362878
 22
0.531064
 32
-0.118258
 13
0.489291
 23
0.539351
 33
-0.140433
 62
0
  0
3DFACE
  8
Cube116
 10
1.282710
 20
-0.000001
 30
-0.107543
 11
1.226681
 21
0.113620
 31
-0.128032
 12
1.226681
 22
0.113620
 32
-0.140433
 13
1.282710
 23
-0.000001
 33
-0.118259
 62
0
  0
3DFACE
  8
Cube116
 10
1.226681
 20
-0.113621
 30
-0.128031
 11
1.282710
 21
-0.000001
 31
-0.107543
 12
1.282710
 22
-0.000001
 32
-0.118259
 13
1.226681
 23
-0.113621
 33
-0.140433
 62
0
  0
3DFACE
  8
Cube116
 10
0.314225
 20
0.372464
 30
-0.104997
 11
0.229876
 21
0.274557
 31
-0.151224
 12
0.292494
 22
0.425730
 32
-0.128032
 13
0.292494
 23
0.425730
 33
-0.128032
 62
0
  0
3DFACE
  8
Cube116
 10
0.582188
 20
-0.294482
 30
0.000178
 11
0.524558
 21
-0.493900
 31
-0.104996
 12
0.475597
 22
-0.335828
 32
-0.000064
 13
0.475597
 23
-0.335828
 33
-0.000064
 62
0
  0
3DFACE
  8
Cube116
 10
0.362878
 20
0.531064
 30
-0.107543
 11
0.475591
 21
0.335828
 31
-0.000010
 12
0.314225
 22
0.372464
 32
-0.104997
 13
0.292494
 23
0.425730
 33
-0.128032
 62
0
  0
3DFACE
  8
Cube116
 10
0.489291
 20
0.539351
 30
-0.128032
 11
0.524558
 21
0.493896
 31
-0.104996
 12
0.475591
 22
0.335828
 32
-0.000010
 13
0.362878
 23
0.531064
 33
-0.107543
 62
0
  0
3DFACE
  8
Cube116
 10
1.282710
 20
-0.000001
 30
-0.107543
 11
1.057279
 21
-0.000005
 31
0.000058
 12
1.169686
 22
0.121433
 32
-0.104997
 13
1.226681
 23
0.113620
 33
-0.128032
 62
0
  0
3DFACE
  8
Cube116
 10
1.226681
 20
-0.113621
 30
-0.128031
 11
1.169685
 21
-0.121434
 31
-0.104995
 12
1.057279
 22
-0.000005
 32
0.000058
 13
1.282710
 23
-0.000001
 33
-0.107543
 62
0
  0
3DFACE
  8
Cube116
 10
0.983325
 20
-0.369498
 30
-0.184809
 11
0.971845
 21
-0.273775
 31
-0.104998
 12
1.127072
 22
-0.243436
 32
-0.151224
 13
1.127072
 23
-0.243436
 33
-0.151224
 62
0
  0
3DFACE
  8
Cube116
 10
0.832566
 20
-0.456539
 30
-0.184809
 11
0.971845
 21
-0.273775
 31
-0.104998
 12
0.983325
 22
-0.369498
 32
-0.184809
 13
0.983325
 23
-0.369498
 33
-0.184809
 62
0
  0
3DFACE
  8
Cube116
 10
0.755407
 20
-0.398735
 30
-0.104998
 11
0.971845
 21
-0.273775
 31
-0.104998
 12
0.832566
 22
-0.456539
 32
-0.184809
 13
0.832566
 23
-0.456539
 33
-0.184809
 62
0
  0
3DFACE
  8
Cube116
 10
0.651521
 20
-0.517996
 30
-0.151224
 11
0.755407
 21
-0.398735
 31
-0.104998
 12
0.832566
 22
-0.456539
 32
-0.184809
 13
0.832566
 23
-0.456539
 33
-0.184809
 62
0
  0
3DFACE
  8
Cube116
 10
0.582188
 20
-0.294482
 30
0.000178
 11
0.755407
 21
-0.398735
 31
-0.104998
 12
0.651521
 22
-0.517996
 32
-0.151224
 13
0.524558
 23
-0.493900
 33
-0.104996
 62
0
  0
3DFACE
  8
Cube116
 10
0.379489
 20
0.000001
 30
-0.038538
 11
0.281213
 21
-0.124967
 31
-0.105000
 12
0.281214
 22
0.124959
 32
-0.104999
 13
0.281214
 23
0.124959
 33
-0.104999
 62
0
  0
3DFACE
  8
Cube116
 10
0.475597
 20
-0.335828
 30
-0.000064
 11
0.314224
 21
-0.372467
 31
-0.104998
 12
0.458108
 22
-0.222846
 32
0.000016
 13
0.458108
 23
-0.222846
 33
0.000016
 62
0
  0
3DFACE
  8
Cube116
 10
0.281213
 20
-0.124967
 30
-0.105000
 11
0.458108
 21
-0.222846
 31
0.000016
 12
0.314224
 22
-0.372467
 32
-0.104998
 13
0.229877
 23
-0.274561
 33
-0.151224
 62
0
  0
3DFACE
  8
Cube116
 10
0.651519
 20
0.517994
 30
-0.151224
 11
0.524558
 21
0.493896
 31
-0.104996
 12
0.489291
 22
0.539351
 32
-0.128032
 13
0.489291
 23
0.539351
 33
-0.128032
 62
0
  0
3DFACE
  8
Cube116
 10
1.226681
 20
0.113620
 30
-0.128032
 11
1.169686
 21
0.121433
 31
-0.104997
 12
1.127071
 22
0.243435
 32
-0.151224
 13
1.127071
 23
0.243435
 33
-0.151224
 62
0
  0
3DFACE
  8
Cube116
 10
0.971843
 20
0.273773
 30
-0.104998
 11
0.983324
 21
0.369497
 31
-0.184810
 12
1.127071
 22
0.243435
 32
-0.151224
 13
1.127071
 23
0.243435
 33
-0.151224
 62
0
  0
3DFACE
  8
Cube116
 10
0.832565
 20
0.456537
 30
-0.184809
 11
0.983324
 21
0.369497
 31
-0.184810
 12
0.971843
 22
0.273773
 32
-0.104998
 13
0.971843
 23
0.273773
 33
-0.104998
 62
0
  0
3DFACE
  8
Cube116
 10
0.755405
 20
0.398734
 30
-0.104999
 11
0.832565
 21
0.456537
 31
-0.184809
 12
0.971843
 22
0.273773
 32
-0.104998
 13
0.971843
 23
0.273773
 33
-0.104998
 62
0
  0
3DFACE
  8
Cube116
 10
0.651519
 20
0.517994
 30
-0.151224
 11
0.832565
 21
0.456537
 31
-0.184809
 12
0.755405
 22
0.398734
 32
-0.104999
 13
0.755405
 23
0.398734
 33
-0.104999
 62
0
  0
3DFACE
  8
Cube116
 10
1.169685
 20
-0.121434
 30
-0.104995
 11
1.226681
 21
-0.113621
 31
-0.128031
 12
1.127072
 22
-0.243436
 32
-0.151224
 13
1.127072
 23
-0.243436
 33
-0.151224
 62
0
  0
3DFACE
  8
Cube116
 10
0.971845
 20
-0.273775
 30
-0.104998
 11
0.755407
 21
-0.398735
 31
-0.104998
 12
0.814490
 22
-0.251149
 32
-0.038538
 13
0.814490
 23
-0.251149
 33
-0.038538
 62
0
  0
3DFACE
  8
Cube116
 10
0.458103
 20
0.222845
 30
0.000070
 11
0.281214
 21
0.124959
 31
-0.104999
 12
0.229876
 22
0.274557
 32
-0.151224
 13
0.314225
 23
0.372464
 33
-0.104997
 62
0
  0
3DFACE
  8
Cube116
 10
0.755407
 20
-0.398735
 30
-0.104998
 11
0.582188
 21
-0.294482
 31
0.000178
 12
0.814490
 22
-0.251149
 32
-0.038538
 13
0.814490
 23
-0.251149
 33
-0.038538
 62
0
  0
3DFACE
  8
Cube116
 10
0.379489
 20
0.000001
 30
-0.038538
 11
0.458108
 21
-0.222846
 31
0.000016
 12
0.281213
 22
-0.124967
 32
-0.105000
 13
0.281213
 23
-0.124967
 33
-0.105000
 62
0
  0
3DFACE
  8
Cube116
 10
0.458103
 20
0.222845
 30
0.000070
 11
0.314225
 21
0.372464
 31
-0.104997
 12
0.475591
 22
0.335828
 32
-0.000010
 13
0.475591
 23
0.335828
 33
-0.000010
 62
0
  0
3DFACE
  8
Cube116
 10
0.281214
 20
0.124959
 30
-0.104999
 11
0.458103
 21
0.222845
 31
0.000070
 12
0.379489
 22
0.000001
 32
-0.038538
 13
0.379489
 23
0.000001
 33
-0.038538
 62
0
  0
3DFACE
  8
Cube116
 10
0.755405
 20
0.398734
 30
-0.104999
 11
0.582191
 21
0.294481
 31
0.000122
 12
0.524558
 22
0.493896
 32
-0.104996
 13
0.651519
 23
0.517994
 33
-0.151224
 62
0
  0
3DFACE
  8
Cube116
 10
0.814486
 20
0.251144
 30
-0.038536
 11
0.755405
 21
0.398734
 31
-0.104999
 12
0.971843
 22
0.273773
 32
-0.104998
 13
0.971843
 23
0.273773
 33
-0.104998
 62
0
  0
3DFACE
  8
Cube116
 10
0.968192
 20
0.071626
 30
0.000000
 11
0.971843
 21
0.273773
 31
-0.104998
 12
1.127071
 22
0.243435
 32
-0.151224
 13
1.169686
 23
0.121433
 33
-0.104997
 62
0
  0
3DFACE
  8
Cube116
 10
0.967154
 20
-0.072845
 30
-0.000001
 11
0.814490
 21
-0.251149
 31
-0.038538
 12
0.582188
 22
-0.294482
 32
0.000178
 13
0.582188
 23
-0.294482
 33
0.000178
 62
0
  0
3DFACE
  8
Cube116
 10
0.814486
 20
0.251144
 30
-0.038536
 11
0.582191
 21
0.294481
 31
0.000122
 12
0.755405
 22
0.398734
 32
-0.104999
 13
0.755405
 23
0.398734
 33
-0.104999
 62
0
  0
3DFACE
  8
Cube116
 10
0.458108
 20
-0.222846
 30
0.000016
 11
0.379489
 21
0.000001
 31
-0.038538
 12
0.458103
 22
0.222845
 32
0.000070
 13
0.458103
 23
0.222845
 33
0.000070
 62
0
  0
3DFACE
  8
Cube116
 10
0.971843
 20
0.273773
 30
-0.104998
 11
0.968192
 21
0.071626
 31
0.000000
 12
0.814486
 22
0.251144
 32
-0.038536
 13
0.814486
 23
0.251144
 33
-0.038536
 62
0
  0
3DFACE
  8
Cube116
 10
0.968193
 20
-0.072141
 30
-0.000001
 11
0.971845
 21
-0.273775
 31
-0.104998
 12
0.814490
 22
-0.251149
 32
-0.038538
 13
0.967154
 23
-0.072845
 33
-0.000001
 62
0
  0
3DFACE
  8
Cube116
 10
0.968682
 20
-0.071764
 30
-0.000001
 11
1.169685
 21
-0.121434
 31
-0.104995
 12
1.127072
 22
-0.243436
 32
-0.151224
 13
1.127072
 23
-0.243436
 33
-0.151224
 62
0
  0
3DFACE
  8
Cube116
 10
0.968193
 20
-0.072141
 30
-0.000001
 11
0.968682
 21
-0.071764
 31
-0.000001
 12
1.127072
 22
-0.243436
 32
-0.151224
 13
1.127072
 23
-0.243436
 33
-0.151224
 62
0
  0
3DFACE
  8
Cube116
 10
0.971845
 20
-0.273775
 30
-0.104998
 11
0.968193
 21
-0.072141
 31
-0.000001
 12
1.127072
 22
-0.243436
 32
-0.151224
 13
1.127072
 23
-0.243436
 33
-0.151224
 62
0
  0
3DFACE
  8
Cube116
 10
1.057279
 20
-0.000005
 30
0.000058
 11
1.169685
 21
-0.121434
 31
-0.104995
 12
0.968682
 22
-0.071764
 32
-0.000001
 13
0.968682
 23
-0.071764
 33
-0.000001
 62
0
  0
3DFACE
  8
Cube116
 10
0.968192
 20
0.071626
 30
0.000000
 11
1.169686
 21
0.121433
 31
-0.104997
 12
1.057279
 22
-0.000005
 32
0.000058
 13
1.057279
 23
-0.000005
 33
0.000058
 62
0
  0
3DFACE
  8
Cube116
 10
0.582191
 20
0.294481
 30
0.000122
 11
0.814486
 21
0.251144
 31
-0.038536
 12
0.968192
 22
0.071626
 32
0.000000
 13
0.968192
 23
0.071626
 33
0.000000
 62
0
  0
3DFACE
  8
Cube116
 10
0.475591
 20
0.335828
 30
-0.000010
 11
0.524558
 21
0.493896
 31
-0.104996
 12
0.582191
 22
0.294481
 32
0.000122
 13
0.582191
 23
0.294481
 33
0.000122
 62
0
  0
3DFACE
  8
Cube116
 10
0.968682
 20
-0.071764
 30
-0.000001
 11
0.968192
 21
0.071626
 31
0.000000
 12
1.057279
 22
-0.000005
 32
0.000058
 13
1.057279
 23
-0.000005
 33
0.000058
 62
0
  0
3DFACE
  8
Cube116
 10
0.968193
 20
-0.072141
 30
-0.000001
 11
0.968192
 21
0.071626
 31
0.000000
 12
0.968682
 22
-0.071764
 32
-0.000001
 13
0.968682
 23
-0.071764
 33
-0.000001
 62
0
  0
3DFACE
  8
Cube116
 10
0.967154
 20
-0.072845
 30
-0.000001
 11
0.968192
 21
0.071626
 31
0.000000
 12
0.968193
 22
-0.072141
 32
-0.000001
 13
0.968193
 23
-0.072141
 33
-0.000001
 62
0
  0
3DFACE
  8
Cube116
 10
0.582191
 20
0.294481
 30
0.000122
 11
0.968192
 21
0.071626
 31
0.000000
 12
0.967154
 22
-0.072845
 32
-0.000001
 13
0.967154
 23
-0.072845
 33
-0.000001
 62
0
  0
3DFACE
  8
Cube116
 10
0.475591
 20
0.335828
 30
-0.000010
 11
0.582191
 21
0.294481
 31
0.000122
 12
0.967154
 22
-0.072845
 32
-0.000001
 13
0.967154
 23
-0.072845
 33
-0.000001
 62
0
  0
3DFACE
  8
Cube116
 10
0.458103
 20
0.222845
 30
0.000070
 11
0.475591
 21
0.335828
 31
-0.000010
 12
0.967154
 22
-0.072845
 32
-0.000001
 13
0.967154
 23
-0.072845
 33
-0.000001
 62
0
  0
3DFACE
  8
Cube116
 10
0.582188
 20
-0.294482
 30
0.000178
 11
0.458103
 21
0.222845
 31
0.000070
 12
0.967154
 22
-0.072845
 32
-0.000001
 13
0.967154
 23
-0.072845
 33
-0.000001
 62
0
  0
3DFACE
  8
Cube116
 10
0.458108
 20
-0.222846
 30
0.000016
 11
0.458103
 21
0.222845
 31
0.000070
 12
0.582188
 22
-0.294482
 32
0.000178
 13
0.582188
 23
-0.294482
 33
0.000178
 62
0
  0
3DFACE
  8
Cube116
 10
0.475597
 20
-0.335828
 30
-0.000064
 11
0.458108
 21
-0.222846
 31
0.000016
 12
0.582188
 22
-0.294482
 32
0.000178
 13
0.582188
 23
-0.294482
 33
0.000178
 62
0
 0
ENDSEC
 0
EOF
