  0
SECTION
  2
HEADER
  0
ENDSEC
  0
SECTION
  2
TABLES
  0
TABLE
  2
LAYER
  70
    153
  0
LAYER
  2
Cube
 70
0
 62
15
  6
CONTINUOUS
  0
ENDTAB
  0
ENDSEC
  0
SECTION
  2
ENTITIES
  0
3DFACE
  8
Cube
 10
0.751064
 20
-0.000005
 30
-0.663648
 11
0.918288
 21
0.514657
 31
-0.199028
 12
0.751065
 22
0.541142
 32
-0.199028
 13
0.751065
 23
0.541142
 33
-0.199028
 62
0
  0
3DFACE
  8
Cube
 10
0.751064
 20
-0.000005
 30
-0.663648
 11
1.069142
 21
0.437792
 31
-0.199028
 12
0.918288
 22
0.514657
 32
-0.199028
 13
0.918288
 23
0.514657
 33
-0.199028
 62
0
  0
3DFACE
  8
Cube
 10
0.751064
 20
-0.000005
 30
-0.663648
 11
1.188860
 21
0.318073
 31
-0.199028
 12
1.069142
 22
0.437792
 32
-0.199028
 13
1.069142
 23
0.437792
 33
-0.199028
 62
0
  0
3DFACE
  8
Cube
 10
0.751064
 20
-0.000005
 30
-0.663648
 11
1.265723
 21
0.167219
 31
-0.199029
 12
1.188860
 22
0.318073
 32
-0.199028
 13
1.188860
 23
0.318073
 33
-0.199028
 62
0
  0
3DFACE
  8
Cube
 10
0.751064
 20
-0.000005
 30
-0.663648
 11
1.292207
 21
-0.000004
 31
-0.199030
 12
1.265723
 22
0.167219
 32
-0.199029
 13
1.265723
 23
0.167219
 33
-0.199029
 62
0
  0
3DFACE
  8
Cube
 10
0.751064
 20
-0.000005
 30
-0.663648
 11
1.069138
 21
-0.437795
 31
-0.199033
 12
1.188856
 22
-0.318078
 32
-0.199033
 13
1.188856
 23
-0.318078
 33
-0.199033
 62
0
  0
3DFACE
  8
Cube
 10
0.751064
 20
-0.000005
 30
-0.663648
 11
0.918286
 21
-0.514656
 31
-0.199035
 12
1.069138
 22
-0.437795
 32
-0.199033
 13
1.069138
 23
-0.437795
 33
-0.199033
 62
0
  0
3DFACE
  8
Cube
 10
0.751064
 20
-0.000005
 30
-0.663648
 11
0.751065
 21
0.541142
 31
-0.199028
 12
0.583841
 22
0.514656
 32
-0.199028
 13
0.583841
 23
0.514656
 33
-0.199028
 62
0
  0
3DFACE
  8
Cube
 10
0.751064
 20
-0.000005
 30
-0.663648
 11
1.188856
 21
-0.318078
 31
-0.199033
 12
1.265721
 22
-0.167226
 32
-0.199032
 13
1.265721
 23
-0.167226
 33
-0.199032
 62
0
  0
3DFACE
  8
Cube
 10
0.751064
 20
-0.000005
 30
-0.663648
 11
1.265721
 21
-0.167226
 31
-0.199032
 12
1.292207
 22
-0.000004
 32
-0.199030
 13
1.292207
 23
-0.000004
 33
-0.199030
 62
0
  0
3DFACE
  8
Cube
 10
0.751065
 20
0.541142
 30
-0.199028
 11
0.918288
 21
0.514657
 31
-0.199028
 12
0.918288
 22
0.514657
 32
-0.188322
 13
0.751065
 23
0.541142
 33
-0.188322
 62
0
  0
3DFACE
  8
Cube
 10
0.918288
 20
0.514657
 30
-0.199028
 11
1.069142
 21
0.437792
 31
-0.199028
 12
1.069142
 22
0.437792
 32
-0.188323
 13
0.918288
 23
0.514657
 33
-0.188322
 62
0
  0
3DFACE
  8
Cube
 10
1.069142
 20
0.437792
 30
-0.199028
 11
1.188860
 21
0.318073
 31
-0.199028
 12
1.188860
 22
0.318073
 32
-0.188322
 13
1.069142
 23
0.437792
 33
-0.188323
 62
0
  0
3DFACE
  8
Cube
 10
1.188860
 20
0.318073
 30
-0.199028
 11
1.265723
 21
0.167219
 31
-0.199029
 12
1.265723
 22
0.167219
 32
-0.188322
 13
1.188860
 23
0.318073
 33
-0.188322
 62
0
  0
3DFACE
  8
Cube
 10
1.265723
 20
0.167219
 30
-0.199029
 11
1.292207
 21
-0.000004
 31
-0.199030
 12
1.292207
 22
-0.000004
 32
-0.188322
 13
1.265723
 23
0.167219
 33
-0.188322
 62
0
  0
3DFACE
  8
Cube
 10
1.292207
 20
-0.000004
 30
-0.199030
 11
1.265721
 21
-0.167226
 31
-0.199032
 12
1.265721
 22
-0.167226
 32
-0.188323
 13
1.292207
 23
-0.000004
 33
-0.188322
 62
0
  0
3DFACE
  8
Cube
 10
1.265721
 20
-0.167226
 30
-0.199032
 11
1.188856
 21
-0.318078
 31
-0.199033
 12
1.188856
 22
-0.318078
 32
-0.188322
 13
1.265721
 23
-0.167226
 33
-0.188323
 62
0
  0
3DFACE
  8
Cube
 10
1.188856
 20
-0.318078
 30
-0.199033
 11
1.069138
 21
-0.437795
 31
-0.199033
 12
1.069138
 22
-0.437795
 32
-0.188322
 13
1.188856
 23
-0.318078
 33
-0.188322
 62
0
  0
3DFACE
  8
Cube
 10
1.069138
 20
-0.437795
 30
-0.199033
 11
0.918286
 21
-0.514656
 31
-0.199035
 12
0.918286
 22
-0.514656
 32
-0.188322
 13
1.069138
 23
-0.437795
 33
-0.188322
 62
0
  0
3DFACE
  8
Cube
 10
0.751064
 20
-0.000005
 30
-0.663648
 11
0.751065
 21
-0.541141
 31
-0.199035
 12
0.918286
 22
-0.514656
 32
-0.199035
 13
0.918286
 23
-0.514656
 33
-0.199035
 62
0
  0
3DFACE
  8
Cube
 10
0.751064
 20
-0.000005
 30
-0.663648
 11
0.583844
 21
-0.514657
 31
-0.199034
 12
0.751065
 22
-0.541141
 32
-0.199035
 13
0.751065
 23
-0.541141
 33
-0.199035
 62
0
  0
3DFACE
  8
Cube
 10
0.751064
 20
-0.000005
 30
-0.663648
 11
0.432992
 21
-0.437794
 31
-0.199034
 12
0.583844
 22
-0.514657
 32
-0.199034
 13
0.583844
 23
-0.514657
 33
-0.199034
 62
0
  0
3DFACE
  8
Cube
 10
0.751064
 20
-0.000005
 30
-0.663648
 11
0.313274
 21
-0.318077
 31
-0.199033
 12
0.432992
 22
-0.437794
 32
-0.199034
 13
0.432992
 23
-0.437794
 33
-0.199034
 62
0
  0
3DFACE
  8
Cube
 10
0.751064
 20
-0.000005
 30
-0.663648
 11
0.236410
 21
-0.167225
 31
-0.199033
 12
0.313274
 22
-0.318077
 32
-0.199033
 13
0.313274
 23
-0.318077
 33
-0.199033
 62
0
  0
3DFACE
  8
Cube
 10
0.751064
 20
-0.000005
 30
-0.663648
 11
0.209924
 21
-0.000004
 31
-0.199032
 12
0.236410
 22
-0.167225
 32
-0.199033
 13
0.236410
 23
-0.167225
 33
-0.199033
 62
0
  0
3DFACE
  8
Cube
 10
0.583841
 20
0.514656
 30
-0.199028
 11
0.751065
 21
0.541142
 31
-0.199028
 12
0.751065
 22
0.541142
 32
-0.188322
 13
0.583841
 23
0.514656
 33
-0.188322
 62
0
  0
3DFACE
  8
Cube
 10
0.751064
 20
-0.000005
 30
-0.663648
 11
0.236408
 21
0.167218
 31
-0.199031
 12
0.209924
 22
-0.000004
 32
-0.199032
 13
0.209924
 23
-0.000004
 33
-0.199032
 62
0
  0
3DFACE
  8
Cube
 10
0.751064
 20
-0.000005
 30
-0.663648
 11
0.313271
 21
0.318073
 31
-0.199030
 12
0.236408
 22
0.167218
 32
-0.199031
 13
0.236408
 23
0.167218
 33
-0.199031
 62
0
  0
3DFACE
  8
Cube
 10
0.751064
 20
-0.000005
 30
-0.663648
 11
0.432988
 21
0.437792
 31
-0.199029
 12
0.313271
 22
0.318073
 32
-0.199030
 13
0.313271
 23
0.318073
 33
-0.199030
 62
0
  0
3DFACE
  8
Cube
 10
0.751064
 20
-0.000005
 30
-0.663648
 11
0.583841
 21
0.514656
 31
-0.199028
 12
0.432988
 22
0.437792
 32
-0.199029
 13
0.432988
 23
0.437792
 33
-0.199029
 62
0
  0
3DFACE
  8
Cube
 10
1.069142
 20
0.437792
 30
-0.188323
 11
1.188860
 21
0.318073
 31
-0.188322
 12
0.848067
 22
0.298540
 32
0.000005
 13
0.848067
 23
0.298540
 33
0.000005
 62
0
  0
3DFACE
  8
Cube
 10
0.751065
 20
-0.541141
 30
-0.199035
 11
0.583844
 21
-0.514657
 31
-0.199034
 12
0.583844
 22
-0.514657
 32
-0.188323
 13
0.751065
 23
-0.541141
 33
-0.188323
 62
0
  0
3DFACE
  8
Cube
 10
0.583844
 20
-0.514657
 30
-0.199034
 11
0.432992
 21
-0.437794
 31
-0.199034
 12
0.432992
 22
-0.437794
 32
-0.188323
 13
0.583844
 23
-0.514657
 33
-0.188323
 62
0
  0
3DFACE
  8
Cube
 10
0.236410
 20
-0.167225
 30
-0.199033
 11
0.209924
 21
-0.000004
 31
-0.199032
 12
0.209924
 22
-0.000004
 32
-0.188323
 13
0.236410
 23
-0.167225
 33
-0.188322
 62
0
  0
3DFACE
  8
Cube
 10
0.209924
 20
-0.000004
 30
-0.199032
 11
0.236408
 21
0.167218
 31
-0.199031
 12
0.236408
 22
0.167218
 32
-0.188323
 13
0.209924
 23
-0.000004
 33
-0.188323
 62
0
  0
3DFACE
  8
Cube
 10
0.432988
 20
0.437792
 30
-0.199029
 11
0.583841
 21
0.514656
 31
-0.199028
 12
0.583841
 22
0.514656
 32
-0.188322
 13
0.432988
 23
0.437792
 33
-0.188323
 62
0
  0
3DFACE
  8
Cube
 10
0.751065
 20
0.541142
 30
-0.188322
 11
0.848067
 21
0.298540
 31
0.000005
 12
0.583841
 22
0.514656
 32
-0.188322
 13
0.583841
 23
0.514656
 33
-0.188322
 62
0
  0
3DFACE
  8
Cube
 10
0.751065
 20
0.541142
 30
-0.188322
 11
0.918288
 21
0.514657
 31
-0.188322
 12
0.848067
 22
0.298540
 32
0.000005
 13
0.848067
 23
0.298540
 33
0.000005
 62
0
  0
3DFACE
  8
Cube
 10
1.265723
 20
0.167219
 30
-0.188322
 11
1.064968
 21
-0.000001
 31
0.000006
 12
1.188860
 22
0.318073
 32
-0.188322
 13
1.188860
 23
0.318073
 33
-0.188322
 62
0
  0
3DFACE
  8
Cube
 10
1.069142
 20
0.437792
 30
-0.188323
 11
0.848067
 21
0.298540
 31
0.000005
 12
0.918288
 22
0.514657
 32
-0.188322
 13
0.918288
 23
0.514657
 33
-0.188322
 62
0
  0
3DFACE
  8
Cube
 10
1.265723
 20
0.167219
 30
-0.188322
 11
1.292207
 21
-0.000004
 31
-0.188322
 12
1.064968
 22
-0.000001
 32
0.000006
 13
1.064968
 23
-0.000001
 33
0.000006
 62
0
  0
3DFACE
  8
Cube
 10
1.292207
 20
-0.000004
 30
-0.188322
 11
1.265721
 21
-0.167226
 31
-0.188323
 12
1.064968
 22
-0.000001
 32
0.000006
 13
1.064968
 23
-0.000001
 33
0.000006
 62
0
  0
3DFACE
  8
Cube
 10
1.069138
 20
-0.437795
 30
-0.188322
 11
0.918286
 21
-0.514656
 31
-0.188322
 12
0.848067
 22
-0.298542
 32
0.000003
 13
0.848067
 23
-0.298542
 33
0.000003
 62
0
  0
3DFACE
  8
Cube
 10
0.918286
 20
-0.514656
 30
-0.199035
 11
0.751065
 21
-0.541141
 31
-0.199035
 12
0.751065
 22
-0.541141
 32
-0.188323
 13
0.918286
 23
-0.514656
 33
-0.188322
 62
0
  0
3DFACE
  8
Cube
 10
0.432992
 20
-0.437794
 30
-0.199034
 11
0.313274
 21
-0.318077
 31
-0.199033
 12
0.313274
 22
-0.318077
 32
-0.188324
 13
0.432992
 23
-0.437794
 33
-0.188323
 62
0
  0
3DFACE
  8
Cube
 10
0.848067
 20
-0.298542
 30
0.000003
 11
0.918286
 21
-0.514656
 31
-0.188322
 12
0.751065
 22
-0.541141
 32
-0.188323
 13
0.751065
 23
-0.541141
 33
-0.188323
 62
0
  0
3DFACE
  8
Cube
 10
0.432992
 20
-0.437794
 30
-0.188323
 11
0.313274
 21
-0.318077
 31
-0.188324
 12
0.497107
 22
-0.184513
 32
-0.000001
 13
0.497107
 23
-0.184513
 33
-0.000001
 62
0
  0
3DFACE
  8
Cube
 10
0.313274
 20
-0.318077
 30
-0.199033
 11
0.236410
 21
-0.167225
 31
-0.199033
 12
0.236410
 22
-0.167225
 32
-0.188322
 13
0.313274
 23
-0.318077
 33
-0.188324
 62
0
  0
3DFACE
  8
Cube
 10
0.497107
 20
-0.184513
 30
-0.000001
 11
0.313274
 21
-0.318077
 31
-0.188324
 12
0.236410
 22
-0.167225
 32
-0.188322
 13
0.236410
 23
-0.167225
 33
-0.188322
 62
0
  0
3DFACE
  8
Cube
 10
0.236408
 20
0.167218
 30
-0.199031
 11
0.313271
 21
0.318073
 31
-0.199030
 12
0.313271
 22
0.318073
 32
-0.188323
 13
0.236408
 23
0.167218
 33
-0.188323
 62
0
  0
3DFACE
  8
Cube
 10
0.313271
 20
0.318073
 30
-0.199030
 11
0.432988
 21
0.437792
 31
-0.199029
 12
0.432988
 22
0.437792
 32
-0.188323
 13
0.313271
 23
0.318073
 33
-0.188323
 62
0
  0
3DFACE
  8
Cube
 10
0.236408
 20
0.167218
 30
-0.188323
 11
0.313271
 21
0.318073
 31
-0.188323
 12
0.497107
 22
0.184510
 32
0.000000
 13
0.497107
 23
0.184510
 33
0.000000
 62
0
  0
3DFACE
  8
Cube
 10
0.432988
 20
0.437792
 30
-0.188323
 11
0.497107
 21
0.184510
 31
0.000000
 12
0.313271
 22
0.318073
 32
-0.188323
 13
0.313271
 23
0.318073
 33
-0.188323
 62
0
  0
3DFACE
  8
Cube
 10
0.848067
 20
0.298540
 30
0.000005
 11
1.188860
 21
0.318073
 31
-0.188322
 12
1.064391
 22
0.227646
 32
-0.080148
 13
1.064391
 23
0.227646
 33
-0.080148
 62
0
  0
3DFACE
  8
Cube
 10
1.265721
 20
-0.167226
 30
-0.188323
 11
1.188856
 21
-0.318078
 31
-0.188322
 12
1.064968
 22
-0.000001
 32
0.000006
 13
1.064968
 23
-0.000001
 33
0.000006
 62
0
  0
3DFACE
  8
Cube
 10
1.064391
 20
0.227646
 30
-0.080148
 11
1.188860
 21
0.318073
 31
-0.188322
 12
1.064968
 22
-0.000001
 32
0.000006
 13
1.064968
 23
-0.000001
 33
0.000006
 62
0
  0
3DFACE
  8
Cube
 10
0.631386
 20
0.368340
 30
-0.080149
 11
0.583841
 21
0.514656
 31
-0.188322
 12
0.848067
 22
0.298540
 32
0.000005
 13
0.848067
 23
0.298540
 33
0.000005
 62
0
  0
3DFACE
  8
Cube
 10
0.751065
 20
-0.541141
 30
-0.188323
 11
0.583844
 21
-0.514657
 31
-0.188323
 12
0.848067
 22
-0.298542
 32
0.000003
 13
0.848067
 23
-0.298542
 33
0.000003
 62
0
  0
3DFACE
  8
Cube
 10
1.069138
 20
-0.437795
 30
-0.188322
 11
0.848067
 21
-0.298542
 31
0.000003
 12
1.188856
 22
-0.318078
 32
-0.188322
 13
1.188856
 23
-0.318078
 33
-0.188322
 62
0
  0
3DFACE
  8
Cube
 10
0.432992
 20
-0.437794
 30
-0.188323
 11
0.497107
 21
-0.184513
 31
-0.000001
 12
0.583844
 22
-0.514657
 32
-0.188323
 13
0.583844
 23
-0.514657
 33
-0.188323
 62
0
  0
3DFACE
  8
Cube
 10
0.236410
 20
-0.167225
 30
-0.188322
 11
0.209924
 21
-0.000004
 31
-0.188323
 12
0.497107
 22
-0.184513
 32
-0.000001
 13
0.497107
 23
-0.184513
 33
-0.000001
 62
0
  0
3DFACE
  8
Cube
 10
0.236408
 20
0.167218
 30
-0.188323
 11
0.497107
 21
0.184510
 31
0.000000
 12
0.209924
 22
-0.000004
 32
-0.188323
 13
0.209924
 23
-0.000004
 33
-0.188323
 62
0
  0
3DFACE
  8
Cube
 10
0.432988
 20
0.437792
 30
-0.188323
 11
0.583841
 21
0.514656
 31
-0.188322
 12
0.497107
 22
0.184510
 32
0.000000
 13
0.497107
 23
0.184510
 33
0.000000
 62
0
  0
3DFACE
  8
Cube
 10
0.497107
 20
0.184510
 30
0.000000
 11
0.583841
 21
0.514656
 31
-0.188322
 12
0.631386
 22
0.368340
 32
-0.080149
 13
0.631386
 23
0.368340
 33
-0.080149
 62
0
  0
3DFACE
  8
Cube
 10
1.064366
 20
-0.227624
 30
-0.080128
 11
1.188856
 21
-0.318078
 31
-0.188322
 12
0.848067
 22
-0.298542
 32
0.000003
 13
0.848067
 23
-0.298542
 33
0.000003
 62
0
  0
3DFACE
  8
Cube
 10
1.064968
 20
-0.000001
 30
0.000006
 11
1.188856
 21
-0.318078
 31
-0.188322
 12
1.064366
 22
-0.227624
 32
-0.080128
 13
1.064366
 23
-0.227624
 33
-0.080128
 62
0
  0
3DFACE
  8
Cube
 10
0.497107
 20
0.184510
 30
0.000000
 11
0.631386
 21
0.368340
 31
-0.080149
 12
0.848067
 22
0.298540
 32
0.000005
 13
0.848067
 23
0.298540
 33
0.000005
 62
0
  0
3DFACE
  8
Cube
 10
0.848067
 20
0.298540
 30
0.000005
 11
1.064391
 21
0.227646
 31
-0.080148
 12
1.064968
 22
-0.000001
 32
0.000006
 13
1.064968
 23
-0.000001
 33
0.000006
 62
0
  0
3DFACE
  8
Cube
 10
0.631404
 20
-0.368281
 30
-0.080112
 11
0.583844
 21
-0.514657
 31
-0.188323
 12
0.497107
 22
-0.184513
 32
-0.000001
 13
0.497107
 23
-0.184513
 33
-0.000001
 62
0
  0
3DFACE
  8
Cube
 10
1.064968
 20
-0.000001
 30
0.000006
 11
1.064366
 21
-0.227624
 31
-0.080128
 12
0.848067
 22
-0.298542
 32
0.000003
 13
0.848067
 23
-0.298542
 33
0.000003
 62
0
  0
3DFACE
  8
Cube
 10
0.848067
 20
-0.298542
 30
0.000003
 11
0.583844
 21
-0.514657
 31
-0.188323
 12
0.631404
 22
-0.368281
 32
-0.080112
 13
0.631404
 23
-0.368281
 33
-0.080112
 62
0
  0
3DFACE
  8
Cube
 10
0.363811
 20
0.000002
 30
-0.080126
 11
0.209924
 21
-0.000004
 31
-0.188323
 12
0.497107
 22
0.184510
 32
0.000000
 13
0.497107
 23
0.184510
 33
0.000000
 62
0
  0
3DFACE
  8
Cube
 10
0.497107
 20
-0.184513
 30
-0.000001
 11
0.209924
 21
-0.000004
 31
-0.188323
 12
0.363811
 22
0.000002
 32
-0.080126
 13
0.363811
 23
0.000002
 33
-0.080126
 62
0
  0
3DFACE
  8
Cube
 10
0.848067
 20
-0.298542
 30
0.000003
 11
0.631404
 21
-0.368281
 31
-0.080112
 12
0.497107
 22
-0.184513
 32
-0.000001
 13
0.497107
 23
-0.184513
 33
-0.000001
 62
0
  0
3DFACE
  8
Cube
 10
0.497107
 20
-0.184513
 30
-0.000001
 11
0.363811
 21
0.000002
 31
-0.080126
 12
0.497107
 22
0.184510
 32
0.000000
 13
0.497107
 23
0.184510
 33
0.000000
 62
0
  0
3DFACE
  8
Cube
 10
0.848067
 20
-0.298542
 30
0.000003
 11
0.497107
 21
-0.184513
 31
-0.000001
 12
0.497107
 22
0.184510
 32
0.000000
 13
0.497107
 23
0.184510
 33
0.000000
 62
0
  0
3DFACE
  8
Cube
 10
0.848067
 20
0.298540
 30
0.000005
 11
0.848067
 21
-0.298542
 31
0.000003
 12
0.497107
 22
0.184510
 32
0.000000
 13
0.497107
 23
0.184510
 33
0.000000
 62
0
  0
3DFACE
  8
Cube
 10
1.064968
 20
-0.000001
 30
0.000006
 11
0.848067
 21
-0.298542
 31
0.000003
 12
0.848067
 22
0.298540
 32
0.000005
 13
0.848067
 23
0.298540
 33
0.000005
 62
0
 0
ENDSEC
 0
EOF
