999
DXF gemstone file C:\My Documents\Gems\MyGemCadWin\portgeeTop.dxf created by GemCad for Windows
0
SECTION
2
HEADER
0
ENDSEC
0
SECTION
2
TABLES
0
TABLE
2
LAYER
70
153
0
LAYER
2
GEM
70
0
62
15
6
CONTINUOUS
0
ENDTAB
0
ENDSEC
0
SECTION
2
ENTITIES
0
3DFACE
8
GEM
10
-0.000000
20
0.000000
30
-0.559250
11
-0.102187
21
0.381365
31
-0.165277
12
0.000000
22
0.364234
32
-0.202014
13
0.000000
23
0.364234
33
-0.202014
62
0
0
3DFACE
8
GEM
10
-0.102187
20
0.381365
30
-0.165277
11
-0.000000
21
0.000000
31
-0.559250
12
-0.182117
22
0.315436
32
-0.202014
13
-0.182117
23
0.315436
33
-0.202014
62
0
0
3DFACE
8
GEM
10
-0.182117
20
0.315436
30
-0.202014
11
-0.000000
21
0.000000
31
-0.559250
12
-0.279179
22
0.279179
32
-0.165277
13
-0.279179
23
0.279179
33
-0.165277
62
0
0
3DFACE
8
GEM
10
-0.279179
20
0.279179
30
-0.165277
11
-0.000000
21
0.000000
31
-0.559250
12
-0.315436
22
0.182117
32
-0.202014
13
-0.315436
23
0.182117
33
-0.202014
62
0
0
3DFACE
8
GEM
10
-0.315436
20
0.182117
30
-0.202014
11
-0.000000
21
0.000000
31
-0.559250
12
-0.381365
22
0.102187
32
-0.165277
13
-0.381365
23
0.102187
33
-0.165277
62
0
0
3DFACE
8
GEM
10
-0.381365
20
0.102187
30
-0.165277
11
-0.000000
21
0.000000
31
-0.559250
12
-0.364234
22
0.000000
32
-0.202014
13
-0.364234
23
0.000000
33
-0.202014
62
0
0
3DFACE
8
GEM
10
-0.364234
20
0.000000
30
-0.202014
11
-0.000000
21
0.000000
31
-0.559250
12
-0.381365
22
-0.102187
32
-0.165277
13
-0.381365
23
-0.102187
33
-0.165277
62
0
0
3DFACE
8
GEM
10
-0.381365
20
-0.102187
30
-0.165277
11
-0.000000
21
0.000000
31
-0.559250
12
-0.315436
22
-0.182117
32
-0.202014
13
-0.315436
23
-0.182117
33
-0.202014
62
0
0
3DFACE
8
GEM
10
-0.315436
20
-0.182117
30
-0.202014
11
-0.000000
21
0.000000
31
-0.559250
12
-0.279179
22
-0.279179
32
-0.165277
13
-0.279179
23
-0.279179
33
-0.165277
62
0
0
3DFACE
8
GEM
10
-0.279179
20
-0.279179
30
-0.165277
11
-0.000000
21
0.000000
31
-0.559250
12
-0.182117
22
-0.315436
32
-0.202014
13
-0.182117
23
-0.315436
33
-0.202014
62
0
0
3DFACE
8
GEM
10
-0.182117
20
-0.315436
30
-0.202014
11
-0.000000
21
0.000000
31
-0.559250
12
-0.102187
22
-0.381365
32
-0.165277
13
-0.102187
23
-0.381365
33
-0.165277
62
0
0
3DFACE
8
GEM
10
-0.102187
20
-0.381365
30
-0.165277
11
-0.000000
21
0.000000
31
-0.559250
12
-0.000000
22
-0.364234
32
-0.202014
13
-0.000000
23
-0.364234
33
-0.202014
62
0
0
3DFACE
8
GEM
10
-0.000000
20
-0.364234
30
-0.202014
11
-0.000000
21
0.000000
31
-0.559250
12
0.102187
22
-0.381365
32
-0.165277
13
0.102187
23
-0.381365
33
-0.165277
62
0
0
3DFACE
8
GEM
10
0.102187
20
-0.381365
30
-0.165277
11
-0.000000
21
0.000000
31
-0.559250
12
0.182117
22
-0.315436
32
-0.202014
13
0.182117
23
-0.315436
33
-0.202014
62
0
0
3DFACE
8
GEM
10
0.182117
20
-0.315436
30
-0.202014
11
-0.000000
21
0.000000
31
-0.559250
12
0.279179
22
-0.279179
32
-0.165277
13
0.279179
23
-0.279179
33
-0.165277
62
0
0
3DFACE
8
GEM
10
0.279179
20
-0.279179
30
-0.165277
11
-0.000000
21
0.000000
31
-0.559250
12
0.315436
22
-0.182117
32
-0.202014
13
0.315436
23
-0.182117
33
-0.202014
62
0
0
3DFACE
8
GEM
10
0.315436
20
-0.182117
30
-0.202014
11
-0.000000
21
0.000000
31
-0.559250
12
0.381365
22
-0.102187
32
-0.165277
13
0.381365
23
-0.102187
33
-0.165277
62
0
0
3DFACE
8
GEM
10
0.381365
20
-0.102187
30
-0.165277
11
-0.000000
21
0.000000
31
-0.559250
12
0.364234
22
0.000000
32
-0.202014
13
0.364234
23
0.000000
33
-0.202014
62
0
0
3DFACE
8
GEM
10
0.364234
20
0.000000
30
-0.202014
11
-0.000000
21
0.000000
31
-0.559250
12
0.381365
22
0.102187
32
-0.165277
13
0.381365
23
0.102187
33
-0.165277
62
0
0
3DFACE
8
GEM
10
0.381365
20
0.102187
30
-0.165277
11
-0.000000
21
0.000000
31
-0.559250
12
0.315436
22
0.182117
32
-0.202014
13
0.315436
23
0.182117
33
-0.202014
62
0
0
3DFACE
8
GEM
10
0.315436
20
0.182117
30
-0.202014
11
-0.000000
21
0.000000
31
-0.559250
12
0.279179
22
0.279179
32
-0.165277
13
0.279179
23
0.279179
33
-0.165277
62
0
0
3DFACE
8
GEM
10
0.279179
20
0.279179
30
-0.165277
11
-0.000000
21
0.000000
31
-0.559250
12
0.182117
22
0.315436
32
-0.202014
13
0.182117
23
0.315436
33
-0.202014
62
0
0
3DFACE
8
GEM
10
0.182117
20
0.315436
30
-0.202014
11
-0.000000
21
0.000000
31
-0.559250
12
0.102187
22
0.381365
32
-0.165277
13
0.102187
23
0.381365
33
-0.165277
62
0
0
3DFACE
8
GEM
10
-0.000000
20
0.000000
30
-0.559250
11
0.000000
21
0.364234
31
-0.202014
12
0.102187
22
0.381365
32
-0.165277
13
0.102187
23
0.381365
33
-0.165277
62
0
0
3DFACE
8
GEM
10
0.000000
20
0.364234
30
-0.202014
11
-0.102187
21
0.381365
31
-0.165277
12
-0.134433
22
0.501710
32
0.092804
13
-0.134433
23
0.501710
33
0.092804
62
0
0
3DFACE
8
GEM
10
0.000000
20
0.364234
30
-0.202014
11
-0.134433
21
0.501710
31
0.092804
12
0.000000
22
0.537732
32
0.170052
13
0.000000
23
0.537732
33
0.170052
62
0
0
3DFACE
8
GEM
10
0.000000
20
0.364234
30
-0.202014
11
0.000000
21
0.537732
31
0.170052
12
0.134433
22
0.501710
32
0.092804
13
0.134433
23
0.501710
33
0.092804
62
0
0
3DFACE
8
GEM
10
0.000000
20
0.364234
30
-0.202014
11
0.134433
21
0.501710
31
0.092804
12
0.102187
22
0.381365
32
-0.165277
13
0.102187
23
0.381365
33
-0.165277
62
0
0
3DFACE
8
GEM
10
-0.102187
20
0.381365
30
-0.165277
11
-0.182117
21
0.315436
31
-0.202014
12
-0.279179
22
0.279179
32
-0.165277
13
-0.279179
23
0.279179
33
-0.165277
62
0
0
3DFACE
8
GEM
10
-0.102187
20
0.381365
30
-0.165277
11
-0.279179
21
0.279179
31
-0.165277
12
-0.367277
22
0.367277
32
0.092804
13
-0.367277
23
0.367277
33
0.092804
62
0
0
3DFACE
8
GEM
10
-0.102187
20
0.381365
30
-0.165277
11
-0.367277
21
0.367277
31
0.092804
12
-0.268866
22
0.465689
32
0.170052
13
-0.268866
23
0.465689
33
0.170052
62
0
0
3DFACE
8
GEM
10
-0.102187
20
0.381365
30
-0.165277
11
-0.268866
21
0.465689
31
0.170052
12
-0.134433
22
0.501710
32
0.092804
13
-0.134433
23
0.501710
33
0.092804
62
0
0
3DFACE
8
GEM
10
-0.279179
20
0.279179
30
-0.165277
11
-0.315436
21
0.182117
31
-0.202014
12
-0.381365
22
0.102187
32
-0.165277
13
-0.381365
23
0.102187
33
-0.165277
62
0
0
3DFACE
8
GEM
10
-0.279179
20
0.279179
30
-0.165277
11
-0.381365
21
0.102187
31
-0.165277
12
-0.501710
22
0.134433
32
0.092804
13
-0.501710
23
0.134433
33
0.092804
62
0
0
3DFACE
8
GEM
10
-0.279179
20
0.279179
30
-0.165277
11
-0.501710
21
0.134433
31
0.092804
12
-0.465689
22
0.268866
32
0.170052
13
-0.465689
23
0.268866
33
0.170052
62
0
0
3DFACE
8
GEM
10
-0.279179
20
0.279179
30
-0.165277
11
-0.465689
21
0.268866
31
0.170052
12
-0.367277
22
0.367277
32
0.092804
13
-0.367277
23
0.367277
33
0.092804
62
0
0
3DFACE
8
GEM
10
-0.381365
20
0.102187
30
-0.165277
11
-0.364234
21
0.000000
31
-0.202014
12
-0.381365
22
-0.102187
32
-0.165277
13
-0.381365
23
-0.102187
33
-0.165277
62
0
0
3DFACE
8
GEM
10
-0.381365
20
0.102187
30
-0.165277
11
-0.381365
21
-0.102187
31
-0.165277
12
-0.501710
22
-0.134433
32
0.092804
13
-0.501710
23
-0.134433
33
0.092804
62
0
0
3DFACE
8
GEM
10
-0.381365
20
0.102187
30
-0.165277
11
-0.501710
21
-0.134433
31
0.092804
12
-0.537732
22
-0.000000
32
0.170052
13
-0.537732
23
-0.000000
33
0.170052
62
0
0
3DFACE
8
GEM
10
-0.381365
20
0.102187
30
-0.165277
11
-0.537732
21
-0.000000
31
0.170052
12
-0.501710
22
0.134433
32
0.092804
13
-0.501710
23
0.134433
33
0.092804
62
0
0
3DFACE
8
GEM
10
-0.381365
20
-0.102187
30
-0.165277
11
-0.315436
21
-0.182117
31
-0.202014
12
-0.279179
22
-0.279179
32
-0.165277
13
-0.279179
23
-0.279179
33
-0.165277
62
0
0
3DFACE
8
GEM
10
-0.381365
20
-0.102187
30
-0.165277
11
-0.279179
21
-0.279179
31
-0.165277
12
-0.367277
22
-0.367277
32
0.092804
13
-0.367277
23
-0.367277
33
0.092804
62
0
0
3DFACE
8
GEM
10
-0.381365
20
-0.102187
30
-0.165277
11
-0.367277
21
-0.367277
31
0.092804
12
-0.465689
22
-0.268866
32
0.170052
13
-0.465689
23
-0.268866
33
0.170052
62
0
0
3DFACE
8
GEM
10
-0.381365
20
-0.102187
30
-0.165277
11
-0.465689
21
-0.268866
31
0.170052
12
-0.501710
22
-0.134433
32
0.092804
13
-0.501710
23
-0.134433
33
0.092804
62
0
0
3DFACE
8
GEM
10
-0.279179
20
-0.279179
30
-0.165277
11
-0.182117
21
-0.315436
31
-0.202014
12
-0.102187
22
-0.381365
32
-0.165277
13
-0.102187
23
-0.381365
33
-0.165277
62
0
0
3DFACE
8
GEM
10
-0.279179
20
-0.279179
30
-0.165277
11
-0.102187
21
-0.381365
31
-0.165277
12
-0.134433
22
-0.501710
32
0.092804
13
-0.134433
23
-0.501710
33
0.092804
62
0
0
3DFACE
8
GEM
10
-0.279179
20
-0.279179
30
-0.165277
11
-0.134433
21
-0.501710
31
0.092804
12
-0.268866
22
-0.465689
32
0.170052
13
-0.268866
23
-0.465689
33
0.170052
62
0
0
3DFACE
8
GEM
10
-0.279179
20
-0.279179
30
-0.165277
11
-0.268866
21
-0.465689
31
0.170052
12
-0.367277
22
-0.367277
32
0.092804
13
-0.367277
23
-0.367277
33
0.092804
62
0
0
3DFACE
8
GEM
10
-0.102187
20
-0.381365
30
-0.165277
11
-0.000000
21
-0.364234
31
-0.202014
12
0.102187
22
-0.381365
32
-0.165277
13
0.102187
23
-0.381365
33
-0.165277
62
0
0
3DFACE
8
GEM
10
-0.102187
20
-0.381365
30
-0.165277
11
0.102187
21
-0.381365
31
-0.165277
12
0.134433
22
-0.501710
32
0.092804
13
0.134433
23
-0.501710
33
0.092804
62
0
0
3DFACE
8
GEM
10
-0.102187
20
-0.381365
30
-0.165277
11
0.134433
21
-0.501710
31
0.092804
12
-0.000000
22
-0.537732
32
0.170052
13
-0.000000
23
-0.537732
33
0.170052
62
0
0
3DFACE
8
GEM
10
-0.102187
20
-0.381365
30
-0.165277
11
-0.000000
21
-0.537732
31
0.170052
12
-0.134433
22
-0.501710
32
0.092804
13
-0.134433
23
-0.501710
33
0.092804
62
0
0
3DFACE
8
GEM
10
0.102187
20
-0.381365
30
-0.165277
11
0.182117
21
-0.315436
31
-0.202014
12
0.279179
22
-0.279179
32
-0.165277
13
0.279179
23
-0.279179
33
-0.165277
62
0
0
3DFACE
8
GEM
10
0.102187
20
-0.381365
30
-0.165277
11
0.279179
21
-0.279179
31
-0.165277
12
0.367277
22
-0.367277
32
0.092804
13
0.367277
23
-0.367277
33
0.092804
62
0
0
3DFACE
8
GEM
10
0.102187
20
-0.381365
30
-0.165277
11
0.367277
21
-0.367277
31
0.092804
12
0.268866
22
-0.465689
32
0.170052
13
0.268866
23
-0.465689
33
0.170052
62
0
0
3DFACE
8
GEM
10
0.102187
20
-0.381365
30
-0.165277
11
0.268866
21
-0.465689
31
0.170052
12
0.134433
22
-0.501710
32
0.092804
13
0.134433
23
-0.501710
33
0.092804
62
0
0
3DFACE
8
GEM
10
0.279179
20
-0.279179
30
-0.165277
11
0.315436
21
-0.182117
31
-0.202014
12
0.381365
22
-0.102187
32
-0.165277
13
0.381365
23
-0.102187
33
-0.165277
62
0
0
3DFACE
8
GEM
10
0.279179
20
-0.279179
30
-0.165277
11
0.381365
21
-0.102187
31
-0.165277
12
0.501710
22
-0.134433
32
0.092804
13
0.501710
23
-0.134433
33
0.092804
62
0
0
3DFACE
8
GEM
10
0.279179
20
-0.279179
30
-0.165277
11
0.501710
21
-0.134433
31
0.092804
12
0.465689
22
-0.268866
32
0.170052
13
0.465689
23
-0.268866
33
0.170052
62
0
0
3DFACE
8
GEM
10
0.279179
20
-0.279179
30
-0.165277
11
0.465689
21
-0.268866
31
0.170052
12
0.367277
22
-0.367277
32
0.092804
13
0.367277
23
-0.367277
33
0.092804
62
0
0
3DFACE
8
GEM
10
0.381365
20
-0.102187
30
-0.165277
11
0.364234
21
0.000000
31
-0.202014
12
0.381365
22
0.102187
32
-0.165277
13
0.381365
23
0.102187
33
-0.165277
62
0
0
3DFACE
8
GEM
10
0.381365
20
-0.102187
30
-0.165277
11
0.381365
21
0.102187
31
-0.165277
12
0.501710
22
0.134433
32
0.092804
13
0.501710
23
0.134433
33
0.092804
62
0
0
3DFACE
8
GEM
10
0.381365
20
-0.102187
30
-0.165277
11
0.501710
21
0.134433
31
0.092804
12
0.537732
22
-0.000000
32
0.170052
13
0.537732
23
-0.000000
33
0.170052
62
0
0
3DFACE
8
GEM
10
0.381365
20
-0.102187
30
-0.165277
11
0.537732
21
-0.000000
31
0.170052
12
0.501710
22
-0.134433
32
0.092804
13
0.501710
23
-0.134433
33
0.092804
62
0
0
3DFACE
8
GEM
10
0.381365
20
0.102187
30
-0.165277
11
0.315436
21
0.182117
31
-0.202014
12
0.279179
22
0.279179
32
-0.165277
13
0.279179
23
0.279179
33
-0.165277
62
0
0
3DFACE
8
GEM
10
0.381365
20
0.102187
30
-0.165277
11
0.279179
21
0.279179
31
-0.165277
12
0.367277
22
0.367277
32
0.092804
13
0.367277
23
0.367277
33
0.092804
62
0
0
3DFACE
8
GEM
10
0.381365
20
0.102187
30
-0.165277
11
0.367277
21
0.367277
31
0.092804
12
0.465689
22
0.268866
32
0.170052
13
0.465689
23
0.268866
33
0.170052
62
0
0
3DFACE
8
GEM
10
0.381365
20
0.102187
30
-0.165277
11
0.465689
21
0.268866
31
0.170052
12
0.501710
22
0.134433
32
0.092804
13
0.501710
23
0.134433
33
0.092804
62
0
0
3DFACE
8
GEM
10
0.279179
20
0.279179
30
-0.165277
11
0.182117
21
0.315436
31
-0.202014
12
0.102187
22
0.381365
32
-0.165277
13
0.102187
23
0.381365
33
-0.165277
62
0
0
3DFACE
8
GEM
10
0.279179
20
0.279179
30
-0.165277
11
0.102187
21
0.381365
31
-0.165277
12
0.134433
22
0.501710
32
0.092804
13
0.134433
23
0.501710
33
0.092804
62
0
0
3DFACE
8
GEM
10
0.279179
20
0.279179
30
-0.165277
11
0.134433
21
0.501710
31
0.092804
12
0.268866
22
0.465689
32
0.170052
13
0.268866
23
0.465689
33
0.170052
62
0
0
3DFACE
8
GEM
10
0.279179
20
0.279179
30
-0.165277
11
0.268866
21
0.465689
31
0.170052
12
0.367277
22
0.367277
32
0.092804
13
0.367277
23
0.367277
33
0.092804
62
0
0
3DFACE
8
GEM
10
-0.268866
20
0.465689
30
0.170052
11
-0.367277
21
0.367277
31
0.092804
12
-0.465689
22
0.268866
32
0.170052
13
-0.465689
23
0.268866
33
0.170052
62
0
0
3DFACE
8
GEM
10
-0.268866
20
0.465689
30
0.170052
11
-0.465689
21
0.268866
31
0.170052
12
-0.465689
22
0.268866
32
0.191561
13
-0.465689
23
0.268866
33
0.191561
62
0
0
3DFACE
8
GEM
10
-0.268866
20
0.465689
30
0.170052
11
-0.465689
21
0.268866
31
0.191561
12
-0.268866
22
0.465689
32
0.191561
13
-0.268866
23
0.465689
33
0.191561
62
0
0
3DFACE
8
GEM
10
-0.465689
20
0.268866
30
0.170052
11
-0.501710
21
0.134433
31
0.092804
12
-0.537732
22
-0.000000
32
0.170052
13
-0.537732
23
-0.000000
33
0.170052
62
0
0
3DFACE
8
GEM
10
-0.465689
20
0.268866
30
0.170052
11
-0.537732
21
-0.000000
31
0.170052
12
-0.537732
22
-0.000000
32
0.191561
13
-0.537732
23
-0.000000
33
0.191561
62
0
0
3DFACE
8
GEM
10
-0.465689
20
0.268866
30
0.170052
11
-0.537732
21
-0.000000
31
0.191561
12
-0.465689
22
0.268866
32
0.191561
13
-0.465689
23
0.268866
33
0.191561
62
0
0
3DFACE
8
GEM
10
-0.537732
20
-0.000000
30
0.170052
11
-0.501710
21
-0.134433
31
0.092804
12
-0.465689
22
-0.268866
32
0.170052
13
-0.465689
23
-0.268866
33
0.170052
62
0
0
3DFACE
8
GEM
10
-0.537732
20
-0.000000
30
0.170052
11
-0.465689
21
-0.268866
31
0.170052
12
-0.465689
22
-0.268866
32
0.191561
13
-0.465689
23
-0.268866
33
0.191561
62
0
0
3DFACE
8
GEM
10
-0.537732
20
-0.000000
30
0.170052
11
-0.465689
21
-0.268866
31
0.191561
12
-0.537732
22
-0.000000
32
0.191561
13
-0.537732
23
-0.000000
33
0.191561
62
0
0
3DFACE
8
GEM
10
-0.465689
20
-0.268866
30
0.170052
11
-0.367277
21
-0.367277
31
0.092804
12
-0.268866
22
-0.465689
32
0.170052
13
-0.268866
23
-0.465689
33
0.170052
62
0
0
3DFACE
8
GEM
10
-0.465689
20
-0.268866
30
0.170052
11
-0.268866
21
-0.465689
31
0.170052
12
-0.268866
22
-0.465689
32
0.191561
13
-0.268866
23
-0.465689
33
0.191561
62
0
0
3DFACE
8
GEM
10
-0.465689
20
-0.268866
30
0.170052
11
-0.268866
21
-0.465689
31
0.191561
12
-0.465689
22
-0.268866
32
0.191561
13
-0.465689
23
-0.268866
33
0.191561
62
0
0
3DFACE
8
GEM
10
-0.268866
20
-0.465689
30
0.170052
11
-0.134433
21
-0.501710
31
0.092804
12
-0.000000
22
-0.537732
32
0.170052
13
-0.000000
23
-0.537732
33
0.170052
62
0
0
3DFACE
8
GEM
10
-0.268866
20
-0.465689
30
0.170052
11
-0.000000
21
-0.537732
31
0.170052
12
-0.000000
22
-0.537732
32
0.191561
13
-0.000000
23
-0.537732
33
0.191561
62
0
0
3DFACE
8
GEM
10
-0.268866
20
-0.465689
30
0.170052
11
-0.000000
21
-0.537732
31
0.191561
12
-0.268866
22
-0.465689
32
0.191561
13
-0.268866
23
-0.465689
33
0.191561
62
0
0
3DFACE
8
GEM
10
-0.000000
20
-0.537732
30
0.170052
11
0.134433
21
-0.501710
31
0.092804
12
0.268866
22
-0.465689
32
0.170052
13
0.268866
23
-0.465689
33
0.170052
62
0
0
3DFACE
8
GEM
10
-0.000000
20
-0.537732
30
0.170052
11
0.268866
21
-0.465689
31
0.170052
12
0.268866
22
-0.465689
32
0.191561
13
0.268866
23
-0.465689
33
0.191561
62
0
0
3DFACE
8
GEM
10
-0.000000
20
-0.537732
30
0.170052
11
0.268866
21
-0.465689
31
0.191561
12
-0.000000
22
-0.537732
32
0.191561
13
-0.000000
23
-0.537732
33
0.191561
62
0
0
3DFACE
8
GEM
10
0.268866
20
-0.465689
30
0.170052
11
0.367277
21
-0.367277
31
0.092804
12
0.465689
22
-0.268866
32
0.170052
13
0.465689
23
-0.268866
33
0.170052
62
0
0
3DFACE
8
GEM
10
0.268866
20
-0.465689
30
0.170052
11
0.465689
21
-0.268866
31
0.170052
12
0.465689
22
-0.268866
32
0.191561
13
0.465689
23
-0.268866
33
0.191561
62
0
0
3DFACE
8
GEM
10
0.268866
20
-0.465689
30
0.170052
11
0.465689
21
-0.268866
31
0.191561
12
0.268866
22
-0.465689
32
0.191561
13
0.268866
23
-0.465689
33
0.191561
62
0
0
3DFACE
8
GEM
10
0.465689
20
-0.268866
30
0.170052
11
0.501710
21
-0.134433
31
0.092804
12
0.537732
22
-0.000000
32
0.170052
13
0.537732
23
-0.000000
33
0.170052
62
0
0
3DFACE
8
GEM
10
0.465689
20
-0.268866
30
0.170052
11
0.537732
21
-0.000000
31
0.170052
12
0.537732
22
-0.000000
32
0.191561
13
0.537732
23
-0.000000
33
0.191561
62
0
0
3DFACE
8
GEM
10
0.465689
20
-0.268866
30
0.170052
11
0.537732
21
-0.000000
31
0.191561
12
0.465689
22
-0.268866
32
0.191561
13
0.465689
23
-0.268866
33
0.191561
62
0
0
3DFACE
8
GEM
10
0.537732
20
-0.000000
30
0.170052
11
0.501710
21
0.134433
31
0.092804
12
0.465689
22
0.268866
32
0.170052
13
0.465689
23
0.268866
33
0.170052
62
0
0
3DFACE
8
GEM
10
0.537732
20
-0.000000
30
0.170052
11
0.465689
21
0.268866
31
0.170052
12
0.465689
22
0.268866
32
0.191561
13
0.465689
23
0.268866
33
0.191561
62
0
0
3DFACE
8
GEM
10
0.537732
20
-0.000000
30
0.170052
11
0.465689
21
0.268866
31
0.191561
12
0.537732
22
-0.000000
32
0.191561
13
0.537732
23
-0.000000
33
0.191561
62
0
0
3DFACE
8
GEM
10
0.465689
20
0.268866
30
0.170052
11
0.367277
21
0.367277
31
0.092804
12
0.268866
22
0.465689
32
0.170052
13
0.268866
23
0.465689
33
0.170052
62
0
0
3DFACE
8
GEM
10
0.465689
20
0.268866
30
0.170052
11
0.268866
21
0.465689
31
0.170052
12
0.268866
22
0.465689
32
0.191561
13
0.268866
23
0.465689
33
0.191561
62
0
0
3DFACE
8
GEM
10
0.465689
20
0.268866
30
0.170052
11
0.268866
21
0.465689
31
0.191561
12
0.465689
22
0.268866
32
0.191561
13
0.465689
23
0.268866
33
0.191561
62
0
0
3DFACE
8
GEM
10
0.134433
20
0.501710
30
0.092804
11
0.000000
21
0.537732
31
0.170052
12
0.000000
22
0.537732
32
0.191561
13
0.000000
23
0.537732
33
0.191561
62
0
0
3DFACE
8
GEM
10
0.134433
20
0.501710
30
0.092804
11
0.000000
21
0.537732
31
0.191561
12
0.268866
22
0.465689
32
0.191561
13
0.268866
23
0.465689
33
0.191561
62
0
0
3DFACE
8
GEM
10
0.134433
20
0.501710
30
0.092804
11
0.268866
21
0.465689
31
0.191561
12
0.268866
22
0.465689
32
0.170052
13
0.268866
23
0.465689
33
0.170052
62
0
0
3DFACE
8
GEM
10
0.000000
20
0.537732
30
0.170052
11
-0.134433
21
0.501710
31
0.092804
12
-0.268866
22
0.465689
32
0.170052
13
-0.268866
23
0.465689
33
0.170052
62
0
0
3DFACE
8
GEM
10
0.000000
20
0.537732
30
0.170052
11
-0.268866
21
0.465689
31
0.170052
12
-0.268866
22
0.465689
32
0.191561
13
-0.268866
23
0.465689
33
0.191561
62
0
0
3DFACE
8
GEM
10
0.000000
20
0.537732
30
0.170052
11
-0.268866
21
0.465689
31
0.191561
12
0.000000
22
0.537732
32
0.191561
13
0.000000
23
0.537732
33
0.191561
62
0
0
3DFACE
8
GEM
10
0.268866
20
0.465689
30
0.191561
11
0.000000
21
0.537732
31
0.191561
12
0.114263
22
0.426435
32
0.302858
13
0.114263
23
0.426435
33
0.302858
62
0
0
3DFACE
8
GEM
10
0.465689
20
0.268866
30
0.191561
11
0.268866
21
0.465689
31
0.191561
12
0.312172
22
0.312172
32
0.302858
13
0.312172
23
0.312172
33
0.302858
62
0
0
3DFACE
8
GEM
10
0.537732
20
-0.000000
30
0.191561
11
0.465689
21
0.268866
31
0.191561
12
0.426435
22
0.114263
32
0.302858
13
0.426435
23
0.114263
33
0.302858
62
0
0
3DFACE
8
GEM
10
0.465689
20
-0.268866
30
0.191561
11
0.537732
21
-0.000000
31
0.191561
12
0.426435
22
-0.114263
32
0.302858
13
0.426435
23
-0.114263
33
0.302858
62
0
0
3DFACE
8
GEM
10
0.268866
20
-0.465689
30
0.191561
11
0.465689
21
-0.268866
31
0.191561
12
0.312172
22
-0.312172
32
0.302858
13
0.312172
23
-0.312172
33
0.302858
62
0
0
3DFACE
8
GEM
10
-0.000000
20
-0.537732
30
0.191561
11
0.268866
21
-0.465689
31
0.191561
12
0.114263
22
-0.426435
32
0.302858
13
0.114263
23
-0.426435
33
0.302858
62
0
0
3DFACE
8
GEM
10
-0.268866
20
-0.465689
30
0.191561
11
-0.000000
21
-0.537732
31
0.191561
12
-0.114263
22
-0.426435
32
0.302858
13
-0.114263
23
-0.426435
33
0.302858
62
0
0
3DFACE
8
GEM
10
-0.465689
20
-0.268866
30
0.191561
11
-0.268866
21
-0.465689
31
0.191561
12
-0.312172
22
-0.312172
32
0.302858
13
-0.312172
23
-0.312172
33
0.302858
62
0
0
3DFACE
8
GEM
10
-0.537732
20
-0.000000
30
0.191561
11
-0.465689
21
-0.268866
31
0.191561
12
-0.426435
22
-0.114263
32
0.302858
13
-0.426435
23
-0.114263
33
0.302858
62
0
0
3DFACE
8
GEM
10
-0.465689
20
0.268866
30
0.191561
11
-0.537732
21
-0.000000
31
0.191561
12
-0.426435
22
0.114263
32
0.302858
13
-0.426435
23
0.114263
33
0.302858
62
0
0
3DFACE
8
GEM
10
-0.268866
20
0.465689
30
0.191561
11
-0.465689
21
0.268866
31
0.191561
12
-0.312172
22
0.312172
32
0.302858
13
-0.312172
23
0.312172
33
0.302858
62
0
0
3DFACE
8
GEM
10
0.000000
20
0.537732
30
0.191561
11
-0.268866
21
0.465689
31
0.191561
12
-0.114263
22
0.426435
32
0.302858
13
-0.114263
23
0.426435
33
0.302858
62
0
0
3DFACE
8
GEM
10
0.114263
20
0.426435
30
0.302858
11
0.000000
21
0.537732
31
0.191561
12
-0.114263
22
0.426435
32
0.302858
13
-0.114263
23
0.426435
33
0.302858
62
0
0
3DFACE
8
GEM
10
0.114263
20
0.426435
30
0.302858
11
-0.114263
21
0.426435
31
0.302858
12
-0.000000
22
0.362454
32
0.366839
13
-0.000000
23
0.362454
33
0.366839
62
0
0
3DFACE
8
GEM
10
0.268866
20
0.465689
30
0.191561
11
0.114263
21
0.426435
31
0.302858
12
0.181227
22
0.313895
32
0.366839
13
0.181227
23
0.313895
33
0.366839
62
0
0
3DFACE
8
GEM
10
0.268866
20
0.465689
30
0.191561
11
0.181227
21
0.313895
31
0.366839
12
0.312172
22
0.312172
32
0.302858
13
0.312172
23
0.312172
33
0.302858
62
0
0
3DFACE
8
GEM
10
0.465689
20
0.268866
30
0.191561
11
0.312172
21
0.312172
31
0.302858
12
0.313895
22
0.181227
32
0.366839
13
0.313895
23
0.181227
33
0.366839
62
0
0
3DFACE
8
GEM
10
0.465689
20
0.268866
30
0.191561
11
0.313895
21
0.181227
31
0.366839
12
0.426435
22
0.114263
32
0.302858
13
0.426435
23
0.114263
33
0.302858
62
0
0
3DFACE
8
GEM
10
0.537732
20
-0.000000
30
0.191561
11
0.426435
21
0.114263
31
0.302858
12
0.362454
22
-0.000000
32
0.366839
13
0.362454
23
-0.000000
33
0.366839
62
0
0
3DFACE
8
GEM
10
0.537732
20
-0.000000
30
0.191561
11
0.362454
21
-0.000000
31
0.366839
12
0.426435
22
-0.114263
32
0.302858
13
0.426435
23
-0.114263
33
0.302858
62
0
0
3DFACE
8
GEM
10
0.465689
20
-0.268866
30
0.191561
11
0.426435
21
-0.114263
31
0.302858
12
0.313895
22
-0.181227
32
0.366839
13
0.313895
23
-0.181227
33
0.366839
62
0
0
3DFACE
8
GEM
10
0.465689
20
-0.268866
30
0.191561
11
0.313895
21
-0.181227
31
0.366839
12
0.312172
22
-0.312172
32
0.302858
13
0.312172
23
-0.312172
33
0.302858
62
0
0
3DFACE
8
GEM
10
0.268866
20
-0.465689
30
0.191561
11
0.312172
21
-0.312172
31
0.302858
12
0.181227
22
-0.313895
32
0.366839
13
0.181227
23
-0.313895
33
0.366839
62
0
0
3DFACE
8
GEM
10
0.268866
20
-0.465689
30
0.191561
11
0.181227
21
-0.313895
31
0.366839
12
0.114263
22
-0.426435
32
0.302858
13
0.114263
23
-0.426435
33
0.302858
62
0
0
3DFACE
8
GEM
10
-0.000000
20
-0.537732
30
0.191561
11
0.114263
21
-0.426435
31
0.302858
12
-0.000000
22
-0.362454
32
0.366839
13
-0.000000
23
-0.362454
33
0.366839
62
0
0
3DFACE
8
GEM
10
-0.000000
20
-0.537732
30
0.191561
11
-0.000000
21
-0.362454
31
0.366839
12
-0.114263
22
-0.426435
32
0.302858
13
-0.114263
23
-0.426435
33
0.302858
62
0
0
3DFACE
8
GEM
10
-0.268866
20
-0.465689
30
0.191561
11
-0.114263
21
-0.426435
31
0.302858
12
-0.181227
22
-0.313895
32
0.366839
13
-0.181227
23
-0.313895
33
0.366839
62
0
0
3DFACE
8
GEM
10
-0.268866
20
-0.465689
30
0.191561
11
-0.181227
21
-0.313895
31
0.366839
12
-0.312172
22
-0.312172
32
0.302858
13
-0.312172
23
-0.312172
33
0.302858
62
0
0
3DFACE
8
GEM
10
-0.465689
20
-0.268866
30
0.191561
11
-0.312172
21
-0.312172
31
0.302858
12
-0.313895
22
-0.181227
32
0.366839
13
-0.313895
23
-0.181227
33
0.366839
62
0
0
3DFACE
8
GEM
10
-0.465689
20
-0.268866
30
0.191561
11
-0.313895
21
-0.181227
31
0.366839
12
-0.426435
22
-0.114263
32
0.302858
13
-0.426435
23
-0.114263
33
0.302858
62
0
0
3DFACE
8
GEM
10
-0.537732
20
-0.000000
30
0.191561
11
-0.426435
21
-0.114263
31
0.302858
12
-0.362454
22
-0.000000
32
0.366839
13
-0.362454
23
-0.000000
33
0.366839
62
0
0
3DFACE
8
GEM
10
-0.537732
20
-0.000000
30
0.191561
11
-0.362454
21
-0.000000
31
0.366839
12
-0.426435
22
0.114263
32
0.302858
13
-0.426435
23
0.114263
33
0.302858
62
0
0
3DFACE
8
GEM
10
-0.465689
20
0.268866
30
0.191561
11
-0.426435
21
0.114263
31
0.302858
12
-0.313895
22
0.181227
32
0.366839
13
-0.313895
23
0.181227
33
0.366839
62
0
0
3DFACE
8
GEM
10
-0.465689
20
0.268866
30
0.191561
11
-0.313895
21
0.181227
31
0.366839
12
-0.312172
22
0.312172
32
0.302858
13
-0.312172
23
0.312172
33
0.302858
62
0
0
3DFACE
8
GEM
10
-0.268866
20
0.465689
30
0.191561
11
-0.312172
21
0.312172
31
0.302858
12
-0.181227
22
0.313895
32
0.366839
13
-0.181227
23
0.313895
33
0.366839
62
0
0
3DFACE
8
GEM
10
-0.268866
20
0.465689
30
0.191561
11
-0.181227
21
0.313895
31
0.366839
12
-0.114263
22
0.426435
32
0.302858
13
-0.114263
23
0.426435
33
0.302858
62
0
0
3DFACE
8
GEM
10
0.114263
20
0.426435
30
0.302858
11
-0.000000
21
0.362454
31
0.366839
12
0.078882
22
0.294393
32
0.398576
13
0.078882
23
0.294393
33
0.398576
62
0
0
3DFACE
8
GEM
10
0.114263
20
0.426435
30
0.302858
11
0.078882
21
0.294393
31
0.398576
12
0.181227
22
0.313895
32
0.366839
13
0.181227
23
0.313895
33
0.366839
62
0
0
3DFACE
8
GEM
10
0.312172
20
0.312172
30
0.302858
11
0.181227
21
0.313895
31
0.366839
12
0.215511
22
0.215511
32
0.398576
13
0.215511
23
0.215511
33
0.398576
62
0
0
3DFACE
8
GEM
10
0.312172
20
0.312172
30
0.302858
11
0.215511
21
0.215511
31
0.398576
12
0.313895
22
0.181227
32
0.366839
13
0.313895
23
0.181227
33
0.366839
62
0
0
3DFACE
8
GEM
10
0.426435
20
0.114263
30
0.302858
11
0.313895
21
0.181227
31
0.366839
12
0.294393
22
0.078882
32
0.398576
13
0.294393
23
0.078882
33
0.398576
62
0
0
3DFACE
8
GEM
10
0.426435
20
0.114263
30
0.302858
11
0.294393
21
0.078882
31
0.398576
12
0.362454
22
-0.000000
32
0.366839
13
0.362454
23
-0.000000
33
0.366839
62
0
0
3DFACE
8
GEM
10
0.426435
20
-0.114263
30
0.302858
11
0.362454
21
-0.000000
31
0.366839
12
0.294393
22
-0.078882
32
0.398576
13
0.294393
23
-0.078882
33
0.398576
62
0
0
3DFACE
8
GEM
10
0.426435
20
-0.114263
30
0.302858
11
0.294393
21
-0.078882
31
0.398576
12
0.313895
22
-0.181227
32
0.366839
13
0.313895
23
-0.181227
33
0.366839
62
0
0
3DFACE
8
GEM
10
0.312172
20
-0.312172
30
0.302858
11
0.313895
21
-0.181227
31
0.366839
12
0.215511
22
-0.215511
32
0.398576
13
0.215511
23
-0.215511
33
0.398576
62
0
0
3DFACE
8
GEM
10
0.312172
20
-0.312172
30
0.302858
11
0.215511
21
-0.215511
31
0.398576
12
0.181227
22
-0.313895
32
0.366839
13
0.181227
23
-0.313895
33
0.366839
62
0
0
3DFACE
8
GEM
10
0.114263
20
-0.426435
30
0.302858
11
0.181227
21
-0.313895
31
0.366839
12
0.078882
22
-0.294393
32
0.398576
13
0.078882
23
-0.294393
33
0.398576
62
0
0
3DFACE
8
GEM
10
0.114263
20
-0.426435
30
0.302858
11
0.078882
21
-0.294393
31
0.398576
12
-0.000000
22
-0.362454
32
0.366839
13
-0.000000
23
-0.362454
33
0.366839
62
0
0
3DFACE
8
GEM
10
-0.114263
20
-0.426435
30
0.302858
11
-0.000000
21
-0.362454
31
0.366839
12
-0.078882
22
-0.294393
32
0.398576
13
-0.078882
23
-0.294393
33
0.398576
62
0
0
3DFACE
8
GEM
10
-0.114263
20
-0.426435
30
0.302858
11
-0.078882
21
-0.294393
31
0.398576
12
-0.181227
22
-0.313895
32
0.366839
13
-0.181227
23
-0.313895
33
0.366839
62
0
0
3DFACE
8
GEM
10
-0.312172
20
-0.312172
30
0.302858
11
-0.181227
21
-0.313895
31
0.366839
12
-0.215511
22
-0.215511
32
0.398576
13
-0.215511
23
-0.215511
33
0.398576
62
0
0
3DFACE
8
GEM
10
-0.312172
20
-0.312172
30
0.302858
11
-0.215511
21
-0.215511
31
0.398576
12
-0.313895
22
-0.181227
32
0.366839
13
-0.313895
23
-0.181227
33
0.366839
62
0
0
3DFACE
8
GEM
10
-0.426435
20
-0.114263
30
0.302858
11
-0.313895
21
-0.181227
31
0.366839
12
-0.294393
22
-0.078882
32
0.398576
13
-0.294393
23
-0.078882
33
0.398576
62
0
0
3DFACE
8
GEM
10
-0.426435
20
-0.114263
30
0.302858
11
-0.294393
21
-0.078882
31
0.398576
12
-0.362454
22
-0.000000
32
0.366839
13
-0.362454
23
-0.000000
33
0.366839
62
0
0
3DFACE
8
GEM
10
-0.426435
20
0.114263
30
0.302858
11
-0.362454
21
-0.000000
31
0.366839
12
-0.294393
22
0.078882
32
0.398576
13
-0.294393
23
0.078882
33
0.398576
62
0
0
3DFACE
8
GEM
10
-0.426435
20
0.114263
30
0.302858
11
-0.294393
21
0.078882
31
0.398576
12
-0.313895
22
0.181227
32
0.366839
13
-0.313895
23
0.181227
33
0.366839
62
0
0
3DFACE
8
GEM
10
-0.312172
20
0.312172
30
0.302858
11
-0.313895
21
0.181227
31
0.366839
12
-0.215511
22
0.215511
32
0.398576
13
-0.215511
23
0.215511
33
0.398576
62
0
0
3DFACE
8
GEM
10
-0.312172
20
0.312172
30
0.302858
11
-0.215511
21
0.215511
31
0.398576
12
-0.181227
22
0.313895
32
0.366839
13
-0.181227
23
0.313895
33
0.366839
62
0
0
3DFACE
8
GEM
10
-0.000000
20
0.362454
30
0.366839
11
-0.114263
21
0.426435
31
0.302858
12
-0.181227
22
0.313895
32
0.366839
13
-0.181227
23
0.313895
33
0.366839
62
0
0
3DFACE
8
GEM
10
-0.000000
20
0.362454
30
0.366839
11
-0.181227
21
0.313895
31
0.366839
12
-0.078882
22
0.294393
32
0.398576
13
-0.078882
23
0.294393
33
0.398576
62
0
0
3DFACE
8
GEM
10
0.078882
20
0.294393
30
0.398576
11
-0.000000
21
0.362454
31
0.366839
12
-0.078882
22
0.294393
32
0.398576
13
-0.078882
23
0.294393
33
0.398576
62
0
0
3DFACE
8
GEM
10
0.078882
20
0.294393
30
0.398576
11
-0.078882
21
0.294393
31
0.398576
12
0.000000
22
0.268028
32
0.410870
13
0.000000
23
0.268028
33
0.410870
62
0
0
3DFACE
8
GEM
10
0.181227
20
0.313895
30
0.366839
11
0.078882
21
0.294393
31
0.398576
12
0.134014
22
0.232119
32
0.410870
13
0.134014
23
0.232119
33
0.410870
62
0
0
3DFACE
8
GEM
10
0.181227
20
0.313895
30
0.366839
11
0.134014
21
0.232119
31
0.410870
12
0.215511
22
0.215511
32
0.398576
13
0.215511
23
0.215511
33
0.398576
62
0
0
3DFACE
8
GEM
10
0.313895
20
0.181227
30
0.366839
11
0.215511
21
0.215511
31
0.398576
12
0.232119
22
0.134014
32
0.410870
13
0.232119
23
0.134014
33
0.410870
62
0
0
3DFACE
8
GEM
10
0.313895
20
0.181227
30
0.366839
11
0.232119
21
0.134014
31
0.410870
12
0.294393
22
0.078882
32
0.398576
13
0.294393
23
0.078882
33
0.398576
62
0
0
3DFACE
8
GEM
10
0.362454
20
-0.000000
30
0.366839
11
0.294393
21
0.078882
31
0.398576
12
0.268028
22
0.000000
32
0.410870
13
0.268028
23
0.000000
33
0.410870
62
0
0
3DFACE
8
GEM
10
0.362454
20
-0.000000
30
0.366839
11
0.268028
21
0.000000
31
0.410870
12
0.294393
22
-0.078882
32
0.398576
13
0.294393
23
-0.078882
33
0.398576
62
0
0
3DFACE
8
GEM
10
0.313895
20
-0.181227
30
0.366839
11
0.294393
21
-0.078882
31
0.398576
12
0.232119
22
-0.134014
32
0.410870
13
0.232119
23
-0.134014
33
0.410870
62
0
0
3DFACE
8
GEM
10
0.313895
20
-0.181227
30
0.366839
11
0.232119
21
-0.134014
31
0.410870
12
0.215511
22
-0.215511
32
0.398576
13
0.215511
23
-0.215511
33
0.398576
62
0
0
3DFACE
8
GEM
10
0.181227
20
-0.313895
30
0.366839
11
0.215511
21
-0.215511
31
0.398576
12
0.134014
22
-0.232119
32
0.410870
13
0.134014
23
-0.232119
33
0.410870
62
0
0
3DFACE
8
GEM
10
0.181227
20
-0.313895
30
0.366839
11
0.134014
21
-0.232119
31
0.410870
12
0.078882
22
-0.294393
32
0.398576
13
0.078882
23
-0.294393
33
0.398576
62
0
0
3DFACE
8
GEM
10
-0.000000
20
-0.362454
30
0.366839
11
0.078882
21
-0.294393
31
0.398576
12
0.000000
22
-0.268028
32
0.410870
13
0.000000
23
-0.268028
33
0.410870
62
0
0
3DFACE
8
GEM
10
-0.000000
20
-0.362454
30
0.366839
11
0.000000
21
-0.268028
31
0.410870
12
-0.078882
22
-0.294393
32
0.398576
13
-0.078882
23
-0.294393
33
0.398576
62
0
0
3DFACE
8
GEM
10
-0.181227
20
-0.313895
30
0.366839
11
-0.078882
21
-0.294393
31
0.398576
12
-0.134014
22
-0.232119
32
0.410870
13
-0.134014
23
-0.232119
33
0.410870
62
0
0
3DFACE
8
GEM
10
-0.181227
20
-0.313895
30
0.366839
11
-0.134014
21
-0.232119
31
0.410870
12
-0.215511
22
-0.215511
32
0.398576
13
-0.215511
23
-0.215511
33
0.398576
62
0
0
3DFACE
8
GEM
10
-0.313895
20
-0.181227
30
0.366839
11
-0.215511
21
-0.215511
31
0.398576
12
-0.232119
22
-0.134014
32
0.410870
13
-0.232119
23
-0.134014
33
0.410870
62
0
0
3DFACE
8
GEM
10
-0.313895
20
-0.181227
30
0.366839
11
-0.232119
21
-0.134014
31
0.410870
12
-0.294393
22
-0.078882
32
0.398576
13
-0.294393
23
-0.078882
33
0.398576
62
0
0
3DFACE
8
GEM
10
-0.362454
20
-0.000000
30
0.366839
11
-0.294393
21
-0.078882
31
0.398576
12
-0.268028
22
0.000000
32
0.410870
13
-0.268028
23
0.000000
33
0.410870
62
0
0
3DFACE
8
GEM
10
-0.362454
20
-0.000000
30
0.366839
11
-0.268028
21
0.000000
31
0.410870
12
-0.294393
22
0.078882
32
0.398576
13
-0.294393
23
0.078882
33
0.398576
62
0
0
3DFACE
8
GEM
10
-0.313895
20
0.181227
30
0.366839
11
-0.294393
21
0.078882
31
0.398576
12
-0.232119
22
0.134014
32
0.410870
13
-0.232119
23
0.134014
33
0.410870
62
0
0
3DFACE
8
GEM
10
-0.313895
20
0.181227
30
0.366839
11
-0.232119
21
0.134014
31
0.410870
12
-0.215511
22
0.215511
32
0.398576
13
-0.215511
23
0.215511
33
0.398576
62
0
0
3DFACE
8
GEM
10
-0.181227
20
0.313895
30
0.366839
11
-0.215511
21
0.215511
31
0.398576
12
-0.134014
22
0.232119
32
0.410870
13
-0.134014
23
0.232119
33
0.410870
62
0
0
3DFACE
8
GEM
10
-0.181227
20
0.313895
30
0.366839
11
-0.134014
21
0.232119
31
0.410870
12
-0.078882
22
0.294393
32
0.398576
13
-0.078882
23
0.294393
33
0.398576
62
0
0
3DFACE
8
GEM
10
0.078882
20
0.294393
30
0.398576
11
0.000000
21
0.268028
31
0.410870
12
0.134014
22
0.232119
32
0.410870
13
0.134014
23
0.232119
33
0.410870
62
0
0
3DFACE
8
GEM
10
0.215511
20
0.215511
30
0.398576
11
0.134014
21
0.232119
31
0.410870
12
0.232119
22
0.134014
32
0.410870
13
0.232119
23
0.134014
33
0.410870
62
0
0
3DFACE
8
GEM
10
0.294393
20
0.078882
30
0.398576
11
0.232119
21
0.134014
31
0.410870
12
0.268028
22
0.000000
32
0.410870
13
0.268028
23
0.000000
33
0.410870
62
0
0
3DFACE
8
GEM
10
0.294393
20
-0.078882
30
0.398576
11
0.268028
21
0.000000
31
0.410870
12
0.232119
22
-0.134014
32
0.410870
13
0.232119
23
-0.134014
33
0.410870
62
0
0
3DFACE
8
GEM
10
0.215511
20
-0.215511
30
0.398576
11
0.232119
21
-0.134014
31
0.410870
12
0.134014
22
-0.232119
32
0.410870
13
0.134014
23
-0.232119
33
0.410870
62
0
0
3DFACE
8
GEM
10
0.078882
20
-0.294393
30
0.398576
11
0.134014
21
-0.232119
31
0.410870
12
0.000000
22
-0.268028
32
0.410870
13
0.000000
23
-0.268028
33
0.410870
62
0
0
3DFACE
8
GEM
10
-0.078882
20
-0.294393
30
0.398576
11
0.000000
21
-0.268028
31
0.410870
12
-0.134014
22
-0.232119
32
0.410870
13
-0.134014
23
-0.232119
33
0.410870
62
0
0
3DFACE
8
GEM
10
-0.215511
20
-0.215511
30
0.398576
11
-0.134014
21
-0.232119
31
0.410870
12
-0.232119
22
-0.134014
32
0.410870
13
-0.232119
23
-0.134014
33
0.410870
62
0
0
3DFACE
8
GEM
10
-0.294393
20
-0.078882
30
0.398576
11
-0.232119
21
-0.134014
31
0.410870
12
-0.268028
22
0.000000
32
0.410870
13
-0.268028
23
0.000000
33
0.410870
62
0
0
3DFACE
8
GEM
10
-0.294393
20
0.078882
30
0.398576
11
-0.268028
21
0.000000
31
0.410870
12
-0.232119
22
0.134014
32
0.410870
13
-0.232119
23
0.134014
33
0.410870
62
0
0
3DFACE
8
GEM
10
-0.215511
20
0.215511
30
0.398576
11
-0.232119
21
0.134014
31
0.410870
12
-0.134014
22
0.232119
32
0.410870
13
-0.134014
23
0.232119
33
0.410870
62
0
0
3DFACE
8
GEM
10
0.000000
20
0.268028
30
0.410870
11
-0.078882
21
0.294393
31
0.398576
12
-0.134014
22
0.232119
32
0.410870
13
-0.134014
23
0.232119
33
0.410870
62
0
0
3DFACE
8
GEM
10
0.134014
20
0.232119
30
0.410870
11
0.000000
21
0.268028
31
0.410870
12
-0.134014
22
0.232119
32
0.410870
13
-0.134014
23
0.232119
33
0.410870
62
0
0
3DFACE
8
GEM
10
0.134014
20
0.232119
30
0.410870
11
-0.134014
21
0.232119
31
0.410870
12
-0.232119
22
0.134014
32
0.410870
13
-0.232119
23
0.134014
33
0.410870
62
0
0
3DFACE
8
GEM
10
0.134014
20
0.232119
30
0.410870
11
-0.232119
21
0.134014
31
0.410870
12
-0.268028
22
0.000000
32
0.410870
13
-0.268028
23
0.000000
33
0.410870
62
0
0
3DFACE
8
GEM
10
0.134014
20
0.232119
30
0.410870
11
-0.268028
21
0.000000
31
0.410870
12
-0.232119
22
-0.134014
32
0.410870
13
-0.232119
23
-0.134014
33
0.410870
62
0
0
3DFACE
8
GEM
10
0.134014
20
0.232119
30
0.410870
11
-0.232119
21
-0.134014
31
0.410870
12
-0.134014
22
-0.232119
32
0.410870
13
-0.134014
23
-0.232119
33
0.410870
62
0
0
3DFACE
8
GEM
10
0.134014
20
0.232119
30
0.410870
11
-0.134014
21
-0.232119
31
0.410870
12
0.000000
22
-0.268028
32
0.410870
13
0.000000
23
-0.268028
33
0.410870
62
0
0
3DFACE
8
GEM
10
0.134014
20
0.232119
30
0.410870
11
0.000000
21
-0.268028
31
0.410870
12
0.134014
22
-0.232119
32
0.410870
13
0.134014
23
-0.232119
33
0.410870
62
0
0
3DFACE
8
GEM
10
0.134014
20
0.232119
30
0.410870
11
0.134014
21
-0.232119
31
0.410870
12
0.232119
22
-0.134014
32
0.410870
13
0.232119
23
-0.134014
33
0.410870
62
0
0
3DFACE
8
GEM
10
0.134014
20
0.232119
30
0.410870
11
0.232119
21
-0.134014
31
0.410870
12
0.268028
22
0.000000
32
0.410870
13
0.268028
23
0.000000
33
0.410870
62
0
0
3DFACE
8
GEM
10
0.134014
20
0.232119
30
0.410870
11
0.268028
21
0.000000
31
0.410870
12
0.232119
22
0.134014
32
0.410870
13
0.232119
23
0.134014
33
0.410870
62
0
0
ENDSEC
0
EOF
