  0
SECTION
  2
HEADER
  0
ENDSEC
  0
SECTION
  2
TABLES
  0
TABLE
  2
LAYER
  70
    153
  0
LAYER
  2
Cube
 70
0
 62
15
  6
CONTINUOUS
  0
ENDTAB
  0
ENDSEC
  0
SECTION
  2
ENTITIES
  0
3DFACE
  8
Cube
 10
0.836451
 20
0.677549
 30
-0.166408
 11
0.836451
 21
-0.000002
 31
-0.735326
 12
1.175227
 22
0.586774
 32
-0.166408
 13
1.175227
 23
0.586774
 33
-0.166408
 62
0
  0
3DFACE
  8
Cube
 10
1.175227
 20
0.586774
 30
-0.166408
 11
0.836451
 21
-0.000002
 31
-0.735326
 12
1.423227
 22
0.338773
 32
-0.166409
 13
1.423227
 23
0.338773
 33
-0.166409
 62
0
  0
3DFACE
  8
Cube
 10
1.423226
 20
-0.338776
 30
-0.166410
 11
0.836451
 21
-0.000002
 31
-0.735326
 12
1.175226
 22
-0.586776
 32
-0.166410
 13
1.175226
 23
-0.586776
 33
-0.166410
 62
0
  0
3DFACE
  8
Cube
 10
0.497675
 20
0.586774
 30
-0.166408
 11
0.836451
 21
-0.000002
 31
-0.735326
 12
0.836451
 22
0.677549
 32
-0.166408
 13
0.836451
 23
0.677549
 33
-0.166408
 62
0
  0
3DFACE
  8
Cube
 10
1.514001
 20
-0.000001
 30
-0.166410
 11
0.836451
 21
-0.000002
 31
-0.735326
 12
1.423226
 22
-0.338776
 32
-0.166410
 13
1.423226
 23
-0.338776
 33
-0.166410
 62
0
  0
3DFACE
  8
Cube
 10
1.423227
 20
0.338773
 30
-0.166409
 11
0.836451
 21
-0.000002
 31
-0.735326
 12
1.514001
 22
-0.000001
 32
-0.166410
 13
1.514001
 23
-0.000001
 33
-0.166410
 62
0
  0
3DFACE
  8
Cube
 10
0.836451
 20
0.677549
 30
-0.154818
 11
0.836451
 21
0.677549
 31
-0.166408
 12
1.175227
 22
0.586774
 32
-0.166408
 13
1.175227
 23
0.586774
 33
-0.154818
 62
0
  0
3DFACE
  8
Cube
 10
1.175227
 20
0.586774
 30
-0.154818
 11
1.175227
 21
0.586774
 31
-0.166408
 12
1.423227
 22
0.338773
 32
-0.166409
 13
1.423227
 23
0.338773
 33
-0.154818
 62
0
  0
3DFACE
  8
Cube
 10
1.423227
 20
0.338773
 30
-0.154818
 11
1.423227
 21
0.338773
 31
-0.166409
 12
1.514001
 22
-0.000001
 32
-0.166410
 13
1.514001
 23
-0.000001
 33
-0.154818
 62
0
  0
3DFACE
  8
Cube
 10
1.514001
 20
-0.000001
 30
-0.154818
 11
1.514001
 21
-0.000001
 31
-0.166410
 12
1.423226
 22
-0.338776
 32
-0.166410
 13
1.423226
 23
-0.338776
 33
-0.154818
 62
0
  0
3DFACE
  8
Cube
 10
1.175226
 20
-0.586776
 30
-0.166410
 11
0.836451
 21
-0.000002
 31
-0.735326
 12
0.836452
 22
-0.677551
 32
-0.166410
 13
0.836452
 23
-0.677551
 33
-0.166410
 62
0
  0
3DFACE
  8
Cube
 10
1.423226
 20
-0.338776
 30
-0.154818
 11
1.423226
 21
-0.338776
 31
-0.166410
 12
1.175226
 22
-0.586776
 32
-0.166410
 13
1.175226
 23
-0.586776
 33
-0.154819
 62
0
  0
3DFACE
  8
Cube
 10
0.836452
 20
-0.677551
 30
-0.166410
 11
0.836451
 21
-0.000002
 31
-0.735326
 12
0.497677
 22
-0.586776
 32
-0.166410
 13
0.497677
 23
-0.586776
 33
-0.166410
 62
0
  0
3DFACE
  8
Cube
 10
0.497677
 20
-0.586776
 30
-0.166410
 11
0.836451
 21
-0.000002
 31
-0.735326
 12
0.249676
 22
-0.338777
 32
-0.166409
 13
0.249676
 23
-0.338777
 33
-0.166409
 62
0
  0
3DFACE
  8
Cube
 10
0.249676
 20
-0.338777
 30
-0.166409
 11
0.836451
 21
-0.000002
 31
-0.735326
 12
0.158901
 22
-0.000002
 32
-0.166409
 13
0.158901
 23
-0.000002
 33
-0.166409
 62
0
  0
3DFACE
  8
Cube
 10
0.158901
 20
-0.000002
 30
-0.166409
 11
0.836451
 21
-0.000002
 31
-0.735326
 12
0.249675
 22
0.338774
 32
-0.166409
 13
0.249675
 23
0.338774
 33
-0.166409
 62
0
  0
3DFACE
  8
Cube
 10
0.497675
 20
0.586774
 30
-0.154818
 11
0.497675
 21
0.586774
 31
-0.166408
 12
0.836451
 22
0.677549
 32
-0.166408
 13
0.836451
 23
0.677549
 33
-0.154818
 62
0
  0
3DFACE
  8
Cube
 10
0.249675
 20
0.338774
 30
-0.166409
 11
0.836451
 21
-0.000002
 31
-0.735326
 12
0.497675
 22
0.586774
 32
-0.166408
 13
0.497675
 23
0.586774
 33
-0.166408
 62
0
  0
3DFACE
  8
Cube
 10
0.836451
 20
0.677549
 30
-0.154818
 11
1.175227
 21
0.586774
 31
-0.154818
 12
1.130183
 22
0.508757
 32
-0.067801
 13
1.130183
 23
0.508757
 33
-0.067801
 62
0
  0
3DFACE
  8
Cube
 10
1.130183
 20
0.508757
 30
-0.067801
 11
1.175227
 21
0.586774
 31
-0.154818
 12
1.423227
 22
0.338773
 32
-0.154818
 13
1.423227
 23
0.338773
 33
-0.154818
 62
0
  0
3DFACE
  8
Cube
 10
1.423227
 20
0.338773
 30
-0.154818
 11
1.514001
 21
-0.000001
 31
-0.154818
 12
1.423913
 22
-0.000001
 32
-0.067801
 13
1.423913
 23
-0.000001
 33
-0.067801
 62
0
  0
3DFACE
  8
Cube
 10
0.542719
 20
0.508757
 30
-0.067801
 11
0.497675
 21
0.586774
 31
-0.154818
 12
0.836451
 22
0.677549
 32
-0.154818
 13
0.836451
 23
0.677549
 33
-0.154818
 62
0
  0
3DFACE
  8
Cube
 10
1.423913
 20
-0.000001
 30
-0.067801
 11
1.514001
 21
-0.000001
 31
-0.154818
 12
1.423226
 22
-0.338776
 32
-0.154818
 13
1.423226
 23
-0.338776
 33
-0.154818
 62
0
  0
3DFACE
  8
Cube
 10
1.175226
 20
-0.586776
 30
-0.154819
 11
1.175226
 21
-0.586776
 31
-0.166410
 12
0.836452
 22
-0.677551
 32
-0.166410
 13
0.836452
 23
-0.677551
 33
-0.154819
 62
0
  0
3DFACE
  8
Cube
 10
0.836452
 20
-0.677551
 30
-0.154819
 11
0.836452
 21
-0.677551
 31
-0.166410
 12
0.497677
 22
-0.586776
 32
-0.166410
 13
0.497677
 23
-0.586776
 33
-0.154819
 62
0
  0
3DFACE
  8
Cube
 10
0.497677
 20
-0.586776
 30
-0.154819
 11
0.497677
 21
-0.586776
 31
-0.166410
 12
0.249676
 22
-0.338777
 32
-0.166409
 13
0.249676
 23
-0.338777
 33
-0.154819
 62
0
  0
3DFACE
  8
Cube
 10
0.249676
 20
-0.338777
 30
-0.154819
 11
0.249676
 21
-0.338777
 31
-0.166409
 12
0.158901
 22
-0.000002
 32
-0.166409
 13
0.158901
 23
-0.000002
 33
-0.154819
 62
0
  0
3DFACE
  8
Cube
 10
0.158901
 20
-0.000002
 30
-0.154819
 11
0.158901
 21
-0.000002
 31
-0.166409
 12
0.249675
 22
0.338774
 32
-0.166409
 13
0.249675
 23
0.338774
 33
-0.154818
 62
0
  0
3DFACE
  8
Cube
 10
0.249675
 20
0.338774
 30
-0.154818
 11
0.249675
 21
0.338774
 31
-0.166409
 12
0.497675
 22
0.586774
 32
-0.166408
 13
0.497675
 23
0.586774
 33
-0.154818
 62
0
  0
3DFACE
  8
Cube
 10
0.836452
 20
0.340801
 30
0.070378
 11
0.836451
 21
0.677549
 31
-0.154818
 12
1.130183
 22
0.508757
 32
-0.067801
 13
1.130183
 23
0.508757
 33
-0.067801
 62
0
  0
3DFACE
  8
Cube
 10
1.130183
 20
0.508757
 30
-0.067801
 11
1.423227
 21
0.338773
 31
-0.154818
 12
1.131594
 22
0.170401
 32
0.070378
 13
1.131594
 23
0.170401
 33
0.070378
 62
0
  0
3DFACE
  8
Cube
 10
1.131594
 20
0.170401
 30
0.070378
 11
1.423227
 21
0.338773
 31
-0.154818
 12
1.423913
 22
-0.000001
 32
-0.067801
 13
1.423913
 23
-0.000001
 33
-0.067801
 62
0
  0
3DFACE
  8
Cube
 10
1.423226
 20
-0.338776
 30
-0.154818
 11
1.175226
 21
-0.586776
 31
-0.154819
 12
1.130182
 22
-0.508757
 32
-0.067801
 13
1.130182
 23
-0.508757
 33
-0.067801
 62
0
  0
3DFACE
  8
Cube
 10
0.542719
 20
0.508757
 30
-0.067801
 11
0.836451
 21
0.677549
 31
-0.154818
 12
0.836452
 22
0.340801
 32
0.070378
 13
0.836452
 23
0.340801
 33
0.070378
 62
0
  0
3DFACE
  8
Cube
 10
1.423913
 20
-0.000001
 30
-0.067801
 11
1.423226
 21
-0.338776
 31
-0.154818
 12
1.131592
 22
-0.170400
 32
0.070378
 13
1.131592
 23
-0.170400
 33
0.070378
 62
0
  0
3DFACE
  8
Cube
 10
1.130182
 20
-0.508757
 30
-0.067801
 11
1.175226
 21
-0.586776
 31
-0.154819
 12
0.836452
 22
-0.677551
 32
-0.154819
 13
0.836452
 23
-0.677551
 33
-0.154819
 62
0
  0
3DFACE
  8
Cube
 10
0.836452
 20
-0.677551
 30
-0.154819
 11
0.497677
 21
-0.586776
 31
-0.154819
 12
0.542720
 22
-0.508758
 32
-0.067801
 13
0.542720
 23
-0.508758
 33
-0.067801
 62
0
  0
3DFACE
  8
Cube
 10
0.542720
 20
-0.508758
 30
-0.067801
 11
0.497677
 21
-0.586776
 31
-0.154819
 12
0.249676
 22
-0.338777
 32
-0.154819
 13
0.249676
 23
-0.338777
 33
-0.154819
 62
0
  0
3DFACE
  8
Cube
 10
0.249676
 20
-0.338777
 30
-0.154819
 11
0.158901
 21
-0.000002
 31
-0.154819
 12
0.248989
 22
-0.000001
 32
-0.067801
 13
0.248989
 23
-0.000001
 33
-0.067801
 62
0
  0
3DFACE
  8
Cube
 10
0.248989
 20
-0.000001
 30
-0.067801
 11
0.158901
 21
-0.000002
 31
-0.154819
 12
0.249675
 22
0.338774
 32
-0.154818
 13
0.249675
 23
0.338774
 33
-0.154818
 62
0
  0
3DFACE
  8
Cube
 10
0.249675
 20
0.338774
 30
-0.154818
 11
0.497675
 21
0.586774
 31
-0.154818
 12
0.542719
 22
0.508757
 32
-0.067801
 13
0.542719
 23
0.508757
 33
-0.067801
 62
0
  0
3DFACE
  8
Cube
 10
0.541309
 20
0.170400
 30
0.070378
 11
0.249675
 21
0.338774
 31
-0.154818
 12
0.542719
 22
0.508757
 32
-0.067801
 13
0.542719
 23
0.508757
 33
-0.067801
 62
0
  0
3DFACE
  8
Cube
 10
0.836452
 20
0.340801
 30
0.070378
 11
1.130183
 21
0.508757
 31
-0.067801
 12
1.131594
 22
0.170401
 32
0.070378
 13
1.131594
 23
0.170401
 33
0.070378
 62
0
  0
3DFACE
  8
Cube
 10
1.131592
 20
-0.170400
 30
0.070378
 11
1.423226
 21
-0.338776
 31
-0.154818
 12
1.130182
 22
-0.508757
 32
-0.067801
 13
1.130182
 23
-0.508757
 33
-0.067801
 62
0
  0
3DFACE
  8
Cube
 10
1.131594
 20
0.170401
 30
0.070378
 11
1.423913
 21
-0.000001
 31
-0.067801
 12
1.131592
 22
-0.170400
 32
0.070378
 13
1.131592
 23
-0.170400
 33
0.070378
 62
0
  0
3DFACE
  8
Cube
 10
1.130182
 20
-0.508757
 30
-0.067801
 11
0.836452
 21
-0.677551
 31
-0.154819
 12
0.836452
 22
-0.340798
 32
0.070379
 13
0.836452
 23
-0.340798
 33
0.070379
 62
0
  0
3DFACE
  8
Cube
 10
0.542720
 20
-0.508758
 30
-0.067801
 11
0.249676
 21
-0.338777
 31
-0.154819
 12
0.541312
 22
-0.170399
 32
0.070379
 13
0.541312
 23
-0.170399
 33
0.070379
 62
0
  0
3DFACE
  8
Cube
 10
0.836452
 20
-0.340798
 30
0.070379
 11
0.836452
 21
-0.677551
 31
-0.154819
 12
0.542720
 22
-0.508758
 32
-0.067801
 13
0.542720
 23
-0.508758
 33
-0.067801
 62
0
  0
3DFACE
  8
Cube
 10
0.248989
 20
-0.000001
 30
-0.067801
 11
0.249675
 21
0.338774
 31
-0.154818
 12
0.541309
 22
0.170400
 32
0.070378
 13
0.541309
 23
0.170400
 33
0.070378
 62
0
  0
3DFACE
  8
Cube
 10
0.541312
 20
-0.170399
 30
0.070379
 11
0.249676
 21
-0.338777
 31
-0.154819
 12
0.248989
 22
-0.000001
 32
-0.067801
 13
0.248989
 23
-0.000001
 33
-0.067801
 62
0
  0
3DFACE
  8
Cube
 10
0.541309
 20
0.170400
 30
0.070378
 11
0.542719
 21
0.508757
 31
-0.067801
 12
0.836452
 22
0.340801
 32
0.070378
 13
0.836452
 23
0.340801
 33
0.070378
 62
0
  0
3DFACE
  8
Cube
 10
0.836452
 20
0.000002
 30
0.133111
 11
0.836452
 21
0.340801
 31
0.070378
 12
1.131594
 22
0.170401
 32
0.070378
 13
1.131594
 23
0.170401
 33
0.070378
 62
0
  0
3DFACE
  8
Cube
 10
0.541309
 20
0.170400
 30
0.070378
 11
0.836452
 21
0.340801
 31
0.070378
 12
0.836452
 22
0.000002
 32
0.133111
 13
0.836452
 23
0.000002
 33
0.133111
 62
0
  0
3DFACE
  8
Cube
 10
1.131592
 20
-0.170400
 30
0.070378
 11
1.130182
 21
-0.508757
 31
-0.067801
 12
0.836452
 22
-0.340798
 32
0.070379
 13
0.836452
 23
-0.340798
 33
0.070379
 62
0
  0
3DFACE
  8
Cube
 10
0.836452
 20
0.000002
 30
0.133111
 11
1.131594
 21
0.170401
 31
0.070378
 12
1.131592
 22
-0.170400
 32
0.070378
 13
1.131592
 23
-0.170400
 33
0.070378
 62
0
  0
3DFACE
  8
Cube
 10
0.836452
 20
-0.340798
 30
0.070379
 11
0.542720
 21
-0.508758
 31
-0.067801
 12
0.541312
 22
-0.170399
 32
0.070379
 13
0.541312
 23
-0.170399
 33
0.070379
 62
0
  0
3DFACE
  8
Cube
 10
0.836452
 20
0.000002
 30
0.133111
 11
1.131592
 21
-0.170400
 31
0.070378
 12
0.836452
 22
-0.340798
 32
0.070379
 13
0.836452
 23
-0.340798
 33
0.070379
 62
0
  0
3DFACE
  8
Cube
 10
0.836452
 20
0.000002
 30
0.133111
 11
0.836452
 21
-0.340798
 31
0.070379
 12
0.541312
 22
-0.170399
 32
0.070379
 13
0.541312
 23
-0.170399
 33
0.070379
 62
0
  0
3DFACE
  8
Cube
 10
0.541312
 20
-0.170399
 30
0.070379
 11
0.248989
 21
-0.000001
 31
-0.067801
 12
0.541309
 22
0.170400
 32
0.070378
 13
0.541309
 23
0.170400
 33
0.070378
 62
0
  0
3DFACE
  8
Cube
 10
0.541309
 20
0.170400
 30
0.070378
 11
0.836452
 21
0.000002
 31
0.133111
 12
0.541312
 22
-0.170399
 32
0.070379
 13
0.541312
 23
-0.170399
 33
0.070379
 62
0
 0
ENDSEC
 0
EOF
