  0
SECTION
  2
HEADER
  0
ENDSEC
  0
SECTION
  2
TABLES
  0
TABLE
  2
LAYER
  70
    153
  0
LAYER
  2
Cube60
 70
0
 62
15
  6
CONTINUOUS
  0
ENDTAB
  0
ENDSEC
  0
SECTION
  2
ENTITIES
  0
3DFACE
  8
Cube60
 10
1.231995
 20
1.035277
 30
-0.364552
 11
0.714359
 21
0.896577
 31
-0.364552
 12
0.714359
 22
0.896577
 32
-0.385144
 13
1.231995
 23
1.035277
 33
-0.385144
 62
0
  0
3DFACE
  8
Cube60
 10
1.749633
 20
0.896576
 30
-0.364552
 11
1.231995
 21
1.035277
 31
-0.364552
 12
1.231995
 22
1.035277
 32
-0.385144
 13
1.749633
 23
0.896576
 33
-0.385144
 62
0
  0
3DFACE
  8
Cube60
 10
2.128570
 20
0.517640
 30
-0.364553
 11
1.749633
 21
0.896576
 31
-0.364552
 12
1.749633
 22
0.896576
 32
-0.385144
 13
2.128570
 23
0.517640
 33
-0.385144
 62
0
  0
3DFACE
  8
Cube60
 10
2.267270
 20
0.000001
 30
-0.385144
 11
2.267270
 21
0.000001
 31
-0.364552
 12
2.128570
 22
0.517640
 32
-0.364553
 13
2.128570
 23
0.517640
 33
-0.385144
 62
0
  0
3DFACE
  8
Cube60
 10
2.128570
 20
-0.517636
 30
-0.385144
 11
2.128570
 21
-0.517636
 31
-0.364552
 12
2.267270
 22
0.000001
 32
-0.364552
 13
2.267270
 23
0.000001
 33
-0.385144
 62
0
  0
3DFACE
  8
Cube60
 10
1.749632
 20
-0.896573
 30
-0.385144
 11
1.749632
 21
-0.896573
 31
-0.364551
 12
2.128570
 22
-0.517636
 32
-0.364552
 13
2.128570
 23
-0.517636
 33
-0.385144
 62
0
  0
3DFACE
  8
Cube60
 10
1.231995
 20
-0.155518
 30
-1.123846
 11
1.231995
 21
-1.035274
 31
-0.385144
 12
1.749632
 22
-0.896573
 32
-0.385144
 13
1.749632
 23
-0.896573
 33
-0.385144
 62
0
  0
3DFACE
  8
Cube60
 10
1.097312
 20
-0.077758
 30
-1.123847
 11
0.335421
 21
-0.517636
 31
-0.385144
 12
0.714359
 22
-0.896574
 32
-0.385144
 13
0.714359
 23
-0.896574
 33
-0.385144
 62
0
  0
3DFACE
  8
Cube60
 10
0.196721
 20
0.000001
 30
-0.385144
 11
0.335421
 21
-0.517636
 31
-0.385144
 12
1.097312
 22
-0.077758
 32
-1.123847
 13
1.097312
 23
-0.077758
 33
-1.123847
 62
0
  0
3DFACE
  8
Cube60
 10
1.231995
 20
0.155524
 30
-1.123844
 11
1.231995
 21
1.035277
 31
-0.385144
 12
0.714359
 22
0.896577
 32
-0.385144
 13
0.714359
 23
0.896577
 33
-0.385144
 62
0
  0
3DFACE
  8
Cube60
 10
0.714359
 20
0.896577
 30
-0.385144
 11
0.335421
 21
0.517639
 31
-0.385144
 12
1.097309
 22
0.077763
 32
-1.123844
 13
1.097309
 23
0.077763
 33
-1.123844
 62
0
  0
3DFACE
  8
Cube60
 10
1.749633
 20
0.896576
 30
-0.385144
 11
1.231995
 21
1.035277
 31
-0.385144
 12
1.231995
 22
0.155524
 32
-1.123844
 13
1.231995
 23
0.155524
 33
-1.123844
 62
0
  0
3DFACE
  8
Cube60
 10
1.366679
 20
-0.077758
 30
-1.123846
 11
2.128570
 21
-0.517636
 31
-0.385144
 12
2.267270
 22
0.000001
 32
-0.385144
 13
2.267270
 23
0.000001
 33
-0.385144
 62
0
  0
3DFACE
  8
Cube60
 10
1.366681
 20
0.077762
 30
-1.123844
 11
2.128570
 21
0.517640
 31
-0.385144
 12
1.749633
 22
0.896576
 32
-0.385144
 13
1.749633
 23
0.896576
 33
-0.385144
 62
0
  0
3DFACE
  8
Cube60
 10
1.231995
 20
0.000001
 30
-1.234319
 11
1.366681
 21
0.077762
 31
-1.123844
 12
1.749633
 22
0.896576
 32
-0.385144
 13
1.231995
 23
0.155524
 33
-1.123844
 62
0
  0
3DFACE
  8
Cube60
 10
2.267270
 20
0.000001
 30
-0.385144
 11
2.128570
 21
0.517640
 31
-0.385144
 12
1.366681
 22
0.077762
 32
-1.123844
 13
1.366681
 23
0.077762
 33
-1.123844
 62
0
  0
3DFACE
  8
Cube60
 10
1.231995
 20
0.000001
 30
-1.234319
 11
1.366679
 21
-0.077758
 31
-1.123846
 12
2.267270
 22
0.000001
 32
-0.385144
 13
1.366681
 23
0.077762
 33
-1.123844
 62
0
  0
3DFACE
  8
Cube60
 10
1.749632
 20
-0.896573
 30
-0.385144
 11
2.128570
 21
-0.517636
 31
-0.385144
 12
1.366679
 22
-0.077758
 32
-1.123846
 13
1.366679
 23
-0.077758
 33
-1.123846
 62
0
  0
3DFACE
  8
Cube60
 10
1.231995
 20
0.000001
 30
-1.234319
 11
1.231995
 21
-0.155518
 31
-1.123846
 12
1.749632
 22
-0.896573
 32
-0.385144
 13
1.366679
 23
-0.077758
 33
-1.123846
 62
0
  0
3DFACE
  8
Cube60
 10
0.714359
 20
-0.896574
 30
-0.385144
 11
1.231995
 21
-1.035274
 31
-0.385144
 12
1.231995
 22
-0.155518
 32
-1.123846
 13
1.231995
 23
-0.155518
 33
-1.123846
 62
0
  0
3DFACE
  8
Cube60
 10
1.097309
 20
0.077763
 30
-1.123844
 11
0.335421
 21
0.517639
 31
-0.385144
 12
0.196721
 22
0.000001
 32
-0.385144
 13
0.196721
 23
0.000001
 33
-0.385144
 62
0
  0
3DFACE
  8
Cube60
 10
1.231995
 20
0.000001
 30
-1.234319
 11
1.097312
 21
-0.077758
 31
-1.123847
 12
0.714359
 22
-0.896574
 32
-0.385144
 13
1.231995
 23
-0.155518
 33
-1.123846
 62
0
  0
3DFACE
  8
Cube60
 10
1.097309
 20
0.077763
 30
-1.123844
 11
1.231995
 21
0.000001
 31
-1.234319
 12
1.231995
 22
0.155524
 32
-1.123844
 13
0.714359
 23
0.896577
 33
-0.385144
 62
0
  0
3DFACE
  8
Cube60
 10
1.231995
 20
0.000001
 30
-1.234319
 11
1.097309
 21
0.077763
 31
-1.123844
 12
0.196721
 22
0.000001
 32
-0.385144
 13
1.097312
 23
-0.077758
 33
-1.123847
 62
0
  0
3DFACE
  8
Cube60
 10
1.749633
 20
0.896576
 30
-0.364552
 11
1.299511
 21
0.757079
 31
-0.134652
 12
1.231995
 22
1.035277
 32
-0.364552
 13
1.231995
 23
1.035277
 33
-0.364552
 62
0
  0
3DFACE
  8
Cube60
 10
1.853887
 20
0.437012
 30
-0.134654
 11
1.749633
 21
0.896576
 31
-0.364552
 12
2.128570
 22
0.517640
 32
-0.364553
 13
2.128570
 23
0.517640
 33
-0.364553
 62
0
  0
3DFACE
  8
Cube60
 10
2.128570
 20
0.517640
 30
-0.364553
 11
2.267270
 21
0.000001
 31
-0.364552
 12
1.921403
 22
0.320071
 32
-0.134654
 13
1.921403
 23
0.320071
 33
-0.134654
 62
0
  0
3DFACE
  8
Cube60
 10
1.231995
 20
-1.035274
 30
-0.385144
 11
1.231995
 21
-1.035274
 31
-0.364551
 12
1.749632
 22
-0.896573
 32
-0.364551
 13
1.749632
 23
-0.896573
 33
-0.385144
 62
0
  0
3DFACE
  8
Cube60
 10
0.714359
 20
-0.896574
 30
-0.385144
 11
0.714359
 21
-0.896574
 31
-0.364551
 12
1.231995
 22
-1.035274
 32
-0.364551
 13
1.231995
 23
-1.035274
 33
-0.385144
 62
0
  0
3DFACE
  8
Cube60
 10
0.335421
 20
-0.517636
 30
-0.385144
 11
0.335421
 21
-0.517636
 31
-0.364550
 12
0.714359
 22
-0.896574
 32
-0.364551
 13
0.714359
 23
-0.896574
 33
-0.385144
 62
0
  0
3DFACE
  8
Cube60
 10
0.196721
 20
0.000001
 30
-0.385144
 11
0.196721
 21
0.000001
 31
-0.364550
 12
0.335421
 22
-0.517636
 32
-0.364550
 13
0.335421
 23
-0.517636
 33
-0.385144
 62
0
  0
3DFACE
  8
Cube60
 10
0.335421
 20
0.517639
 30
-0.385144
 11
0.335421
 21
0.517639
 31
-0.364550
 12
0.196721
 22
0.000001
 32
-0.364550
 13
0.196721
 23
0.000001
 33
-0.385144
 62
0
  0
3DFACE
  8
Cube60
 10
0.714359
 20
0.896577
 30
-0.385144
 11
0.714359
 21
0.896577
 31
-0.364552
 12
0.335421
 22
0.517639
 32
-0.364550
 13
0.335421
 23
0.517639
 33
-0.385144
 62
0
  0
3DFACE
  8
Cube60
 10
1.921403
 20
-0.320068
 30
-0.134654
 11
2.267270
 21
0.000001
 31
-0.364552
 12
2.128570
 22
-0.517636
 32
-0.364552
 13
2.128570
 23
-0.517636
 33
-0.364552
 62
0
  0
3DFACE
  8
Cube60
 10
1.299510
 20
-0.757078
 30
-0.134653
 11
1.749632
 21
-0.896573
 31
-0.364551
 12
1.231995
 22
-1.035274
 32
-0.364551
 13
1.231995
 23
-1.035274
 33
-0.364551
 62
0
  0
3DFACE
  8
Cube60
 10
0.335421
 20
0.517639
 30
-0.364550
 11
0.714359
 21
0.896577
 31
-0.364552
 12
0.610105
 22
0.437010
 32
-0.134651
 13
0.610105
 23
0.437010
 33
-0.134651
 62
0
  0
3DFACE
  8
Cube60
 10
0.714359
 20
0.896577
 30
-0.364552
 11
1.231995
 21
1.035277
 31
-0.364552
 12
1.164479
 22
0.757079
 32
-0.134653
 13
1.164479
 23
0.757079
 33
-0.134653
 62
0
  0
3DFACE
  8
Cube60
 10
0.714359
 20
0.896577
 30
-0.364552
 11
1.164479
 21
0.757079
 31
-0.134653
 12
1.231995
 22
0.594130
 32
0.000007
 13
1.231995
 23
0.594130
 33
0.000007
 62
0
  0
3DFACE
  8
Cube60
 10
1.231995
 20
1.035277
 30
-0.364552
 11
1.299511
 21
0.757079
 31
-0.134652
 12
1.231995
 22
0.594130
 32
0.000007
 13
1.164479
 23
0.757079
 33
-0.134653
 62
0
  0
3DFACE
  8
Cube60
 10
1.749633
 20
0.896576
 30
-0.364552
 11
1.853887
 21
0.437012
 31
-0.134654
 12
1.746529
 22
0.297069
 32
0.000003
 13
1.746529
 23
0.297069
 33
0.000003
 62
0
  0
3DFACE
  8
Cube60
 10
1.746529
 20
0.297069
 30
0.000003
 11
1.921403
 21
0.320071
 31
-0.134654
 12
2.267270
 22
0.000001
 32
-0.364552
 13
2.267270
 23
0.000001
 33
-0.364552
 62
0
  0
3DFACE
  8
Cube60
 10
2.128570
 20
-0.517636
 30
-0.364552
 11
1.749632
 21
-0.896573
 31
-0.364551
 12
1.853888
 22
-0.437008
 32
-0.134654
 13
1.853888
 23
-0.437008
 33
-0.134654
 62
0
  0
3DFACE
  8
Cube60
 10
1.746529
 20
0.297069
 30
0.000003
 11
1.853887
 21
0.437012
 31
-0.134654
 12
2.128570
 22
0.517640
 32
-0.364553
 13
1.921403
 23
0.320071
 33
-0.134654
 62
0
  0
3DFACE
  8
Cube60
 10
1.853888
 20
-0.437008
 30
-0.134654
 11
1.746536
 21
-0.297068
 31
-0.000003
 12
1.921403
 22
-0.320068
 32
-0.134654
 13
2.128570
 23
-0.517636
 33
-0.364552
 62
0
  0
3DFACE
  8
Cube60
 10
1.231995
 20
-1.035274
 30
-0.364551
 11
0.714359
 21
-0.896574
 31
-0.364551
 12
1.164479
 22
-0.757078
 32
-0.134653
 13
1.164479
 23
-0.757078
 33
-0.134653
 62
0
  0
3DFACE
  8
Cube60
 10
0.610104
 20
-0.437008
 30
-0.134652
 11
0.714359
 21
-0.896574
 31
-0.364551
 12
0.335421
 22
-0.517636
 32
-0.364550
 13
0.335421
 23
-0.517636
 33
-0.364550
 62
0
  0
3DFACE
  8
Cube60
 10
1.164479
 20
-0.757078
 30
-0.134653
 11
1.231995
 21
-0.594142
 31
-0.000004
 12
1.299510
 22
-0.757078
 32
-0.134653
 13
1.231995
 23
-1.035274
 33
-0.364551
 62
0
  0
3DFACE
  8
Cube60
 10
0.335421
 20
-0.517636
 30
-0.364550
 11
0.196721
 21
0.000001
 31
-0.364550
 12
0.542588
 22
-0.320067
 32
-0.134652
 13
0.542588
 23
-0.320067
 33
-0.134652
 62
0
  0
3DFACE
  8
Cube60
 10
0.335421
 20
-0.517636
 30
-0.364550
 11
0.542588
 21
-0.320067
 31
-0.134652
 12
0.717455
 22
-0.297067
 32
-0.000000
 13
0.610104
 23
-0.437008
 33
-0.134652
 62
0
  0
3DFACE
  8
Cube60
 10
0.542589
 20
0.320069
 30
-0.134651
 11
0.196721
 21
0.000001
 31
-0.364550
 12
0.335421
 22
0.517639
 32
-0.364550
 13
0.335421
 23
0.517639
 33
-0.364550
 62
0
  0
3DFACE
  8
Cube60
 10
0.717463
 20
0.297068
 30
0.000006
 11
0.610105
 21
0.437010
 31
-0.134651
 12
0.714359
 22
0.896577
 32
-0.364552
 13
0.714359
 23
0.896577
 33
-0.364552
 62
0
  0
3DFACE
  8
Cube60
 10
0.542589
 20
0.320069
 30
-0.134651
 11
0.335421
 21
0.517639
 31
-0.364550
 12
0.610105
 22
0.437010
 32
-0.134651
 13
0.717463
 23
0.297068
 33
0.000006
 62
0
  0
3DFACE
  8
Cube60
 10
0.196721
 20
0.000001
 30
-0.364550
 11
0.542589
 21
0.320069
 31
-0.134651
 12
0.717463
 22
0.297068
 32
0.000006
 13
0.717463
 23
0.297068
 33
0.000006
 62
0
  0
3DFACE
  8
Cube60
 10
1.231995
 20
0.594130
 30
0.000007
 11
1.299511
 21
0.757079
 31
-0.134652
 12
1.749633
 22
0.896576
 32
-0.364552
 13
1.749633
 23
0.896576
 33
-0.364552
 62
0
  0
3DFACE
  8
Cube60
 10
1.231995
 20
0.594130
 30
0.000007
 11
1.749633
 21
0.896576
 31
-0.364552
 12
1.746529
 22
0.297069
 32
0.000003
 13
1.746529
 23
0.297069
 33
0.000003
 62
0
  0
3DFACE
  8
Cube60
 10
0.717463
 20
0.297068
 30
0.000006
 11
0.714359
 21
0.896577
 31
-0.364552
 12
1.231995
 22
0.594130
 32
0.000007
 13
1.231995
 23
0.594130
 33
0.000007
 62
0
  0
3DFACE
  8
Cube60
 10
1.746536
 20
-0.297068
 30
-0.000003
 11
1.853888
 21
-0.437008
 31
-0.134654
 12
1.749632
 22
-0.896573
 32
-0.364551
 13
1.749632
 23
-0.896573
 33
-0.364551
 62
0
  0
3DFACE
  8
Cube60
 10
2.267270
 20
0.000001
 30
-0.364552
 11
1.921403
 21
-0.320068
 31
-0.134654
 12
1.746536
 22
-0.297068
 32
-0.000003
 13
1.746536
 23
-0.297068
 33
-0.000003
 62
0
  0
3DFACE
  8
Cube60
 10
1.746529
 20
0.297069
 30
0.000003
 11
2.267270
 21
0.000001
 31
-0.364552
 12
1.746536
 22
-0.297068
 32
-0.000003
 13
1.746536
 23
-0.297068
 33
-0.000003
 62
0
  0
3DFACE
  8
Cube60
 10
1.749632
 20
-0.896573
 30
-0.364551
 11
1.299510
 21
-0.757078
 31
-0.134653
 12
1.231995
 22
-0.594142
 32
-0.000004
 13
1.231995
 23
-0.594142
 33
-0.000004
 62
0
  0
3DFACE
  8
Cube60
 10
1.231995
 20
-0.594142
 30
-0.000004
 11
1.164479
 21
-0.757078
 31
-0.134653
 12
0.714359
 22
-0.896574
 32
-0.364551
 13
0.714359
 23
-0.896574
 33
-0.364551
 62
0
  0
3DFACE
  8
Cube60
 10
1.746536
 20
-0.297068
 30
-0.000003
 11
1.749632
 21
-0.896573
 31
-0.364551
 12
1.231995
 22
-0.594142
 32
-0.000004
 13
1.231995
 23
-0.594142
 33
-0.000004
 62
0
  0
3DFACE
  8
Cube60
 10
0.714359
 20
-0.896574
 30
-0.364551
 11
0.610104
 21
-0.437008
 31
-0.134652
 12
0.717455
 22
-0.297067
 32
-0.000000
 13
0.717455
 23
-0.297067
 33
-0.000000
 62
0
  0
3DFACE
  8
Cube60
 10
0.717455
 20
-0.297067
 30
-0.000000
 11
0.542588
 21
-0.320067
 31
-0.134652
 12
0.196721
 22
0.000001
 32
-0.364550
 13
0.196721
 23
0.000001
 33
-0.364550
 62
0
  0
3DFACE
  8
Cube60
 10
0.717455
 20
-0.297067
 30
-0.000000
 11
0.196721
 21
0.000001
 31
-0.364550
 12
0.717463
 22
0.297068
 32
0.000006
 13
0.717463
 23
0.297068
 33
0.000006
 62
0
  0
3DFACE
  8
Cube60
 10
1.231995
 20
-0.594142
 30
-0.000004
 11
0.714359
 21
-0.896574
 31
-0.364551
 12
0.717455
 22
-0.297067
 32
-0.000000
 13
0.717455
 23
-0.297067
 33
-0.000000
 62
0
  0
3DFACE
  8
Cube60
 10
0.717463
 20
0.297068
 30
0.000006
 11
1.231995
 21
-0.594142
 31
-0.000004
 12
0.717455
 22
-0.297067
 32
-0.000000
 13
0.717455
 23
-0.297067
 33
-0.000000
 62
0
  0
3DFACE
  8
Cube60
 10
1.231995
 20
0.594130
 30
0.000007
 11
1.231995
 21
-0.594142
 31
-0.000004
 12
0.717463
 22
0.297068
 32
0.000006
 13
0.717463
 23
0.297068
 33
0.000006
 62
0
  0
3DFACE
  8
Cube60
 10
1.746536
 20
-0.297068
 30
-0.000003
 11
1.231995
 21
-0.594142
 31
-0.000004
 12
1.231995
 22
0.594130
 32
0.000007
 13
1.231995
 23
0.594130
 33
0.000007
 62
0
  0
3DFACE
  8
Cube60
 10
1.746529
 20
0.297069
 30
0.000003
 11
1.746536
 21
-0.297068
 31
-0.000003
 12
1.231995
 22
0.594130
 32
0.000007
 13
1.231995
 23
0.594130
 33
0.000007
 62
0
 0
ENDSEC
 0
EOF
