  0
SECTION
  2
HEADER
  0
ENDSEC
  0
SECTION
  2
TABLES
  0
TABLE
  2
LAYER
  70
    153
  0
LAYER
  2
Cylinder
 70
0
 62
15
  6
CONTINUOUS
  0
ENDTAB
  0
ENDSEC
  0
SECTION
  2
ENTITIES
  0
3DFACE
  8
Cylinder
 10
-1.276117
 20
0.998570
 30
-0.066527
 11
-1.276117
 21
0.998570
 31
-0.093257
 12
-0.123069
 22
0.998570
 32
-0.093256
 13
-0.123069
 23
0.998570
 33
-0.066528
 62
0
  0
3DFACE
  8
Cylinder
 10
-0.123069
 20
0.998570
 30
-0.066528
 11
-0.123069
 21
0.998570
 31
-0.093256
 12
0.453456
 22
0.000000
 32
-0.093257
 13
0.453456
 23
0.000000
 33
-0.066528
 62
0
  0
3DFACE
  8
Cylinder
 10
-1.276118
 20
-0.998569
 30
-0.093257
 11
-0.123069
 21
-0.998570
 31
-0.093257
 12
-0.699593
 22
-0.836985
 32
-0.439777
 13
-0.699593
 23
-0.836985
 33
-0.439777
 62
0
  0
3DFACE
  8
Cylinder
 10
-1.852642
 20
0.000000
 30
-0.093257
 11
-1.276118
 21
-0.998569
 31
-0.093257
 12
-1.424443
 22
-0.418492
 32
-0.439777
 13
-1.424443
 23
-0.418492
 33
-0.439777
 62
0
  0
3DFACE
  8
Cylinder
 10
-0.123069
 20
0.998570
 30
-0.093256
 11
-1.276117
 21
0.998570
 31
-0.093257
 12
-0.699593
 22
0.836985
 32
-0.439777
 13
-0.699593
 23
0.836985
 33
-0.439777
 62
0
  0
3DFACE
  8
Cylinder
 10
0.453456
 20
0.000000
 30
-0.093257
 11
-0.123069
 21
0.998570
 31
-0.093256
 12
0.025257
 22
0.418493
 32
-0.439777
 13
0.025257
 23
0.418493
 33
-0.439777
 62
0
  0
3DFACE
  8
Cylinder
 10
-0.123069
 20
-0.998570
 30
-0.093257
 11
0.453456
 21
0.000000
 31
-0.093257
 12
0.025257
 22
-0.418492
 32
-0.439777
 13
0.025257
 23
-0.418492
 33
-0.439777
 62
0
  0
3DFACE
  8
Cylinder
 10
-0.161582
 20
-0.456519
 30
-0.518064
 11
-0.123069
 21
-0.998570
 31
-0.093257
 12
0.025257
 22
-0.418492
 32
-0.439777
 13
0.025257
 23
-0.418492
 33
-0.439777
 62
0
  0
3DFACE
  8
Cylinder
 10
-0.699593
 20
-0.836985
 30
-0.439777
 11
-0.123069
 21
-0.998570
 31
-0.093257
 12
-0.573237
 22
-0.694193
 32
-0.518061
 13
-0.573237
 23
-0.694193
 33
-0.518061
 62
0
  0
3DFACE
  8
Cylinder
 10
-0.825943
 20
-0.694190
 30
-0.518065
 11
-1.276118
 21
-0.998569
 31
-0.093257
 12
-0.699593
 22
-0.836985
 32
-0.439777
 13
-0.699593
 23
-0.836985
 33
-0.439777
 62
0
  0
3DFACE
  8
Cylinder
 10
-1.237604
 20
-0.456524
 30
-0.518061
 11
-1.276118
 21
-0.998569
 31
-0.093257
 12
-0.825943
 22
-0.694190
 32
-0.518065
 13
-0.699593
 23
0.000000
 33
-1.095586
 62
0
  0
3DFACE
  8
Cylinder
 10
-1.424443
 20
-0.418492
 30
-0.439777
 11
-1.276118
 21
-0.998569
 31
-0.093257
 12
-1.237604
 22
-0.456524
 32
-0.518061
 13
-1.237604
 23
-0.456524
 33
-0.518061
 62
0
  0
3DFACE
  8
Cylinder
 10
-1.424443
 20
0.418492
 30
-0.439777
 11
-1.276117
 21
0.998570
 31
-0.093257
 12
-1.852642
 22
0.000000
 32
-0.093257
 13
-1.852642
 23
0.000000
 33
-0.093257
 62
0
  0
3DFACE
  8
Cylinder
 10
-1.237601
 20
0.456522
 30
-0.518063
 11
-1.276117
 21
0.998570
 31
-0.093257
 12
-1.424443
 22
0.418492
 32
-0.439777
 13
-1.424443
 23
0.418492
 33
-0.439777
 62
0
  0
3DFACE
  8
Cylinder
 10
-1.424443
 20
0.418492
 30
-0.439777
 11
-1.852642
 21
0.000000
 31
-0.093257
 12
-1.363953
 22
0.237671
 32
-0.518066
 13
-1.363953
 23
0.237671
 33
-0.518066
 62
0
  0
3DFACE
  8
Cylinder
 10
-0.825949
 20
0.694193
 30
-0.518061
 11
-1.276117
 21
0.998570
 31
-0.093257
 12
-1.237601
 22
0.456522
 32
-0.518063
 13
-0.699593
 23
0.000000
 33
-1.095586
 62
0
  0
3DFACE
  8
Cylinder
 10
-0.699593
 20
0.836985
 30
-0.439777
 11
-1.276117
 21
0.998570
 31
-0.093257
 12
-0.825949
 22
0.694193
 32
-0.518061
 13
-0.825949
 23
0.694193
 33
-0.518061
 62
0
  0
3DFACE
  8
Cylinder
 10
-0.573240
 20
0.694192
 30
-0.518063
 11
-0.123069
 21
0.998570
 31
-0.093256
 12
-0.699593
 22
0.836985
 32
-0.439777
 13
-0.699593
 23
0.836985
 33
-0.439777
 62
0
  0
3DFACE
  8
Cylinder
 10
-0.699593
 20
0.836985
 30
-0.439777
 11
-0.825949
 21
0.694193
 31
-0.518061
 12
-0.699593
 22
0.000000
 32
-1.095586
 13
-0.699593
 23
0.000000
 33
-1.095586
 62
0
  0
3DFACE
  8
Cylinder
 10
-0.161583
 20
0.456523
 30
-0.518062
 11
-0.123069
 21
0.998570
 31
-0.093256
 12
-0.573240
 22
0.694192
 32
-0.518063
 13
-0.699593
 23
0.000000
 33
-1.095586
 62
0
  0
3DFACE
  8
Cylinder
 10
-0.573240
 20
0.694192
 30
-0.518063
 11
-0.699593
 21
0.836985
 31
-0.439777
 12
-0.699593
 22
0.000000
 32
-1.095586
 13
-0.699593
 23
0.000000
 33
-1.095586
 62
0
  0
3DFACE
  8
Cylinder
 10
0.025257
 20
0.418493
 30
-0.439777
 11
-0.123069
 21
0.998570
 31
-0.093256
 12
-0.161583
 22
0.456523
 32
-0.518062
 13
-0.161583
 23
0.456523
 33
-0.518062
 62
0
  0
3DFACE
  8
Cylinder
 10
0.025257
 20
0.418493
 30
-0.439777
 11
-0.161583
 21
0.456523
 31
-0.518062
 12
-0.699593
 22
0.000000
 32
-1.095586
 13
-0.699593
 23
0.000000
 33
-1.095586
 62
0
  0
3DFACE
  8
Cylinder
 10
-0.035230
 20
0.237671
 30
-0.518063
 11
0.453456
 21
0.000000
 31
-0.093257
 12
0.025257
 22
0.418493
 32
-0.439777
 13
0.025257
 23
0.418493
 33
-0.439777
 62
0
  0
3DFACE
  8
Cylinder
 10
0.025257
 20
0.418493
 30
-0.439777
 11
-0.699593
 21
0.000000
 31
-1.095586
 12
-0.035230
 22
0.237671
 32
-0.518063
 13
-0.035230
 23
0.237671
 33
-0.518063
 62
0
  0
3DFACE
  8
Cylinder
 10
0.025257
 20
-0.418492
 30
-0.439777
 11
0.453456
 21
0.000000
 31
-0.093257
 12
-0.035226
 22
-0.237669
 32
-0.518061
 13
-0.035226
 23
-0.237669
 33
-0.518061
 62
0
  0
3DFACE
  8
Cylinder
 10
-0.035226
 20
-0.237669
 30
-0.518061
 11
0.453456
 21
0.000000
 31
-0.093257
 12
-0.035230
 22
0.237671
 32
-0.518063
 13
-0.699593
 23
0.000000
 33
-1.095586
 62
0
  0
3DFACE
  8
Cylinder
 10
0.025257
 20
-0.418492
 30
-0.439777
 11
-0.035226
 21
-0.237669
 31
-0.518061
 12
-0.699593
 22
0.000000
 32
-1.095586
 13
-0.699593
 23
0.000000
 33
-1.095586
 62
0
  0
3DFACE
  8
Cylinder
 10
-0.699593
 20
0.000000
 30
-1.095586
 11
-0.161582
 21
-0.456519
 31
-0.518064
 12
0.025257
 22
-0.418492
 32
-0.439777
 13
0.025257
 23
-0.418492
 33
-0.439777
 62
0
  0
3DFACE
  8
Cylinder
 10
-0.573237
 20
-0.694193
 30
-0.518061
 11
-0.123069
 21
-0.998570
 31
-0.093257
 12
-0.161582
 22
-0.456519
 32
-0.518064
 13
-0.699593
 23
0.000000
 33
-1.095586
 62
0
  0
3DFACE
  8
Cylinder
 10
-0.699593
 20
-0.836985
 30
-0.439777
 11
-0.573237
 21
-0.694193
 31
-0.518061
 12
-0.699593
 22
0.000000
 32
-1.095586
 13
-0.699593
 23
0.000000
 33
-1.095586
 62
0
  0
3DFACE
  8
Cylinder
 10
-1.363957
 20
-0.237671
 30
-0.518063
 11
-1.852642
 21
0.000000
 31
-0.093257
 12
-1.424443
 22
-0.418492
 32
-0.439777
 13
-1.424443
 23
-0.418492
 33
-0.439777
 62
0
  0
3DFACE
  8
Cylinder
 10
-0.699593
 20
0.000000
 30
-1.095586
 11
-0.825943
 21
-0.694190
 31
-0.518065
 12
-0.699593
 22
-0.836985
 32
-0.439777
 13
-0.699593
 23
-0.836985
 33
-0.439777
 62
0
  0
3DFACE
  8
Cylinder
 10
-1.424443
 20
-0.418492
 30
-0.439777
 11
-1.237604
 21
-0.456524
 31
-0.518061
 12
-0.699593
 22
0.000000
 32
-1.095586
 13
-0.699593
 23
0.000000
 33
-1.095586
 62
0
  0
3DFACE
  8
Cylinder
 10
-1.363953
 20
0.237671
 30
-0.518066
 11
-1.852642
 21
0.000000
 31
-0.093257
 12
-1.363957
 22
-0.237671
 32
-0.518063
 13
-0.699593
 23
0.000000
 33
-1.095586
 62
0
  0
3DFACE
  8
Cylinder
 10
-1.363957
 20
-0.237671
 30
-0.518063
 11
-1.424443
 21
-0.418492
 31
-0.439777
 12
-0.699593
 22
0.000000
 32
-1.095586
 13
-0.699593
 23
0.000000
 33
-1.095586
 62
0
  0
3DFACE
  8
Cylinder
 10
-0.699593
 20
0.000000
 30
-1.095586
 11
-1.237601
 21
0.456522
 31
-0.518063
 12
-1.424443
 22
0.418492
 32
-0.439777
 13
-1.424443
 23
0.418492
 33
-0.439777
 62
0
  0
3DFACE
  8
Cylinder
 10
-1.852642
 20
0.000000
 30
-0.066527
 11
-1.852642
 21
0.000000
 31
-0.093257
 12
-1.276117
 22
0.998570
 32
-0.093257
 13
-1.276117
 23
0.998570
 33
-0.066527
 62
0
  0
3DFACE
  8
Cylinder
 10
-1.424443
 20
0.418492
 30
-0.439777
 11
-1.363953
 21
0.237671
 31
-0.518066
 12
-0.699593
 22
0.000000
 32
-1.095586
 13
-0.699593
 23
0.000000
 33
-1.095586
 62
0
  0
3DFACE
  8
Cylinder
 10
-0.699587
 20
0.826244
 30
0.179579
 11
-1.276117
 21
0.998570
 31
-0.066527
 12
-0.123069
 22
0.998570
 32
-0.066528
 13
-0.123069
 23
0.998570
 33
-0.066528
 62
0
  0
3DFACE
  8
Cylinder
 10
0.453456
 20
0.000000
 30
-0.066528
 11
0.453456
 21
0.000000
 31
-0.093257
 12
-0.123069
 22
-0.998570
 32
-0.093257
 13
-0.123069
 23
-0.998570
 33
-0.066527
 62
0
  0
3DFACE
  8
Cylinder
 10
0.015959
 20
0.413116
 30
0.179578
 11
-0.123069
 21
0.998570
 31
-0.066528
 12
0.453456
 22
0.000000
 32
-0.066528
 13
0.453456
 23
0.000000
 33
-0.066528
 62
0
  0
3DFACE
  8
Cylinder
 10
-0.123069
 20
-0.998570
 30
-0.066527
 11
-0.123069
 21
-0.998570
 31
-0.093257
 12
-1.276118
 22
-0.998569
 32
-0.093257
 13
-1.276118
 23
-0.998569
 33
-0.066528
 62
0
  0
3DFACE
  8
Cylinder
 10
-1.276118
 20
-0.998569
 30
-0.066528
 11
-1.276118
 21
-0.998569
 31
-0.093257
 12
-1.852642
 22
0.000000
 32
-0.093257
 13
-1.852642
 23
0.000000
 33
-0.066527
 62
0
  0
3DFACE
  8
Cylinder
 10
-1.852642
 20
0.000000
 30
-0.066527
 11
-1.276117
 21
0.998570
 31
-0.066527
 12
-1.415144
 22
0.413119
 32
0.179577
 13
-1.415144
 23
0.413119
 33
0.179577
 62
0
  0
3DFACE
  8
Cylinder
 10
-1.276117
 20
0.998570
 30
-0.066527
 11
-0.699587
 21
0.826244
 31
0.179579
 12
-0.699588
 22
0.653453
 32
0.350892
 13
-0.699588
 23
0.653453
 33
0.350892
 62
0
  0
3DFACE
  8
Cylinder
 10
-0.699588
 20
0.653453
 30
0.350892
 11
-0.699587
 21
0.826244
 31
0.179579
 12
-0.123069
 22
0.998570
 32
-0.066528
 13
-0.123069
 23
0.998570
 33
-0.066528
 62
0
  0
3DFACE
  8
Cylinder
 10
-0.123069
 20
0.998570
 30
-0.066528
 11
0.015959
 21
0.413116
 31
0.179578
 12
-0.133683
 22
0.326720
 32
0.350892
 13
-0.133683
 23
0.326720
 33
0.350892
 62
0
  0
3DFACE
  8
Cylinder
 10
0.015953
 20
-0.413128
 30
0.179578
 11
0.453456
 21
0.000000
 31
-0.066528
 12
-0.123069
 22
-0.998570
 32
-0.066527
 13
-0.123069
 23
-0.998570
 33
-0.066527
 62
0
  0
3DFACE
  8
Cylinder
 10
-0.133683
 20
0.326720
 30
0.350892
 11
0.015959
 21
0.413116
 31
0.179578
 12
0.453456
 22
0.000000
 32
-0.066528
 13
0.453456
 23
0.000000
 33
-0.066528
 62
0
  0
3DFACE
  8
Cylinder
 10
-0.699599
 20
-0.826245
 30
0.179578
 11
-0.123069
 21
-0.998570
 31
-0.066527
 12
-1.276118
 22
-0.998569
 32
-0.066528
 13
-1.276118
 23
-0.998569
 33
-0.066528
 62
0
  0
3DFACE
  8
Cylinder
 10
-1.415144
 20
-0.413120
 30
0.179577
 11
-1.276118
 21
-0.998569
 31
-0.066528
 12
-1.852642
 22
0.000000
 32
-0.066527
 13
-1.852642
 23
0.000000
 33
-0.066527
 62
0
  0
3DFACE
  8
Cylinder
 10
-1.265502
 20
0.326724
 30
0.350891
 11
-1.415144
 21
0.413119
 31
0.179577
 12
-1.276117
 22
0.998570
 32
-0.066527
 13
-1.276117
 23
0.998570
 33
-0.066527
 62
0
  0
3DFACE
  8
Cylinder
 10
-1.852642
 20
0.000000
 30
-0.066527
 11
-1.415144
 21
0.413119
 31
0.179577
 12
-1.265502
 22
0.326724
 32
0.350891
 13
-1.265502
 23
0.326724
 33
0.350891
 62
0
  0
3DFACE
  8
Cylinder
 10
-1.107183
 20
0.705966
 30
0.182766
 11
-1.276117
 21
0.998570
 31
-0.066527
 12
-0.699588
 22
0.653453
 32
0.350892
 13
-0.699588
 23
0.653453
 33
0.350892
 62
0
  0
3DFACE
  8
Cylinder
 10
-0.699588
 20
0.653453
 30
0.350892
 11
-0.123069
 21
0.998570
 31
-0.066528
 12
-0.292005
 22
0.705963
 32
0.182768
 13
-0.292005
 23
0.705963
 33
0.182768
 62
0
  0
3DFACE
  8
Cylinder
 10
-0.292005
 20
0.705963
 30
0.182768
 11
-0.123069
 21
0.998570
 31
-0.066528
 12
-0.133683
 22
0.326720
 32
0.350892
 13
-0.133683
 23
0.326720
 33
0.350892
 62
0
  0
3DFACE
  8
Cylinder
 10
-0.133683
 20
0.326720
 30
0.350892
 11
0.453456
 21
0.000000
 31
-0.066528
 12
0.115590
 22
-0.000000
 32
0.182764
 13
0.115590
 23
-0.000000
 33
0.182764
 62
0
  0
3DFACE
  8
Cylinder
 10
-0.133684
 20
-0.326734
 30
0.350888
 11
0.015953
 21
-0.413128
 31
0.179578
 12
-0.123069
 22
-0.998570
 32
-0.066527
 13
-0.123069
 23
-0.998570
 33
-0.066527
 62
0
  0
3DFACE
  8
Cylinder
 10
0.453456
 20
0.000000
 30
-0.066528
 11
0.015953
 21
-0.413128
 31
0.179578
 12
-0.133684
 22
-0.326734
 32
0.350888
 13
-0.133684
 23
-0.326734
 33
0.350888
 62
0
  0
3DFACE
  8
Cylinder
 10
-0.123069
 20
-0.998570
 30
-0.066527
 11
-0.699599
 21
-0.826245
 31
0.179578
 12
-0.699597
 22
-0.653460
 32
0.350886
 13
-0.699597
 23
-0.653460
 33
0.350886
 62
0
  0
3DFACE
  8
Cylinder
 10
-0.699597
 20
-0.653460
 30
0.350886
 11
-0.699599
 21
-0.826245
 31
0.179578
 12
-1.276118
 22
-0.998569
 32
-0.066528
 13
-1.276118
 23
-0.998569
 33
-0.066528
 62
0
  0
3DFACE
  8
Cylinder
 10
-1.276118
 20
-0.998569
 30
-0.066528
 11
-1.415144
 21
-0.413120
 31
0.179577
 12
-1.265506
 22
-0.326729
 32
0.350886
 13
-1.265506
 23
-0.326729
 33
0.350886
 62
0
  0
3DFACE
  8
Cylinder
 10
-1.265506
 20
-0.326729
 30
0.350886
 11
-1.415144
 21
-0.413120
 31
0.179577
 12
-1.852642
 22
0.000000
 32
-0.066527
 13
-1.852642
 23
0.000000
 33
-0.066527
 62
0
  0
3DFACE
  8
Cylinder
 10
-1.514777
 20
-0.000000
 30
0.182763
 11
-1.852642
 21
0.000000
 31
-0.066527
 12
-1.265502
 22
0.326724
 32
0.350891
 13
-1.265502
 23
0.326724
 33
0.350891
 62
0
  0
3DFACE
  8
Cylinder
 10
-0.133684
 20
-0.326734
 30
0.350888
 11
-0.123069
 21
-0.998570
 31
-0.066527
 12
-0.291999
 22
-0.705974
 32
0.182760
 13
-0.291999
 23
-0.705974
 33
0.182760
 62
0
  0
3DFACE
  8
Cylinder
 10
-1.265502
 20
0.326724
 30
0.350891
 11
-1.276117
 21
0.998570
 31
-0.066527
 12
-1.107183
 22
0.705966
 32
0.182766
 13
-1.107183
 23
0.705966
 33
0.182766
 62
0
  0
3DFACE
  8
Cylinder
 10
-1.265502
 20
0.326724
 30
0.350891
 11
-1.107183
 21
0.705966
 31
0.182766
 12
-0.699588
 22
0.653453
 32
0.350892
 13
-0.699588
 23
0.653453
 33
0.350892
 62
0
  0
3DFACE
  8
Cylinder
 10
-0.133684
 20
-0.326734
 30
0.350888
 11
-0.699597
 21
-0.653460
 31
0.350886
 12
-1.265506
 22
-0.326729
 32
0.350886
 13
-1.265506
 23
-0.326729
 33
0.350886
 62
0
  0
3DFACE
  8
Cylinder
 10
-1.265502
 20
0.326724
 30
0.350891
 11
-0.133684
 21
-0.326734
 31
0.350888
 12
-1.265506
 22
-0.326729
 32
0.350886
 13
-1.265506
 23
-0.326729
 33
0.350886
 62
0
  0
3DFACE
  8
Cylinder
 10
-0.133683
 20
0.326720
 30
0.350892
 11
-0.133684
 21
-0.326734
 31
0.350888
 12
-1.265502
 22
0.326724
 32
0.350891
 13
-1.265502
 23
0.326724
 33
0.350891
 62
0
  0
3DFACE
  8
Cylinder
 10
-0.699588
 20
0.653453
 30
0.350892
 11
-0.133683
 21
0.326720
 31
0.350892
 12
-1.265502
 22
0.326724
 32
0.350891
 13
-1.265502
 23
0.326724
 33
0.350891
 62
0
  0
3DFACE
  8
Cylinder
 10
-0.699588
 20
0.653453
 30
0.350892
 11
-0.292005
 21
0.705963
 31
0.182768
 12
-0.133683
 22
0.326720
 32
0.350892
 13
-0.133683
 23
0.326720
 33
0.350892
 62
0
  0
3DFACE
  8
Cylinder
 10
0.115590
 20
-0.000000
 30
0.182764
 11
0.453456
 21
0.000000
 31
-0.066528
 12
-0.133684
 22
-0.326734
 32
0.350888
 13
-0.133684
 23
-0.326734
 33
0.350888
 62
0
  0
3DFACE
  8
Cylinder
 10
-0.133684
 20
-0.326734
 30
0.350888
 11
-0.133683
 21
0.326720
 31
0.350892
 12
0.115590
 22
-0.000000
 32
0.182764
 13
0.115590
 23
-0.000000
 33
0.182764
 62
0
  0
3DFACE
  8
Cylinder
 10
-0.291999
 20
-0.705974
 30
0.182760
 11
-0.123069
 21
-0.998570
 31
-0.066527
 12
-0.699597
 22
-0.653460
 32
0.350886
 13
-0.699597
 23
-0.653460
 33
0.350886
 62
0
  0
3DFACE
  8
Cylinder
 10
-1.107184
 20
-0.705969
 30
0.182764
 11
-1.276118
 21
-0.998569
 31
-0.066528
 12
-1.265506
 22
-0.326729
 32
0.350886
 13
-1.265506
 23
-0.326729
 33
0.350886
 62
0
  0
3DFACE
  8
Cylinder
 10
-0.699597
 20
-0.653460
 30
0.350886
 11
-0.133684
 21
-0.326734
 31
0.350888
 12
-0.291999
 22
-0.705974
 32
0.182760
 13
-0.291999
 23
-0.705974
 33
0.182760
 62
0
  0
3DFACE
  8
Cylinder
 10
-0.699597
 20
-0.653460
 30
0.350886
 11
-1.276118
 21
-0.998569
 31
-0.066528
 12
-1.107184
 22
-0.705969
 32
0.182764
 13
-1.107184
 23
-0.705969
 33
0.182764
 62
0
  0
3DFACE
  8
Cylinder
 10
-1.107184
 20
-0.705969
 30
0.182764
 11
-1.265506
 21
-0.326729
 31
0.350886
 12
-0.699597
 22
-0.653460
 32
0.350886
 13
-0.699597
 23
-0.653460
 33
0.350886
 62
0
  0
3DFACE
  8
Cylinder
 10
-1.265506
 20
-0.326729
 30
0.350886
 11
-1.852642
 21
0.000000
 31
-0.066527
 12
-1.514777
 22
-0.000000
 32
0.182763
 13
-1.514777
 23
-0.000000
 33
0.182763
 62
0
  0
3DFACE
  8
Cylinder
 10
-1.514777
 20
-0.000000
 30
0.182763
 11
-1.265502
 21
0.326724
 31
0.350891
 12
-1.265506
 22
-0.326729
 32
0.350886
 13
-1.265506
 23
-0.326729
 33
0.350886
 62
0
 0
ENDSEC
 0
EOF
