  0
SECTION
  2
HEADER
  0
ENDSEC
  0
SECTION
  2
TABLES
  0
TABLE
  2
LAYER
  70
    153
  0
LAYER
  2
NoName1
 70
0
 62
15
  6
CONTINUOUS
  0
ENDTAB
  0
ENDSEC
  0
SECTION
  2
ENTITIES
  0
3DFACE
  8
NoName1
 10
-1.490535
 20
-3.815998
 30
-0.392490
 11
-1.084929
 21
-2.916671
 31
0.255648
 12
-0.751514
 22
-3.944717
 32
-0.392491
 13
-0.751514
 23
-3.944717
 33
-0.392491
 62
0
  0
3DFACE
  8
NoName1
 10
2.168565
 20
2.460927
 30
-0.392464
 11
1.586078
 21
1.665220
 31
0.255667
 12
1.610894
 22
3.044424
 32
-0.392461
 13
1.610894
 23
3.044424
 33
-0.392461
 62
0
  0
3DFACE
  8
NoName1
 10
3.822782
 20
-0.971339
 30
-0.392478
 11
2.673575
 21
-0.246084
 31
0.255659
 12
3.658364
 22
-0.157449
 32
-0.392475
 13
3.658364
 23
-0.157449
 33
-0.392475
 62
0
  0
3DFACE
  8
NoName1
 10
3.994677
 20
-2.611606
 30
-0.392485
 11
3.036242
 21
-2.307441
 31
0.255649
 12
3.016325
 22
-1.775113
 32
0.255654
 13
3.975662
 23
-1.858837
 33
-0.392482
 62
0
  0
3DFACE
  8
NoName1
 10
3.757501
 20
-3.021312
 30
-0.392487
 11
3.036242
 21
-2.307441
 31
0.255649
 12
3.994677
 22
-2.611606
 32
-0.392485
 13
3.994677
 23
-2.611606
 33
-0.392485
 62
0
  0
3DFACE
  8
NoName1
 10
2.275331
 20
-3.678611
 30
-0.392490
 11
2.564640
 21
-2.548368
 31
0.255648
 12
3.128536
 22
-3.336828
 32
-0.392488
 13
3.128536
 23
-3.336828
 33
-0.392488
 62
0
  0
3DFACE
  8
NoName1
 10
-3.624823
 20
-0.007870
 30
-0.426894
 11
-3.624918
 21
-0.007923
 31
-0.392474
 12
-3.830344
 22
-0.831223
 32
-0.392478
 13
-3.830247
 23
-0.831168
 33
-0.426903
 62
0
  0
3DFACE
  8
NoName1
 10
-3.013947
 20
1.266966
 30
-0.426880
 11
-3.014036
 21
1.266916
 31
-0.392469
 12
-3.330516
 22
0.666543
 32
-0.392471
 13
-3.330424
 23
0.666594
 33
-0.426887
 62
0
  0
3DFACE
  8
NoName1
 10
-2.134079
 20
2.552668
 30
-0.426867
 11
-2.134159
 21
2.552622
 31
-0.392463
 12
-2.596242
 22
1.969108
 32
-0.392466
 13
-2.596157
 23
1.969156
 33
-0.426873
 62
0
  0
3DFACE
  8
NoName1
 10
-1.571353
 20
3.090462
 30
-0.426861
 11
-1.571428
 21
3.090416
 31
-0.392461
 12
-2.134159
 22
2.552622
 32
-0.392463
 13
-2.134079
 23
2.552668
 33
-0.426867
 62
0
  0
3DFACE
  8
NoName1
 10
-0.188730
 20
3.993767
 30
-0.427911
 11
-0.188974
 21
3.999989
 31
-0.392457
 12
-0.851555
 22
3.684959
 32
-0.392458
 13
-0.851488
 23
3.685004
 33
-0.426855
 62
0
  0
3DFACE
  8
NoName1
 10
0.907667
 20
3.644826
 30
-0.426857
 11
0.907619
 21
3.644780
 31
-0.392458
 12
0.236829
 22
3.993835
 32
-0.392457
 13
0.236848
 23
3.987625
 33
-0.427924
 62
0
  0
3DFACE
  8
NoName1
 10
0.236848
 20
3.987625
 30
-0.427924
 11
0.236829
 21
3.993835
 31
-0.392457
 12
-0.188974
 22
3.999989
 32
-0.392457
 13
-0.188730
 23
3.993767
 33
-0.427911
 62
0
  0
3DFACE
  8
NoName1
 10
2.168599
 20
2.460977
 30
-0.426870
 11
2.168565
 21
2.460927
 31
-0.392464
 12
1.610894
 22
3.044424
 32
-0.392461
 13
1.610934
 23
3.044472
 33
-0.426863
 62
0
  0
3DFACE
  8
NoName1
 10
3.822796
 20
-0.971280
 30
-0.426908
 11
3.822782
 21
-0.971339
 31
-0.392478
 12
3.658364
 22
-0.157449
 32
-0.392475
 13
3.658380
 23
-0.157392
 33
-0.426899
 62
0
  0
3DFACE
  8
NoName1
 10
3.975674
 20
-1.858775
 30
-0.426918
 11
3.975662
 21
-1.858837
 31
-0.392482
 12
3.822782
 22
-0.971339
 32
-0.392478
 13
3.822796
 23
-0.971280
 33
-0.426908
 62
0
  0
3DFACE
  8
NoName1
 10
3.381512
 20
0.569593
 30
-0.426891
 11
3.381493
 21
0.569538
 31
-0.392472
 12
3.059534
 22
1.238157
 32
-0.392469
 13
3.059557
 23
1.238210
 33
-0.426884
 62
0
  0
3DFACE
  8
NoName1
 10
3.059557
 20
1.238210
 30
-0.426884
 11
3.059534
 21
1.238157
 31
-0.392469
 12
2.636660
 22
1.893480
 32
-0.392466
 13
2.636688
 23
1.893531
 33
-0.426876
 62
0
  0
3DFACE
  8
NoName1
 10
-3.830247
 20
-0.831168
 30
-0.426903
 11
-3.830344
 21
-0.831223
 31
-0.392478
 12
-3.980141
 22
-1.743855
 32
-0.392482
 13
-3.980043
 23
-1.743799
 33
-0.426912
 62
0
  0
3DFACE
  8
NoName1
 10
-3.994675
 20
-2.481385
 30
-0.392485
 11
-3.772633
 21
-2.941992
 31
-0.392487
 12
-3.770612
 22
-2.942107
 32
-0.427148
 13
-3.992484
 23
-2.481582
 33
-0.426944
 62
0
  0
3DFACE
  8
NoName1
 10
-3.770612
 20
-2.942107
 30
-0.427148
 11
-3.772633
 21
-2.941992
 31
-0.392487
 12
-3.135259
 22
-3.246300
 32
-0.392488
 13
-3.135171
 23
-3.246239
 33
-0.426929
 62
0
  0
3DFACE
  8
NoName1
 10
-3.135171
 20
-3.246239
 30
-0.426929
 11
-3.135259
 21
-3.246300
 31
-0.392488
 12
-2.251633
 22
-3.613186
 32
-0.392490
 13
-2.251555
 23
-3.613123
 33
-0.426933
 62
0
  0
3DFACE
  8
NoName1
 10
-1.490465
 20
-3.815934
 30
-0.426936
 11
-1.490535
 21
-3.815998
 31
-0.392490
 12
-0.751514
 22
-3.944717
 32
-0.392491
 13
-0.751452
 23
-3.944653
 33
-0.426938
 62
0
  0
3DFACE
  8
NoName1
 10
-0.751452
 20
-3.944653
 30
-0.426938
 11
-0.751514
 21
-3.944717
 31
-0.392491
 12
0.010251
 22
-3.999991
 32
-0.392491
 13
0.010304
 23
-3.999926
 33
-0.426939
 62
0
  0
3DFACE
  8
NoName1
 10
0.783487
 20
-3.996411
 30
-0.392491
 11
1.123154
 21
-2.969842
 31
0.255647
 12
1.554805
 22
-3.887720
 32
-0.392491
 13
1.554805
 23
-3.887720
 33
-0.392491
 62
0
  0
3DFACE
  8
NoName1
 10
1.554805
 20
-3.887720
 30
-0.392491
 11
1.123154
 21
-2.969842
 31
0.255647
 12
2.275331
 22
-3.678611
 32
-0.392490
 13
2.275331
 23
-3.678611
 33
-0.392490
 62
0
  0
3DFACE
  8
NoName1
 10
-2.134159
 20
2.552622
 30
-0.392463
 11
-1.554751
 21
1.732152
 31
0.255667
 12
-2.596242
 22
1.969108
 32
-0.392466
 13
-2.596242
 23
1.969108
 33
-0.392466
 62
0
  0
3DFACE
  8
NoName1
 10
-2.596242
 20
1.969108
 30
-0.392466
 11
-2.197028
 21
0.793641
 31
0.255663
 12
-3.014036
 22
1.266916
 32
-0.392469
 13
-3.014036
 23
1.266916
 33
-0.392469
 62
0
  0
3DFACE
  8
NoName1
 10
-3.014036
 20
1.266916
 30
-0.392469
 11
-2.197028
 21
0.793641
 31
0.255663
 12
-3.330516
 22
0.666543
 32
-0.392471
 13
-3.330516
 23
0.666543
 33
-0.392471
 62
0
  0
3DFACE
  8
NoName1
 10
-0.751514
 20
-3.944717
 30
-0.392491
 11
0.010589
 21
-3.050977
 31
0.255647
 12
0.010251
 22
-3.999991
 32
-0.392491
 13
0.010251
 23
-3.999991
 33
-0.392491
 62
0
  0
3DFACE
  8
NoName1
 10
-0.804795
 20
1.824901
 30
0.392482
 11
0.021149
 21
2.329045
 31
0.392485
 12
0.726411
 22
1.843987
 32
0.392483
 13
0.726411
 23
1.843987
 33
0.392483
 62
0
  0
3DFACE
  8
NoName1
 10
-1.258178
 20
1.312191
 30
0.392480
 11
-0.804795
 21
1.824901
 31
0.392482
 12
0.726411
 22
1.843987
 32
0.392483
 13
0.726411
 23
1.843987
 33
0.392483
 62
0
  0
3DFACE
  8
NoName1
 10
1.287930
 20
1.257933
 30
0.392479
 11
-1.258178
 21
1.312191
 31
0.392480
 12
0.726411
 22
1.843987
 32
0.392483
 13
0.726411
 23
1.843987
 33
0.392483
 62
0
  0
3DFACE
  8
NoName1
 10
-1.531613
 20
0.966906
 30
0.392478
 11
-1.258178
 21
1.312191
 31
0.392480
 12
1.287930
 22
1.257933
 32
0.392479
 13
1.287930
 23
1.257933
 33
0.392479
 62
0
  0
3DFACE
  8
NoName1
 10
1.564922
 20
0.922154
 30
0.392478
 11
-1.531613
 21
0.966906
 31
0.392478
 12
1.287930
 22
1.257933
 32
0.392479
 13
1.287930
 23
1.257933
 33
0.392479
 62
0
  0
3DFACE
  8
NoName1
 10
-1.778840
 20
0.551394
 30
0.392476
 11
-1.531613
 21
0.966906
 31
0.392478
 12
1.564922
 22
0.922154
 32
0.392478
 13
1.564922
 23
0.922154
 33
0.392478
 62
0
  0
3DFACE
  8
NoName1
 10
1.815154
 20
0.534377
 30
0.392476
 11
-1.778840
 21
0.551394
 31
0.392476
 12
1.564922
 22
0.922154
 32
0.392478
 13
1.564922
 23
0.922154
 33
0.392478
 62
0
  0
3DFACE
  8
NoName1
 10
-1.966115
 20
0.196132
 30
0.392475
 11
-1.778840
 21
0.551394
 31
0.392476
 12
1.815154
 22
0.534377
 32
0.392476
 13
1.815154
 23
0.534377
 33
0.392476
 62
0
  0
3DFACE
  8
NoName1
 10
2.005672
 20
0.138731
 30
0.392475
 11
-1.966115
 21
0.196132
 31
0.392475
 12
1.815154
 22
0.534377
 32
0.392476
 13
1.815154
 23
0.534377
 33
0.392476
 62
0
  0
3DFACE
  8
NoName1
 10
-2.140326
 20
-0.202974
 30
0.392473
 11
-1.966115
 21
0.196132
 31
0.392475
 12
2.005672
 22
0.138731
 32
0.392475
 13
2.005672
 23
0.138731
 33
0.392475
 62
0
  0
3DFACE
  8
NoName1
 10
2.169509
 20
-0.291453
 30
0.392473
 11
-2.140326
 21
-0.202974
 31
0.392473
 12
2.005672
 22
0.138731
 32
0.392475
 13
2.005672
 23
0.138731
 33
0.392475
 62
0
  0
3DFACE
  8
NoName1
 10
-2.354495
 20
-0.958711
 30
0.392469
 11
-2.140326
 21
-0.202974
 31
0.392473
 12
2.169509
 22
-0.291453
 32
0.392473
 13
2.169509
 23
-0.291453
 33
0.392473
 62
0
  0
3DFACE
  8
NoName1
 10
2.405716
 20
-1.078668
 30
0.392470
 11
-2.354495
 21
-0.958711
 31
0.392469
 12
2.169509
 22
-0.291453
 32
0.392473
 13
2.169509
 23
-0.291453
 33
0.392473
 62
0
  0
3DFACE
  8
NoName1
 10
-2.459018
 20
-1.912806
 30
0.392467
 11
-2.354495
 21
-0.958711
 31
0.392469
 12
2.405716
 22
-1.078668
 32
0.392470
 13
2.405716
 23
-1.078668
 33
0.392470
 62
0
  0
3DFACE
  8
NoName1
 10
2.529470
 20
-2.032291
 30
0.392465
 11
-2.459018
 21
-1.912806
 31
0.392467
 12
2.405716
 22
-1.078668
 32
0.392470
 13
2.405716
 23
-1.078668
 33
0.392470
 62
0
  0
3DFACE
  8
NoName1
 10
-1.624036
 20
-2.262248
 30
0.392464
 11
-2.459018
 21
-1.912806
 31
0.392467
 12
2.529470
 22
-2.032291
 32
0.392465
 13
2.529470
 23
-2.032291
 33
0.392465
 62
0
  0
3DFACE
  8
NoName1
 10
1.721536
 20
-2.365783
 30
0.392464
 11
-1.624036
 21
-2.262248
 31
0.392464
 12
2.529470
 22
-2.032291
 32
0.392465
 13
2.529470
 23
-2.032291
 33
0.392465
 62
0
  0
3DFACE
  8
NoName1
 10
-0.877318
 20
-2.456346
 30
0.392464
 11
-1.624036
 21
-2.262248
 31
0.392464
 12
1.721536
 22
-2.365783
 32
0.392464
 13
1.721536
 23
-2.365783
 33
0.392464
 62
0
  0
3DFACE
  8
NoName1
 10
0.886486
 20
-2.473107
 30
0.392464
 11
-0.877318
 21
-2.456346
 31
0.392464
 12
1.721536
 22
-2.365783
 32
0.392464
 13
1.721536
 23
-2.365783
 33
0.392464
 62
0
  0
3DFACE
  8
NoName1
 10
-0.440008
 20
-2.532514
 30
0.392463
 11
-0.877318
 21
-2.456346
 31
0.392464
 12
0.886486
 22
-2.473107
 32
0.392464
 13
0.886486
 23
-2.473107
 33
0.392464
 62
0
  0
3DFACE
  8
NoName1
 10
0.468319
 20
-2.563103
 30
0.392463
 11
-0.440008
 21
-2.532514
 31
0.392463
 12
0.886486
 22
-2.473107
 32
0.392464
 13
0.886486
 23
-2.473107
 33
0.392464
 62
0
  0
3DFACE
  8
NoName1
 10
0.010761
 20
-2.565221
 30
0.392463
 11
-0.440008
 21
-2.532514
 31
0.392463
 12
0.468319
 22
-2.563103
 32
0.392463
 13
0.468319
 23
-2.563103
 33
0.392463
 62
0
  0
3DFACE
  8
NoName1
 10
-0.377717
 20
2.651315
 30
0.255662
 11
0.011311
 21
2.980896
 31
0.255677
 12
0.021149
 22
2.329045
 32
0.392485
 13
0.021149
 23
2.329045
 33
0.392485
 62
0
  0
3DFACE
  8
NoName1
 10
0.021149
 20
2.329045
 30
0.392485
 11
-0.804795
 21
1.824901
 31
0.392482
 12
-0.377717
 22
2.651315
 32
0.255662
 13
-0.377717
 23
2.651315
 33
0.255662
 62
0
  0
3DFACE
  8
NoName1
 10
-1.258178
 20
1.312191
 30
0.392480
 11
-1.554751
 21
1.732152
 31
0.255667
 12
-0.804795
 22
1.824901
 32
0.392482
 13
-0.804795
 23
1.824901
 33
0.392482
 62
0
  0
3DFACE
  8
NoName1
 10
-1.531613
 20
0.966906
 30
0.392478
 11
-2.197028
 21
0.793641
 31
0.255663
 12
-1.554751
 22
1.732152
 32
0.255667
 13
-1.554751
 23
1.732152
 33
0.255667
 62
0
  0
3DFACE
  8
NoName1
 10
-1.778840
 20
0.551394
 30
0.392476
 11
-2.197028
 21
0.793641
 31
0.255663
 12
-1.531613
 22
0.966906
 32
0.392478
 13
-1.531613
 23
0.966906
 33
0.392478
 62
0
  0
3DFACE
  8
NoName1
 10
-1.966115
 20
0.196132
 30
0.392475
 11
-2.642949
 21
-0.136937
 31
0.255659
 12
-2.197028
 22
0.793641
 32
0.255663
 13
-2.197028
 23
0.793641
 33
0.255663
 62
0
  0
3DFACE
  8
NoName1
 10
-2.140326
 20
-0.202974
 30
0.392473
 11
-2.642949
 21
-0.136937
 31
0.255659
 12
-1.966115
 22
0.196132
 32
0.392475
 13
-1.966115
 23
0.196132
 33
0.392475
 62
0
  0
3DFACE
  8
NoName1
 10
-2.354495
 20
-0.958711
 30
0.392469
 11
-2.939295
 21
-1.718961
 31
0.255656
 12
-2.642949
 22
-0.136937
 32
0.255659
 13
-2.642949
 23
-0.136937
 33
0.255659
 62
0
  0
3DFACE
  8
NoName1
 10
-2.459018
 20
-1.912806
 30
0.392467
 11
-2.939295
 21
-1.718961
 31
0.255656
 12
-2.354495
 22
-0.958711
 32
0.392469
 13
-2.354495
 23
-0.958711
 33
0.392469
 62
0
  0
3DFACE
  8
NoName1
 10
-2.952203
 20
-2.221691
 30
0.255645
 11
-2.939295
 21
-1.718961
 31
0.255656
 12
-2.459018
 22
-1.912806
 32
0.392467
 13
-2.459018
 23
-1.912806
 33
0.392467
 62
0
  0
3DFACE
  8
NoName1
 10
-2.452211
 20
-2.473028
 30
0.255652
 11
-2.952203
 21
-2.221691
 31
0.255645
 12
-2.459018
 22
-1.912806
 32
0.392467
 13
-2.459018
 23
-1.912806
 33
0.392467
 62
0
  0
3DFACE
  8
NoName1
 10
-1.624036
 20
-2.262248
 30
0.392464
 11
-1.084929
 21
-2.916671
 31
0.255648
 12
-2.452211
 22
-2.473028
 32
0.255652
 13
-2.452211
 23
-2.473028
 33
0.255652
 62
0
  0
3DFACE
  8
NoName1
 10
-0.440008
 20
-2.532514
 30
0.392463
 11
0.010589
 21
-3.050977
 31
0.255647
 12
-1.084929
 22
-2.916671
 32
0.255648
 13
-1.084929
 23
-2.916671
 33
0.255648
 62
0
  0
3DFACE
  8
NoName1
 10
0.468319
 20
-2.563103
 30
0.392463
 11
1.123154
 21
-2.969842
 31
0.255647
 12
0.010589
 22
-3.050977
 32
0.255647
 13
0.010589
 23
-3.050977
 33
0.255647
 62
0
  0
3DFACE
  8
NoName1
 10
1.721536
 20
-2.365783
 30
0.392464
 11
2.564640
 21
-2.548368
 31
0.255648
 12
1.123154
 22
-2.969842
 32
0.255647
 13
1.123154
 23
-2.969842
 33
0.255647
 62
0
  0
3DFACE
  8
NoName1
 10
3.036242
 20
-2.307441
 30
0.255649
 11
2.564640
 21
-2.548368
 31
0.255648
 12
2.529470
 22
-2.032291
 32
0.392465
 13
2.529470
 23
-2.032291
 33
0.392465
 62
0
  0
3DFACE
  8
NoName1
 10
3.016325
 20
-1.775113
 30
0.255654
 11
3.036242
 21
-2.307441
 31
0.255649
 12
2.529470
 22
-2.032291
 32
0.392465
 13
2.529470
 23
-2.032291
 33
0.392465
 62
0
  0
3DFACE
  8
NoName1
 10
2.529470
 20
-2.032291
 30
0.392465
 11
2.405716
 21
-1.078668
 31
0.392470
 12
3.016325
 22
-1.775113
 32
0.255654
 13
3.016325
 23
-1.775113
 33
0.255654
 62
0
  0
3DFACE
  8
NoName1
 10
2.169509
 20
-0.291453
 30
0.392473
 11
2.005672
 21
0.138731
 31
0.392475
 12
2.673575
 22
-0.246084
 32
0.255659
 13
2.673575
 23
-0.246084
 33
0.255659
 62
0
  0
3DFACE
  8
NoName1
 10
1.815154
 20
0.534377
 30
0.392476
 11
1.564922
 21
0.922154
 31
0.392478
 12
2.236451
 22
0.772649
 32
0.255663
 13
2.236451
 23
0.772649
 33
0.255663
 62
0
  0
3DFACE
  8
NoName1
 10
1.287930
 20
1.257933
 30
0.392479
 11
0.726411
 21
1.843987
 31
0.392483
 12
1.586078
 22
1.665220
 32
0.255667
 13
1.586078
 23
1.665220
 33
0.255667
 62
0
  0
3DFACE
  8
NoName1
 10
0.021149
 20
2.329045
 30
0.392485
 11
0.415594
 21
2.696080
 31
0.255676
 12
0.726411
 22
1.843987
 32
0.392483
 13
0.726411
 23
1.843987
 33
0.392483
 62
0
  0
3DFACE
  8
NoName1
 10
0.011311
 20
2.980896
 30
0.255677
 11
0.415594
 21
2.696080
 31
0.255676
 12
0.021149
 22
2.329045
 32
0.392485
 13
0.021149
 23
2.329045
 33
0.392485
 62
0
  0
3DFACE
  8
NoName1
 10
-0.188974
 20
3.999989
 30
-0.392457
 11
0.011311
 21
2.980896
 31
0.255677
 12
-0.377717
 22
2.651315
 32
0.255662
 13
-0.851555
 23
3.684959
 33
-0.392458
 62
0
  0
3DFACE
  8
NoName1
 10
0.236829
 20
3.993835
 30
-0.392457
 11
0.011311
 21
2.980896
 31
0.255677
 12
-0.188974
 22
3.999989
 32
-0.392457
 13
-0.188974
 23
3.999989
 33
-0.392457
 62
0
  0
3DFACE
  8
NoName1
 10
0.907619
 20
3.644780
 30
-0.392458
 11
0.415594
 21
2.696080
 31
0.255676
 12
0.011311
 22
2.980896
 32
0.255677
 13
0.236829
 23
3.993835
 33
-0.392457
 62
0
  0
3DFACE
  8
NoName1
 10
1.610894
 20
3.044424
 30
-0.392461
 11
0.415594
 21
2.696080
 31
0.255676
 12
0.907619
 22
3.644780
 32
-0.392458
 13
0.907619
 23
3.644780
 33
-0.392458
 62
0
  0
3DFACE
  8
NoName1
 10
2.636660
 20
1.893480
 30
-0.392466
 11
1.586078
 21
1.665220
 31
0.255667
 12
2.168565
 22
2.460927
 32
-0.392464
 13
2.168565
 23
2.460927
 33
-0.392464
 62
0
  0
3DFACE
  8
NoName1
 10
3.059534
 20
1.238157
 30
-0.392469
 11
2.236451
 21
0.772649
 31
0.255663
 12
2.636660
 22
1.893480
 32
-0.392466
 13
2.636660
 23
1.893480
 33
-0.392466
 62
0
  0
3DFACE
  8
NoName1
 10
3.381493
 20
0.569538
 30
-0.392472
 11
2.236451
 21
0.772649
 31
0.255663
 12
3.059534
 22
1.238157
 32
-0.392469
 13
3.059534
 23
1.238157
 33
-0.392469
 62
0
  0
3DFACE
  8
NoName1
 10
3.658364
 20
-0.157449
 30
-0.392475
 11
2.673575
 21
-0.246084
 31
0.255659
 12
3.381493
 22
0.569538
 32
-0.392472
 13
3.381493
 23
0.569538
 33
-0.392472
 62
0
  0
3DFACE
  8
NoName1
 10
3.975662
 20
-1.858837
 30
-0.392482
 11
3.016325
 21
-1.775113
 31
0.255654
 12
3.822782
 22
-0.971339
 32
-0.392478
 13
3.822782
 23
-0.971339
 33
-0.392478
 62
0
  0
3DFACE
  8
NoName1
 10
3.128536
 20
-3.336828
 30
-0.392488
 11
2.564640
 21
-2.548368
 31
0.255648
 12
3.036242
 22
-2.307441
 32
0.255649
 13
3.757501
 23
-3.021312
 33
-0.392487
 62
0
  0
3DFACE
  8
NoName1
 10
-3.330424
 20
0.666594
 30
-0.426887
 11
-3.330516
 21
0.666543
 31
-0.392471
 12
-3.624918
 22
-0.007923
 32
-0.392474
 13
-3.624823
 23
-0.007870
 33
-0.426894
 62
0
  0
3DFACE
  8
NoName1
 10
-2.596157
 20
1.969156
 30
-0.426873
 11
-2.596242
 21
1.969108
 31
-0.392466
 12
-3.014036
 22
1.266916
 32
-0.392469
 13
-3.013947
 23
1.266966
 33
-0.426880
 62
0
  0
3DFACE
  8
NoName1
 10
-0.851488
 20
3.685004
 30
-0.426855
 11
-0.851555
 21
3.684959
 31
-0.392458
 12
-1.571428
 22
3.090416
 32
-0.392461
 13
-1.571353
 23
3.090462
 33
-0.426861
 62
0
  0
3DFACE
  8
NoName1
 10
1.610934
 20
3.044472
 30
-0.426863
 11
1.610894
 21
3.044424
 31
-0.392461
 12
0.907619
 22
3.644780
 32
-0.392458
 13
0.907667
 23
3.644826
 33
-0.426857
 62
0
  0
3DFACE
  8
NoName1
 10
3.658380
 20
-0.157392
 30
-0.426899
 11
3.658364
 21
-0.157449
 31
-0.392475
 12
3.381493
 22
0.569538
 32
-0.392472
 13
3.381512
 23
0.569593
 33
-0.426891
 62
0
  0
3DFACE
  8
NoName1
 10
2.636688
 20
1.893531
 30
-0.426876
 11
2.636660
 21
1.893480
 31
-0.392466
 12
2.168565
 22
2.460927
 32
-0.392464
 13
2.168599
 23
2.460977
 33
-0.426870
 62
0
  0
3DFACE
  8
NoName1
 10
-3.980043
 20
-1.743799
 30
-0.426912
 11
-3.980141
 21
-1.743855
 31
-0.392482
 12
-3.994675
 22
-2.481385
 32
-0.392485
 13
-3.992484
 23
-2.481582
 33
-0.426944
 62
0
  0
3DFACE
  8
NoName1
 10
-2.251555
 20
-3.613123
 30
-0.426933
 11
-2.251633
 21
-3.613186
 31
-0.392490
 12
-1.490535
 22
-3.815998
 32
-0.392490
 13
-1.490465
 23
-3.815934
 33
-0.426936
 62
0
  0
3DFACE
  8
NoName1
 10
0.010304
 20
-3.999926
 30
-0.426939
 11
0.010251
 21
-3.999991
 31
-0.392491
 12
0.783487
 22
-3.996411
 32
-0.392491
 13
0.783532
 23
-3.996346
 33
-0.426939
 62
0
  0
3DFACE
  8
NoName1
 10
-0.851555
 20
3.684959
 30
-0.392458
 11
-0.377717
 21
2.651315
 31
0.255662
 12
-1.571428
 22
3.090416
 32
-0.392461
 13
-1.571428
 23
3.090416
 33
-0.392461
 62
0
  0
3DFACE
  8
NoName1
 10
-1.571428
 20
3.090416
 30
-0.392461
 11
-1.554751
 21
1.732152
 31
0.255667
 12
-2.134159
 22
2.552622
 32
-0.392463
 13
-2.134159
 23
2.552622
 33
-0.392463
 62
0
  0
3DFACE
  8
NoName1
 10
-3.330516
 20
0.666543
 30
-0.392471
 11
-2.642949
 21
-0.136937
 31
0.255659
 12
-3.624918
 22
-0.007923
 32
-0.392474
 13
-3.624918
 23
-0.007923
 33
-0.392474
 62
0
  0
3DFACE
  8
NoName1
 10
-3.624918
 20
-0.007923
 30
-0.392474
 11
-2.642949
 21
-0.136937
 31
0.255659
 12
-3.830344
 22
-0.831223
 32
-0.392478
 13
-3.830344
 23
-0.831223
 33
-0.392478
 62
0
  0
3DFACE
  8
NoName1
 10
-3.830344
 20
-0.831223
 30
-0.392478
 11
-2.939295
 21
-1.718961
 31
0.255656
 12
-3.980141
 22
-1.743855
 32
-0.392482
 13
-3.980141
 23
-1.743855
 33
-0.392482
 62
0
  0
3DFACE
  8
NoName1
 10
-3.980141
 20
-1.743855
 30
-0.392482
 11
-2.939295
 21
-1.718961
 31
0.255656
 12
-2.952203
 22
-2.221691
 32
0.255645
 13
-3.994675
 23
-2.481385
 33
-0.392485
 62
0
  0
3DFACE
  8
NoName1
 10
-3.994675
 20
-2.481385
 30
-0.392485
 11
-2.952203
 21
-2.221691
 31
0.255645
 12
-3.772633
 22
-2.941992
 32
-0.392487
 13
-3.772633
 23
-2.941992
 33
-0.392487
 62
0
  0
3DFACE
  8
NoName1
 10
-3.772633
 20
-2.941992
 30
-0.392487
 11
-2.952203
 21
-2.221691
 31
0.255645
 12
-2.452211
 22
-2.473028
 32
0.255652
 13
-3.135259
 23
-3.246300
 33
-0.392488
 62
0
  0
3DFACE
  8
NoName1
 10
-3.135259
 20
-3.246300
 30
-0.392488
 11
-2.452211
 21
-2.473028
 31
0.255652
 12
-2.251633
 22
-3.613186
 32
-0.392490
 13
-2.251633
 23
-3.613186
 33
-0.392490
 62
0
  0
3DFACE
  8
NoName1
 10
-2.251633
 20
-3.613186
 30
-0.392490
 11
-1.084929
 21
-2.916671
 31
0.255648
 12
-1.490535
 22
-3.815998
 32
-0.392490
 13
-1.490535
 23
-3.815998
 33
-0.392490
 62
0
  0
3DFACE
  8
NoName1
 10
0.010251
 20
-3.999991
 30
-0.392491
 11
0.010589
 21
-3.050977
 31
0.255647
 12
0.783487
 22
-3.996411
 32
-0.392491
 13
0.783487
 23
-3.996411
 33
-0.392491
 62
0
  0
3DFACE
  8
NoName1
 10
0.236848
 20
3.987625
 30
-0.427924
 11
-0.188730
 21
3.993767
 31
-0.427911
 12
-0.000789
 22
-0.434270
 32
-4.679554
 13
-0.000789
 23
-0.434270
 33
-4.679554
 62
0
  0
3DFACE
  8
NoName1
 10
-0.851488
 20
3.685004
 30
-0.426855
 11
-0.850630
 21
3.684437
 31
-0.766916
 12
-0.188730
 22
3.993767
 32
-0.427911
 13
-0.188730
 23
3.993767
 33
-0.427911
 62
0
  0
3DFACE
  8
NoName1
 10
-1.571428
 20
3.090416
 30
-0.392461
 11
-0.377717
 21
2.651315
 31
0.255662
 12
-1.554751
 22
1.732152
 32
0.255667
 13
-1.554751
 23
1.732152
 33
0.255667
 62
0
  0
3DFACE
  8
NoName1
 10
-2.134079
 20
2.552668
 30
-0.426867
 11
-2.132126
 21
2.551789
 31
-1.143872
 12
-1.569582
 22
3.089329
 32
-1.007424
 13
-1.571353
 23
3.090462
 33
-0.426861
 62
0
  0
3DFACE
  8
NoName1
 10
-2.596242
 20
1.969108
 30
-0.392466
 11
-1.554751
 21
1.732152
 31
0.255667
 12
-2.197028
 22
0.793641
 32
0.255663
 13
-2.197028
 23
0.793641
 33
0.255663
 62
0
  0
3DFACE
  8
NoName1
 10
-3.013947
 20
1.266966
 30
-0.426880
 11
-3.011416
 21
1.266290
 31
-1.237543
 12
-2.592313
 22
1.967577
 32
-1.213426
 13
-2.596157
 23
1.969156
 33
-0.426873
 62
0
  0
3DFACE
  8
NoName1
 10
-3.330516
 20
0.666543
 30
-0.392471
 11
-2.197028
 21
0.793641
 31
0.255663
 12
-2.642949
 22
-0.136937
 32
0.255659
 13
-2.642949
 23
-0.136937
 33
0.255659
 62
0
  0
3DFACE
  8
NoName1
 10
-3.624823
 20
-0.007870
 30
-0.426894
 11
-3.621980
 21
-0.008276
 31
-1.145053
 12
-3.325563
 22
0.665322
 32
-1.214440
 13
-3.330424
 23
0.666594
 33
-0.426887
 62
0
  0
3DFACE
  8
NoName1
 10
-3.830344
 20
-0.831223
 30
-0.392478
 11
-2.642949
 21
-0.136937
 31
0.255659
 12
-2.939295
 22
-1.718961
 32
0.255656
 13
-2.939295
 23
-1.718961
 33
0.255656
 62
0
  0
3DFACE
  8
NoName1
 10
-3.980043
 20
-1.743799
 30
-0.426912
 11
-3.974292
 21
-1.744089
 31
-0.771771
 12
-3.827148
 22
-0.831428
 32
-1.009553
 13
-3.830247
 23
-0.831168
 33
-0.426903
 62
0
  0
3DFACE
  8
NoName1
 10
-3.974292
 20
-1.744089
 30
-0.771771
 11
-3.980043
 21
-1.743799
 31
-0.426912
 12
-3.992484
 22
-2.481582
 32
-0.426944
 13
-3.992484
 23
-2.481582
 33
-0.426944
 62
0
  0
3DFACE
  8
NoName1
 10
-3.135171
 20
-3.246239
 30
-0.426929
 11
-3.130413
 21
-3.245929
 31
-0.773241
 12
-3.770612
 22
-2.942107
 32
-0.427148
 13
-3.770612
 23
-2.942107
 33
-0.427148
 62
0
  0
3DFACE
  8
NoName1
 10
-2.251555
 20
-3.613123
 30
-0.426933
 11
-2.249689
 21
-3.613462
 31
-1.011204
 12
-3.130413
 22
-3.245929
 32
-0.773241
 13
-3.135171
 23
-3.246239
 33
-0.426929
 62
0
  0
3DFACE
  8
NoName1
 10
-1.490465
 20
-3.815934
 30
-0.426936
 11
-1.489279
 21
-3.815528
 31
-1.146988
 12
-2.249689
 22
-3.613462
 32
-1.011204
 13
-2.251555
 23
-3.613123
 33
-0.426933
 62
0
  0
3DFACE
  8
NoName1
 10
-0.751452
 20
-3.944653
 30
-0.426938
 11
-0.750518
 21
-3.944216
 31
-1.218413
 12
-1.489279
 22
-3.815528
 32
-1.146988
 13
-1.490465
 23
-3.815934
 33
-0.426936
 62
0
  0
3DFACE
  8
NoName1
 10
0.010304
 20
-3.999926
 30
-0.426939
 11
0.010287
 21
-3.999402
 31
-1.240139
 12
-0.750518
 22
-3.944216
 32
-1.218413
 13
-0.751452
 23
-3.944653
 33
-0.426938
 62
0
  0
3DFACE
  8
NoName1
 10
0.783532
 20
-3.996346
 30
-0.426939
 11
0.782380
 21
-3.995908
 31
-1.218576
 12
0.010287
 22
-3.999402
 32
-1.240139
 13
0.010304
 23
-3.999926
 33
-0.426939
 62
0
  0
3DFACE
  8
NoName1
 10
1.554842
 20
-3.887654
 30
-0.426938
 11
1.553616
 21
-3.887299
 31
-1.147136
 12
0.782380
 22
-3.995908
 32
-1.218576
 13
0.783532
 23
-3.996346
 33
-0.426939
 62
0
  0
3DFACE
  8
NoName1
 10
2.275360
 20
-3.678546
 30
-0.426936
 11
2.273397
 21
-3.678550
 31
-1.011466
 12
1.553616
 22
-3.887299
 32
-1.147136
 13
1.554842
 23
-3.887654
 33
-0.426938
 62
0
  0
3DFACE
  8
NoName1
 10
3.128556
 20
-3.336763
 30
-0.426933
 11
3.123679
 21
-3.336079
 31
-0.773816
 12
2.273397
 22
-3.678550
 32
-1.011466
 13
2.275360
 23
-3.678546
 33
-0.426936
 62
0
  0
3DFACE
  8
NoName1
 10
3.123679
 20
-3.336079
 30
-0.773816
 11
3.128556
 21
-3.336763
 31
-0.426933
 12
3.758581
 22
-3.022895
 32
-0.427322
 13
3.758581
 23
-3.022895
 33
-0.427322
 62
0
  0
3DFACE
  8
NoName1
 10
3.975674
 20
-1.858775
 30
-0.426918
 11
3.969964
 21
-1.858384
 31
-0.772473
 12
3.995617
 22
-2.613244
 32
-0.427168
 13
3.995617
 23
-2.613244
 33
-0.427168
 62
0
  0
3DFACE
  8
NoName1
 10
3.822796
 20
-0.971280
 30
-0.426908
 11
3.819765
 21
-0.971191
 31
-1.009978
 12
3.969964
 22
-1.858384
 32
-0.772473
 13
3.975674
 23
-1.858775
 33
-0.426918
 62
0
  0
3DFACE
  8
NoName1
 10
3.381512
 20
0.569593
 30
-0.426891
 11
3.377062
 21
0.568803
 31
-1.214973
 12
3.655789
 22
-0.157501
 32
-1.145404
 13
3.658380
 23
-0.157392
 33
-0.426899
 62
0
  0
3DFACE
  8
NoName1
 10
2.636688
 20
1.893531
 30
-0.426876
 11
2.633394
 21
1.892284
 31
-1.213827
 12
3.057469
 22
1.237804
 32
-1.237776
 13
3.059557
 23
1.238210
 33
-0.426884
 62
0
  0
3DFACE
  8
NoName1
 10
1.610934
 20
3.044472
 30
-0.426863
 11
1.609783
 21
3.043531
 31
-1.007580
 12
2.166976
 22
2.460124
 32
-1.144073
 13
2.168599
 23
2.460977
 33
-0.426870
 62
0
  0
3DFACE
  8
NoName1
 10
0.907501
 20
3.644079
 30
-0.767088
 11
0.907667
 21
3.644826
 31
-0.426857
 12
0.236848
 22
3.987625
 32
-0.427924
 13
0.236848
 23
3.987625
 33
-0.427924
 62
0
  0
3DFACE
  8
NoName1
 10
0.907667
 20
3.644826
 30
-0.426857
 11
0.907501
 21
3.644079
 31
-0.767088
 12
1.609783
 22
3.043531
 32
-1.007580
 13
1.610934
 23
3.044472
 33
-0.426863
 62
0
  0
3DFACE
  8
NoName1
 10
1.610894
 20
3.044424
 30
-0.392461
 11
1.586078
 21
1.665220
 31
0.255667
 12
0.415594
 22
2.696080
 32
0.255676
 13
0.415594
 23
2.696080
 33
0.255676
 62
0
  0
3DFACE
  8
NoName1
 10
2.168599
 20
2.460977
 30
-0.426870
 11
2.166976
 21
2.460124
 31
-1.144073
 12
2.633394
 22
1.892284
 32
-1.213827
 13
2.636688
 23
1.893531
 33
-0.426876
 62
0
  0
3DFACE
  8
NoName1
 10
2.636660
 20
1.893480
 30
-0.392466
 11
2.236451
 21
0.772649
 31
0.255663
 12
1.586078
 22
1.665220
 32
0.255667
 13
1.586078
 23
1.665220
 33
0.255667
 62
0
  0
3DFACE
  8
NoName1
 10
3.059557
 20
1.238210
 30
-0.426884
 11
3.057469
 21
1.237804
 31
-1.237776
 12
3.377062
 22
0.568803
 32
-1.214973
 13
3.381512
 23
0.569593
 33
-0.426891
 62
0
  0
3DFACE
  8
NoName1
 10
3.381493
 20
0.569538
 30
-0.392472
 11
2.673575
 21
-0.246084
 31
0.255659
 12
2.236451
 22
0.772649
 32
0.255663
 13
2.236451
 23
0.772649
 33
0.255663
 62
0
  0
3DFACE
  8
NoName1
 10
3.658380
 20
-0.157392
 30
-0.426899
 11
3.655789
 21
-0.157501
 31
-1.145404
 12
3.819765
 22
-0.971191
 32
-1.009978
 13
3.822796
 23
-0.971280
 33
-0.426908
 62
0
  0
3DFACE
  8
NoName1
 10
3.822782
 20
-0.971339
 30
-0.392478
 11
3.016325
 21
-1.775113
 31
0.255654
 12
2.673575
 22
-0.246084
 32
0.255659
 13
2.673575
 23
-0.246084
 33
0.255659
 62
0
  0
3DFACE
  8
NoName1
 10
2.405716
 20
-1.078668
 30
0.392470
 11
2.673575
 21
-0.246084
 31
0.255659
 12
3.016325
 22
-1.775113
 32
0.255654
 13
3.016325
 23
-1.775113
 33
0.255654
 62
0
  0
3DFACE
  8
NoName1
 10
2.169509
 20
-0.291453
 30
0.392473
 11
2.673575
 21
-0.246084
 31
0.255659
 12
2.405716
 22
-1.078668
 32
0.392470
 13
2.405716
 23
-1.078668
 33
0.392470
 62
0
  0
3DFACE
  8
NoName1
 10
2.005672
 20
0.138731
 30
0.392475
 11
2.236451
 21
0.772649
 31
0.255663
 12
2.673575
 22
-0.246084
 32
0.255659
 13
2.673575
 23
-0.246084
 33
0.255659
 62
0
  0
3DFACE
  8
NoName1
 10
1.815154
 20
0.534377
 30
0.392476
 11
2.236451
 21
0.772649
 31
0.255663
 12
2.005672
 22
0.138731
 32
0.392475
 13
2.005672
 23
0.138731
 33
0.392475
 62
0
  0
3DFACE
  8
NoName1
 10
1.564922
 20
0.922154
 30
0.392478
 11
1.586078
 21
1.665220
 31
0.255667
 12
2.236451
 22
0.772649
 32
0.255663
 13
2.236451
 23
0.772649
 33
0.255663
 62
0
  0
3DFACE
  8
NoName1
 10
1.287930
 20
1.257933
 30
0.392479
 11
1.586078
 21
1.665220
 31
0.255667
 12
1.564922
 22
0.922154
 32
0.392478
 13
1.564922
 23
0.922154
 33
0.392478
 62
0
  0
3DFACE
  8
NoName1
 10
0.726411
 20
1.843987
 30
0.392483
 11
0.415594
 21
2.696080
 31
0.255676
 12
1.586078
 22
1.665220
 32
0.255667
 13
1.586078
 23
1.665220
 33
0.255667
 62
0
  0
3DFACE
  8
NoName1
 10
2.275331
 20
-3.678611
 30
-0.392490
 11
1.123154
 21
-2.969842
 31
0.255647
 12
2.564640
 22
-2.548368
 32
0.255648
 13
2.564640
 23
-2.548368
 33
0.255648
 62
0
  0
3DFACE
  8
NoName1
 10
0.783487
 20
-3.996411
 30
-0.392491
 11
0.010589
 21
-3.050977
 31
0.255647
 12
1.123154
 22
-2.969842
 32
0.255647
 13
1.123154
 23
-2.969842
 33
0.255647
 62
0
  0
3DFACE
  8
NoName1
 10
-0.751514
 20
-3.944717
 30
-0.392491
 11
-1.084929
 21
-2.916671
 31
0.255648
 12
0.010589
 22
-3.050977
 32
0.255647
 13
0.010589
 23
-3.050977
 33
0.255647
 62
0
  0
3DFACE
  8
NoName1
 10
-2.251633
 20
-3.613186
 30
-0.392490
 11
-2.452211
 21
-2.473028
 31
0.255652
 12
-1.084929
 22
-2.916671
 32
0.255648
 13
-1.084929
 23
-2.916671
 33
0.255648
 62
0
  0
3DFACE
  8
NoName1
 10
-2.459018
 20
-1.912806
 30
0.392467
 11
-1.624036
 21
-2.262248
 31
0.392464
 12
-2.452211
 22
-2.473028
 32
0.255652
 13
-2.452211
 23
-2.473028
 33
0.255652
 62
0
  0
3DFACE
  8
NoName1
 10
-0.877318
 20
-2.456346
 30
0.392464
 11
-1.084929
 21
-2.916671
 31
0.255648
 12
-1.624036
 22
-2.262248
 32
0.392464
 13
-1.624036
 23
-2.262248
 33
0.392464
 62
0
  0
3DFACE
  8
NoName1
 10
-0.877318
 20
-2.456346
 30
0.392464
 11
-0.440008
 21
-2.532514
 31
0.392463
 12
-1.084929
 22
-2.916671
 32
0.255648
 13
-1.084929
 23
-2.916671
 33
0.255648
 62
0
  0
3DFACE
  8
NoName1
 10
0.010761
 20
-2.565221
 30
0.392463
 11
0.010589
 21
-3.050977
 31
0.255647
 12
-0.440008
 22
-2.532514
 32
0.392463
 13
-0.440008
 23
-2.532514
 33
0.392463
 62
0
  0
3DFACE
  8
NoName1
 10
0.010761
 20
-2.565221
 30
0.392463
 11
0.468319
 21
-2.563103
 31
0.392463
 12
0.010589
 22
-3.050977
 32
0.255647
 13
0.010589
 23
-3.050977
 33
0.255647
 62
0
  0
3DFACE
  8
NoName1
 10
0.886486
 20
-2.473107
 30
0.392464
 11
1.123154
 21
-2.969842
 31
0.255647
 12
0.468319
 22
-2.563103
 32
0.392463
 13
0.468319
 23
-2.563103
 33
0.392463
 62
0
  0
3DFACE
  8
NoName1
 10
0.886486
 20
-2.473107
 30
0.392464
 11
1.721536
 21
-2.365783
 31
0.392464
 12
1.123154
 22
-2.969842
 32
0.255647
 13
1.123154
 23
-2.969842
 33
0.255647
 62
0
  0
3DFACE
  8
NoName1
 10
2.529470
 20
-2.032291
 30
0.392465
 11
2.564640
 21
-2.548368
 31
0.255648
 12
1.721536
 22
-2.365783
 32
0.392464
 13
1.721536
 23
-2.365783
 33
0.392464
 62
0
  0
3DFACE
  8
NoName1
 10
-3.830247
 20
-0.831168
 30
-0.426903
 11
-3.827148
 21
-0.831428
 31
-1.009553
 12
-3.621980
 22
-0.008276
 32
-1.145053
 13
-3.624823
 23
-0.007870
 33
-0.426894
 62
0
  0
3DFACE
  8
NoName1
 10
-3.330424
 20
0.666594
 30
-0.426887
 11
-3.325563
 21
0.665322
 31
-1.214440
 12
-3.011416
 22
1.266290
 32
-1.237543
 13
-3.013947
 23
1.266966
 33
-0.426880
 62
0
  0
3DFACE
  8
NoName1
 10
-2.596157
 20
1.969156
 30
-0.426873
 11
-2.592313
 21
1.967577
 31
-1.213426
 12
-2.132126
 22
2.551789
 32
-1.143872
 13
-2.134079
 23
2.552668
 33
-0.426867
 62
0
  0
3DFACE
  8
NoName1
 10
-1.571353
 20
3.090462
 30
-0.426861
 11
-1.569582
 21
3.089329
 31
-1.007424
 12
-0.850630
 22
3.684437
 32
-0.766916
 13
-0.851488
 23
3.685004
 33
-0.426855
 62
0
  0
3DFACE
  8
NoName1
 10
-0.804795
 20
1.824901
 30
0.392482
 11
-1.554751
 21
1.732152
 31
0.255667
 12
-0.377717
 22
2.651315
 32
0.255662
 13
-0.377717
 23
2.651315
 33
0.255662
 62
0
  0
3DFACE
  8
NoName1
 10
-1.258178
 20
1.312191
 30
0.392480
 11
-1.531613
 21
0.966906
 31
0.392478
 12
-1.554751
 22
1.732152
 32
0.255667
 13
-1.554751
 23
1.732152
 33
0.255667
 62
0
  0
3DFACE
  8
NoName1
 10
-1.778840
 20
0.551394
 30
0.392476
 11
-1.966115
 21
0.196132
 31
0.392475
 12
-2.197028
 22
0.793641
 32
0.255663
 13
-2.197028
 23
0.793641
 33
0.255663
 62
0
  0
3DFACE
  8
NoName1
 10
-2.140326
 20
-0.202974
 30
0.392473
 11
-2.354495
 21
-0.958711
 31
0.392469
 12
-2.642949
 22
-0.136937
 32
0.255659
 13
-2.642949
 23
-0.136937
 33
0.255659
 62
0
  0
3DFACE
  8
NoName1
 10
3.995617
 20
-2.613244
 30
-0.427168
 11
3.994677
 21
-2.611606
 31
-0.392485
 12
3.975662
 22
-1.858837
 32
-0.392482
 13
3.975674
 23
-1.858775
 33
-0.426918
 62
0
  0
3DFACE
  8
NoName1
 10
3.758581
 20
-3.022895
 30
-0.427322
 11
3.757501
 21
-3.021312
 31
-0.392487
 12
3.994677
 22
-2.611606
 32
-0.392485
 13
3.995617
 23
-2.613244
 33
-0.427168
 62
0
  0
3DFACE
  8
NoName1
 10
3.128556
 20
-3.336763
 30
-0.426933
 11
3.128536
 21
-3.336828
 31
-0.392488
 12
3.757501
 22
-3.021312
 32
-0.392487
 13
3.758581
 23
-3.022895
 33
-0.427322
 62
0
  0
3DFACE
  8
NoName1
 10
2.275360
 20
-3.678546
 30
-0.426936
 11
2.275331
 21
-3.678611
 31
-0.392490
 12
3.128536
 22
-3.336828
 32
-0.392488
 13
3.128556
 23
-3.336763
 33
-0.426933
 62
0
  0
3DFACE
  8
NoName1
 10
1.554842
 20
-3.887654
 30
-0.426938
 11
1.554805
 21
-3.887720
 31
-0.392491
 12
2.275331
 22
-3.678611
 32
-0.392490
 13
2.275360
 23
-3.678546
 33
-0.426936
 62
0
  0
3DFACE
  8
NoName1
 10
0.783532
 20
-3.996346
 30
-0.426939
 11
0.783487
 21
-3.996411
 31
-0.392491
 12
1.554805
 22
-3.887720
 32
-0.392491
 13
1.554842
 23
-3.887654
 33
-0.426938
 62
0
  0
3DFACE
  8
NoName1
 10
3.819765
 20
-0.971191
 30
-1.009978
 11
3.655789
 21
-0.157501
 31
-1.145404
 12
-0.000789
 22
-0.434270
 32
-4.679554
 13
-0.000789
 23
-0.434270
 33
-4.679554
 62
0
  0
3DFACE
  8
NoName1
 10
-0.000789
 20
-0.434270
 30
-4.679554
 11
3.057469
 21
1.237804
 31
-1.237776
 12
2.633394
 22
1.892284
 32
-1.213827
 13
2.633394
 23
1.892284
 33
-1.213827
 62
0
  0
3DFACE
  8
NoName1
 10
3.758581
 20
-3.022895
 30
-0.427322
 11
3.995617
 21
-2.613244
 31
-0.427168
 12
-0.000789
 22
-0.434270
 32
-4.679554
 13
-0.000789
 23
-0.434270
 33
-4.679554
 62
0
  0
3DFACE
  8
NoName1
 10
3.655789
 20
-0.157501
 30
-1.145404
 11
3.377062
 21
0.568803
 31
-1.214973
 12
-0.000789
 22
-0.434270
 32
-4.679554
 13
-0.000789
 23
-0.434270
 33
-4.679554
 62
0
  0
3DFACE
  8
NoName1
 10
3.969964
 20
-1.858384
 30
-0.772473
 11
3.819765
 21
-0.971191
 31
-1.009978
 12
-0.000789
 22
-0.434270
 32
-4.679554
 13
-0.000789
 23
-0.434270
 33
-4.679554
 62
0
  0
3DFACE
  8
NoName1
 10
3.995617
 20
-2.613244
 30
-0.427168
 11
3.969964
 21
-1.858384
 31
-0.772473
 12
-0.000789
 22
-0.434270
 32
-4.679554
 13
-0.000789
 23
-0.434270
 33
-4.679554
 62
0
  0
3DFACE
  8
NoName1
 10
3.377062
 20
0.568803
 30
-1.214973
 11
3.057469
 21
1.237804
 31
-1.237776
 12
-0.000789
 22
-0.434270
 32
-4.679554
 13
-0.000789
 23
-0.434270
 33
-4.679554
 62
0
  0
3DFACE
  8
NoName1
 10
-0.000789
 20
-0.434270
 30
-4.679554
 11
-3.011416
 21
1.266290
 31
-1.237543
 12
-3.325563
 22
0.665322
 32
-1.214440
 13
-3.325563
 23
0.665322
 33
-1.214440
 62
0
  0
3DFACE
  8
NoName1
 10
3.123679
 20
-3.336079
 30
-0.773816
 11
3.758581
 21
-3.022895
 31
-0.427322
 12
-0.000789
 22
-0.434270
 32
-4.679554
 13
-0.000789
 23
-0.434270
 33
-4.679554
 62
0
  0
3DFACE
  8
NoName1
 10
2.273397
 20
-3.678550
 30
-1.011466
 11
3.123679
 21
-3.336079
 31
-0.773816
 12
-0.000789
 22
-0.434270
 32
-4.679554
 13
-0.000789
 23
-0.434270
 33
-4.679554
 62
0
  0
3DFACE
  8
NoName1
 10
1.553616
 20
-3.887299
 30
-1.147136
 11
2.273397
 21
-3.678550
 31
-1.011466
 12
-0.000789
 22
-0.434270
 32
-4.679554
 13
-0.000789
 23
-0.434270
 33
-4.679554
 62
0
  0
3DFACE
  8
NoName1
 10
0.782380
 20
-3.995908
 30
-1.218576
 11
1.553616
 21
-3.887299
 31
-1.147136
 12
-0.000789
 22
-0.434270
 32
-4.679554
 13
-0.000789
 23
-0.434270
 33
-4.679554
 62
0
  0
3DFACE
  8
NoName1
 10
-0.000789
 20
-0.434270
 30
-4.679554
 11
0.010287
 21
-3.999402
 31
-1.240139
 12
0.782380
 22
-3.995908
 32
-1.218576
 13
0.782380
 23
-3.995908
 33
-1.218576
 62
0
  0
3DFACE
  8
NoName1
 10
-0.750518
 20
-3.944216
 30
-1.218413
 11
0.010287
 21
-3.999402
 31
-1.240139
 12
-0.000789
 22
-0.434270
 32
-4.679554
 13
-0.000789
 23
-0.434270
 33
-4.679554
 62
0
  0
3DFACE
  8
NoName1
 10
-1.489279
 20
-3.815528
 30
-1.146988
 11
-0.750518
 21
-3.944216
 31
-1.218413
 12
-0.000789
 22
-0.434270
 32
-4.679554
 13
-0.000789
 23
-0.434270
 33
-4.679554
 62
0
  0
3DFACE
  8
NoName1
 10
-2.249689
 20
-3.613462
 30
-1.011204
 11
-1.489279
 21
-3.815528
 31
-1.146988
 12
-0.000789
 22
-0.434270
 32
-4.679554
 13
-0.000789
 23
-0.434270
 33
-4.679554
 62
0
  0
3DFACE
  8
NoName1
 10
-3.130413
 20
-3.245929
 30
-0.773241
 11
-2.249689
 21
-3.613462
 31
-1.011204
 12
-0.000789
 22
-0.434270
 32
-4.679554
 13
-0.000789
 23
-0.434270
 33
-4.679554
 62
0
  0
3DFACE
  8
NoName1
 10
-3.770612
 20
-2.942107
 30
-0.427148
 11
-3.130413
 21
-3.245929
 31
-0.773241
 12
-0.000789
 22
-0.434270
 32
-4.679554
 13
-0.000789
 23
-0.434270
 33
-4.679554
 62
0
  0
3DFACE
  8
NoName1
 10
-3.992484
 20
-2.481582
 30
-0.426944
 11
-3.770612
 21
-2.942107
 31
-0.427148
 12
-0.000789
 22
-0.434270
 32
-4.679554
 13
-0.000789
 23
-0.434270
 33
-4.679554
 62
0
  0
3DFACE
  8
NoName1
 10
-3.974292
 20
-1.744089
 30
-0.771771
 11
-3.992484
 21
-2.481582
 31
-0.426944
 12
-0.000789
 22
-0.434270
 32
-4.679554
 13
-0.000789
 23
-0.434270
 33
-4.679554
 62
0
  0
3DFACE
  8
NoName1
 10
-3.827148
 20
-0.831428
 30
-1.009553
 11
-3.974292
 21
-1.744089
 31
-0.771771
 12
-0.000789
 22
-0.434270
 32
-4.679554
 13
-0.000789
 23
-0.434270
 33
-4.679554
 62
0
  0
3DFACE
  8
NoName1
 10
-3.621980
 20
-0.008276
 30
-1.145053
 11
-3.827148
 21
-0.831428
 31
-1.009553
 12
-0.000789
 22
-0.434270
 32
-4.679554
 13
-0.000789
 23
-0.434270
 33
-4.679554
 62
0
  0
3DFACE
  8
NoName1
 10
-3.325563
 20
0.665322
 30
-1.214440
 11
-3.621980
 21
-0.008276
 31
-1.145053
 12
-0.000789
 22
-0.434270
 32
-4.679554
 13
-0.000789
 23
-0.434270
 33
-4.679554
 62
0
  0
3DFACE
  8
NoName1
 10
-2.592313
 20
1.967577
 30
-1.213426
 11
-3.011416
 21
1.266290
 31
-1.237543
 12
-0.000789
 22
-0.434270
 32
-4.679554
 13
-0.000789
 23
-0.434270
 33
-4.679554
 62
0
  0
3DFACE
  8
NoName1
 10
-2.132126
 20
2.551789
 30
-1.143872
 11
-2.592313
 21
1.967577
 31
-1.213426
 12
-0.000789
 22
-0.434270
 32
-4.679554
 13
-0.000789
 23
-0.434270
 33
-4.679554
 62
0
  0
3DFACE
  8
NoName1
 10
-1.569582
 20
3.089329
 30
-1.007424
 11
-2.132126
 21
2.551789
 31
-1.143872
 12
-0.000789
 22
-0.434270
 32
-4.679554
 13
-0.000789
 23
-0.434270
 33
-4.679554
 62
0
  0
3DFACE
  8
NoName1
 10
-0.850630
 20
3.684437
 30
-0.766916
 11
-1.569582
 21
3.089329
 31
-1.007424
 12
-0.000789
 22
-0.434270
 32
-4.679554
 13
-0.000789
 23
-0.434270
 33
-4.679554
 62
0
  0
3DFACE
  8
NoName1
 10
-0.188730
 20
3.993767
 30
-0.427911
 11
-0.850630
 21
3.684437
 31
-0.766916
 12
-0.000789
 22
-0.434270
 32
-4.679554
 13
-0.000789
 23
-0.434270
 33
-4.679554
 62
0
  0
3DFACE
  8
NoName1
 10
0.907501
 20
3.644079
 30
-0.767088
 11
0.236848
 21
3.987625
 31
-0.427924
 12
-0.000789
 22
-0.434270
 32
-4.679554
 13
-0.000789
 23
-0.434270
 33
-4.679554
 62
0
  0
3DFACE
  8
NoName1
 10
1.609783
 20
3.043531
 30
-1.007580
 11
0.907501
 21
3.644079
 31
-0.767088
 12
-0.000789
 22
-0.434270
 32
-4.679554
 13
-0.000789
 23
-0.434270
 33
-4.679554
 62
0
  0
3DFACE
  8
NoName1
 10
2.166976
 20
2.460124
 30
-1.144073
 11
1.609783
 21
3.043531
 31
-1.007580
 12
-0.000789
 22
-0.434270
 32
-4.679554
 13
-0.000789
 23
-0.434270
 33
-4.679554
 62
0
  0
3DFACE
  8
NoName1
 10
-0.000789
 20
-0.434270
 30
-4.679554
 11
2.633394
 21
1.892284
 31
-1.213827
 12
2.166976
 22
2.460124
 32
-1.144073
 13
2.166976
 23
2.460124
 33
-1.144073
 62
0
 0
ENDSEC
 0
EOF
