  0
SECTION
  2
HEADER
  0
ENDSEC
  0
SECTION
  2
TABLES
  0
TABLE
  2
LAYER
  70
    153
  0
LAYER
  2
Cube150
 70
0
 62
15
  6
CONTINUOUS
  0
ENDTAB
  0
ENDSEC
  0
SECTION
  2
ENTITIES
  0
3DFACE
  8
Cube150
 10
0.429834
 20
0.271319
 30
-0.397462
 11
0.409128
 21
0.279896
 31
-0.312339
 12
0.359711
 22
0.095470
 32
-0.312339
 13
0.381931
 23
0.092544
 33
-0.397462
 62
0
  0
3DFACE
  8
Cube150
 10
0.522377
 20
0.431608
 30
-0.397462
 11
0.504595
 21
0.445252
 31
-0.312338
 12
0.409128
 22
0.279896
 32
-0.312339
 13
0.429834
 23
0.271319
 33
-0.397462
 62
0
  0
3DFACE
  8
Cube150
 10
0.653250
 20
0.562481
 30
-0.397462
 11
0.639606
 21
0.580263
 31
-0.312338
 12
0.504595
 22
0.445252
 32
-0.312338
 13
0.522377
 23
0.431608
 33
-0.397462
 62
0
  0
3DFACE
  8
Cube150
 10
1.084873
 20
-0.000007
 30
-1.008519
 11
0.522377
 21
0.431608
 31
-0.397462
 12
0.429834
 22
0.271319
 32
-0.397462
 13
0.429834
 23
0.271319
 33
-0.397462
 62
0
  0
3DFACE
  8
Cube150
 10
0.813538
 20
0.655023
 30
-0.397462
 11
0.804961
 21
0.675730
 31
-0.312337
 12
0.639606
 22
0.580263
 32
-0.312338
 13
0.653250
 23
0.562481
 33
-0.397462
 62
0
  0
3DFACE
  8
Cube150
 10
1.084873
 20
-0.000007
 30
-1.008519
 11
0.653250
 21
0.562481
 31
-0.397462
 12
0.522377
 22
0.431608
 32
-0.397462
 13
0.522377
 23
0.431608
 33
-0.397462
 62
0
  0
3DFACE
  8
Cube150
 10
1.084873
 20
-0.000007
 30
-1.008519
 11
0.813538
 21
0.655023
 31
-0.397462
 12
0.653250
 22
0.562481
 32
-0.397462
 13
0.653250
 23
0.562481
 33
-0.397462
 62
0
  0
3DFACE
  8
Cube150
 10
0.992314
 20
0.702926
 30
-0.397463
 11
0.989389
 21
0.725148
 31
-0.312336
 12
0.804961
 22
0.675730
 32
-0.312337
 13
0.813538
 23
0.655023
 33
-0.397462
 62
0
  0
3DFACE
  8
Cube150
 10
1.177400
 20
0.702926
 30
-0.397464
 11
1.180326
 21
0.725148
 31
-0.312334
 12
0.989389
 22
0.725148
 32
-0.312336
 13
0.992314
 23
0.702926
 33
-0.397463
 62
0
  0
3DFACE
  8
Cube150
 10
1.084873
 20
-0.000007
 30
-1.008519
 11
0.992314
 21
0.702926
 31
-0.397463
 12
0.813538
 22
0.655023
 32
-0.397462
 13
0.813538
 23
0.655023
 33
-0.397462
 62
0
  0
3DFACE
  8
Cube150
 10
1.356177
 20
0.655023
 30
-0.397463
 11
1.364754
 21
0.675731
 31
-0.312334
 12
1.180326
 22
0.725148
 32
-0.312334
 13
1.177400
 23
0.702926
 33
-0.397464
 62
0
  0
3DFACE
  8
Cube150
 10
1.084873
 20
-0.000007
 30
-1.008519
 11
1.177400
 21
0.702926
 31
-0.397464
 12
0.992314
 22
0.702926
 32
-0.397463
 13
0.992314
 23
0.702926
 33
-0.397463
 62
0
  0
3DFACE
  8
Cube150
 10
1.084873
 20
-0.000007
 30
-1.008519
 11
1.356177
 21
0.655023
 31
-0.397463
 12
1.177400
 22
0.702926
 32
-0.397464
 13
1.177400
 23
0.702926
 33
-0.397464
 62
0
  0
3DFACE
  8
Cube150
 10
1.516464
 20
0.562481
 30
-0.397463
 11
1.530109
 21
0.580263
 31
-0.312334
 12
1.364754
 22
0.675731
 32
-0.312334
 13
1.356177
 23
0.655023
 33
-0.397463
 62
0
  0
3DFACE
  8
Cube150
 10
1.084873
 20
-0.000007
 30
-1.008519
 11
1.516464
 21
0.562481
 31
-0.397463
 12
1.356177
 22
0.655023
 32
-0.397463
 13
1.356177
 23
0.655023
 33
-0.397463
 62
0
  0
3DFACE
  8
Cube150
 10
1.647339
 20
0.431607
 30
-0.397464
 11
1.665121
 21
0.445251
 31
-0.312334
 12
1.530109
 22
0.580263
 32
-0.312334
 13
1.516464
 23
0.562481
 33
-0.397463
 62
0
  0
3DFACE
  8
Cube150
 10
1.084873
 20
-0.000007
 30
-1.008519
 11
1.647339
 21
0.431607
 31
-0.397464
 12
1.516464
 22
0.562481
 32
-0.397463
 13
1.516464
 23
0.562481
 33
-0.397463
 62
0
  0
3DFACE
  8
Cube150
 10
1.739881
 20
0.271319
 30
-0.397464
 11
1.760589
 21
0.279897
 31
-0.312334
 12
1.665121
 22
0.445251
 32
-0.312334
 13
1.647339
 23
0.431607
 33
-0.397464
 62
0
  0
3DFACE
  8
Cube150
 10
1.084873
 20
-0.000007
 30
-1.008519
 11
1.739881
 21
0.271319
 31
-0.397464
 12
1.647339
 22
0.431607
 32
-0.397464
 13
1.647339
 23
0.431607
 33
-0.397464
 62
0
  0
3DFACE
  8
Cube150
 10
1.787785
 20
0.092542
 30
-0.397464
 11
1.810007
 21
0.095467
 31
-0.312335
 12
1.760589
 22
0.279897
 32
-0.312334
 13
1.739881
 23
0.271319
 33
-0.397464
 62
0
  0
3DFACE
  8
Cube150
 10
1.787785
 20
-0.092541
 30
-0.397463
 11
1.810007
 21
-0.095466
 31
-0.312335
 12
1.810007
 22
0.095467
 32
-0.312335
 13
1.787785
 23
0.092542
 33
-0.397464
 62
0
  0
3DFACE
  8
Cube150
 10
1.084873
 20
-0.000007
 30
-1.008519
 11
1.787785
 21
0.092542
 31
-0.397464
 12
1.739881
 22
0.271319
 32
-0.397464
 13
1.739881
 23
0.271319
 33
-0.397464
 62
0
  0
3DFACE
  8
Cube150
 10
1.084873
 20
-0.000007
 30
-1.008519
 11
1.787785
 21
-0.092541
 31
-0.397463
 12
1.787785
 22
0.092542
 32
-0.397464
 13
1.787785
 23
0.092542
 33
-0.397464
 62
0
  0
3DFACE
  8
Cube150
 10
1.084873
 20
-0.000007
 30
-1.008519
 11
1.739881
 21
-0.271320
 31
-0.397464
 12
1.787785
 22
-0.092541
 32
-0.397463
 13
1.787785
 23
-0.092541
 33
-0.397463
 62
0
  0
3DFACE
  8
Cube150
 10
1.084873
 20
-0.000007
 30
-1.008519
 11
1.647341
 21
-0.431605
 31
-0.397463
 12
1.739881
 22
-0.271320
 32
-0.397464
 13
1.739881
 23
-0.271320
 33
-0.397464
 62
0
  0
3DFACE
  8
Cube150
 10
1.084873
 20
-0.000007
 30
-1.008519
 11
1.516466
 21
-0.562480
 31
-0.397463
 12
1.647341
 22
-0.431605
 32
-0.397463
 13
1.647341
 23
-0.431605
 33
-0.397463
 62
0
  0
3DFACE
  8
Cube150
 10
1.084873
 20
-0.000007
 30
-1.008519
 11
1.356177
 21
-0.655023
 31
-0.397463
 12
1.516466
 22
-0.562480
 32
-0.397463
 13
1.516466
 23
-0.562480
 33
-0.397463
 62
0
  0
3DFACE
  8
Cube150
 10
1.084873
 20
-0.000007
 30
-1.008519
 11
1.177402
 21
-0.702926
 31
-0.397462
 12
1.356177
 22
-0.655023
 32
-0.397463
 13
1.356177
 23
-0.655023
 33
-0.397463
 62
0
  0
3DFACE
  8
Cube150
 10
1.084873
 20
-0.000007
 30
-1.008519
 11
0.992316
 21
-0.702926
 31
-0.397462
 12
1.177402
 22
-0.702926
 32
-0.397462
 13
1.177402
 23
-0.702926
 33
-0.397462
 62
0
  0
3DFACE
  8
Cube150
 10
1.084873
 20
-0.000007
 30
-1.008519
 11
0.813540
 21
-0.655023
 31
-0.397462
 12
0.992316
 22
-0.702926
 32
-0.397462
 13
0.992316
 23
-0.702926
 33
-0.397462
 62
0
  0
3DFACE
  8
Cube150
 10
1.084873
 20
-0.000007
 30
-1.008519
 11
0.653251
 21
-0.562481
 31
-0.397462
 12
0.813540
 22
-0.655023
 32
-0.397462
 13
0.813540
 23
-0.655023
 33
-0.397462
 62
0
  0
3DFACE
  8
Cube150
 10
1.084873
 20
-0.000007
 30
-1.008519
 11
0.522378
 21
-0.431608
 31
-0.397462
 12
0.653251
 22
-0.562481
 32
-0.397462
 13
0.653251
 23
-0.562481
 33
-0.397462
 62
0
  0
3DFACE
  8
Cube150
 10
1.084873
 20
-0.000007
 30
-1.008519
 11
0.429835
 21
-0.271319
 31
-0.397462
 12
0.522378
 22
-0.431608
 32
-0.397462
 13
0.522378
 23
-0.431608
 33
-0.397462
 62
0
  0
3DFACE
  8
Cube150
 10
1.084873
 20
-0.000007
 30
-1.008519
 11
0.381932
 21
-0.092540
 31
-0.397462
 12
0.429835
 22
-0.271319
 32
-0.397462
 13
0.429835
 23
-0.271319
 33
-0.397462
 62
0
  0
3DFACE
  8
Cube150
 10
0.381931
 20
0.092544
 30
-0.397462
 11
1.084873
 21
-0.000007
 31
-1.008519
 12
0.429834
 22
0.271319
 32
-0.397462
 13
0.429834
 23
0.271319
 33
-0.397462
 62
0
  0
3DFACE
  8
Cube150
 10
1.084873
 20
-0.000007
 30
-1.008519
 11
0.381931
 21
0.092544
 31
-0.397462
 12
0.381932
 22
-0.092540
 32
-0.397462
 13
0.381932
 23
-0.092540
 33
-0.397462
 62
0
  0
3DFACE
  8
Cube150
 10
0.359711
 20
0.095470
 30
-0.312339
 11
0.409128
 21
0.279896
 31
-0.312339
 12
0.427648
 22
0.272225
 32
-0.236202
 13
0.379586
 23
0.092853
 33
-0.236202
 62
0
  0
3DFACE
  8
Cube150
 10
0.409128
 20
0.279896
 30
-0.312339
 11
0.504595
 21
0.445252
 31
-0.312338
 12
0.520499
 22
0.433049
 32
-0.236203
 13
0.427648
 23
0.272225
 33
-0.236202
 62
0
  0
3DFACE
  8
Cube150
 10
0.504595
 20
0.445252
 30
-0.312338
 11
0.639606
 21
0.580263
 31
-0.312338
 12
0.651809
 22
0.564359
 32
-0.236203
 13
0.520499
 23
0.433049
 33
-0.236203
 62
0
  0
3DFACE
  8
Cube150
 10
0.639606
 20
0.580263
 30
-0.312338
 11
0.804961
 21
0.675730
 31
-0.312337
 12
0.812632
 22
0.657211
 32
-0.236204
 13
0.651809
 23
0.564359
 33
-0.236203
 62
0
  0
3DFACE
  8
Cube150
 10
0.804961
 20
0.675730
 30
-0.312337
 11
0.989389
 21
0.725148
 31
-0.312336
 12
0.992005
 22
0.705274
 32
-0.236203
 13
0.812632
 23
0.657211
 33
-0.236204
 62
0
  0
3DFACE
  8
Cube150
 10
0.989389
 20
0.725148
 30
-0.312336
 11
1.180326
 21
0.725148
 31
-0.312334
 12
1.177709
 22
0.705275
 32
-0.236204
 13
0.992005
 23
0.705274
 33
-0.236203
 62
0
  0
3DFACE
  8
Cube150
 10
1.180326
 20
0.725148
 30
-0.312334
 11
1.364754
 21
0.675731
 31
-0.312334
 12
1.357084
 22
0.657212
 32
-0.236204
 13
1.177709
 23
0.705275
 33
-0.236204
 62
0
  0
3DFACE
  8
Cube150
 10
1.364754
 20
0.675731
 30
-0.312334
 11
1.530109
 21
0.580263
 31
-0.312334
 12
1.517906
 22
0.564361
 32
-0.236204
 13
1.357084
 23
0.657212
 33
-0.236204
 62
0
  0
3DFACE
  8
Cube150
 10
1.530109
 20
0.580263
 30
-0.312334
 11
1.665121
 21
0.445251
 31
-0.312334
 12
1.649219
 22
0.433049
 32
-0.236205
 13
1.517906
 23
0.564361
 33
-0.236204
 62
0
  0
3DFACE
  8
Cube150
 10
1.665121
 20
0.445251
 30
-0.312334
 11
1.760589
 21
0.279897
 31
-0.312334
 12
1.742071
 22
0.272226
 32
-0.236205
 13
1.649219
 23
0.433049
 33
-0.236205
 62
0
  0
3DFACE
  8
Cube150
 10
1.739881
 20
-0.271320
 30
-0.397464
 11
1.760589
 21
-0.279898
 31
-0.312335
 12
1.810007
 22
-0.095466
 32
-0.312335
 13
1.787785
 23
-0.092541
 33
-0.397463
 62
0
  0
3DFACE
  8
Cube150
 10
1.647341
 20
-0.431605
 30
-0.397463
 11
1.665123
 21
-0.445250
 31
-0.312335
 12
1.760589
 22
-0.279898
 32
-0.312335
 13
1.739881
 23
-0.271320
 33
-0.397464
 62
0
  0
3DFACE
  8
Cube150
 10
1.516466
 20
-0.562480
 30
-0.397463
 11
1.530111
 21
-0.580262
 31
-0.312335
 12
1.665123
 22
-0.445250
 32
-0.312335
 13
1.647341
 23
-0.431605
 33
-0.397463
 62
0
  0
3DFACE
  8
Cube150
 10
1.356177
 20
-0.655023
 30
-0.397463
 11
1.364755
 21
-0.675730
 31
-0.312336
 12
1.530111
 22
-0.580262
 32
-0.312335
 13
1.516466
 23
-0.562480
 33
-0.397463
 62
0
  0
3DFACE
  8
Cube150
 10
1.177402
 20
-0.702926
 30
-0.397462
 11
1.180327
 21
-0.725147
 31
-0.312336
 12
1.364755
 22
-0.675730
 32
-0.312336
 13
1.356177
 23
-0.655023
 33
-0.397463
 62
0
  0
3DFACE
  8
Cube150
 10
0.992316
 20
-0.702926
 30
-0.397462
 11
0.989391
 21
-0.725147
 31
-0.312336
 12
1.180327
 22
-0.725147
 32
-0.312336
 13
1.177402
 23
-0.702926
 33
-0.397462
 62
0
  0
3DFACE
  8
Cube150
 10
0.813540
 20
-0.655023
 30
-0.397462
 11
0.804963
 21
-0.675730
 31
-0.312337
 12
0.989391
 22
-0.725147
 32
-0.312336
 13
0.992316
 23
-0.702926
 33
-0.397462
 62
0
  0
3DFACE
  8
Cube150
 10
0.653251
 20
-0.562481
 30
-0.397462
 11
0.639608
 21
-0.580262
 31
-0.312338
 12
0.804963
 22
-0.675730
 32
-0.312337
 13
0.813540
 23
-0.655023
 33
-0.397462
 62
0
  0
3DFACE
  8
Cube150
 10
0.522378
 20
-0.431608
 30
-0.397462
 11
0.504597
 21
-0.445251
 31
-0.312338
 12
0.639608
 22
-0.580262
 32
-0.312338
 13
0.653251
 23
-0.562481
 33
-0.397462
 62
0
  0
3DFACE
  8
Cube150
 10
0.429835
 20
-0.271319
 30
-0.397462
 11
0.409129
 21
-0.279896
 31
-0.312338
 12
0.504597
 22
-0.445251
 32
-0.312338
 13
0.522378
 23
-0.431608
 33
-0.397462
 62
0
  0
3DFACE
  8
Cube150
 10
0.381932
 20
-0.092540
 30
-0.397462
 11
0.359711
 21
-0.095466
 31
-0.312338
 12
0.409129
 22
-0.279896
 32
-0.312338
 13
0.429835
 23
-0.271319
 33
-0.397462
 62
0
  0
3DFACE
  8
Cube150
 10
0.381931
 20
0.092544
 30
-0.397462
 11
0.359711
 21
0.095470
 31
-0.312339
 12
0.359711
 22
-0.095466
 32
-0.312338
 13
0.381932
 23
-0.092540
 33
-0.397462
 62
0
  0
3DFACE
  8
Cube150
 10
1.810007
 20
0.095467
 30
-0.312335
 11
1.810007
 21
-0.095466
 31
-0.312335
 12
1.790135
 22
-0.092850
 32
-0.236207
 13
1.790134
 23
0.092851
 33
-0.236207
 62
0
  0
3DFACE
  8
Cube150
 10
1.760589
 20
0.279897
 30
-0.312334
 11
1.810007
 21
0.095467
 31
-0.312335
 12
1.790134
 22
0.092851
 32
-0.236207
 13
1.742071
 23
0.272226
 33
-0.236205
 62
0
  0
3DFACE
  8
Cube150
 10
0.427648
 20
0.272225
 30
-0.236202
 11
0.520499
 21
0.433049
 31
-0.236203
 12
0.569573
 22
0.395393
 32
-0.161568
 13
0.484796
 23
0.248554
 33
-0.161568
 62
0
  0
3DFACE
  8
Cube150
 10
0.520499
 20
0.433049
 30
-0.236203
 11
0.651809
 21
0.564359
 31
-0.236203
 12
0.689466
 22
0.515285
 32
-0.161568
 13
0.569573
 23
0.395393
 33
-0.161568
 62
0
  0
3DFACE
  8
Cube150
 10
0.651809
 20
0.564359
 30
-0.236203
 11
0.812632
 21
0.657211
 31
-0.236204
 12
0.836304
 22
0.600062
 32
-0.161568
 13
0.689466
 23
0.515285
 33
-0.161568
 62
0
  0
3DFACE
  8
Cube150
 10
0.812632
 20
0.657211
 30
-0.236204
 11
0.992005
 21
0.705274
 31
-0.236203
 12
1.000080
 22
0.643946
 32
-0.161568
 13
0.836304
 23
0.600062
 33
-0.161568
 62
0
  0
3DFACE
  8
Cube150
 10
0.992005
 20
0.705274
 30
-0.236203
 11
1.177709
 21
0.705275
 31
-0.236204
 12
1.169635
 22
0.643947
 32
-0.161568
 13
1.000080
 23
0.643946
 33
-0.161568
 62
0
  0
3DFACE
  8
Cube150
 10
1.177709
 20
0.705275
 30
-0.236204
 11
1.357084
 21
0.657212
 31
-0.236204
 12
1.333412
 22
0.600063
 32
-0.161569
 13
1.169635
 23
0.643947
 33
-0.161568
 62
0
  0
3DFACE
  8
Cube150
 10
1.357084
 20
0.657212
 30
-0.236204
 11
1.517906
 21
0.564361
 31
-0.236204
 12
1.480250
 22
0.515286
 32
-0.161568
 13
1.333412
 23
0.600063
 33
-0.161569
 62
0
  0
3DFACE
  8
Cube150
 10
1.517906
 20
0.564361
 30
-0.236204
 11
1.649219
 21
0.433049
 31
-0.236205
 12
1.600143
 22
0.395392
 32
-0.161567
 13
1.480250
 23
0.515286
 33
-0.161568
 62
0
  0
3DFACE
  8
Cube150
 10
0.379586
 20
0.092853
 30
-0.236202
 11
0.427648
 21
0.272225
 31
-0.236202
 12
0.484796
 22
0.248554
 32
-0.161568
 13
0.440912
 23
0.084779
 33
-0.161568
 62
0
  0
3DFACE
  8
Cube150
 10
1.649219
 20
0.433049
 30
-0.236205
 11
1.742071
 21
0.272226
 31
-0.236205
 12
1.684920
 22
0.248553
 32
-0.161567
 13
1.600143
 23
0.395392
 33
-0.161567
 62
0
  0
3DFACE
  8
Cube150
 10
1.810007
 20
-0.095466
 30
-0.312335
 11
1.760589
 21
-0.279898
 31
-0.312335
 12
1.742070
 22
-0.272227
 32
-0.236206
 13
1.790135
 23
-0.092850
 33
-0.236207
 62
0
  0
3DFACE
  8
Cube150
 10
1.760589
 20
-0.279898
 30
-0.312335
 11
1.665123
 21
-0.445250
 31
-0.312335
 12
1.649221
 22
-0.433048
 32
-0.236207
 13
1.742070
 23
-0.272227
 33
-0.236206
 62
0
  0
3DFACE
  8
Cube150
 10
1.665123
 20
-0.445250
 30
-0.312335
 11
1.530111
 21
-0.580262
 31
-0.312335
 12
1.517909
 22
-0.564360
 32
-0.236206
 13
1.649221
 23
-0.433048
 33
-0.236207
 62
0
  0
3DFACE
  8
Cube150
 10
1.530111
 20
-0.580262
 30
-0.312335
 11
1.364755
 21
-0.675730
 31
-0.312336
 12
1.357084
 22
-0.657211
 32
-0.236205
 13
1.517909
 23
-0.564360
 33
-0.236206
 62
0
  0
3DFACE
  8
Cube150
 10
1.364755
 20
-0.675730
 30
-0.312336
 11
1.180327
 21
-0.725147
 31
-0.312336
 12
1.177711
 22
-0.705274
 32
-0.236205
 13
1.357084
 23
-0.657211
 33
-0.236205
 62
0
  0
3DFACE
  8
Cube150
 10
1.180327
 20
-0.725147
 30
-0.312336
 11
0.989391
 21
-0.725147
 31
-0.312336
 12
0.992007
 22
-0.705274
 32
-0.236206
 13
1.177711
 23
-0.705274
 33
-0.236205
 62
0
  0
3DFACE
  8
Cube150
 10
0.989391
 20
-0.725147
 30
-0.312336
 11
0.804963
 21
-0.675730
 31
-0.312337
 12
0.812633
 22
-0.657211
 32
-0.236206
 13
0.992007
 23
-0.705274
 33
-0.236206
 62
0
  0
3DFACE
  8
Cube150
 10
0.804963
 20
-0.675730
 30
-0.312337
 11
0.639608
 21
-0.580262
 31
-0.312338
 12
0.651810
 22
-0.564359
 32
-0.236205
 13
0.812633
 23
-0.657211
 33
-0.236206
 62
0
  0
3DFACE
  8
Cube150
 10
0.639608
 20
-0.580262
 30
-0.312338
 11
0.504597
 21
-0.445251
 31
-0.312338
 12
0.520500
 22
-0.433049
 32
-0.236206
 13
0.651810
 23
-0.564359
 33
-0.236205
 62
0
  0
3DFACE
  8
Cube150
 10
0.504597
 20
-0.445251
 30
-0.312338
 11
0.409129
 21
-0.279896
 31
-0.312338
 12
0.427648
 22
-0.272225
 32
-0.236207
 13
0.520500
 23
-0.433049
 33
-0.236206
 62
0
  0
3DFACE
  8
Cube150
 10
0.409129
 20
-0.279896
 30
-0.312338
 11
0.359711
 21
-0.095466
 31
-0.312338
 12
0.379584
 22
-0.092850
 32
-0.236206
 13
0.427648
 23
-0.272225
 33
-0.236207
 62
0
  0
3DFACE
  8
Cube150
 10
0.359711
 20
-0.095466
 30
-0.312338
 11
0.359711
 21
0.095470
 31
-0.312339
 12
0.379586
 22
0.092853
 32
-0.236202
 13
0.379584
 23
-0.092850
 33
-0.236206
 62
0
  0
3DFACE
  8
Cube150
 10
0.484796
 20
0.248554
 30
-0.161568
 11
0.569573
 21
0.395393
 31
-0.161568
 12
0.646531
 22
0.336341
 32
-0.098370
 13
0.574414
 23
0.211432
 33
-0.098371
 62
0
  0
3DFACE
  8
Cube150
 10
0.569573
 20
0.395393
 30
-0.161568
 11
0.689466
 21
0.515285
 31
-0.161568
 12
0.748517
 22
0.438328
 32
-0.098371
 13
0.646531
 23
0.336341
 33
-0.098370
 62
0
  0
3DFACE
  8
Cube150
 10
0.689466
 20
0.515285
 30
-0.161568
 11
0.836304
 21
0.600062
 31
-0.161568
 12
0.873425
 22
0.510445
 32
-0.098371
 13
0.748517
 23
0.438328
 33
-0.098371
 62
0
  0
3DFACE
  8
Cube150
 10
0.836304
 20
0.600062
 30
-0.161568
 11
1.000080
 21
0.643946
 31
-0.161568
 12
1.012741
 22
0.547774
 32
-0.098371
 13
0.873425
 23
0.510445
 33
-0.098371
 62
0
  0
3DFACE
  8
Cube150
 10
1.000080
 20
0.643946
 30
-0.161568
 11
1.169635
 21
0.643947
 31
-0.161568
 12
1.156975
 22
0.547775
 32
-0.098371
 13
1.012741
 23
0.547774
 33
-0.098371
 62
0
  0
3DFACE
  8
Cube150
 10
1.169635
 20
0.643947
 30
-0.161568
 11
1.333412
 21
0.600063
 31
-0.161569
 12
1.296292
 22
0.510446
 32
-0.098372
 13
1.156975
 23
0.547775
 33
-0.098371
 62
0
  0
3DFACE
  8
Cube150
 10
1.333412
 20
0.600063
 30
-0.161569
 11
1.480250
 21
0.515286
 31
-0.161568
 12
1.421201
 22
0.438331
 32
-0.098372
 13
1.296292
 23
0.510446
 33
-0.098372
 62
0
  0
3DFACE
  8
Cube150
 10
1.742071
 20
0.272226
 30
-0.236205
 11
1.790134
 21
0.092851
 31
-0.236207
 12
1.728802
 22
0.084776
 32
-0.161566
 13
1.684920
 23
0.248553
 33
-0.161567
 62
0
  0
3DFACE
  8
Cube150
 10
1.480250
 20
0.515286
 30
-0.161568
 11
1.600143
 21
0.395392
 31
-0.161567
 12
1.523190
 22
0.336343
 32
-0.098372
 13
1.421201
 23
0.438331
 33
-0.098372
 62
0
  0
3DFACE
  8
Cube150
 10
0.440912
 20
0.084779
 30
-0.161568
 11
0.484796
 21
0.248554
 31
-0.161568
 12
0.574414
 22
0.211432
 32
-0.098371
 13
0.537085
 23
0.072117
 33
-0.098371
 62
0
  0
3DFACE
  8
Cube150
 10
1.600143
 20
0.395392
 30
-0.161567
 11
1.684920
 21
0.248553
 31
-0.161567
 12
1.595306
 22
0.211434
 32
-0.098372
 13
1.523190
 23
0.336343
 33
-0.098372
 62
0
  0
3DFACE
  8
Cube150
 10
1.790134
 20
0.092851
 30
-0.236207
 11
1.790135
 21
-0.092850
 31
-0.236207
 12
1.728802
 22
-0.084776
 32
-0.161566
 13
1.728802
 23
0.084776
 33
-0.161566
 62
0
  0
3DFACE
  8
Cube150
 10
1.790135
 20
-0.092850
 30
-0.236207
 11
1.742070
 21
-0.272227
 31
-0.236206
 12
1.684918
 22
-0.248554
 32
-0.161566
 13
1.728802
 23
-0.084776
 33
-0.161566
 62
0
  0
3DFACE
  8
Cube150
 10
1.742070
 20
-0.272227
 30
-0.236206
 11
1.649221
 21
-0.433048
 31
-0.236207
 12
1.600142
 22
-0.395389
 32
-0.161566
 13
1.684918
 23
-0.248554
 33
-0.161566
 62
0
  0
3DFACE
  8
Cube150
 10
1.649221
 20
-0.433048
 30
-0.236207
 11
1.517909
 21
-0.564360
 31
-0.236206
 12
1.480250
 22
-0.515282
 32
-0.161566
 13
1.600142
 23
-0.395389
 33
-0.161566
 62
0
  0
3DFACE
  8
Cube150
 10
1.517909
 20
-0.564360
 30
-0.236206
 11
1.357084
 21
-0.657211
 31
-0.236205
 12
1.333411
 22
-0.600060
 32
-0.161566
 13
1.480250
 23
-0.515282
 33
-0.161566
 62
0
  0
3DFACE
  8
Cube150
 10
1.357084
 20
-0.657211
 30
-0.236205
 11
1.177711
 21
-0.705274
 31
-0.236205
 12
1.169637
 22
-0.643943
 32
-0.161566
 13
1.333411
 23
-0.600060
 33
-0.161566
 62
0
  0
3DFACE
  8
Cube150
 10
1.177711
 20
-0.705274
 30
-0.236205
 11
0.992007
 21
-0.705274
 31
-0.236206
 12
1.000082
 22
-0.643943
 32
-0.161566
 13
1.169637
 23
-0.643943
 33
-0.161566
 62
0
  0
3DFACE
  8
Cube150
 10
0.992007
 20
-0.705274
 30
-0.236206
 11
0.812633
 21
-0.657211
 31
-0.236206
 12
0.836307
 22
-0.600059
 32
-0.161566
 13
1.000082
 23
-0.643943
 33
-0.161566
 62
0
  0
3DFACE
  8
Cube150
 10
0.812633
 20
-0.657211
 30
-0.236206
 11
0.651810
 21
-0.564359
 31
-0.236205
 12
0.689469
 22
-0.515282
 32
-0.161566
 13
0.836307
 23
-0.600059
 33
-0.161566
 62
0
  0
3DFACE
  8
Cube150
 10
0.651810
 20
-0.564359
 30
-0.236205
 11
0.520500
 21
-0.433049
 31
-0.236206
 12
0.569578
 22
-0.395390
 32
-0.161565
 13
0.689469
 23
-0.515282
 33
-0.161566
 62
0
  0
3DFACE
  8
Cube150
 10
0.520500
 20
-0.433049
 30
-0.236206
 11
0.427648
 21
-0.272225
 31
-0.236207
 12
0.484801
 22
-0.248552
 32
-0.161565
 13
0.569578
 23
-0.395390
 33
-0.161565
 62
0
  0
3DFACE
  8
Cube150
 10
0.427648
 20
-0.272225
 30
-0.236207
 11
0.379584
 21
-0.092850
 31
-0.236206
 12
0.440917
 22
-0.084775
 32
-0.161565
 13
0.484801
 23
-0.248552
 33
-0.161565
 62
0
  0
3DFACE
  8
Cube150
 10
0.379584
 20
-0.092850
 30
-0.236206
 11
0.379586
 21
0.092853
 31
-0.236202
 12
0.440912
 22
0.084779
 32
-0.161568
 13
0.440917
 23
-0.084775
 33
-0.161565
 62
0
  0
3DFACE
  8
Cube150
 10
0.707759
 20
0.156199
 30
-0.043011
 11
0.574414
 21
0.211432
 31
-0.098371
 12
0.646531
 22
0.336341
 32
-0.098370
 13
0.761036
 23
0.248478
 33
-0.043011
 62
0
  0
3DFACE
  8
Cube150
 10
0.761036
 20
0.248478
 30
-0.043011
 11
0.646531
 21
0.336341
 31
-0.098370
 12
0.748517
 22
0.438328
 32
-0.098371
 13
0.836381
 23
0.323823
 33
-0.043011
 62
0
  0
3DFACE
  8
Cube150
 10
0.836381
 20
0.323823
 30
-0.043011
 11
0.748517
 21
0.438328
 31
-0.098371
 12
0.873425
 22
0.510445
 32
-0.098371
 13
0.928659
 23
0.377102
 33
-0.043012
 62
0
  0
3DFACE
  8
Cube150
 10
0.928659
 20
0.377102
 30
-0.043012
 11
0.873425
 21
0.510445
 31
-0.098371
 12
1.012741
 22
0.547774
 32
-0.098371
 13
1.031582
 23
0.404680
 33
-0.043012
 62
0
  0
3DFACE
  8
Cube150
 10
1.031582
 20
0.404680
 30
-0.043012
 11
1.012741
 21
0.547774
 31
-0.098371
 12
1.156975
 22
0.547775
 32
-0.098371
 13
1.138137
 23
0.404680
 33
-0.043012
 62
0
  0
3DFACE
  8
Cube150
 10
1.138137
 20
0.404680
 30
-0.043012
 11
1.156975
 21
0.547775
 31
-0.098371
 12
1.296292
 22
0.510446
 32
-0.098372
 13
1.241061
 23
0.377103
 33
-0.043012
 62
0
  0
3DFACE
  8
Cube150
 10
1.241061
 20
0.377103
 30
-0.043012
 11
1.296292
 21
0.510446
 31
-0.098372
 12
1.421201
 22
0.438331
 32
-0.098372
 13
1.333340
 23
0.323826
 33
-0.043012
 62
0
  0
3DFACE
  8
Cube150
 10
1.684920
 20
0.248553
 30
-0.161567
 11
1.728802
 21
0.084776
 31
-0.161566
 12
1.632637
 22
0.072116
 32
-0.098373
 13
1.595306
 23
0.211434
 33
-0.098372
 62
0
  0
3DFACE
  8
Cube150
 10
1.333340
 20
0.323826
 30
-0.043012
 11
1.421201
 21
0.438331
 31
-0.098372
 12
1.523190
 22
0.336343
 32
-0.098372
 13
1.408686
 23
0.248480
 33
-0.043013
 62
0
  0
3DFACE
  8
Cube150
 10
0.680182
 20
0.053277
 30
-0.043011
 11
0.537085
 21
0.072117
 31
-0.098371
 12
0.574414
 22
0.211432
 32
-0.098371
 13
0.707759
 23
0.156199
 33
-0.043011
 62
0
  0
3DFACE
  8
Cube150
 10
1.408686
 20
0.248480
 30
-0.043013
 11
1.523190
 21
0.336343
 31
-0.098372
 12
1.595306
 22
0.211434
 32
-0.098372
 13
1.461965
 23
0.156201
 33
-0.043013
 62
0
  0
3DFACE
  8
Cube150
 10
1.728802
 20
0.084776
 30
-0.161566
 11
1.728802
 21
-0.084776
 31
-0.161566
 12
1.632636
 22
-0.072115
 32
-0.098372
 13
1.632637
 23
0.072116
 33
-0.098373
 62
0
  0
3DFACE
  8
Cube150
 10
1.728802
 20
-0.084776
 30
-0.161566
 11
1.684918
 21
-0.248554
 31
-0.161566
 12
1.595306
 22
-0.211435
 32
-0.098372
 13
1.632636
 23
-0.072115
 33
-0.098372
 62
0
  0
3DFACE
  8
Cube150
 10
1.684918
 20
-0.248554
 30
-0.161566
 11
1.600142
 21
-0.395389
 31
-0.161566
 12
1.523191
 22
-0.336342
 32
-0.098372
 13
1.595306
 23
-0.211435
 33
-0.098372
 62
0
  0
3DFACE
  8
Cube150
 10
1.600142
 20
-0.395389
 30
-0.161566
 11
1.480250
 21
-0.515282
 31
-0.161566
 12
1.421203
 22
-0.438330
 32
-0.098372
 13
1.523191
 23
-0.336342
 33
-0.098372
 62
0
  0
3DFACE
  8
Cube150
 10
1.480250
 20
-0.515282
 30
-0.161566
 11
1.333411
 21
-0.600060
 31
-0.161566
 12
1.296293
 22
-0.510448
 32
-0.098372
 13
1.421203
 23
-0.438330
 33
-0.098372
 62
0
  0
3DFACE
  8
Cube150
 10
1.333411
 20
-0.600060
 30
-0.161566
 11
1.169637
 21
-0.643943
 31
-0.161566
 12
1.156976
 22
-0.547777
 32
-0.098372
 13
1.296293
 23
-0.510448
 33
-0.098372
 62
0
  0
3DFACE
  8
Cube150
 10
1.169637
 20
-0.643943
 30
-0.161566
 11
1.000082
 21
-0.643943
 31
-0.161566
 12
1.012743
 22
-0.547776
 32
-0.098371
 13
1.156976
 23
-0.547777
 33
-0.098372
 62
0
  0
3DFACE
  8
Cube150
 10
1.000082
 20
-0.643943
 30
-0.161566
 11
0.836307
 21
-0.600059
 31
-0.161566
 12
0.873426
 22
-0.510445
 32
-0.098371
 13
1.012743
 23
-0.547776
 33
-0.098371
 62
0
  0
3DFACE
  8
Cube150
 10
0.836307
 20
-0.600059
 30
-0.161566
 11
0.689469
 21
-0.515282
 31
-0.161566
 12
0.748517
 22
-0.438329
 32
-0.098371
 13
0.873426
 23
-0.510445
 33
-0.098371
 62
0
  0
3DFACE
  8
Cube150
 10
0.689469
 20
-0.515282
 30
-0.161566
 11
0.569578
 21
-0.395390
 31
-0.161565
 12
0.646531
 22
-0.336342
 32
-0.098371
 13
0.748517
 23
-0.438329
 33
-0.098371
 62
0
  0
3DFACE
  8
Cube150
 10
0.569578
 20
-0.395390
 30
-0.161565
 11
0.484801
 21
-0.248552
 31
-0.161565
 12
0.574415
 22
-0.211433
 32
-0.098371
 13
0.646531
 23
-0.336342
 33
-0.098371
 62
0
  0
3DFACE
  8
Cube150
 10
0.484801
 20
-0.248552
 30
-0.161565
 11
0.440917
 21
-0.084775
 31
-0.161565
 12
0.537085
 22
-0.072115
 32
-0.098371
 13
0.574415
 23
-0.211433
 33
-0.098371
 62
0
  0
3DFACE
  8
Cube150
 10
0.440917
 20
-0.084775
 30
-0.161565
 11
0.440912
 21
0.084779
 31
-0.161568
 12
0.537085
 22
0.072117
 32
-0.098371
 13
0.537085
 23
-0.072115
 33
-0.098371
 62
0
  0
3DFACE
  8
Cube150
 10
0.899610
 20
0.076732
 30
0.000000
 11
0.707759
 21
0.156199
 31
-0.043011
 12
0.761036
 22
0.248478
 32
-0.043011
 13
0.925782
 23
0.122064
 33
0.000000
 62
0
  0
3DFACE
  8
Cube150
 10
0.925782
 20
0.122064
 30
0.000000
 11
0.761036
 21
0.248478
 31
-0.043011
 12
0.836381
 22
0.323823
 32
-0.043011
 13
0.962795
 23
0.159077
 33
0.000000
 62
0
  0
3DFACE
  8
Cube150
 10
0.962795
 20
0.159077
 30
0.000000
 11
0.836381
 21
0.323823
 31
-0.043011
 12
0.928659
 22
0.377102
 32
-0.043012
 13
1.008128
 23
0.185249
 33
0.000000
 62
0
  0
3DFACE
  8
Cube150
 10
1.008128
 20
0.185249
 30
0.000000
 11
0.928659
 21
0.377102
 31
-0.043012
 12
1.031582
 22
0.404680
 32
-0.043012
 13
1.058688
 23
0.198796
 33
0.000000
 62
0
  0
3DFACE
  8
Cube150
 10
1.058688
 20
0.198796
 30
0.000000
 11
1.031582
 21
0.404680
 31
-0.043012
 12
1.138137
 22
0.404680
 32
-0.043012
 13
1.111033
 23
0.198796
 33
0.000000
 62
0
  0
3DFACE
  8
Cube150
 10
1.111033
 20
0.198796
 30
0.000000
 11
1.138137
 21
0.404680
 31
-0.043012
 12
1.241061
 22
0.377103
 32
-0.043012
 13
1.161593
 23
0.185248
 33
0.000000
 62
0
  0
3DFACE
  8
Cube150
 10
1.161593
 20
0.185248
 30
0.000000
 11
1.241061
 21
0.377103
 31
-0.043012
 12
1.333340
 22
0.323826
 32
-0.043012
 13
1.206925
 23
0.159075
 33
0.000000
 62
0
  0
3DFACE
  8
Cube150
 10
1.461965
 20
0.156201
 30
-0.043013
 11
1.595306
 21
0.211434
 31
-0.098372
 12
1.632637
 22
0.072116
 32
-0.098373
 13
1.489544
 23
0.053277
 33
-0.043013
 62
0
  0
3DFACE
  8
Cube150
 10
1.206925
 20
0.159075
 30
0.000000
 11
1.333340
 21
0.323826
 31
-0.043012
 12
1.408686
 22
0.248480
 32
-0.043013
 13
1.243937
 23
0.122062
 33
0.000000
 62
0
  0
3DFACE
  8
Cube150
 10
0.886062
 20
0.026171
 30
0.000000
 11
0.680182
 21
0.053277
 31
-0.043011
 12
0.707759
 22
0.156199
 32
-0.043011
 13
0.899610
 23
0.076732
 33
0.000000
 62
0
  0
3DFACE
  8
Cube150
 10
1.243937
 20
0.122062
 30
0.000000
 11
1.408686
 21
0.248480
 31
-0.043013
 12
1.461965
 22
0.156201
 32
-0.043013
 13
1.270109
 23
0.076731
 33
0.000000
 62
0
  0
3DFACE
  8
Cube150
 10
1.489544
 20
0.053277
 30
-0.043013
 11
1.632637
 21
0.072116
 31
-0.098373
 12
1.632636
 22
-0.072115
 32
-0.098372
 13
1.489545
 23
-0.053278
 33
-0.043014
 62
0
  0
3DFACE
  8
Cube150
 10
1.270109
 20
0.076731
 30
0.000000
 11
1.461965
 21
0.156201
 31
-0.043013
 12
1.489544
 22
0.053277
 32
-0.043013
 13
1.283657
 23
0.026170
 33
0.000000
 62
0
  0
3DFACE
  8
Cube150
 10
1.283657
 20
0.026170
 30
0.000000
 11
1.489544
 21
0.053277
 31
-0.043013
 12
1.489545
 22
-0.053278
 32
-0.043014
 13
1.283656
 23
-0.026173
 33
0.000000
 62
0
  0
3DFACE
  8
Cube150
 10
1.489545
 20
-0.053278
 30
-0.043014
 11
1.632636
 21
-0.072115
 31
-0.098372
 12
1.595306
 22
-0.211435
 32
-0.098372
 13
1.461967
 23
-0.156204
 33
-0.043014
 62
0
  0
3DFACE
  8
Cube150
 10
1.461967
 20
-0.156204
 30
-0.043014
 11
1.595306
 21
-0.211435
 31
-0.098372
 12
1.523191
 22
-0.336342
 32
-0.098372
 13
1.408689
 23
-0.248482
 33
-0.043013
 62
0
  0
3DFACE
  8
Cube150
 10
1.408689
 20
-0.248482
 30
-0.043013
 11
1.523191
 21
-0.336342
 31
-0.098372
 12
1.421203
 22
-0.438330
 32
-0.098372
 13
1.333344
 23
-0.323829
 33
-0.043014
 62
0
  0
3DFACE
  8
Cube150
 10
1.333344
 20
-0.323829
 30
-0.043014
 11
1.421203
 21
-0.438330
 31
-0.098372
 12
1.296293
 22
-0.510448
 32
-0.098372
 13
1.241062
 23
-0.377107
 33
-0.043014
 62
0
  0
3DFACE
  8
Cube150
 10
1.241062
 20
-0.377107
 30
-0.043014
 11
1.296293
 21
-0.510448
 31
-0.098372
 12
1.156976
 22
-0.547777
 32
-0.098372
 13
1.138139
 23
-0.404685
 33
-0.043013
 62
0
  0
3DFACE
  8
Cube150
 10
1.138139
 20
-0.404685
 30
-0.043013
 11
1.156976
 21
-0.547777
 31
-0.098372
 12
1.012743
 22
-0.547776
 32
-0.098371
 13
1.031582
 23
-0.404684
 33
-0.043013
 62
0
  0
3DFACE
  8
Cube150
 10
1.031582
 20
-0.404684
 30
-0.043013
 11
1.012743
 21
-0.547776
 31
-0.098371
 12
0.873426
 22
-0.510445
 32
-0.098371
 13
0.928659
 23
-0.377105
 33
-0.043013
 62
0
  0
3DFACE
  8
Cube150
 10
0.928659
 20
-0.377105
 30
-0.043013
 11
0.873426
 21
-0.510445
 31
-0.098371
 12
0.748517
 22
-0.438329
 32
-0.098371
 13
0.836380
 23
-0.323826
 33
-0.043012
 62
0
  0
3DFACE
  8
Cube150
 10
0.836380
 20
-0.323826
 30
-0.043012
 11
0.748517
 21
-0.438329
 31
-0.098371
 12
0.646531
 22
-0.336342
 32
-0.098371
 13
0.761035
 23
-0.248481
 33
-0.043012
 62
0
  0
3DFACE
  8
Cube150
 10
0.761035
 20
-0.248481
 30
-0.043012
 11
0.646531
 21
-0.336342
 31
-0.098371
 12
0.574415
 22
-0.211433
 32
-0.098371
 13
0.707758
 23
-0.156202
 33
-0.043012
 62
0
  0
3DFACE
  8
Cube150
 10
0.707758
 20
-0.156202
 30
-0.043012
 11
0.574415
 21
-0.211433
 31
-0.098371
 12
0.537085
 22
-0.072115
 32
-0.098371
 13
0.680180
 23
-0.053277
 33
-0.043011
 62
0
  0
3DFACE
  8
Cube150
 10
0.680180
 20
-0.053277
 30
-0.043011
 11
0.537085
 21
-0.072115
 31
-0.098371
 12
0.537085
 22
0.072117
 32
-0.098371
 13
0.680182
 23
0.053277
 33
-0.043011
 62
0
  0
3DFACE
  8
Cube150
 10
0.886063
 20
-0.026173
 30
0.000000
 11
0.680180
 21
-0.053277
 31
-0.043011
 12
0.680182
 22
0.053277
 32
-0.043011
 13
0.886062
 23
0.026171
 33
0.000000
 62
0
  0
3DFACE
  8
Cube150
 10
0.899611
 20
-0.076735
 30
0.000000
 11
0.707758
 21
-0.156202
 31
-0.043012
 12
0.680180
 22
-0.053277
 32
-0.043011
 13
0.886063
 23
-0.026173
 33
0.000000
 62
0
  0
3DFACE
  8
Cube150
 10
0.925784
 20
-0.122066
 30
0.000000
 11
0.761035
 21
-0.248481
 31
-0.043012
 12
0.707758
 22
-0.156202
 32
-0.043012
 13
0.899611
 23
-0.076735
 33
0.000000
 62
0
  0
3DFACE
  8
Cube150
 10
0.962796
 20
-0.159079
 30
0.000000
 11
0.836380
 21
-0.323826
 31
-0.043012
 12
0.761035
 22
-0.248481
 32
-0.043012
 13
0.925784
 23
-0.122066
 33
0.000000
 62
0
  0
3DFACE
  8
Cube150
 10
1.058689
 20
-0.198798
 30
0.000000
 11
1.031582
 21
-0.404684
 31
-0.043013
 12
0.928659
 22
-0.377105
 32
-0.043013
 13
1.008129
 23
-0.185250
 33
0.000000
 62
0
  0
3DFACE
  8
Cube150
 10
1.008129
 20
-0.185250
 30
0.000000
 11
0.928659
 21
-0.377105
 31
-0.043013
 12
0.836380
 22
-0.323826
 32
-0.043012
 13
0.962796
 23
-0.159079
 33
0.000000
 62
0
  0
3DFACE
  8
Cube150
 10
1.161593
 20
-0.185249
 30
0.000000
 11
1.241062
 21
-0.377107
 31
-0.043014
 12
1.138139
 22
-0.404685
 32
-0.043013
 13
1.111033
 23
-0.198797
 33
0.000000
 62
0
  0
3DFACE
  8
Cube150
 10
1.111033
 20
-0.198797
 30
0.000000
 11
1.138139
 21
-0.404685
 31
-0.043013
 12
1.031582
 22
-0.404684
 32
-0.043013
 13
1.058689
 23
-0.198798
 33
0.000000
 62
0
  0
3DFACE
  8
Cube150
 10
1.206924
 20
-0.159077
 30
0.000000
 11
1.333344
 21
-0.323829
 31
-0.043014
 12
1.241062
 22
-0.377107
 32
-0.043014
 13
1.161593
 23
-0.185249
 33
0.000000
 62
0
  0
3DFACE
  8
Cube150
 10
1.243937
 20
-0.122064
 30
0.000000
 11
1.408689
 21
-0.248482
 31
-0.043013
 12
1.333344
 22
-0.323829
 32
-0.043014
 13
1.206924
 23
-0.159077
 33
0.000000
 62
0
  0
3DFACE
  8
Cube150
 10
1.270109
 20
-0.076734
 30
0.000000
 11
1.461967
 21
-0.156204
 31
-0.043014
 12
1.408689
 22
-0.248482
 32
-0.043013
 13
1.243937
 23
-0.122064
 33
0.000000
 62
0
  0
3DFACE
  8
Cube150
 10
1.283656
 20
-0.026173
 30
0.000000
 11
1.489545
 21
-0.053278
 31
-0.043014
 12
1.461967
 22
-0.156204
 32
-0.043014
 13
1.270109
 23
-0.076734
 33
0.000000
 62
0
  0
3DFACE
  8
Cube150
 10
1.111033
 20
-0.198797
 30
0.000000
 11
1.058689
 21
-0.198798
 31
0.000000
 12
1.008129
 22
-0.185250
 32
0.000000
 13
1.008129
 23
-0.185250
 33
0.000000
 62
0
  0
3DFACE
  8
Cube150
 10
0.962796
 20
-0.159079
 30
0.000000
 11
1.111033
 21
-0.198797
 31
0.000000
 12
1.008129
 22
-0.185250
 32
0.000000
 13
1.008129
 23
-0.185250
 33
0.000000
 62
0
  0
3DFACE
  8
Cube150
 10
1.161593
 20
-0.185249
 30
0.000000
 11
1.111033
 21
-0.198797
 31
0.000000
 12
0.962796
 22
-0.159079
 32
0.000000
 13
0.962796
 23
-0.159079
 33
0.000000
 62
0
  0
3DFACE
  8
Cube150
 10
0.925784
 20
-0.122066
 30
0.000000
 11
1.161593
 21
-0.185249
 31
0.000000
 12
0.962796
 22
-0.159079
 32
0.000000
 13
0.962796
 23
-0.159079
 33
0.000000
 62
0
  0
3DFACE
  8
Cube150
 10
1.206924
 20
-0.159077
 30
0.000000
 11
1.161593
 21
-0.185249
 31
0.000000
 12
0.925784
 22
-0.122066
 32
0.000000
 13
0.925784
 23
-0.122066
 33
0.000000
 62
0
  0
3DFACE
  8
Cube150
 10
0.899611
 20
-0.076735
 30
0.000000
 11
1.206924
 21
-0.159077
 31
0.000000
 12
0.925784
 22
-0.122066
 32
0.000000
 13
0.925784
 23
-0.122066
 33
0.000000
 62
0
  0
3DFACE
  8
Cube150
 10
1.243937
 20
-0.122064
 30
0.000000
 11
1.206924
 21
-0.159077
 31
0.000000
 12
0.899611
 22
-0.076735
 32
0.000000
 13
0.899611
 23
-0.076735
 33
0.000000
 62
0
  0
3DFACE
  8
Cube150
 10
1.270109
 20
-0.076734
 30
0.000000
 11
1.243937
 21
-0.122064
 31
0.000000
 12
0.899611
 22
-0.076735
 32
0.000000
 13
0.899611
 23
-0.076735
 33
0.000000
 62
0
  0
3DFACE
  8
Cube150
 10
0.886063
 20
-0.026173
 30
0.000000
 11
1.270109
 21
-0.076734
 31
0.000000
 12
0.899611
 22
-0.076735
 32
0.000000
 13
0.899611
 23
-0.076735
 33
0.000000
 62
0
  0
3DFACE
  8
Cube150
 10
1.283656
 20
-0.026173
 30
0.000000
 11
1.270109
 21
-0.076734
 31
0.000000
 12
0.886063
 22
-0.026173
 32
0.000000
 13
0.886063
 23
-0.026173
 33
0.000000
 62
0
  0
3DFACE
  8
Cube150
 10
0.886062
 20
0.026171
 30
0.000000
 11
1.283656
 21
-0.026173
 31
0.000000
 12
0.886063
 22
-0.026173
 32
0.000000
 13
0.886063
 23
-0.026173
 33
0.000000
 62
0
  0
3DFACE
  8
Cube150
 10
1.283657
 20
0.026170
 30
0.000000
 11
1.283656
 21
-0.026173
 31
0.000000
 12
0.886062
 22
0.026171
 32
0.000000
 13
0.886062
 23
0.026171
 33
0.000000
 62
0
  0
3DFACE
  8
Cube150
 10
0.899610
 20
0.076732
 30
0.000000
 11
1.283657
 21
0.026170
 31
0.000000
 12
0.886062
 22
0.026171
 32
0.000000
 13
0.886062
 23
0.026171
 33
0.000000
 62
0
  0
3DFACE
  8
Cube150
 10
1.270109
 20
0.076731
 30
0.000000
 11
1.283657
 21
0.026170
 31
0.000000
 12
0.899610
 22
0.076732
 32
0.000000
 13
0.899610
 23
0.076732
 33
0.000000
 62
0
  0
3DFACE
  8
Cube150
 10
0.925782
 20
0.122064
 30
0.000000
 11
1.270109
 21
0.076731
 31
0.000000
 12
0.899610
 22
0.076732
 32
0.000000
 13
0.899610
 23
0.076732
 33
0.000000
 62
0
  0
3DFACE
  8
Cube150
 10
1.243937
 20
0.122062
 30
0.000000
 11
1.270109
 21
0.076731
 31
0.000000
 12
0.925782
 22
0.122064
 32
0.000000
 13
0.925782
 23
0.122064
 33
0.000000
 62
0
  0
3DFACE
  8
Cube150
 10
0.962795
 20
0.159077
 30
0.000000
 11
1.243937
 21
0.122062
 31
0.000000
 12
0.925782
 22
0.122064
 32
0.000000
 13
0.925782
 23
0.122064
 33
0.000000
 62
0
  0
3DFACE
  8
Cube150
 10
1.206925
 20
0.159075
 30
0.000000
 11
1.243937
 21
0.122062
 31
0.000000
 12
0.962795
 22
0.159077
 32
0.000000
 13
0.962795
 23
0.159077
 33
0.000000
 62
0
  0
3DFACE
  8
Cube150
 10
1.008128
 20
0.185249
 30
0.000000
 11
1.206925
 21
0.159075
 31
0.000000
 12
0.962795
 22
0.159077
 32
0.000000
 13
0.962795
 23
0.159077
 33
0.000000
 62
0
  0
3DFACE
  8
Cube150
 10
1.161593
 20
0.185248
 30
0.000000
 11
1.206925
 21
0.159075
 31
0.000000
 12
1.008128
 22
0.185249
 32
0.000000
 13
1.008128
 23
0.185249
 33
0.000000
 62
0
  0
3DFACE
  8
Cube150
 10
1.058688
 20
0.198796
 30
0.000000
 11
1.161593
 21
0.185248
 31
0.000000
 12
1.008128
 22
0.185249
 32
0.000000
 13
1.008128
 23
0.185249
 33
0.000000
 62
0
  0
3DFACE
  8
Cube150
 10
1.111033
 20
0.198796
 30
0.000000
 11
1.161593
 21
0.185248
 31
0.000000
 12
1.058688
 22
0.198796
 32
0.000000
 13
1.058688
 23
0.198796
 33
0.000000
 62
0
 0
ENDSEC
 0
EOF
