999
DXF gemstone file C:\GemCadWin\Designs\GramTzar.dxf created by GemCad for Windows
0
SECTION
2
HEADER
0
ENDSEC
0
SECTION
2
TABLES
0
TABLE
2
LAYER
70
153
0
LAYER
2
GEM
70
0
62
15
6
CONTINUOUS
0
ENDTAB
0
ENDSEC
0
SECTION
2
ENTITIES
0
3DFACE
8
GEM
10
-0.102609
20
0.247720
30
-0.694808
11
-0.390337
21
0.942357
31
-0.069428
12
0.000000
22
1.020000
32
-0.069428
13
0.000000
23
1.020000
33
-0.069428
62
0
0
3DFACE
8
GEM
10
-0.390337
20
0.942357
30
-0.069428
11
-0.102609
21
0.247720
31
-0.694808
12
-0.721249
22
0.721249
32
-0.069428
13
-0.721249
23
0.721249
33
-0.069428
62
0
0
3DFACE
8
GEM
10
-0.247720
20
0.102609
30
-0.694808
11
-0.942357
21
0.390337
31
-0.069428
12
-0.721249
22
0.721249
32
-0.069428
13
-0.721249
23
0.721249
33
-0.069428
62
0
0
3DFACE
8
GEM
10
-0.942357
20
0.390337
30
-0.069428
11
-0.247720
21
0.102609
31
-0.694808
12
-1.020000
22
0.000000
32
-0.069428
13
-1.020000
23
0.000000
33
-0.069428
62
0
0
3DFACE
8
GEM
10
-0.247720
20
-0.102609
30
-0.694808
11
-0.942357
21
-0.390337
31
-0.069428
12
-1.020000
22
0.000000
32
-0.069428
13
-1.020000
23
0.000000
33
-0.069428
62
0
0
3DFACE
8
GEM
10
-0.942357
20
-0.390337
30
-0.069428
11
-0.247720
21
-0.102609
31
-0.694808
12
-0.721249
22
-0.721249
32
-0.069428
13
-0.721249
23
-0.721249
33
-0.069428
62
0
0
3DFACE
8
GEM
10
-0.102609
20
-0.247720
30
-0.694808
11
-0.390337
21
-0.942357
31
-0.069428
12
-0.721249
22
-0.721249
32
-0.069428
13
-0.721249
23
-0.721249
33
-0.069428
62
0
0
3DFACE
8
GEM
10
-0.390337
20
-0.942357
30
-0.069428
11
-0.102609
21
-0.247720
31
-0.694808
12
-0.000000
22
-1.020000
32
-0.069428
13
-0.000000
23
-1.020000
33
-0.069428
62
0
0
3DFACE
8
GEM
10
0.102609
20
-0.247720
30
-0.694808
11
0.390337
21
-0.942357
31
-0.069428
12
-0.000000
22
-1.020000
32
-0.069428
13
-0.000000
23
-1.020000
33
-0.069428
62
0
0
3DFACE
8
GEM
10
0.390337
20
-0.942357
30
-0.069428
11
0.102609
21
-0.247720
31
-0.694808
12
0.721249
22
-0.721249
32
-0.069428
13
0.721249
23
-0.721249
33
-0.069428
62
0
0
3DFACE
8
GEM
10
0.247720
20
-0.102609
30
-0.694808
11
0.942357
21
-0.390337
31
-0.069428
12
0.721249
22
-0.721249
32
-0.069428
13
0.721249
23
-0.721249
33
-0.069428
62
0
0
3DFACE
8
GEM
10
0.942357
20
-0.390337
30
-0.069428
11
0.247720
21
-0.102609
31
-0.694808
12
1.020000
22
0.000000
32
-0.069428
13
1.020000
23
0.000000
33
-0.069428
62
0
0
3DFACE
8
GEM
10
0.247720
20
0.102609
30
-0.694808
11
0.942357
21
0.390337
31
-0.069428
12
1.020000
22
0.000000
32
-0.069428
13
1.020000
23
0.000000
33
-0.069428
62
0
0
3DFACE
8
GEM
10
0.942357
20
0.390337
30
-0.069428
11
0.247720
21
0.102609
31
-0.694808
12
0.721249
22
0.721249
32
-0.069428
13
0.721249
23
0.721249
33
-0.069428
62
0
0
3DFACE
8
GEM
10
0.102609
20
0.247720
30
-0.694808
11
0.390337
21
0.942357
31
-0.069428
12
0.721249
22
0.721249
32
-0.069428
13
0.721249
23
0.721249
33
-0.069428
62
0
0
3DFACE
8
GEM
10
0.390337
20
0.942357
30
-0.069428
11
0.102609
21
0.247720
31
-0.694808
12
0.000000
22
1.020000
32
-0.069428
13
0.000000
23
1.020000
33
-0.069428
62
0
0
3DFACE
8
GEM
10
0.000000
20
1.020000
30
-0.000000
11
0.000000
21
1.020000
31
-0.069428
12
-0.390337
22
0.942357
32
-0.069428
13
-0.390337
23
0.942357
33
-0.069428
62
0
0
3DFACE
8
GEM
10
0.000000
20
1.020000
30
-0.000000
11
-0.390337
21
0.942357
31
-0.069428
12
-0.390337
22
0.942357
32
0.000000
13
-0.390337
23
0.942357
33
0.000000
62
0
0
3DFACE
8
GEM
10
-0.390337
20
0.942357
30
-0.069428
11
-0.721249
21
0.721249
31
-0.069428
12
-0.721249
22
0.721249
32
0.000000
13
-0.721249
23
0.721249
33
0.000000
62
0
0
3DFACE
8
GEM
10
-0.390337
20
0.942357
30
-0.069428
11
-0.721249
21
0.721249
31
0.000000
12
-0.390337
22
0.942357
32
0.000000
13
-0.390337
23
0.942357
33
0.000000
62
0
0
3DFACE
8
GEM
10
-0.721249
20
0.721249
30
-0.069428
11
-0.942357
21
0.390337
31
-0.069428
12
-0.942357
22
0.390337
32
0.000000
13
-0.942357
23
0.390337
33
0.000000
62
0
0
3DFACE
8
GEM
10
-0.721249
20
0.721249
30
-0.069428
11
-0.942357
21
0.390337
31
0.000000
12
-0.721249
22
0.721249
32
0.000000
13
-0.721249
23
0.721249
33
0.000000
62
0
0
3DFACE
8
GEM
10
-1.020000
20
0.000000
30
-0.069428
11
-1.020000
21
0.000000
31
0.000000
12
-0.942357
22
0.390337
32
0.000000
13
-0.942357
23
0.390337
33
0.000000
62
0
0
3DFACE
8
GEM
10
-1.020000
20
0.000000
30
-0.069428
11
-0.942357
21
0.390337
31
0.000000
12
-0.942357
22
0.390337
32
-0.069428
13
-0.942357
23
0.390337
33
-0.069428
62
0
0
3DFACE
8
GEM
10
-1.020000
20
0.000000
30
0.000000
11
-1.020000
21
0.000000
31
-0.069428
12
-0.942357
22
-0.390337
32
-0.069428
13
-0.942357
23
-0.390337
33
-0.069428
62
0
0
3DFACE
8
GEM
10
-1.020000
20
0.000000
30
0.000000
11
-0.942357
21
-0.390337
31
-0.069428
12
-0.942357
22
-0.390337
32
0.000000
13
-0.942357
23
-0.390337
33
0.000000
62
0
0
3DFACE
8
GEM
10
-0.942357
20
-0.390337
30
-0.069428
11
-0.721249
21
-0.721249
31
-0.069428
12
-0.721249
22
-0.721249
32
0.000000
13
-0.721249
23
-0.721249
33
0.000000
62
0
0
3DFACE
8
GEM
10
-0.942357
20
-0.390337
30
-0.069428
11
-0.721249
21
-0.721249
31
0.000000
12
-0.942357
22
-0.390337
32
0.000000
13
-0.942357
23
-0.390337
33
0.000000
62
0
0
3DFACE
8
GEM
10
-0.721249
20
-0.721249
30
-0.069428
11
-0.390337
21
-0.942357
31
-0.069428
12
-0.390337
22
-0.942357
32
0.000000
13
-0.390337
23
-0.942357
33
0.000000
62
0
0
3DFACE
8
GEM
10
-0.721249
20
-0.721249
30
-0.069428
11
-0.390337
21
-0.942357
31
0.000000
12
-0.721249
22
-0.721249
32
0.000000
13
-0.721249
23
-0.721249
33
0.000000
62
0
0
3DFACE
8
GEM
10
-0.000000
20
-1.020000
30
-0.069428
11
-0.000000
21
-1.020000
31
0.000000
12
-0.390337
22
-0.942357
32
0.000000
13
-0.390337
23
-0.942357
33
0.000000
62
0
0
3DFACE
8
GEM
10
-0.000000
20
-1.020000
30
-0.069428
11
-0.390337
21
-0.942357
31
0.000000
12
-0.390337
22
-0.942357
32
-0.069428
13
-0.390337
23
-0.942357
33
-0.069428
62
0
0
3DFACE
8
GEM
10
-0.000000
20
-1.020000
30
0.000000
11
-0.000000
21
-1.020000
31
-0.069428
12
0.390337
22
-0.942357
32
-0.069428
13
0.390337
23
-0.942357
33
-0.069428
62
0
0
3DFACE
8
GEM
10
-0.000000
20
-1.020000
30
0.000000
11
0.390337
21
-0.942357
31
-0.069428
12
0.390337
22
-0.942357
32
0.000000
13
0.390337
23
-0.942357
33
0.000000
62
0
0
3DFACE
8
GEM
10
0.390337
20
-0.942357
30
-0.069428
11
0.721249
21
-0.721249
31
-0.069428
12
0.721249
22
-0.721249
32
-0.000000
13
0.721249
23
-0.721249
33
-0.000000
62
0
0
3DFACE
8
GEM
10
0.390337
20
-0.942357
30
-0.069428
11
0.721249
21
-0.721249
31
-0.000000
12
0.390337
22
-0.942357
32
0.000000
13
0.390337
23
-0.942357
33
0.000000
62
0
0
3DFACE
8
GEM
10
0.721249
20
-0.721249
30
-0.069428
11
0.942357
21
-0.390337
31
-0.069428
12
0.942357
22
-0.390337
32
0.000000
13
0.942357
23
-0.390337
33
0.000000
62
0
0
3DFACE
8
GEM
10
0.721249
20
-0.721249
30
-0.069428
11
0.942357
21
-0.390337
31
0.000000
12
0.721249
22
-0.721249
32
-0.000000
13
0.721249
23
-0.721249
33
-0.000000
62
0
0
3DFACE
8
GEM
10
1.020000
20
0.000000
30
-0.069428
11
1.020000
21
0.000000
31
-0.000000
12
0.942357
22
-0.390337
32
0.000000
13
0.942357
23
-0.390337
33
0.000000
62
0
0
3DFACE
8
GEM
10
1.020000
20
0.000000
30
-0.069428
11
0.942357
21
-0.390337
31
0.000000
12
0.942357
22
-0.390337
32
-0.069428
13
0.942357
23
-0.390337
33
-0.069428
62
0
0
3DFACE
8
GEM
10
1.020000
20
0.000000
30
-0.000000
11
1.020000
21
0.000000
31
-0.069428
12
0.942357
22
0.390337
32
-0.069428
13
0.942357
23
0.390337
33
-0.069428
62
0
0
3DFACE
8
GEM
10
1.020000
20
0.000000
30
-0.000000
11
0.942357
21
0.390337
31
-0.069428
12
0.942357
22
0.390337
32
0.000000
13
0.942357
23
0.390337
33
0.000000
62
0
0
3DFACE
8
GEM
10
0.942357
20
0.390337
30
-0.069428
11
0.721249
21
0.721249
31
-0.069428
12
0.721249
22
0.721249
32
0.000000
13
0.721249
23
0.721249
33
0.000000
62
0
0
3DFACE
8
GEM
10
0.942357
20
0.390337
30
-0.069428
11
0.721249
21
0.721249
31
0.000000
12
0.942357
22
0.390337
32
0.000000
13
0.942357
23
0.390337
33
0.000000
62
0
0
3DFACE
8
GEM
10
0.721249
20
0.721249
30
-0.069428
11
0.390337
21
0.942357
31
-0.069428
12
0.390337
22
0.942357
32
0.000000
13
0.390337
23
0.942357
33
0.000000
62
0
0
3DFACE
8
GEM
10
0.721249
20
0.721249
30
-0.069428
11
0.390337
21
0.942357
31
0.000000
12
0.721249
22
0.721249
32
0.000000
13
0.721249
23
0.721249
33
0.000000
62
0
0
3DFACE
8
GEM
10
0.000000
20
1.020000
30
-0.069428
11
0.000000
21
1.020000
31
-0.000000
12
0.390337
22
0.942357
32
0.000000
13
0.390337
23
0.942357
33
0.000000
62
0
0
3DFACE
8
GEM
10
0.000000
20
1.020000
30
-0.069428
11
0.390337
21
0.942357
31
0.000000
12
0.390337
22
0.942357
32
-0.069428
13
0.390337
23
0.942357
33
-0.069428
62
0
0
3DFACE
8
GEM
10
-0.102609
20
0.247720
30
-0.694808
11
0.000000
21
1.020000
31
-0.069428
12
0.102609
22
0.247720
32
-0.694808
13
0.102609
23
0.247720
33
-0.694808
62
0
0
3DFACE
8
GEM
10
-0.102609
20
0.247720
30
-0.694808
11
0.102609
21
0.247720
31
-0.694808
12
-0.000000
22
0.000000
32
-0.895408
13
-0.000000
23
0.000000
33
-0.895408
62
0
0
3DFACE
8
GEM
10
-0.721249
20
0.721249
30
-0.069428
11
-0.102609
21
0.247720
31
-0.694808
12
-0.000000
22
0.000000
32
-0.895408
13
-0.000000
23
0.000000
33
-0.895408
62
0
0
3DFACE
8
GEM
10
-0.721249
20
0.721249
30
-0.069428
11
-0.000000
21
0.000000
31
-0.895408
12
-0.247720
22
0.102609
32
-0.694808
13
-0.247720
23
0.102609
33
-0.694808
62
0
0
3DFACE
8
GEM
10
-1.020000
20
0.000000
30
-0.069428
11
-0.247720
21
0.102609
31
-0.694808
12
-0.000000
22
0.000000
32
-0.895408
13
-0.000000
23
0.000000
33
-0.895408
62
0
0
3DFACE
8
GEM
10
-1.020000
20
0.000000
30
-0.069428
11
-0.000000
21
0.000000
31
-0.895408
12
-0.247720
22
-0.102609
32
-0.694808
13
-0.247720
23
-0.102609
33
-0.694808
62
0
0
3DFACE
8
GEM
10
-0.721249
20
-0.721249
30
-0.069428
11
-0.247720
21
-0.102609
31
-0.694808
12
-0.000000
22
0.000000
32
-0.895408
13
-0.000000
23
0.000000
33
-0.895408
62
0
0
3DFACE
8
GEM
10
-0.721249
20
-0.721249
30
-0.069428
11
-0.000000
21
0.000000
31
-0.895408
12
-0.102609
22
-0.247720
32
-0.694808
13
-0.102609
23
-0.247720
33
-0.694808
62
0
0
3DFACE
8
GEM
10
-0.000000
20
-1.020000
30
-0.069428
11
-0.102609
21
-0.247720
31
-0.694808
12
-0.000000
22
0.000000
32
-0.895408
13
-0.000000
23
0.000000
33
-0.895408
62
0
0
3DFACE
8
GEM
10
-0.000000
20
-1.020000
30
-0.069428
11
-0.000000
21
0.000000
31
-0.895408
12
0.102609
22
-0.247720
32
-0.694808
13
0.102609
23
-0.247720
33
-0.694808
62
0
0
3DFACE
8
GEM
10
0.721249
20
-0.721249
30
-0.069428
11
0.102609
21
-0.247720
31
-0.694808
12
-0.000000
22
0.000000
32
-0.895408
13
-0.000000
23
0.000000
33
-0.895408
62
0
0
3DFACE
8
GEM
10
0.721249
20
-0.721249
30
-0.069428
11
-0.000000
21
0.000000
31
-0.895408
12
0.247720
22
-0.102609
32
-0.694808
13
0.247720
23
-0.102609
33
-0.694808
62
0
0
3DFACE
8
GEM
10
1.020000
20
0.000000
30
-0.069428
11
0.247720
21
-0.102609
31
-0.694808
12
-0.000000
22
0.000000
32
-0.895408
13
-0.000000
23
0.000000
33
-0.895408
62
0
0
3DFACE
8
GEM
10
1.020000
20
0.000000
30
-0.069428
11
-0.000000
21
0.000000
31
-0.895408
12
0.247720
22
0.102609
32
-0.694808
13
0.247720
23
0.102609
33
-0.694808
62
0
0
3DFACE
8
GEM
10
0.721249
20
0.721249
30
-0.069428
11
0.247720
21
0.102609
31
-0.694808
12
-0.000000
22
0.000000
32
-0.895408
13
-0.000000
23
0.000000
33
-0.895408
62
0
0
3DFACE
8
GEM
10
0.721249
20
0.721249
30
-0.069428
11
-0.000000
21
0.000000
31
-0.895408
12
0.102609
22
0.247720
32
-0.694808
13
0.102609
23
0.247720
33
-0.694808
62
0
0
3DFACE
8
GEM
10
0.390337
20
0.942357
30
0.000000
11
0.000000
21
1.020000
31
-0.000000
12
0.111655
22
0.942494
32
0.102000
13
0.111655
23
0.942494
33
0.102000
62
0
0
3DFACE
8
GEM
10
0.390337
20
0.942357
30
0.000000
11
0.111655
21
0.942494
31
0.102000
12
0.369176
22
0.891269
32
0.102000
13
0.369176
23
0.891269
33
0.102000
62
0
0
3DFACE
8
GEM
10
0.721249
20
0.721249
30
0.000000
11
0.390337
21
0.942357
31
0.000000
12
0.369176
22
0.891269
32
0.102000
13
0.369176
23
0.891269
33
0.102000
62
0
0
3DFACE
8
GEM
10
0.721249
20
0.721249
30
0.000000
11
0.369176
21
0.891269
31
0.102000
12
0.587492
22
0.745396
32
0.102000
13
0.587492
23
0.745396
33
0.102000
62
0
0
3DFACE
8
GEM
10
0.942357
20
0.390337
30
0.000000
11
0.721249
21
0.721249
31
0.000000
12
0.745396
22
0.587492
32
0.102000
13
0.745396
23
0.587492
33
0.102000
62
0
0
3DFACE
8
GEM
10
0.942357
20
0.390337
30
0.000000
11
0.745396
21
0.587492
31
0.102000
12
0.891269
22
0.369176
32
0.102000
13
0.891269
23
0.369176
33
0.102000
62
0
0
3DFACE
8
GEM
10
1.020000
20
0.000000
30
-0.000000
11
0.942357
21
0.390337
31
0.000000
12
0.891269
22
0.369176
32
0.102000
13
0.891269
23
0.369176
33
0.102000
62
0
0
3DFACE
8
GEM
10
1.020000
20
0.000000
30
-0.000000
11
0.891269
21
0.369176
31
0.102000
12
0.942494
22
0.111655
32
0.102000
13
0.942494
23
0.111655
33
0.102000
62
0
0
3DFACE
8
GEM
10
0.942357
20
-0.390337
30
0.000000
11
1.020000
21
0.000000
31
-0.000000
12
0.942494
22
-0.111655
32
0.102000
13
0.942494
23
-0.111655
33
0.102000
62
0
0
3DFACE
8
GEM
10
0.942357
20
-0.390337
30
0.000000
11
0.942494
21
-0.111655
31
0.102000
12
0.891269
22
-0.369176
32
0.102000
13
0.891269
23
-0.369176
33
0.102000
62
0
0
3DFACE
8
GEM
10
0.721249
20
-0.721249
30
-0.000000
11
0.942357
21
-0.390337
31
0.000000
12
0.891269
22
-0.369176
32
0.102000
13
0.891269
23
-0.369176
33
0.102000
62
0
0
3DFACE
8
GEM
10
0.721249
20
-0.721249
30
-0.000000
11
0.891269
21
-0.369176
31
0.102000
12
0.745396
22
-0.587492
32
0.102000
13
0.745396
23
-0.587492
33
0.102000
62
0
0
3DFACE
8
GEM
10
0.390337
20
-0.942357
30
0.000000
11
0.721249
21
-0.721249
31
-0.000000
12
0.587492
22
-0.745396
32
0.102000
13
0.587492
23
-0.745396
33
0.102000
62
0
0
3DFACE
8
GEM
10
0.390337
20
-0.942357
30
0.000000
11
0.587492
21
-0.745396
31
0.102000
12
0.369176
22
-0.891269
32
0.102000
13
0.369176
23
-0.891269
33
0.102000
62
0
0
3DFACE
8
GEM
10
-0.000000
20
-1.020000
30
0.000000
11
0.390337
21
-0.942357
31
0.000000
12
0.369176
22
-0.891269
32
0.102000
13
0.369176
23
-0.891269
33
0.102000
62
0
0
3DFACE
8
GEM
10
-0.000000
20
-1.020000
30
0.000000
11
0.369176
21
-0.891269
31
0.102000
12
0.111655
22
-0.942494
32
0.102000
13
0.111655
23
-0.942494
33
0.102000
62
0
0
3DFACE
8
GEM
10
-0.390337
20
-0.942357
30
0.000000
11
-0.000000
21
-1.020000
31
0.000000
12
-0.111655
22
-0.942494
32
0.102000
13
-0.111655
23
-0.942494
33
0.102000
62
0
0
3DFACE
8
GEM
10
-0.390337
20
-0.942357
30
0.000000
11
-0.111655
21
-0.942494
31
0.102000
12
-0.369176
22
-0.891269
32
0.102000
13
-0.369176
23
-0.891269
33
0.102000
62
0
0
3DFACE
8
GEM
10
-0.721249
20
-0.721249
30
0.000000
11
-0.390337
21
-0.942357
31
0.000000
12
-0.369176
22
-0.891269
32
0.102000
13
-0.369176
23
-0.891269
33
0.102000
62
0
0
3DFACE
8
GEM
10
-0.721249
20
-0.721249
30
0.000000
11
-0.369176
21
-0.891269
31
0.102000
12
-0.587492
22
-0.745396
32
0.102000
13
-0.587492
23
-0.745396
33
0.102000
62
0
0
3DFACE
8
GEM
10
-0.942357
20
-0.390337
30
0.000000
11
-0.721249
21
-0.721249
31
0.000000
12
-0.745396
22
-0.587492
32
0.102000
13
-0.745396
23
-0.587492
33
0.102000
62
0
0
3DFACE
8
GEM
10
-0.942357
20
-0.390337
30
0.000000
11
-0.745396
21
-0.587492
31
0.102000
12
-0.891269
22
-0.369176
32
0.102000
13
-0.891269
23
-0.369176
33
0.102000
62
0
0
3DFACE
8
GEM
10
-1.020000
20
0.000000
30
0.000000
11
-0.942357
21
-0.390337
31
0.000000
12
-0.891269
22
-0.369176
32
0.102000
13
-0.891269
23
-0.369176
33
0.102000
62
0
0
3DFACE
8
GEM
10
-1.020000
20
0.000000
30
0.000000
11
-0.891269
21
-0.369176
31
0.102000
12
-0.942494
22
-0.111655
32
0.102000
13
-0.942494
23
-0.111655
33
0.102000
62
0
0
3DFACE
8
GEM
10
-0.942357
20
0.390337
30
0.000000
11
-1.020000
21
0.000000
31
0.000000
12
-0.942494
22
0.111655
32
0.102000
13
-0.942494
23
0.111655
33
0.102000
62
0
0
3DFACE
8
GEM
10
-0.942357
20
0.390337
30
0.000000
11
-0.942494
21
0.111655
31
0.102000
12
-0.891269
22
0.369176
32
0.102000
13
-0.891269
23
0.369176
33
0.102000
62
0
0
3DFACE
8
GEM
10
-0.721249
20
0.721249
30
0.000000
11
-0.942357
21
0.390337
31
0.000000
12
-0.891269
22
0.369176
32
0.102000
13
-0.891269
23
0.369176
33
0.102000
62
0
0
3DFACE
8
GEM
10
-0.721249
20
0.721249
30
0.000000
11
-0.891269
21
0.369176
31
0.102000
12
-0.745396
22
0.587492
32
0.102000
13
-0.745396
23
0.587492
33
0.102000
62
0
0
3DFACE
8
GEM
10
-0.390337
20
0.942357
30
0.000000
11
-0.721249
21
0.721249
31
0.000000
12
-0.587492
22
0.745396
32
0.102000
13
-0.587492
23
0.745396
33
0.102000
62
0
0
3DFACE
8
GEM
10
-0.390337
20
0.942357
30
0.000000
11
-0.587492
21
0.745396
31
0.102000
12
-0.369176
22
0.891269
32
0.102000
13
-0.369176
23
0.891269
33
0.102000
62
0
0
3DFACE
8
GEM
10
0.000000
20
1.020000
30
-0.000000
11
-0.390337
21
0.942357
31
0.000000
12
-0.369176
22
0.891269
32
0.102000
13
-0.369176
23
0.891269
33
0.102000
62
0
0
3DFACE
8
GEM
10
0.000000
20
1.020000
30
-0.000000
11
-0.369176
21
0.891269
31
0.102000
12
-0.111655
22
0.942494
32
0.102000
13
-0.111655
23
0.942494
33
0.102000
62
0
0
3DFACE
8
GEM
10
0.369176
20
0.891269
30
0.102000
11
0.111655
21
0.942494
31
0.102000
12
0.017125
22
0.843990
32
0.231633
13
0.017125
23
0.843990
33
0.231633
62
0
0
3DFACE
8
GEM
10
0.369176
20
0.891269
30
0.102000
11
0.017125
21
0.843990
31
0.231633
12
0.237906
22
0.800074
32
0.231633
13
0.237906
23
0.800074
33
0.231633
62
0
0
3DFACE
8
GEM
10
0.587492
20
0.745396
30
0.102000
11
0.369176
21
0.891269
31
0.102000
12
0.397512
22
0.733963
32
0.231633
13
0.397512
23
0.733963
33
0.231633
62
0
0
3DFACE
8
GEM
10
0.587492
20
0.745396
30
0.102000
11
0.397512
21
0.733963
31
0.231633
12
0.584682
22
0.608900
32
0.231633
13
0.584682
23
0.608900
33
0.231633
62
0
0
3DFACE
8
GEM
10
0.891269
20
0.369176
30
0.102000
11
0.745396
21
0.587492
31
0.102000
12
0.608900
22
0.584682
32
0.231633
13
0.608900
23
0.584682
33
0.231633
62
0
0
3DFACE
8
GEM
10
0.891269
20
0.369176
30
0.102000
11
0.608900
21
0.584682
31
0.231633
12
0.733963
22
0.397512
32
0.231633
13
0.733963
23
0.397512
33
0.231633
62
0
0
3DFACE
8
GEM
10
0.942494
20
0.111655
30
0.102000
11
0.891269
21
0.369176
31
0.102000
12
0.800074
22
0.237906
32
0.231633
13
0.800074
23
0.237906
33
0.231633
62
0
0
3DFACE
8
GEM
10
0.942494
20
0.111655
30
0.102000
11
0.800074
21
0.237906
31
0.231633
12
0.843990
22
0.017125
32
0.231633
13
0.843990
23
0.017125
33
0.231633
62
0
0
3DFACE
8
GEM
10
0.891269
20
-0.369176
30
0.102000
11
0.942494
21
-0.111655
31
0.102000
12
0.843990
22
-0.017125
32
0.231633
13
0.843990
23
-0.017125
33
0.231633
62
0
0
3DFACE
8
GEM
10
0.891269
20
-0.369176
30
0.102000
11
0.843990
21
-0.017125
31
0.231633
12
0.800074
22
-0.237906
32
0.231633
13
0.800074
23
-0.237906
33
0.231633
62
0
0
3DFACE
8
GEM
10
0.745396
20
-0.587492
30
0.102000
11
0.891269
21
-0.369176
31
0.102000
12
0.733963
22
-0.397512
32
0.231633
13
0.733963
23
-0.397512
33
0.231633
62
0
0
3DFACE
8
GEM
10
0.745396
20
-0.587492
30
0.102000
11
0.733963
21
-0.397512
31
0.231633
12
0.608900
22
-0.584682
32
0.231633
13
0.608900
23
-0.584682
33
0.231633
62
0
0
3DFACE
8
GEM
10
0.369176
20
-0.891269
30
0.102000
11
0.587492
21
-0.745396
31
0.102000
12
0.584682
22
-0.608900
32
0.231633
13
0.584682
23
-0.608900
33
0.231633
62
0
0
3DFACE
8
GEM
10
0.369176
20
-0.891269
30
0.102000
11
0.584682
21
-0.608900
31
0.231633
12
0.397512
22
-0.733963
32
0.231633
13
0.397512
23
-0.733963
33
0.231633
62
0
0
3DFACE
8
GEM
10
0.111655
20
-0.942494
30
0.102000
11
0.369176
21
-0.891269
31
0.102000
12
0.237906
22
-0.800074
32
0.231633
13
0.237906
23
-0.800074
33
0.231633
62
0
0
3DFACE
8
GEM
10
0.111655
20
-0.942494
30
0.102000
11
0.237906
21
-0.800074
31
0.231633
12
0.017125
22
-0.843990
32
0.231633
13
0.017125
23
-0.843990
33
0.231633
62
0
0
3DFACE
8
GEM
10
-0.369176
20
-0.891269
30
0.102000
11
-0.111655
21
-0.942494
31
0.102000
12
-0.017125
22
-0.843990
32
0.231633
13
-0.017125
23
-0.843990
33
0.231633
62
0
0
3DFACE
8
GEM
10
-0.369176
20
-0.891269
30
0.102000
11
-0.017125
21
-0.843990
31
0.231633
12
-0.237906
22
-0.800074
32
0.231633
13
-0.237906
23
-0.800074
33
0.231633
62
0
0
3DFACE
8
GEM
10
-0.587492
20
-0.745396
30
0.102000
11
-0.369176
21
-0.891269
31
0.102000
12
-0.397512
22
-0.733963
32
0.231633
13
-0.397512
23
-0.733963
33
0.231633
62
0
0
3DFACE
8
GEM
10
-0.587492
20
-0.745396
30
0.102000
11
-0.397512
21
-0.733963
31
0.231633
12
-0.584682
22
-0.608900
32
0.231633
13
-0.584682
23
-0.608900
33
0.231633
62
0
0
3DFACE
8
GEM
10
-0.891269
20
-0.369176
30
0.102000
11
-0.745396
21
-0.587492
31
0.102000
12
-0.608900
22
-0.584682
32
0.231633
13
-0.608900
23
-0.584682
33
0.231633
62
0
0
3DFACE
8
GEM
10
-0.891269
20
-0.369176
30
0.102000
11
-0.608900
21
-0.584682
31
0.231633
12
-0.733963
22
-0.397512
32
0.231633
13
-0.733963
23
-0.397512
33
0.231633
62
0
0
3DFACE
8
GEM
10
-0.942494
20
-0.111655
30
0.102000
11
-0.891269
21
-0.369176
31
0.102000
12
-0.800074
22
-0.237906
32
0.231633
13
-0.800074
23
-0.237906
33
0.231633
62
0
0
3DFACE
8
GEM
10
-0.942494
20
-0.111655
30
0.102000
11
-0.800074
21
-0.237906
31
0.231633
12
-0.843990
22
-0.017125
32
0.231633
13
-0.843990
23
-0.017125
33
0.231633
62
0
0
3DFACE
8
GEM
10
-0.891269
20
0.369176
30
0.102000
11
-0.942494
21
0.111655
31
0.102000
12
-0.843990
22
0.017125
32
0.231633
13
-0.843990
23
0.017125
33
0.231633
62
0
0
3DFACE
8
GEM
10
-0.891269
20
0.369176
30
0.102000
11
-0.843990
21
0.017125
31
0.231633
12
-0.800074
22
0.237906
32
0.231633
13
-0.800074
23
0.237906
33
0.231633
62
0
0
3DFACE
8
GEM
10
-0.745396
20
0.587492
30
0.102000
11
-0.891269
21
0.369176
31
0.102000
12
-0.733963
22
0.397512
32
0.231633
13
-0.733963
23
0.397512
33
0.231633
62
0
0
3DFACE
8
GEM
10
-0.745396
20
0.587492
30
0.102000
11
-0.733963
21
0.397512
31
0.231633
12
-0.608900
22
0.584682
32
0.231633
13
-0.608900
23
0.584682
33
0.231633
62
0
0
3DFACE
8
GEM
10
-0.369176
20
0.891269
30
0.102000
11
-0.587492
21
0.745396
31
0.102000
12
-0.584682
22
0.608900
32
0.231633
13
-0.584682
23
0.608900
33
0.231633
62
0
0
3DFACE
8
GEM
10
-0.369176
20
0.891269
30
0.102000
11
-0.584682
21
0.608900
31
0.231633
12
-0.397512
22
0.733963
32
0.231633
13
-0.397512
23
0.733963
33
0.231633
62
0
0
3DFACE
8
GEM
10
-0.111655
20
0.942494
30
0.102000
11
-0.369176
21
0.891269
31
0.102000
12
-0.237906
22
0.800074
32
0.231633
13
-0.237906
23
0.800074
33
0.231633
62
0
0
3DFACE
8
GEM
10
-0.111655
20
0.942494
30
0.102000
11
-0.237906
21
0.800074
31
0.231633
12
-0.017125
22
0.843990
32
0.231633
13
-0.017125
23
0.843990
33
0.231633
62
0
0
3DFACE
8
GEM
10
0.111655
20
0.942494
30
0.102000
11
0.000000
21
1.020000
31
-0.000000
12
-0.111655
22
0.942494
32
0.102000
13
-0.111655
23
0.942494
33
0.102000
62
0
0
3DFACE
8
GEM
10
0.111655
20
0.942494
30
0.102000
11
-0.111655
21
0.942494
31
0.102000
12
-0.017125
22
0.843990
32
0.231633
13
-0.017125
23
0.843990
33
0.231633
62
0
0
3DFACE
8
GEM
10
0.111655
20
0.942494
30
0.102000
11
-0.017125
21
0.843990
31
0.231633
12
0.017125
22
0.843990
32
0.231633
13
0.017125
23
0.843990
33
0.231633
62
0
0
3DFACE
8
GEM
10
0.721249
20
0.721249
30
0.000000
11
0.587492
21
0.745396
31
0.102000
12
0.584682
22
0.608900
32
0.231633
13
0.584682
23
0.608900
33
0.231633
62
0
0
3DFACE
8
GEM
10
0.721249
20
0.721249
30
0.000000
11
0.584682
21
0.608900
31
0.231633
12
0.608900
22
0.584682
32
0.231633
13
0.608900
23
0.584682
33
0.231633
62
0
0
3DFACE
8
GEM
10
0.721249
20
0.721249
30
0.000000
11
0.608900
21
0.584682
31
0.231633
12
0.745396
22
0.587492
32
0.102000
13
0.745396
23
0.587492
33
0.102000
62
0
0
3DFACE
8
GEM
10
1.020000
20
0.000000
30
-0.000000
11
0.942494
21
0.111655
31
0.102000
12
0.843990
22
0.017125
32
0.231633
13
0.843990
23
0.017125
33
0.231633
62
0
0
3DFACE
8
GEM
10
1.020000
20
0.000000
30
-0.000000
11
0.843990
21
0.017125
31
0.231633
12
0.843990
22
-0.017125
32
0.231633
13
0.843990
23
-0.017125
33
0.231633
62
0
0
3DFACE
8
GEM
10
1.020000
20
0.000000
30
-0.000000
11
0.843990
21
-0.017125
31
0.231633
12
0.942494
22
-0.111655
32
0.102000
13
0.942494
23
-0.111655
33
0.102000
62
0
0
3DFACE
8
GEM
10
0.721249
20
-0.721249
30
-0.000000
11
0.745396
21
-0.587492
31
0.102000
12
0.608900
22
-0.584682
32
0.231633
13
0.608900
23
-0.584682
33
0.231633
62
0
0
3DFACE
8
GEM
10
0.721249
20
-0.721249
30
-0.000000
11
0.608900
21
-0.584682
31
0.231633
12
0.584682
22
-0.608900
32
0.231633
13
0.584682
23
-0.608900
33
0.231633
62
0
0
3DFACE
8
GEM
10
0.721249
20
-0.721249
30
-0.000000
11
0.584682
21
-0.608900
31
0.231633
12
0.587492
22
-0.745396
32
0.102000
13
0.587492
23
-0.745396
33
0.102000
62
0
0
3DFACE
8
GEM
10
-0.000000
20
-1.020000
30
0.000000
11
0.111655
21
-0.942494
31
0.102000
12
0.017125
22
-0.843990
32
0.231633
13
0.017125
23
-0.843990
33
0.231633
62
0
0
3DFACE
8
GEM
10
-0.000000
20
-1.020000
30
0.000000
11
0.017125
21
-0.843990
31
0.231633
12
-0.017125
22
-0.843990
32
0.231633
13
-0.017125
23
-0.843990
33
0.231633
62
0
0
3DFACE
8
GEM
10
-0.000000
20
-1.020000
30
0.000000
11
-0.017125
21
-0.843990
31
0.231633
12
-0.111655
22
-0.942494
32
0.102000
13
-0.111655
23
-0.942494
33
0.102000
62
0
0
3DFACE
8
GEM
10
-0.721249
20
-0.721249
30
0.000000
11
-0.587492
21
-0.745396
31
0.102000
12
-0.584682
22
-0.608900
32
0.231633
13
-0.584682
23
-0.608900
33
0.231633
62
0
0
3DFACE
8
GEM
10
-0.721249
20
-0.721249
30
0.000000
11
-0.584682
21
-0.608900
31
0.231633
12
-0.608900
22
-0.584682
32
0.231633
13
-0.608900
23
-0.584682
33
0.231633
62
0
0
3DFACE
8
GEM
10
-0.721249
20
-0.721249
30
0.000000
11
-0.608900
21
-0.584682
31
0.231633
12
-0.745396
22
-0.587492
32
0.102000
13
-0.745396
23
-0.587492
33
0.102000
62
0
0
3DFACE
8
GEM
10
-1.020000
20
0.000000
30
0.000000
11
-0.942494
21
-0.111655
31
0.102000
12
-0.843990
22
-0.017125
32
0.231633
13
-0.843990
23
-0.017125
33
0.231633
62
0
0
3DFACE
8
GEM
10
-1.020000
20
0.000000
30
0.000000
11
-0.843990
21
-0.017125
31
0.231633
12
-0.843990
22
0.017125
32
0.231633
13
-0.843990
23
0.017125
33
0.231633
62
0
0
3DFACE
8
GEM
10
-1.020000
20
0.000000
30
0.000000
11
-0.843990
21
0.017125
31
0.231633
12
-0.942494
22
0.111655
32
0.102000
13
-0.942494
23
0.111655
33
0.102000
62
0
0
3DFACE
8
GEM
10
-0.721249
20
0.721249
30
0.000000
11
-0.745396
21
0.587492
31
0.102000
12
-0.608900
22
0.584682
32
0.231633
13
-0.608900
23
0.584682
33
0.231633
62
0
0
3DFACE
8
GEM
10
-0.721249
20
0.721249
30
0.000000
11
-0.608900
21
0.584682
31
0.231633
12
-0.584682
22
0.608900
32
0.231633
13
-0.584682
23
0.608900
33
0.231633
62
0
0
3DFACE
8
GEM
10
-0.721249
20
0.721249
30
0.000000
11
-0.584682
21
0.608900
31
0.231633
12
-0.587492
22
0.745396
32
0.102000
13
-0.587492
23
0.745396
33
0.102000
62
0
0
3DFACE
8
GEM
10
0.369176
20
0.891269
30
0.102000
11
0.237906
21
0.800074
31
0.231633
12
0.305363
22
0.737212
32
0.269793
13
0.305363
23
0.737212
33
0.269793
62
0
0
3DFACE
8
GEM
10
0.397512
20
0.733963
30
0.231633
11
0.369176
21
0.891269
31
0.102000
12
0.305363
22
0.737212
32
0.269793
13
0.305363
23
0.737212
33
0.269793
62
0
0
3DFACE
8
GEM
10
0.891269
20
0.369176
30
0.102000
11
0.733963
21
0.397512
31
0.231633
12
0.737212
22
0.305363
32
0.269793
13
0.737212
23
0.305363
33
0.269793
62
0
0
3DFACE
8
GEM
10
0.800074
20
0.237906
30
0.231633
11
0.891269
21
0.369176
31
0.102000
12
0.737212
22
0.305363
32
0.269793
13
0.737212
23
0.305363
33
0.269793
62
0
0
3DFACE
8
GEM
10
0.891269
20
-0.369176
30
0.102000
11
0.800074
21
-0.237906
31
0.231633
12
0.737212
22
-0.305363
32
0.269793
13
0.737212
23
-0.305363
33
0.269793
62
0
0
3DFACE
8
GEM
10
0.733963
20
-0.397512
30
0.231633
11
0.891269
21
-0.369176
31
0.102000
12
0.737212
22
-0.305363
32
0.269793
13
0.737212
23
-0.305363
33
0.269793
62
0
0
3DFACE
8
GEM
10
0.369176
20
-0.891269
30
0.102000
11
0.397512
21
-0.733963
31
0.231633
12
0.305363
22
-0.737212
32
0.269793
13
0.305363
23
-0.737212
33
0.269793
62
0
0
3DFACE
8
GEM
10
0.237906
20
-0.800074
30
0.231633
11
0.369176
21
-0.891269
31
0.102000
12
0.305363
22
-0.737212
32
0.269793
13
0.305363
23
-0.737212
33
0.269793
62
0
0
3DFACE
8
GEM
10
-0.369176
20
-0.891269
30
0.102000
11
-0.237906
21
-0.800074
31
0.231633
12
-0.305363
22
-0.737212
32
0.269793
13
-0.305363
23
-0.737212
33
0.269793
62
0
0
3DFACE
8
GEM
10
-0.397512
20
-0.733963
30
0.231633
11
-0.369176
21
-0.891269
31
0.102000
12
-0.305363
22
-0.737212
32
0.269793
13
-0.305363
23
-0.737212
33
0.269793
62
0
0
3DFACE
8
GEM
10
-0.891269
20
-0.369176
30
0.102000
11
-0.733963
21
-0.397512
31
0.231633
12
-0.737212
22
-0.305363
32
0.269793
13
-0.737212
23
-0.305363
33
0.269793
62
0
0
3DFACE
8
GEM
10
-0.800074
20
-0.237906
30
0.231633
11
-0.891269
21
-0.369176
31
0.102000
12
-0.737212
22
-0.305363
32
0.269793
13
-0.737212
23
-0.305363
33
0.269793
62
0
0
3DFACE
8
GEM
10
-0.891269
20
0.369176
30
0.102000
11
-0.800074
21
0.237906
31
0.231633
12
-0.737212
22
0.305363
32
0.269793
13
-0.737212
23
0.305363
33
0.269793
62
0
0
3DFACE
8
GEM
10
-0.733963
20
0.397512
30
0.231633
11
-0.891269
21
0.369176
31
0.102000
12
-0.737212
22
0.305363
32
0.269793
13
-0.737212
23
0.305363
33
0.269793
62
0
0
3DFACE
8
GEM
10
-0.369176
20
0.891269
30
0.102000
11
-0.397512
21
0.733963
31
0.231633
12
-0.305363
22
0.737212
32
0.269793
13
-0.305363
23
0.737212
33
0.269793
62
0
0
3DFACE
8
GEM
10
-0.237906
20
0.800074
30
0.231633
11
-0.369176
21
0.891269
31
0.102000
12
-0.305363
22
0.737212
32
0.269793
13
-0.305363
23
0.737212
33
0.269793
62
0
0
3DFACE
8
GEM
10
0.237906
20
0.800074
30
0.231633
11
0.017125
21
0.843990
31
0.231633
12
0.228617
22
0.551930
32
0.424577
13
0.228617
23
0.551930
33
0.424577
62
0
0
3DFACE
8
GEM
10
0.237906
20
0.800074
30
0.231633
11
0.228617
21
0.551930
31
0.424577
12
0.305363
22
0.737212
32
0.269793
13
0.305363
23
0.737212
33
0.269793
62
0
0
3DFACE
8
GEM
10
0.584682
20
0.608900
30
0.231633
11
0.397512
21
0.733963
31
0.231633
12
0.305363
22
0.737212
32
0.269793
13
0.305363
23
0.737212
33
0.269793
62
0
0
3DFACE
8
GEM
10
0.584682
20
0.608900
30
0.231633
11
0.305363
21
0.737212
31
0.269793
12
0.228617
22
0.551930
32
0.424577
13
0.228617
23
0.551930
33
0.424577
62
0
0
3DFACE
8
GEM
10
0.733963
20
0.397512
30
0.231633
11
0.608900
21
0.584682
31
0.231633
12
0.551930
22
0.228617
32
0.424577
13
0.551930
23
0.228617
33
0.424577
62
0
0
3DFACE
8
GEM
10
0.733963
20
0.397512
30
0.231633
11
0.551930
21
0.228617
31
0.424577
12
0.737212
22
0.305363
32
0.269793
13
0.737212
23
0.305363
33
0.269793
62
0
0
3DFACE
8
GEM
10
0.843990
20
0.017125
30
0.231633
11
0.800074
21
0.237906
31
0.231633
12
0.737212
22
0.305363
32
0.269793
13
0.737212
23
0.305363
33
0.269793
62
0
0
3DFACE
8
GEM
10
0.843990
20
0.017125
30
0.231633
11
0.737212
21
0.305363
31
0.269793
12
0.551930
22
0.228617
32
0.424577
13
0.551930
23
0.228617
33
0.424577
62
0
0
3DFACE
8
GEM
10
0.800074
20
-0.237906
30
0.231633
11
0.843990
21
-0.017125
31
0.231633
12
0.551930
22
-0.228617
32
0.424577
13
0.551930
23
-0.228617
33
0.424577
62
0
0
3DFACE
8
GEM
10
0.800074
20
-0.237906
30
0.231633
11
0.551930
21
-0.228617
31
0.424577
12
0.737212
22
-0.305363
32
0.269793
13
0.737212
23
-0.305363
33
0.269793
62
0
0
3DFACE
8
GEM
10
0.608900
20
-0.584682
30
0.231633
11
0.733963
21
-0.397512
31
0.231633
12
0.737212
22
-0.305363
32
0.269793
13
0.737212
23
-0.305363
33
0.269793
62
0
0
3DFACE
8
GEM
10
0.608900
20
-0.584682
30
0.231633
11
0.737212
21
-0.305363
31
0.269793
12
0.551930
22
-0.228617
32
0.424577
13
0.551930
23
-0.228617
33
0.424577
62
0
0
3DFACE
8
GEM
10
0.397512
20
-0.733963
30
0.231633
11
0.584682
21
-0.608900
31
0.231633
12
0.228617
22
-0.551930
32
0.424577
13
0.228617
23
-0.551930
33
0.424577
62
0
0
3DFACE
8
GEM
10
0.397512
20
-0.733963
30
0.231633
11
0.228617
21
-0.551930
31
0.424577
12
0.305363
22
-0.737212
32
0.269793
13
0.305363
23
-0.737212
33
0.269793
62
0
0
3DFACE
8
GEM
10
0.017125
20
-0.843990
30
0.231633
11
0.237906
21
-0.800074
31
0.231633
12
0.305363
22
-0.737212
32
0.269793
13
0.305363
23
-0.737212
33
0.269793
62
0
0
3DFACE
8
GEM
10
0.017125
20
-0.843990
30
0.231633
11
0.305363
21
-0.737212
31
0.269793
12
0.228617
22
-0.551930
32
0.424577
13
0.228617
23
-0.551930
33
0.424577
62
0
0
3DFACE
8
GEM
10
-0.237906
20
-0.800074
30
0.231633
11
-0.017125
21
-0.843990
31
0.231633
12
-0.228617
22
-0.551930
32
0.424577
13
-0.228617
23
-0.551930
33
0.424577
62
0
0
3DFACE
8
GEM
10
-0.237906
20
-0.800074
30
0.231633
11
-0.228617
21
-0.551930
31
0.424577
12
-0.305363
22
-0.737212
32
0.269793
13
-0.305363
23
-0.737212
33
0.269793
62
0
0
3DFACE
8
GEM
10
-0.584682
20
-0.608900
30
0.231633
11
-0.397512
21
-0.733963
31
0.231633
12
-0.305363
22
-0.737212
32
0.269793
13
-0.305363
23
-0.737212
33
0.269793
62
0
0
3DFACE
8
GEM
10
-0.584682
20
-0.608900
30
0.231633
11
-0.305363
21
-0.737212
31
0.269793
12
-0.228617
22
-0.551930
32
0.424577
13
-0.228617
23
-0.551930
33
0.424577
62
0
0
3DFACE
8
GEM
10
-0.733963
20
-0.397512
30
0.231633
11
-0.608900
21
-0.584682
31
0.231633
12
-0.551930
22
-0.228617
32
0.424577
13
-0.551930
23
-0.228617
33
0.424577
62
0
0
3DFACE
8
GEM
10
-0.733963
20
-0.397512
30
0.231633
11
-0.551930
21
-0.228617
31
0.424577
12
-0.737212
22
-0.305363
32
0.269793
13
-0.737212
23
-0.305363
33
0.269793
62
0
0
3DFACE
8
GEM
10
-0.843990
20
-0.017125
30
0.231633
11
-0.800074
21
-0.237906
31
0.231633
12
-0.737212
22
-0.305363
32
0.269793
13
-0.737212
23
-0.305363
33
0.269793
62
0
0
3DFACE
8
GEM
10
-0.843990
20
-0.017125
30
0.231633
11
-0.737212
21
-0.305363
31
0.269793
12
-0.551930
22
-0.228617
32
0.424577
13
-0.551930
23
-0.228617
33
0.424577
62
0
0
3DFACE
8
GEM
10
-0.800074
20
0.237906
30
0.231633
11
-0.843990
21
0.017125
31
0.231633
12
-0.551930
22
0.228617
32
0.424577
13
-0.551930
23
0.228617
33
0.424577
62
0
0
3DFACE
8
GEM
10
-0.800074
20
0.237906
30
0.231633
11
-0.551930
21
0.228617
31
0.424577
12
-0.737212
22
0.305363
32
0.269793
13
-0.737212
23
0.305363
33
0.269793
62
0
0
3DFACE
8
GEM
10
-0.608900
20
0.584682
30
0.231633
11
-0.733963
21
0.397512
31
0.231633
12
-0.737212
22
0.305363
32
0.269793
13
-0.737212
23
0.305363
33
0.269793
62
0
0
3DFACE
8
GEM
10
-0.608900
20
0.584682
30
0.231633
11
-0.737212
21
0.305363
31
0.269793
12
-0.551930
22
0.228617
32
0.424577
13
-0.551930
23
0.228617
33
0.424577
62
0
0
3DFACE
8
GEM
10
-0.397512
20
0.733963
30
0.231633
11
-0.584682
21
0.608900
31
0.231633
12
-0.228617
22
0.551930
32
0.424577
13
-0.228617
23
0.551930
33
0.424577
62
0
0
3DFACE
8
GEM
10
-0.397512
20
0.733963
30
0.231633
11
-0.228617
21
0.551930
31
0.424577
12
-0.305363
22
0.737212
32
0.269793
13
-0.305363
23
0.737212
33
0.269793
62
0
0
3DFACE
8
GEM
10
-0.017125
20
0.843990
30
0.231633
11
-0.237906
21
0.800074
31
0.231633
12
-0.305363
22
0.737212
32
0.269793
13
-0.305363
23
0.737212
33
0.269793
62
0
0
3DFACE
8
GEM
10
-0.017125
20
0.843990
30
0.231633
11
-0.305363
21
0.737212
31
0.269793
12
-0.228617
22
0.551930
32
0.424577
13
-0.228617
23
0.551930
33
0.424577
62
0
0
3DFACE
8
GEM
10
0.017125
20
0.843990
30
0.231633
11
-0.017125
21
0.843990
31
0.231633
12
-0.228617
22
0.551930
32
0.424577
13
-0.228617
23
0.551930
33
0.424577
62
0
0
3DFACE
8
GEM
10
0.017125
20
0.843990
30
0.231633
11
-0.228617
21
0.551930
31
0.424577
12
0.228617
22
0.551930
32
0.424577
13
0.228617
23
0.551930
33
0.424577
62
0
0
3DFACE
8
GEM
10
0.608900
20
0.584682
30
0.231633
11
0.584682
21
0.608900
31
0.231633
12
0.228617
22
0.551930
32
0.424577
13
0.228617
23
0.551930
33
0.424577
62
0
0
3DFACE
8
GEM
10
0.608900
20
0.584682
30
0.231633
11
0.228617
21
0.551930
31
0.424577
12
0.551930
22
0.228617
32
0.424577
13
0.551930
23
0.228617
33
0.424577
62
0
0
3DFACE
8
GEM
10
0.843990
20
-0.017125
30
0.231633
11
0.843990
21
0.017125
31
0.231633
12
0.551930
22
0.228617
32
0.424577
13
0.551930
23
0.228617
33
0.424577
62
0
0
3DFACE
8
GEM
10
0.843990
20
-0.017125
30
0.231633
11
0.551930
21
0.228617
31
0.424577
12
0.551930
22
-0.228617
32
0.424577
13
0.551930
23
-0.228617
33
0.424577
62
0
0
3DFACE
8
GEM
10
0.584682
20
-0.608900
30
0.231633
11
0.608900
21
-0.584682
31
0.231633
12
0.551930
22
-0.228617
32
0.424577
13
0.551930
23
-0.228617
33
0.424577
62
0
0
3DFACE
8
GEM
10
0.584682
20
-0.608900
30
0.231633
11
0.551930
21
-0.228617
31
0.424577
12
0.228617
22
-0.551930
32
0.424577
13
0.228617
23
-0.551930
33
0.424577
62
0
0
3DFACE
8
GEM
10
-0.017125
20
-0.843990
30
0.231633
11
0.017125
21
-0.843990
31
0.231633
12
0.228617
22
-0.551930
32
0.424577
13
0.228617
23
-0.551930
33
0.424577
62
0
0
3DFACE
8
GEM
10
-0.017125
20
-0.843990
30
0.231633
11
0.228617
21
-0.551930
31
0.424577
12
-0.228617
22
-0.551930
32
0.424577
13
-0.228617
23
-0.551930
33
0.424577
62
0
0
3DFACE
8
GEM
10
-0.608900
20
-0.584682
30
0.231633
11
-0.584682
21
-0.608900
31
0.231633
12
-0.228617
22
-0.551930
32
0.424577
13
-0.228617
23
-0.551930
33
0.424577
62
0
0
3DFACE
8
GEM
10
-0.608900
20
-0.584682
30
0.231633
11
-0.228617
21
-0.551930
31
0.424577
12
-0.551930
22
-0.228617
32
0.424577
13
-0.551930
23
-0.228617
33
0.424577
62
0
0
3DFACE
8
GEM
10
-0.843990
20
0.017125
30
0.231633
11
-0.843990
21
-0.017125
31
0.231633
12
-0.551930
22
-0.228617
32
0.424577
13
-0.551930
23
-0.228617
33
0.424577
62
0
0
3DFACE
8
GEM
10
-0.843990
20
0.017125
30
0.231633
11
-0.551930
21
-0.228617
31
0.424577
12
-0.551930
22
0.228617
32
0.424577
13
-0.551930
23
0.228617
33
0.424577
62
0
0
3DFACE
8
GEM
10
-0.584682
20
0.608900
30
0.231633
11
-0.608900
21
0.584682
31
0.231633
12
-0.551930
22
0.228617
32
0.424577
13
-0.551930
23
0.228617
33
0.424577
62
0
0
3DFACE
8
GEM
10
-0.584682
20
0.608900
30
0.231633
11
-0.551930
21
0.228617
31
0.424577
12
-0.228617
22
0.551930
32
0.424577
13
-0.228617
23
0.551930
33
0.424577
62
0
0
3DFACE
8
GEM
10
0.228617
20
0.551930
30
0.424577
11
-0.228617
21
0.551930
31
0.424577
12
-0.551930
22
0.228617
32
0.424577
13
-0.551930
23
0.228617
33
0.424577
62
0
0
3DFACE
8
GEM
10
0.228617
20
0.551930
30
0.424577
11
-0.551930
21
0.228617
31
0.424577
12
-0.551930
22
-0.228617
32
0.424577
13
-0.551930
23
-0.228617
33
0.424577
62
0
0
3DFACE
8
GEM
10
0.228617
20
0.551930
30
0.424577
11
-0.551930
21
-0.228617
31
0.424577
12
-0.228617
22
-0.551930
32
0.424577
13
-0.228617
23
-0.551930
33
0.424577
62
0
0
3DFACE
8
GEM
10
0.228617
20
0.551930
30
0.424577
11
-0.228617
21
-0.551930
31
0.424577
12
0.228617
22
-0.551930
32
0.424577
13
0.228617
23
-0.551930
33
0.424577
62
0
0
3DFACE
8
GEM
10
0.228617
20
0.551930
30
0.424577
11
0.228617
21
-0.551930
31
0.424577
12
0.551930
22
-0.228617
32
0.424577
13
0.551930
23
-0.228617
33
0.424577
62
0
0
3DFACE
8
GEM
10
0.228617
20
0.551930
30
0.424577
11
0.551930
21
-0.228617
31
0.424577
12
0.551930
22
0.228617
32
0.424577
13
0.551930
23
0.228617
33
0.424577
62
0
0
ENDSEC
0
EOF
